<?xml version="1.0" encoding="utf-8" standalone="no"?>
<!DOCTYPE svg PUBLIC "-//W3C//DTD SVG 1.1//EN"
  "http://www.w3.org/Graphics/SVG/1.1/DTD/svg11.dtd">
<svg xmlns:xlink="http://www.w3.org/1999/xlink" width="241.441525pt" height="131.143607pt" viewBox="0 0 241.441525 131.143607" xmlns="http://www.w3.org/2000/svg" version="1.1">
 <metadata>
  <rdf:RDF xmlns:dc="http://purl.org/dc/elements/1.1/" xmlns:cc="http://creativecommons.org/ns#" xmlns:rdf="http://www.w3.org/1999/02/22-rdf-syntax-ns#">
   <cc:Work>
    <dc:type rdf:resource="http://purl.org/dc/dcmitype/StillImage"/>
    <dc:date>2023-07-26T17:49:24.918911</dc:date>
    <dc:format>image/svg+xml</dc:format>
    <dc:creator>
     <cc:Agent>
      <dc:title>Matplotlib v3.7.2, https://matplotlib.org/</dc:title>
     </cc:Agent>
    </dc:creator>
   </cc:Work>
  </rdf:RDF>
 </metadata>
 <defs>
  <style type="text/css">*{stroke-linejoin: round; stroke-linecap: butt}</style>
 </defs>
 <g id="figure_1">
  <g id="patch_1">
   <path d="M 0 131.143607
L 241.441525 131.143607
L 241.441525 0
L 0 0
L 0 131.143607
z
" style="fill: none"/>
  </g>
  <g id="axes_1">
   <g id="patch_2">
    <path d="M 38.941525 76.5
L 234.241525 76.5
L 234.241525 7.2
L 38.941525 7.2
L 38.941525 76.5
z
" style="fill: none"/>
   </g>
   <g id="patch_3">
    <path d="M 47.818797 76.5
L 50.42976 76.5
L 50.42976 71.893968
L 47.818797 71.893968
z
" clip-path="url(#p80542b08d5)" style="fill: #1f77b4"/>
   </g>
   <g id="patch_4">
    <path d="M 50.42976 76.5
L 53.040723 76.5
L 53.040723 72.33448
L 50.42976 72.33448
z
" clip-path="url(#p80542b08d5)" style="fill: #d62728"/>
   </g>
   <g id="patch_5">
    <path d="M 53.040723 76.5
L 55.651685 76.5
L 55.651685 73.364334
L 53.040723 73.364334
z
" clip-path="url(#p80542b08d5)" style="fill: #e377c2"/>
   </g>
   <g id="patch_6">
    <path d="M 55.651685 76.5
L 58.262648 76.5
L 58.262648 73.524629
L 55.651685 73.524629
z
" clip-path="url(#p80542b08d5)" style="fill: #17becf"/>
   </g>
   <g id="patch_7">
    <path d="M 68.706498 76.5
L 71.317461 76.5
L 71.317461 70.549258
L 68.706498 70.549258
z
" clip-path="url(#p80542b08d5)" style="fill: #1f77b4"/>
   </g>
   <g id="patch_8">
    <path d="M 71.317461 76.5
L 73.928423 76.5
L 73.928423 70.549258
L 71.317461 70.549258
z
" clip-path="url(#p80542b08d5)" style="fill: #d62728"/>
   </g>
   <g id="patch_9">
    <path d="M 73.928423 76.5
L 76.539386 76.5
L 76.539386 72.632018
L 73.928423 72.632018
z
" clip-path="url(#p80542b08d5)" style="fill: #e377c2"/>
   </g>
   <g id="patch_10">
    <path d="M 76.539386 76.5
L 79.150348 76.5
L 79.150348 72.632018
L 76.539386 72.632018
z
" clip-path="url(#p80542b08d5)" style="fill: #17becf"/>
   </g>
   <g id="patch_11">
    <path d="M 89.594198 76.5
L 92.205161 76.5
L 92.205161 67.573887
L 89.594198 67.573887
z
" clip-path="url(#p80542b08d5)" style="fill: #1f77b4"/>
   </g>
   <g id="patch_12">
    <path d="M 92.205161 76.5
L 94.816124 76.5
L 94.816124 69.954184
L 92.205161 69.954184
z
" clip-path="url(#p80542b08d5)" style="fill: #d62728"/>
   </g>
   <g id="patch_13">
    <path d="M 94.816124 76.5
L 97.427086 76.5
L 97.427086 70.251721
L 94.816124 70.251721
z
" clip-path="url(#p80542b08d5)" style="fill: #e377c2"/>
   </g>
   <g id="patch_14">
    <path d="M 97.427086 76.5
L 100.038049 76.5
L 100.038049 72.33448
L 97.427086 72.33448
z
" clip-path="url(#p80542b08d5)" style="fill: #17becf"/>
   </g>
   <g id="patch_15">
    <path d="M 110.481899 76.5
L 113.092862 76.5
L 113.092862 67.008754
L 110.481899 67.008754
z
" clip-path="url(#p80542b08d5)" style="fill: #1f77b4"/>
   </g>
   <g id="patch_16">
    <path d="M 113.092862 76.5
L 115.703824 76.5
L 115.703824 66.27452
L 113.092862 66.27452
z
" clip-path="url(#p80542b08d5)" style="fill: #d62728"/>
   </g>
   <g id="patch_17">
    <path d="M 115.703824 76.5
L 118.314787 76.5
L 118.314787 69.017503
L 115.703824 69.017503
z
" clip-path="url(#p80542b08d5)" style="fill: #e377c2"/>
   </g>
   <g id="patch_18">
    <path d="M 118.314787 76.5
L 120.925749 76.5
L 120.925749 69.959597
L 118.314787 69.959597
z
" clip-path="url(#p80542b08d5)" style="fill: #17becf"/>
   </g>
   <g id="patch_19">
    <path d="M 131.3696 76.5
L 133.980562 76.5
L 133.980562 66.383738
L 131.3696 66.383738
z
" clip-path="url(#p80542b08d5)" style="fill: #1f77b4"/>
   </g>
   <g id="patch_20">
    <path d="M 133.980562 76.5
L 136.591525 76.5
L 136.591525 66.383738
L 133.980562 66.383738
z
" clip-path="url(#p80542b08d5)" style="fill: #d62728"/>
   </g>
   <g id="patch_21">
    <path d="M 136.591525 76.5
L 139.202487 76.5
L 139.202487 71.441869
L 136.591525 71.441869
z
" clip-path="url(#p80542b08d5)" style="fill: #e377c2"/>
   </g>
   <g id="patch_22">
    <path d="M 139.202487 76.5
L 141.81345 76.5
L 141.81345 71.441869
L 139.202487 71.441869
z
" clip-path="url(#p80542b08d5)" style="fill: #17becf"/>
   </g>
   <g id="patch_23">
    <path d="M 152.2573 76.5
L 154.868263 76.5
L 154.868263 32.246507
L 152.2573 32.246507
z
" clip-path="url(#p80542b08d5)" style="fill: #1f77b4"/>
   </g>
   <g id="patch_24">
    <path d="M 154.868263 76.5
L 157.479225 76.5
L 157.479225 54.482254
L 154.868263 54.482254
z
" clip-path="url(#p80542b08d5)" style="fill: #d62728"/>
   </g>
   <g id="patch_25">
    <path d="M 157.479225 76.5
L 160.090188 76.5
L 160.090188 53.480256
L 157.479225 53.480256
z
" clip-path="url(#p80542b08d5)" style="fill: #e377c2"/>
   </g>
   <g id="patch_26">
    <path d="M 160.090188 76.5
L 162.70115 76.5
L 162.70115 65.491127
L 160.090188 65.491127
z
" clip-path="url(#p80542b08d5)" style="fill: #17becf"/>
   </g>
   <g id="patch_27">
    <path d="M 173.145001 76.5
L 175.755963 76.5
L 175.755963 29.326857
L 173.145001 29.326857
z
" clip-path="url(#p80542b08d5)" style="fill: #1f77b4"/>
   </g>
   <g id="patch_28">
    <path d="M 175.755963 76.5
L 178.366926 76.5
L 178.366926 45.556141
L 175.755963 45.556141
z
" clip-path="url(#p80542b08d5)" style="fill: #d62728"/>
   </g>
   <g id="patch_29">
    <path d="M 178.366926 76.5
L 180.977888 76.5
L 180.977888 54.212215
L 178.366926 54.212215
z
" clip-path="url(#p80542b08d5)" style="fill: #e377c2"/>
   </g>
   <g id="patch_30">
    <path d="M 180.977888 76.5
L 183.588851 76.5
L 183.588851 61.02807
L 180.977888 61.02807
z
" clip-path="url(#p80542b08d5)" style="fill: #17becf"/>
   </g>
   <g id="patch_31">
    <path d="M 194.032701 76.5
L 196.643664 76.5
L 196.643664 15.21438
L 194.032701 15.21438
z
" clip-path="url(#p80542b08d5)" style="fill: #1f77b4"/>
   </g>
   <g id="patch_32">
    <path d="M 196.643664 76.5
L 199.254626 76.5
L 199.254626 52.697031
L 196.643664 52.697031
z
" clip-path="url(#p80542b08d5)" style="fill: #d62728"/>
   </g>
   <g id="patch_33">
    <path d="M 199.254626 76.5
L 201.865589 76.5
L 201.865589 45.739012
L 199.254626 45.739012
z
" clip-path="url(#p80542b08d5)" style="fill: #e377c2"/>
   </g>
   <g id="patch_34">
    <path d="M 201.865589 76.5
L 204.476551 76.5
L 204.476551 64.003441
L 201.865589 64.003441
z
" clip-path="url(#p80542b08d5)" style="fill: #17becf"/>
   </g>
   <g id="patch_35">
    <path d="M 214.920402 76.5
L 217.531364 76.5
L 217.531364 10.5
L 214.920402 10.5
z
" clip-path="url(#p80542b08d5)" style="fill: #1f77b4"/>
   </g>
   <g id="patch_36">
    <path d="M 217.531364 76.5
L 220.142327 76.5
L 220.142327 46.151215
L 217.531364 46.151215
z
" clip-path="url(#p80542b08d5)" style="fill: #d62728"/>
   </g>
   <g id="patch_37">
    <path d="M 220.142327 76.5
L 222.753289 76.5
L 222.753289 42.244633
L 220.142327 42.244633
z
" clip-path="url(#p80542b08d5)" style="fill: #e377c2"/>
   </g>
   <g id="patch_38">
    <path d="M 222.753289 76.5
L 225.364252 76.5
L 225.364252 61.325607
L 222.753289 61.325607
z
" clip-path="url(#p80542b08d5)" style="fill: #17becf"/>
   </g>
   <g id="matplotlib.axis_1">
    <g id="xtick_1">
     <g id="line2d_1">
      <defs>
       <path id="m47ec0160f8" d="M 0 0
L 0 3.5
" style="stroke: #000000; stroke-width: 0.8"/>
      </defs>
      <g>
       <use xlink:href="#m47ec0160f8" x="53.040723" y="76.5" style="stroke: #000000; stroke-width: 0.8"/>
      </g>
     </g>
     <g id="text_1">
      <!-- toffoli_n3 -->
      <g transform="translate(19.295634 108.415116) rotate(-30) scale(0.1 -0.1)">
       <defs>
        <path id="CMSS17-74" d="M 1069 2368
L 1901 2368
L 1901 2737
L 1069 2737
L 1069 3520
L 614 3520
L 614 2737
L 109 2737
L 109 2368
L 602 2368
L 602 749
C 602 384 685 -64 1107 -64
C 1427 -64 1722 25 2003 172
L 1901 548
C 1747 414 1562 337 1363 337
C 1082 337 1069 696 1069 856
L 1069 2368
z
" transform="scale(0.015625)"/>
        <path id="CMSS17-6f" d="M 2829 1356
C 2829 2176 2221 2816 1504 2816
C 768 2816 173 2157 173 1356
C 173 544 787 -64 1498 -64
C 2227 -64 2829 563 2829 1356
z
M 1504 337
C 1050 337 659 709 659 1408
C 659 2151 1114 2427 1498 2427
C 1914 2427 2342 2126 2342 1408
C 2342 683 1926 337 1504 337
z
" transform="scale(0.015625)"/>
        <path id="CMSS17-b" d="M 1075 2368
L 1734 2368
L 1734 2737
L 1062 2737
L 1062 3559
C 1062 4001 1395 4092 1613 4092
C 1837 4092 2022 4034 2093 4009
L 2093 4429
C 2022 4442 1830 4480 1619 4480
C 1030 4480 602 3999 602 3359
L 602 2737
L 160 2737
L 160 2368
L 602 2368
L 602 0
L 1075 0
L 1075 2368
z
M 2739 2368
L 3398 2368
L 3398 2737
L 2726 2737
L 2726 3559
C 2726 4001 3059 4092 3277 4092
C 3501 4092 3686 4034 3757 4009
L 3757 4429
C 3686 4442 3494 4480 3283 4480
C 2694 4480 2266 4001 2266 3363
L 2266 0
L 2739 0
L 2739 2368
z
" transform="scale(0.015625)"/>
        <path id="CMSS17-6c" d="M 947 4416
L 474 4416
L 474 0
L 947 0
L 947 4416
z
" transform="scale(0.015625)"/>
        <path id="CMSS17-69" d="M 979 4183
L 442 4183
L 442 3648
L 979 3648
L 979 4183
z
M 947 2739
L 474 2739
L 474 0
L 947 0
L 947 2739
z
" transform="scale(0.015625)"/>
        <path id="CMSS17-6e" d="M 2618 1877
C 2618 2283 2522 2816 1798 2816
C 1389 2816 1120 2606 941 2389
L 941 2758
L 474 2758
L 474 0
L 960 0
L 960 1559
C 960 1964 1114 2428 1549 2428
C 2112 2428 2131 2048 2131 1829
L 2131 0
L 2618 0
L 2618 1877
z
" transform="scale(0.015625)"/>
        <path id="CMSS17-33" d="M 1005 2025
L 1440 2025
C 2042 2025 2214 1507 2214 1146
C 2214 653 1933 267 1472 267
C 1114 267 608 444 320 912
C 275 691 275 678 250 526
C 550 88 1037 -128 1485 -128
C 2214 -128 2752 473 2752 1138
C 2752 1638 2400 2057 1920 2215
C 2304 2424 2586 2816 2586 3273
C 2586 3805 2093 4229 1491 4229
C 941 4229 512 3892 333 3530
C 378 3468 493 3284 550 3189
C 691 3562 1056 3840 1485 3840
C 1843 3840 2080 3607 2080 3271
C 2080 2923 1856 2543 1478 2455
C 1453 2455 1056 2417 1005 2411
L 1005 2025
z
" transform="scale(0.015625)"/>
       </defs>
       <use xlink:href="#CMSS17-74" transform="scale(0.996264)"/>
       <use xlink:href="#CMSS17-6f" transform="translate(33.831567 0) scale(0.996264)"/>
       <use xlink:href="#CMSS17-b" transform="translate(80.67519 0) scale(0.996264)"/>
       <use xlink:href="#CMSS17-6f" transform="translate(135.32616 0) scale(0.996264)"/>
       <use xlink:href="#CMSS17-6c" transform="translate(182.169784 0) scale(0.996264)"/>
       <use xlink:href="#CMSS17-69" transform="translate(204.350507 0) scale(0.996264)"/>
       <use xlink:href="#CMSS17-6e" transform="translate(260.258725 0) scale(0.996264)"/>
       <use xlink:href="#CMSS17-33" transform="translate(308.463668 0) scale(0.996264)"/>
       <path d="M 232.152241 0
L 260.258725 0
L 260.258725 0.3985
L 232.152241 0.3985
L 232.152241 0
z
"/>
      </g>
     </g>
    </g>
    <g id="xtick_2">
     <g id="line2d_2">
      <g>
       <use xlink:href="#m47ec0160f8" x="73.928423" y="76.5" style="stroke: #000000; stroke-width: 0.8"/>
      </g>
     </g>
     <g id="text_2">
      <!-- adder_n4 -->
      <g transform="translate(41.237861 107.806285) rotate(-30) scale(0.1 -0.1)">
       <defs>
        <path id="CMSS17-61" d="M 2406 1791
C 2406 2392 1978 2808 1402 2808
C 1120 2808 813 2757 461 2553
L 499 2135
C 659 2248 934 2432 1395 2432
C 1722 2432 1920 2180 1920 1782
L 1920 1536
C 896 1536 256 1238 256 726
C 256 461 416 -64 947 -64
C 1043 -64 1562 -64 1933 217
L 1933 -19
L 2406 -19
L 2406 1791
z
M 1920 816
C 1920 701 1920 548 1728 434
C 1562 325 1350 325 1261 325
C 941 325 723 511 723 744
C 723 1211 1722 1211 1920 1211
L 1920 816
z
" transform="scale(0.015625)"/>
        <path id="CMSS17-64" d="M 2611 4416
L 2138 4416
L 2138 2438
C 1939 2603 1613 2756 1254 2756
C 672 2756 211 2131 211 1347
C 211 562 666 -64 1235 -64
C 1677 -64 1971 172 2125 306
L 2125 -13
L 2611 -13
L 2611 4416
z
M 2125 836
C 2125 747 2125 653 1926 482
C 1798 375 1645 325 1498 325
C 1152 325 698 576 698 1340
C 698 2134 1210 2368 1562 2368
C 1798 2368 1990 2254 2125 2065
L 2125 836
z
" transform="scale(0.015625)"/>
        <path id="CMSS17-65" d="M 2502 1377
C 2502 1590 2490 2003 2285 2345
C 2061 2713 1696 2816 1421 2816
C 755 2816 192 2188 192 1375
C 192 582 774 -64 1510 -64
C 1798 -64 2150 19 2470 248
C 2470 274 2458 414 2451 420
C 2451 433 2432 630 2432 656
C 2125 407 1773 325 1517 325
C 1107 325 666 667 646 1377
L 2502 1377
z
M 698 1728
C 781 2084 1062 2421 1421 2421
C 1517 2421 1965 2421 2080 1728
L 698 1728
z
" transform="scale(0.015625)"/>
        <path id="CMSS17-72" d="M 954 1363
C 954 1965 1395 2368 1958 2368
L 1958 2789
C 1549 2789 1165 2585 934 2253
L 934 2758
L 480 2758
L 480 0
L 954 0
L 954 1363
z
" transform="scale(0.015625)"/>
        <path id="CMSS17-34" d="M 2253 1088
L 2835 1088
L 2835 1477
L 2253 1477
L 2253 4192
L 1690 4192
L 166 1477
L 166 1088
L 1747 1088
L 1747 0
L 2253 0
L 2253 1088
z
M 659 1477
C 1030 2127 1766 3439 1766 3885
L 1766 1477
L 659 1477
z
" transform="scale(0.015625)"/>
       </defs>
       <use xlink:href="#CMSS17-61" transform="scale(0.996264)"/>
       <use xlink:href="#CMSS17-64" transform="translate(44.921921 0) scale(0.996264)"/>
       <use xlink:href="#CMSS17-64" transform="translate(93.126864 0) scale(0.996264)"/>
       <use xlink:href="#CMSS17-65" transform="translate(141.331807 0) scale(0.996264)"/>
       <use xlink:href="#CMSS17-72" transform="translate(182.970629 0) scale(0.996264)"/>
       <use xlink:href="#CMSS17-6e" transform="translate(248.607897 0) scale(0.996264)"/>
       <use xlink:href="#CMSS17-34" transform="translate(296.81284 0) scale(0.996264)"/>
       <path d="M 220.501413 0
L 248.607897 0
L 248.607897 0.3985
L 220.501413 0.3985
L 220.501413 0
z
"/>
      </g>
     </g>
    </g>
    <g id="xtick_3">
     <g id="line2d_3">
      <g>
       <use xlink:href="#m47ec0160f8" x="94.816124" y="76.5" style="stroke: #000000; stroke-width: 0.8"/>
      </g>
     </g>
     <g id="text_3">
      <!-- fredkin_n3 -->
      <g transform="translate(57.35623 110.55986) rotate(-30) scale(0.1 -0.1)">
       <defs>
        <path id="CMSS17-66" d="M 1075 2368
L 1722 2368
L 1722 2737
L 1062 2737
L 1062 3559
C 1062 4014 1408 4092 1606 4092
C 1670 4092 1850 4092 2080 4009
L 2080 4429
C 1933 4461 1754 4480 1613 4480
C 1018 4480 602 3993 602 3359
L 602 2737
L 160 2737
L 160 2368
L 602 2368
L 602 0
L 1075 0
L 1075 2368
z
" transform="scale(0.015625)"/>
        <path id="CMSS17-6b" d="M 1696 1688
L 2688 2739
L 2074 2739
L 954 1554
L 954 4416
L 480 4416
L 480 0
L 947 0
L 947 892
L 1376 1344
L 2278 0
L 2822 0
L 1696 1688
z
" transform="scale(0.015625)"/>
       </defs>
       <use xlink:href="#CMSS17-66" transform="scale(0.996264)"/>
       <use xlink:href="#CMSS17-72" transform="translate(28.626659 0) scale(0.996264)"/>
       <use xlink:href="#CMSS17-65" transform="translate(60.536431 0) scale(0.996264)"/>
       <use xlink:href="#CMSS17-64" transform="translate(102.175253 0) scale(0.996264)"/>
       <use xlink:href="#CMSS17-6b" transform="translate(150.380197 0) scale(0.996264)"/>
       <use xlink:href="#CMSS17-69" transform="translate(195.982686 0) scale(0.996264)"/>
       <use xlink:href="#CMSS17-6e" transform="translate(218.163409 0) scale(0.996264)"/>
       <use xlink:href="#CMSS17-6e" transform="translate(300.095847 0) scale(0.996264)"/>
       <use xlink:href="#CMSS17-33" transform="translate(348.30079 0) scale(0.996264)"/>
       <path d="M 271.989363 0
L 300.095847 0
L 300.095847 0.3985
L 271.989363 0.3985
L 271.989363 0
z
"/>
      </g>
     </g>
    </g>
    <g id="xtick_4">
     <g id="line2d_4">
      <g>
       <use xlink:href="#m47ec0160f8" x="115.703824" y="76.5" style="stroke: #000000; stroke-width: 0.8"/>
      </g>
     </g>
     <g id="text_4">
      <!-- dj_n8 -->
      <g transform="translate(96.098941 100.251265) rotate(-30) scale(0.1 -0.1)">
       <defs>
        <path id="CMSS17-6a" d="M 1114 4224
L 576 4224
L 576 3689
L 1114 3689
L 1114 4224
z
M -371 -1064
C -166 -1191 83 -1280 352 -1280
C 755 -1280 1114 -935 1114 -366
L 1114 2767
L 640 2767
L 640 -425
C 640 -815 346 -873 179 -873
C 38 -873 -128 -828 -275 -675
L -371 -1064
z
" transform="scale(0.015625)"/>
        <path id="CMSS17-38" d="M 1933 2222
C 2419 2380 2669 2760 2669 3134
C 2669 3722 2157 4229 1504 4229
C 826 4229 333 3708 333 3144
C 333 2780 576 2403 1069 2241
C 442 1997 250 1512 250 1149
C 250 446 819 -128 1498 -128
C 2202 -128 2752 455 2752 1138
C 2752 1557 2502 2000 1933 2222
z
M 1504 2432
C 1075 2432 787 2712 787 3136
C 787 3566 1075 3840 1504 3840
C 1901 3840 2214 3591 2214 3136
C 2214 2687 1907 2432 1504 2432
z
M 1504 267
C 1139 267 749 517 749 1156
C 749 1813 1184 2043 1498 2043
C 1843 2043 2253 1800 2253 1156
C 2253 491 1830 267 1504 267
z
" transform="scale(0.015625)"/>
       </defs>
       <use xlink:href="#CMSS17-64" transform="scale(0.996264)"/>
       <use xlink:href="#CMSS17-6a" transform="translate(48.204943 0) scale(0.996264)"/>
       <use xlink:href="#CMSS17-6e" transform="translate(106.715524 0) scale(0.996264)"/>
       <use xlink:href="#CMSS17-38" transform="translate(154.920467 0) scale(0.996264)"/>
       <path d="M 78.60904 0
L 106.715524 0
L 106.715524 0.3985
L 78.60904 0.3985
L 78.60904 0
z
"/>
      </g>
     </g>
    </g>
    <g id="xtick_5">
     <g id="line2d_5">
      <g>
       <use xlink:href="#m47ec0160f8" x="136.591525" y="76.5" style="stroke: #000000; stroke-width: 0.8"/>
      </g>
     </g>
     <g id="text_5">
      <!-- qaoa_n8 -->
      <g transform="translate(106.681057 106.201197) rotate(-30) scale(0.1 -0.1)">
       <defs>
        <path id="CMSS17-71" d="M 2611 2816
L 2138 2816
L 2138 2428
C 2112 2460 1818 2816 1318 2816
C 736 2816 211 2228 211 1399
C 211 633 653 -5 1229 -5
C 1498 -5 1837 91 2125 365
L 2125 -1216
L 2611 -1216
L 2611 2816
z
M 2138 914
C 2138 832 2138 718 1939 554
C 1888 510 1747 384 1504 384
C 1050 384 698 850 698 1399
C 698 2011 1126 2415 1562 2415
C 1926 2415 2138 2061 2138 1797
L 2138 914
z
" transform="scale(0.015625)"/>
       </defs>
       <use xlink:href="#CMSS17-71" transform="scale(0.996264)"/>
       <use xlink:href="#CMSS17-61" transform="translate(48.204943 0) scale(0.996264)"/>
       <use xlink:href="#CMSS17-6f" transform="translate(93.126864 0) scale(0.996264)"/>
       <use xlink:href="#CMSS17-61" transform="translate(139.970487 0) scale(0.996264)"/>
       <use xlink:href="#CMSS17-6e" transform="translate(218.619903 0) scale(0.996264)"/>
       <use xlink:href="#CMSS17-38" transform="translate(266.824846 0) scale(0.996264)"/>
       <path d="M 190.513419 0
L 218.619903 0
L 218.619903 0.3985
L 190.513419 0.3985
L 190.513419 0
z
"/>
      </g>
     </g>
    </g>
    <g id="xtick_6">
     <g id="line2d_6">
      <g>
       <use xlink:href="#m47ec0160f8" x="157.479225" y="76.5" style="stroke: #000000; stroke-width: 0.8"/>
      </g>
     </g>
     <g id="text_6">
      <!-- qft_n8 -->
      <g transform="translate(134.423169 102.243801) rotate(-30) scale(0.1 -0.1)">
       <use xlink:href="#CMSS17-71" transform="scale(0.996264)"/>
       <use xlink:href="#CMSS17-66" transform="translate(48.204943 0) scale(0.996264)"/>
       <use xlink:href="#CMSS17-74" transform="translate(76.831602 0) scale(0.996264)"/>
       <use xlink:href="#CMSS17-6e" transform="translate(144.390664 0) scale(0.996264)"/>
       <use xlink:href="#CMSS17-38" transform="translate(192.595607 0) scale(0.996264)"/>
       <path d="M 116.28418 0
L 144.390664 0
L 144.390664 0.3985
L 116.28418 0.3985
L 116.28418 0
z
"/>
      </g>
     </g>
    </g>
    <g id="xtick_7">
     <g id="line2d_7">
      <g>
       <use xlink:href="#m47ec0160f8" x="178.366926" y="76.5" style="stroke: #000000; stroke-width: 0.8"/>
      </g>
     </g>
     <g id="text_7">
      <!-- ae_n8 -->
      <g transform="translate(157.539752 100.956954) rotate(-30) scale(0.1 -0.1)">
       <use xlink:href="#CMSS17-61" transform="scale(0.996264)"/>
       <use xlink:href="#CMSS17-65" transform="translate(44.921921 0) scale(0.996264)"/>
       <use xlink:href="#CMSS17-6e" transform="translate(120.288238 0) scale(0.996264)"/>
       <use xlink:href="#CMSS17-38" transform="translate(168.493181 0) scale(0.996264)"/>
       <path d="M 92.181754 0
L 120.288238 0
L 120.288238 0.3985
L 92.181754 0.3985
L 92.181754 0
z
"/>
      </g>
     </g>
    </g>
    <g id="xtick_8">
     <g id="line2d_8">
      <g>
       <use xlink:href="#m47ec0160f8" x="199.254626" y="76.5" style="stroke: #000000; stroke-width: 0.8"/>
      </g>
     </g>
     <g id="text_8">
      <!-- qftentangled_n8 -->
      <g transform="translate(141.519169 122.265962) rotate(-30) scale(0.1 -0.1)">
       <defs>
        <path id="CMSS17-67" d="M 2848 2808
C 2483 2808 2170 2738 1914 2617
C 1702 2777 1485 2808 1338 2808
C 781 2808 358 2349 358 1814
C 358 1468 550 1207 563 1195
C 448 1035 384 863 384 672
C 384 448 474 289 544 200
C 211 -3 166 -314 166 -435
C 166 -898 749 -1280 1498 -1280
C 2253 -1280 2835 -898 2835 -428
C 2835 448 1856 448 1587 448
L 1069 448
C 973 448 717 448 717 791
C 717 921 774 1004 781 1010
C 877 940 1075 832 1338 832
C 1869 832 2310 1278 2310 1827
C 2310 2132 2170 2355 2112 2432
L 2131 2432
C 2150 2432 2419 2432 2515 2432
C 2720 2432 2739 2429 2918 2419
L 2848 2808
z
M 1338 1182
C 1120 1182 813 1315 813 1823
C 813 2375 1165 2464 1331 2464
C 1549 2464 1856 2331 1856 1823
C 1856 1271 1504 1182 1338 1182
z
M 1581 -10
C 1734 -10 2381 -10 2381 -442
C 2381 -714 1984 -929 1504 -929
C 1018 -929 621 -720 621 -435
C 621 -403 621 -10 1062 -10
L 1581 -10
z
" transform="scale(0.015625)"/>
       </defs>
       <use xlink:href="#CMSS17-71" transform="scale(0.996264)"/>
       <use xlink:href="#CMSS17-66" transform="translate(48.204943 0) scale(0.996264)"/>
       <use xlink:href="#CMSS17-74" transform="translate(76.831602 0) scale(0.996264)"/>
       <use xlink:href="#CMSS17-65" transform="translate(110.663169 0) scale(0.996264)"/>
       <use xlink:href="#CMSS17-6e" transform="translate(152.301991 0) scale(0.996264)"/>
       <use xlink:href="#CMSS17-74" transform="translate(200.506934 0) scale(0.996264)"/>
       <use xlink:href="#CMSS17-61" transform="translate(234.338501 0) scale(0.996264)"/>
       <use xlink:href="#CMSS17-6e" transform="translate(279.260421 0) scale(0.996264)"/>
       <use xlink:href="#CMSS17-67" transform="translate(327.465364 0) scale(0.996264)"/>
       <use xlink:href="#CMSS17-6c" transform="translate(374.308988 0) scale(0.996264)"/>
       <use xlink:href="#CMSS17-65" transform="translate(396.489711 0) scale(0.996264)"/>
       <use xlink:href="#CMSS17-64" transform="translate(438.128533 0) scale(0.996264)"/>
       <use xlink:href="#CMSS17-6e" transform="translate(520.060971 0) scale(0.996264)"/>
       <use xlink:href="#CMSS17-38" transform="translate(568.265914 0) scale(0.996264)"/>
       <path d="M 491.954487 0
L 520.060971 0
L 520.060971 0.3985
L 491.954487 0.3985
L 491.954487 0
z
"/>
      </g>
     </g>
    </g>
    <g id="xtick_9">
     <g id="line2d_9">
      <g>
       <use xlink:href="#m47ec0160f8" x="220.142327" y="76.5" style="stroke: #000000; stroke-width: 0.8"/>
      </g>
     </g>
     <g id="text_9">
      <!-- qpeexact_n8 -->
      <g transform="translate(175.396667 114.766299) rotate(-30) scale(0.1 -0.1)">
       <defs>
        <path id="CMSS17-70" d="M 966 333
C 1178 129 1466 -5 1773 -5
C 2368 -5 2880 603 2880 1412
C 2880 2159 2496 2816 1946 2816
C 1626 2816 1242 2702 954 2472
L 954 2765
L 480 2765
L 480 -1216
L 966 -1216
L 966 333
z
M 966 2100
C 1018 2176 1235 2415 1587 2415
C 2035 2415 2394 1960 2394 1412
C 2394 787 1958 384 1530 384
C 1402 384 1267 415 1139 523
C 966 674 966 768 966 857
L 966 2100
z
" transform="scale(0.015625)"/>
        <path id="CMSS17-78" d="M 1587 1414
L 2656 2739
L 2099 2739
L 1363 1777
L 602 2739
L 32 2739
L 1139 1414
L 0 0
L 563 0
L 1363 1121
L 2195 0
L 2758 0
L 1587 1414
z
" transform="scale(0.015625)"/>
        <path id="CMSS17-63" d="M 2464 2541
C 2464 2585 2170 2714 2093 2739
C 1882 2816 1613 2816 1542 2816
C 710 2816 211 2093 211 1363
C 211 595 768 -64 1517 -64
C 1946 -64 2253 76 2502 242
L 2464 664
C 2189 453 1869 337 1523 337
C 1024 337 698 774 698 1369
C 698 1831 909 2414 1549 2414
C 1901 2414 2099 2343 2394 2145
L 2464 2541
z
" transform="scale(0.015625)"/>
       </defs>
       <use xlink:href="#CMSS17-71" transform="scale(0.996264)"/>
       <use xlink:href="#CMSS17-70" transform="translate(48.204943 0) scale(0.996264)"/>
       <use xlink:href="#CMSS17-65" transform="translate(99.012325 0) scale(0.996264)"/>
       <use xlink:href="#CMSS17-65" transform="translate(140.651147 0) scale(0.996264)"/>
       <use xlink:href="#CMSS17-78" transform="translate(182.289969 0) scale(0.996264)"/>
       <use xlink:href="#CMSS17-61" transform="translate(225.290111 0) scale(0.996264)"/>
       <use xlink:href="#CMSS17-63" transform="translate(270.212031 0) scale(0.996264)"/>
       <use xlink:href="#CMSS17-74" transform="translate(311.850853 0) scale(0.996264)"/>
       <use xlink:href="#CMSS17-6e" transform="translate(379.409915 0) scale(0.996264)"/>
       <use xlink:href="#CMSS17-38" transform="translate(427.614859 0) scale(0.996264)"/>
       <path d="M 351.303431 0
L 379.409915 0
L 379.409915 0.3985
L 351.303431 0.3985
L 351.303431 0
z
"/>
      </g>
     </g>
    </g>
   </g>
   <g id="matplotlib.axis_2">
    <g id="ytick_1">
     <g id="line2d_10">
      <defs>
       <path id="m0aca211be3" d="M 0 0
L -3.5 0
" style="stroke: #000000; stroke-width: 0.8"/>
      </defs>
      <g>
       <use xlink:href="#m0aca211be3" x="38.941525" y="76.5" style="stroke: #000000; stroke-width: 0.8"/>
      </g>
     </g>
     <g id="text_10">
      <!-- $\mathdefault{0}$ -->
      <g transform="translate(25.113036 81.342938) scale(0.14 -0.14)">
       <defs>
        <path id="CMR17-30" d="M 2688 2025
C 2688 2416 2682 3080 2413 3591
C 2176 4039 1798 4198 1466 4198
C 1158 4198 768 4058 525 3597
C 269 3118 243 2524 243 2025
C 243 1661 250 1106 448 619
C 723 -39 1216 -128 1466 -128
C 1760 -128 2208 -7 2470 600
C 2662 1042 2688 1559 2688 2025
z
M 1466 -26
C 1056 -26 813 325 723 812
C 653 1188 653 1738 653 2096
C 653 2588 653 2997 736 3387
C 858 3929 1216 4096 1466 4096
C 1728 4096 2067 3923 2189 3400
C 2272 3036 2278 2607 2278 2096
C 2278 1680 2278 1169 2202 792
C 2067 95 1690 -26 1466 -26
z
" transform="scale(0.015625)"/>
       </defs>
       <use xlink:href="#CMR17-30" transform="scale(0.996264)"/>
      </g>
     </g>
    </g>
    <g id="ytick_2">
     <g id="line2d_11">
      <g>
       <use xlink:href="#m0aca211be3" x="38.941525" y="52.697031" style="stroke: #000000; stroke-width: 0.8"/>
      </g>
     </g>
     <g id="text_11">
      <!-- $\mathdefault{40}$ -->
      <g transform="translate(18.284547 57.53997) scale(0.14 -0.14)">
       <defs>
        <path id="CMR17-34" d="M 2150 4122
C 2150 4256 2144 4256 2029 4256
L 128 1254
L 128 1088
L 1779 1088
L 1779 457
C 1779 224 1766 160 1318 160
L 1197 160
L 1197 0
C 1402 0 1747 0 1965 0
C 2182 0 2528 0 2733 0
L 2733 160
L 2611 160
C 2163 160 2150 224 2150 457
L 2150 1088
L 2803 1088
L 2803 1254
L 2150 1254
L 2150 4122
z
M 1798 3703
L 1798 1254
L 256 1254
L 1798 3703
z
" transform="scale(0.015625)"/>
       </defs>
       <use xlink:href="#CMR17-34" transform="scale(0.996264)"/>
       <use xlink:href="#CMR17-30" transform="translate(45.690477 0) scale(0.996264)"/>
      </g>
     </g>
    </g>
    <g id="ytick_3">
     <g id="line2d_12">
      <g>
       <use xlink:href="#m0aca211be3" x="38.941525" y="28.894063" style="stroke: #000000; stroke-width: 0.8"/>
      </g>
     </g>
     <g id="text_12">
      <!-- $\mathdefault{80}$ -->
      <g transform="translate(18.284547 33.737001) scale(0.14 -0.14)">
       <defs>
        <path id="CMR17-38" d="M 1741 2264
C 2144 2467 2554 2773 2554 3263
C 2554 3841 1990 4179 1472 4179
C 890 4179 378 3759 378 3180
C 378 3021 416 2747 666 2505
C 730 2442 998 2251 1171 2130
C 883 1983 211 1634 211 934
C 211 279 838 -128 1459 -128
C 2144 -128 2720 362 2720 1010
C 2720 1590 2330 1857 2074 2029
L 1741 2264
z
M 902 2822
C 851 2854 595 3051 595 3351
C 595 3739 998 4032 1459 4032
C 1965 4032 2336 3676 2336 3262
C 2336 2669 1670 2331 1638 2331
C 1632 2331 1626 2331 1574 2370
L 902 2822
z
M 2080 1519
C 2176 1449 2483 1240 2483 851
C 2483 381 2010 25 1472 25
C 890 25 448 438 448 940
C 448 1443 838 1862 1280 2060
L 2080 1519
z
" transform="scale(0.015625)"/>
       </defs>
       <use xlink:href="#CMR17-38" transform="scale(0.996264)"/>
       <use xlink:href="#CMR17-30" transform="translate(45.690477 0) scale(0.996264)"/>
      </g>
     </g>
    </g>
    <g id="text_13">
     <!-- Average Depth -->
     <g transform="translate(12.734802 68.237527) rotate(-90) scale(0.08 -0.08)">
      <defs>
       <path id="CMSS17-41" d="M 2272 4416
L 1722 4416
L 166 0
L 653 0
L 1101 1280
L 2816 1280
L 3270 0
L 3827 0
L 2272 4416
z
M 2694 1637
L 1222 1637
C 1530 2528 1914 3638 1958 3925
L 1965 3925
C 2010 3663 2138 3281 2246 2956
L 2694 1637
z
" transform="scale(0.015625)"/>
       <path id="CMSS17-76" d="M 2675 2752
L 2176 2752
L 1747 1556
C 1613 1165 1421 627 1389 352
L 1382 352
C 1370 468 1318 634 1286 749
C 1248 890 1197 1056 1158 1172
L 595 2752
L 83 2752
L 1094 0
L 1664 0
L 2675 2752
z
" transform="scale(0.015625)"/>
       <path id="CMSS17-44" d="M 570 4416
L 570 0
L 2144 0
C 3194 0 4000 980 4000 2170
C 4000 3398 3194 4416 2144 4416
L 570 4416
z
M 1094 357
L 1094 4059
L 2003 4059
C 2861 4059 3475 3277 3475 2170
C 3475 1107 2867 357 2003 357
L 1094 357
z
" transform="scale(0.015625)"/>
       <path id="CMSS17-68" d="M 2618 1891
C 2618 2292 2522 2820 1798 2820
C 1395 2820 1133 2623 947 2407
L 947 4448
L 474 4448
L 474 32
L 960 32
L 960 1573
C 960 1973 1114 2432 1549 2432
C 2112 2432 2131 2056 2131 1839
L 2131 32
L 2618 32
L 2618 1891
z
" transform="scale(0.015625)"/>
      </defs>
      <use xlink:href="#CMSS17-41" transform="scale(0.996264)"/>
      <use xlink:href="#CMSS17-76" transform="translate(62.217855 0) scale(0.996264)"/>
      <use xlink:href="#CMSS17-65" transform="translate(105.217997 0) scale(0.996264)"/>
      <use xlink:href="#CMSS17-72" transform="translate(146.856819 0) scale(0.996264)"/>
      <use xlink:href="#CMSS17-61" transform="translate(178.766591 0) scale(0.996264)"/>
      <use xlink:href="#CMSS17-67" transform="translate(223.688512 0) scale(0.996264)"/>
      <use xlink:href="#CMSS17-65" transform="translate(270.532135 0) scale(0.996264)"/>
      <use xlink:href="#CMSS17-44" transform="translate(343.40007 0) scale(0.996264)"/>
      <use xlink:href="#CMSS17-65" transform="translate(410.942912 0) scale(0.996264)"/>
      <use xlink:href="#CMSS17-70" transform="translate(452.581734 0) scale(0.996264)"/>
      <use xlink:href="#CMSS17-74" transform="translate(500.786677 0) scale(0.996264)"/>
      <use xlink:href="#CMSS17-68" transform="translate(534.618244 0) scale(0.996264)"/>
     </g>
    </g>
   </g>
   <g id="patch_39">
    <path d="M 38.941525 76.5
L 38.941525 7.2
" style="fill: none; stroke: #000000; stroke-width: 0.8; stroke-linejoin: miter; stroke-linecap: square"/>
   </g>
   <g id="patch_40">
    <path d="M 234.241525 76.5
L 234.241525 7.2
" style="fill: none; stroke: #000000; stroke-width: 0.8; stroke-linejoin: miter; stroke-linecap: square"/>
   </g>
   <g id="patch_41">
    <path d="M 38.941525 76.5
L 234.241525 76.5
" style="fill: none; stroke: #000000; stroke-width: 0.8; stroke-linejoin: miter; stroke-linecap: square"/>
   </g>
   <g id="patch_42">
    <path d="M 38.941525 7.2
L 234.241525 7.2
" style="fill: none; stroke: #000000; stroke-width: 0.8; stroke-linejoin: miter; stroke-linecap: square"/>
   </g>
  </g>
 </g>
 <defs>
  <clipPath id="p80542b08d5">
   <rect x="38.941525" y="7.2" width="195.3" height="69.3"/>
  </clipPath>
 </defs>
</svg>
