<?xml version="1.0" encoding="utf-8" standalone="no"?>
<!DOCTYPE svg PUBLIC "-//W3C//DTD SVG 1.1//EN"
  "http://www.w3.org/Graphics/SVG/1.1/DTD/svg11.dtd">
<svg xmlns:xlink="http://www.w3.org/1999/xlink" width="241.441525pt" height="124.285977pt" viewBox="0 0 241.441525 124.285977" xmlns="http://www.w3.org/2000/svg" version="1.1">
 <metadata>
  <rdf:RDF xmlns:dc="http://purl.org/dc/elements/1.1/" xmlns:cc="http://creativecommons.org/ns#" xmlns:rdf="http://www.w3.org/1999/02/22-rdf-syntax-ns#">
   <cc:Work>
    <dc:type rdf:resource="http://purl.org/dc/dcmitype/StillImage"/>
    <dc:date>2023-07-07T17:34:52.559289</dc:date>
    <dc:format>image/svg+xml</dc:format>
    <dc:creator>
     <cc:Agent>
      <dc:title>Matplotlib v3.7.2, https://matplotlib.org/</dc:title>
     </cc:Agent>
    </dc:creator>
   </cc:Work>
  </rdf:RDF>
 </metadata>
 <defs>
  <style type="text/css">*{stroke-linejoin: round; stroke-linecap: butt}</style>
 </defs>
 <g id="figure_1">
  <g id="patch_1">
   <path d="M 0 124.285977
L 241.441525 124.285977
L 241.441525 -0
L 0 -0
L 0 124.285977
z
" style="fill: none"/>
  </g>
  <g id="axes_1">
   <g id="patch_2">
    <path d="M 38.941525 76.5
L 234.241525 76.5
L 234.241525 7.2
L 38.941525 7.2
L 38.941525 76.5
z
" style="fill: none"/>
   </g>
   <g id="patch_3">
    <path d="M 47.818797 76.5
L 51.623343 76.5
L 51.623343 70.051201
L 47.818797 70.051201
z
" clip-path="url(#p4af005cee8)" style="fill: #1f77b4"/>
   </g>
   <g id="PathCollection_1">
    <defs>
     <path id="m7a2c118a1a" d="M 0 -1.581139
L -0.354988 -0.488599
L -1.503752 -0.488599
L -0.574382 0.186628
L -0.92937 1.279168
L -0 0.603941
L 0.92937 1.279168
L 0.574382 0.186628
L 1.503752 -0.488599
L 0.354988 -0.488599
z
" style="stroke: #000000"/>
    </defs>
    <g clip-path="url(#p4af005cee8)">
     <use xlink:href="#m7a2c118a1a" x="49.72107" y="70.667952" style="stroke: #000000"/>
    </g>
   </g>
   <g id="patch_4">
    <path d="M 51.623343 76.5
L 55.427888 76.5
L 55.427888 70.667952
L 51.623343 70.667952
z
" clip-path="url(#p4af005cee8)" style="fill: #d62728"/>
   </g>
   <g id="PathCollection_2">
    <g clip-path="url(#p4af005cee8)">
     <use xlink:href="#m7a2c118a1a" x="53.525616" y="70.667952" style="stroke: #000000"/>
    </g>
   </g>
   <g id="patch_5">
    <path d="M 55.427888 76.5
L 59.232434 76.5
L 59.232434 71.87331
L 55.427888 71.87331
z
" clip-path="url(#p4af005cee8)" style="fill: #e377c2"/>
   </g>
   <g id="PathCollection_3">
    <g clip-path="url(#p4af005cee8)">
     <use xlink:href="#m7a2c118a1a" x="57.330161" y="72.334252" style="stroke: #000000"/>
    </g>
   </g>
   <g id="patch_6">
    <path d="M 59.232434 76.5
L 63.036979 76.5
L 63.036979 72.334252
L 59.232434 72.334252
z
" clip-path="url(#p4af005cee8)" style="fill: #17becf"/>
   </g>
   <g id="PathCollection_4">
    <g clip-path="url(#p4af005cee8)">
     <use xlink:href="#m7a2c118a1a" x="61.134707" y="72.334252" style="stroke: #000000"/>
    </g>
   </g>
   <g id="patch_7">
    <path d="M 68.109707 76.5
L 71.914252 76.5
L 71.914252 68.168503
L 68.109707 68.168503
z
" clip-path="url(#p4af005cee8)" style="fill: #1f77b4"/>
   </g>
   <g id="PathCollection_5">
    <g clip-path="url(#p4af005cee8)">
     <use xlink:href="#m7a2c118a1a" x="70.011979" y="68.168503" style="stroke: #000000"/>
    </g>
   </g>
   <g id="patch_8">
    <path d="M 71.914252 76.5
L 75.718797 76.5
L 75.718797 68.168503
L 71.914252 68.168503
z
" clip-path="url(#p4af005cee8)" style="fill: #d62728"/>
   </g>
   <g id="PathCollection_6">
    <g clip-path="url(#p4af005cee8)">
     <use xlink:href="#m7a2c118a1a" x="73.816525" y="68.168503" style="stroke: #000000"/>
    </g>
   </g>
   <g id="patch_9">
    <path d="M 75.718797 76.5
L 79.523343 76.5
L 79.523343 71.084527
L 75.718797 71.084527
z
" clip-path="url(#p4af005cee8)" style="fill: #e377c2"/>
   </g>
   <g id="PathCollection_7">
    <g clip-path="url(#p4af005cee8)">
     <use xlink:href="#m7a2c118a1a" x="77.62107" y="71.084527" style="stroke: #000000"/>
    </g>
   </g>
   <g id="patch_10">
    <path d="M 79.523343 76.5
L 83.327888 76.5
L 83.327888 71.084527
L 79.523343 71.084527
z
" clip-path="url(#p4af005cee8)" style="fill: #17becf"/>
   </g>
   <g id="PathCollection_8">
    <g clip-path="url(#p4af005cee8)">
     <use xlink:href="#m7a2c118a1a" x="81.425616" y="71.084527" style="stroke: #000000"/>
    </g>
   </g>
   <g id="patch_11">
    <path d="M 88.400616 76.5
L 92.205161 76.5
L 92.205161 66.18917
L 88.400616 66.18917
z
" clip-path="url(#p4af005cee8)" style="fill: #1f77b4"/>
   </g>
   <g id="PathCollection_9">
    <g clip-path="url(#p4af005cee8)">
     <use xlink:href="#m7a2c118a1a" x="90.302888" y="66.502204" style="stroke: #000000"/>
    </g>
   </g>
   <g id="patch_12">
    <path d="M 92.205161 76.5
L 96.009707 76.5
L 96.009707 67.335353
L 92.205161 67.335353
z
" clip-path="url(#p4af005cee8)" style="fill: #d62728"/>
   </g>
   <g id="PathCollection_10">
    <g clip-path="url(#p4af005cee8)">
     <use xlink:href="#m7a2c118a1a" x="94.107434" y="67.335353" style="stroke: #000000"/>
    </g>
   </g>
   <g id="patch_13">
    <path d="M 96.009707 76.5
L 99.814252 76.5
L 99.814252 68.942566
L 96.009707 68.942566
z
" clip-path="url(#p4af005cee8)" style="fill: #e377c2"/>
   </g>
   <g id="PathCollection_11">
    <g clip-path="url(#p4af005cee8)">
     <use xlink:href="#m7a2c118a1a" x="97.911979" y="69.418228" style="stroke: #000000"/>
    </g>
   </g>
   <g id="patch_14">
    <path d="M 99.814252 76.5
L 103.618797 76.5
L 103.618797 70.667952
L 99.814252 70.667952
z
" clip-path="url(#p4af005cee8)" style="fill: #17becf"/>
   </g>
   <g id="PathCollection_12">
    <g clip-path="url(#p4af005cee8)">
     <use xlink:href="#m7a2c118a1a" x="101.716525" y="70.667952" style="stroke: #000000"/>
    </g>
   </g>
   <g id="patch_15">
    <path d="M 108.691525 76.5
L 112.49607 76.5
L 112.49607 64.835904
L 108.691525 64.835904
z
" clip-path="url(#p4af005cee8)" style="fill: #1f77b4"/>
   </g>
   <g id="PathCollection_13">
    <g clip-path="url(#p4af005cee8)">
     <use xlink:href="#m7a2c118a1a" x="110.593797" y="64.835904" style="stroke: #000000"/>
    </g>
   </g>
   <g id="patch_16">
    <path d="M 112.49607 76.5
L 116.300616 76.5
L 116.300616 64.835904
L 112.49607 64.835904
z
" clip-path="url(#p4af005cee8)" style="fill: #d62728"/>
   </g>
   <g id="PathCollection_14">
    <g clip-path="url(#p4af005cee8)">
     <use xlink:href="#m7a2c118a1a" x="114.398343" y="64.835904" style="stroke: #000000"/>
    </g>
   </g>
   <g id="patch_17">
    <path d="M 116.300616 76.5
L 120.105161 76.5
L 120.105161 70.667952
L 116.300616 70.667952
z
" clip-path="url(#p4af005cee8)" style="fill: #e377c2"/>
   </g>
   <g id="PathCollection_15">
    <g clip-path="url(#p4af005cee8)">
     <use xlink:href="#m7a2c118a1a" x="118.202888" y="70.667952" style="stroke: #000000"/>
    </g>
   </g>
   <g id="patch_18">
    <path d="M 120.105161 76.5
L 123.909707 76.5
L 123.909707 70.667952
L 120.105161 70.667952
z
" clip-path="url(#p4af005cee8)" style="fill: #17becf"/>
   </g>
   <g id="PathCollection_16">
    <g clip-path="url(#p4af005cee8)">
     <use xlink:href="#m7a2c118a1a" x="122.007434" y="70.667952" style="stroke: #000000"/>
    </g>
   </g>
   <g id="patch_19">
    <path d="M 128.982434 76.5
L 132.786979 76.5
L 132.786979 63.953065
L 128.982434 63.953065
z
" clip-path="url(#p4af005cee8)" style="fill: #1f77b4"/>
   </g>
   <g id="PathCollection_17">
    <g clip-path="url(#p4af005cee8)">
     <use xlink:href="#m7a2c118a1a" x="130.884707" y="65.669054" style="stroke: #000000"/>
    </g>
   </g>
   <g id="patch_20">
    <path d="M 132.786979 76.5
L 136.591525 76.5
L 136.591525 65.669054
L 132.786979 65.669054
z
" clip-path="url(#p4af005cee8)" style="fill: #d62728"/>
   </g>
   <g id="PathCollection_18">
    <g clip-path="url(#p4af005cee8)">
     <use xlink:href="#m7a2c118a1a" x="134.689252" y="65.669054" style="stroke: #000000"/>
    </g>
   </g>
   <g id="patch_21">
    <path d="M 136.591525 76.5
L 140.39607 76.5
L 140.39607 67.643474
L 136.591525 67.643474
z
" clip-path="url(#p4af005cee8)" style="fill: #e377c2"/>
   </g>
   <g id="PathCollection_19">
    <g clip-path="url(#p4af005cee8)">
     <use xlink:href="#m7a2c118a1a" x="138.493797" y="69.418228" style="stroke: #000000"/>
    </g>
   </g>
   <g id="patch_22">
    <path d="M 140.39607 76.5
L 144.200616 76.5
L 144.200616 69.001653
L 140.39607 69.001653
z
" clip-path="url(#p4af005cee8)" style="fill: #17becf"/>
   </g>
   <g id="PathCollection_20">
    <g clip-path="url(#p4af005cee8)">
     <use xlink:href="#m7a2c118a1a" x="142.298343" y="69.001653" style="stroke: #000000"/>
    </g>
   </g>
   <g id="patch_23">
    <path d="M 149.273343 76.5
L 153.077888 76.5
L 153.077888 25.110765
L 149.273343 25.110765
z
" clip-path="url(#p4af005cee8)" style="fill: #1f77b4"/>
   </g>
   <g id="PathCollection_21">
    <g clip-path="url(#p4af005cee8)">
     <use xlink:href="#m7a2c118a1a" x="151.175616" y="29.010468" style="stroke: #000000"/>
    </g>
   </g>
   <g id="patch_24">
    <path d="M 153.077888 76.5
L 156.882434 76.5
L 156.882434 45.673462
L 153.077888 45.673462
z
" clip-path="url(#p4af005cee8)" style="fill: #d62728"/>
   </g>
   <g id="PathCollection_22">
    <g clip-path="url(#p4af005cee8)">
     <use xlink:href="#m7a2c118a1a" x="154.980161" y="45.673462" style="stroke: #000000"/>
    </g>
   </g>
   <g id="patch_25">
    <path d="M 156.882434 76.5
L 160.686979 76.5
L 160.686979 51.189431
L 156.882434 51.189431
z
" clip-path="url(#p4af005cee8)" style="fill: #e377c2"/>
   </g>
   <g id="PathCollection_23">
    <g clip-path="url(#p4af005cee8)">
     <use xlink:href="#m7a2c118a1a" x="158.784707" y="52.755234" style="stroke: #000000"/>
    </g>
   </g>
   <g id="patch_26">
    <path d="M 160.686979 76.5
L 164.491525 76.5
L 164.491525 61.086731
L 160.686979 61.086731
z
" clip-path="url(#p4af005cee8)" style="fill: #17becf"/>
   </g>
   <g id="PathCollection_24">
    <g clip-path="url(#p4af005cee8)">
     <use xlink:href="#m7a2c118a1a" x="162.589252" y="61.086731" style="stroke: #000000"/>
    </g>
   </g>
   <g id="patch_27">
    <path d="M 169.564252 76.5
L 173.368797 76.5
L 173.368797 15.327845
L 169.564252 15.327845
z
" clip-path="url(#p4af005cee8)" style="fill: #1f77b4"/>
   </g>
   <g id="PathCollection_25">
    <g clip-path="url(#p4af005cee8)">
     <use xlink:href="#m7a2c118a1a" x="171.466525" y="21.512121" style="stroke: #000000"/>
    </g>
   </g>
   <g id="patch_28">
    <path d="M 173.368797 76.5
L 177.173343 76.5
L 177.173343 34.009366
L 173.368797 34.009366
z
" clip-path="url(#p4af005cee8)" style="fill: #d62728"/>
   </g>
   <g id="PathCollection_26">
    <g clip-path="url(#p4af005cee8)">
     <use xlink:href="#m7a2c118a1a" x="175.27107" y="34.009366" style="stroke: #000000"/>
    </g>
   </g>
   <g id="patch_29">
    <path d="M 177.173343 76.5
L 180.977888 76.5
L 180.977888 44.338537
L 177.173343 44.338537
z
" clip-path="url(#p4af005cee8)" style="fill: #e377c2"/>
   </g>
   <g id="PathCollection_27">
    <g clip-path="url(#p4af005cee8)">
     <use xlink:href="#m7a2c118a1a" x="179.075616" y="47.339761" style="stroke: #000000"/>
    </g>
   </g>
   <g id="patch_30">
    <path d="M 180.977888 76.5
L 184.782434 76.5
L 184.782434 55.254683
L 180.977888 55.254683
z
" clip-path="url(#p4af005cee8)" style="fill: #17becf"/>
   </g>
   <g id="PathCollection_28">
    <g clip-path="url(#p4af005cee8)">
     <use xlink:href="#m7a2c118a1a" x="182.880161" y="55.254683" style="stroke: #000000"/>
    </g>
   </g>
   <g id="patch_31">
    <path d="M 189.855161 76.5
L 193.659707 76.5
L 193.659707 13.009797
L 189.855161 13.009797
z
" clip-path="url(#p4af005cee8)" style="fill: #1f77b4"/>
   </g>
   <g id="PathCollection_29">
    <g clip-path="url(#p4af005cee8)">
     <use xlink:href="#m7a2c118a1a" x="191.757434" y="18.179522" style="stroke: #000000"/>
    </g>
   </g>
   <g id="patch_32">
    <path d="M 193.659707 76.5
L 197.464252 76.5
L 197.464252 33.176216
L 193.659707 33.176216
z
" clip-path="url(#p4af005cee8)" style="fill: #d62728"/>
   </g>
   <g id="PathCollection_30">
    <g clip-path="url(#p4af005cee8)">
     <use xlink:href="#m7a2c118a1a" x="195.561979" y="33.176216" style="stroke: #000000"/>
    </g>
   </g>
   <g id="patch_33">
    <path d="M 197.464252 76.5
L 201.268797 76.5
L 201.268797 43.139027
L 197.464252 43.139027
z
" clip-path="url(#p4af005cee8)" style="fill: #e377c2"/>
   </g>
   <g id="PathCollection_31">
    <g clip-path="url(#p4af005cee8)">
     <use xlink:href="#m7a2c118a1a" x="199.366525" y="46.090036" style="stroke: #000000"/>
    </g>
   </g>
   <g id="patch_34">
    <path d="M 201.268797 76.5
L 205.073343 76.5
L 205.073343 54.838108
L 201.268797 54.838108
z
" clip-path="url(#p4af005cee8)" style="fill: #17becf"/>
   </g>
   <g id="PathCollection_32">
    <g clip-path="url(#p4af005cee8)">
     <use xlink:href="#m7a2c118a1a" x="203.17107" y="54.838108" style="stroke: #000000"/>
    </g>
   </g>
   <g id="patch_35">
    <path d="M 210.14607 76.5
L 213.950616 76.5
L 213.950616 10.5
L 210.14607 10.5
z
" clip-path="url(#p4af005cee8)" style="fill: #1f77b4"/>
   </g>
   <g id="PathCollection_33">
    <g clip-path="url(#p4af005cee8)">
     <use xlink:href="#m7a2c118a1a" x="212.048343" y="19.012672" style="stroke: #000000"/>
    </g>
   </g>
   <g id="patch_36">
    <path d="M 213.950616 76.5
L 217.755161 76.5
L 217.755161 43.174013
L 213.950616 43.174013
z
" clip-path="url(#p4af005cee8)" style="fill: #d62728"/>
   </g>
   <g id="PathCollection_34">
    <g clip-path="url(#p4af005cee8)">
     <use xlink:href="#m7a2c118a1a" x="215.852888" y="43.174013" style="stroke: #000000"/>
    </g>
   </g>
   <g id="patch_37">
    <path d="M 217.755161 76.5
L 221.559707 76.5
L 221.559707 41.829798
L 217.755161 41.829798
z
" clip-path="url(#p4af005cee8)" style="fill: #e377c2"/>
   </g>
   <g id="PathCollection_35">
    <g clip-path="url(#p4af005cee8)">
     <use xlink:href="#m7a2c118a1a" x="219.657434" y="46.090036" style="stroke: #000000"/>
    </g>
   </g>
   <g id="patch_38">
    <path d="M 221.559707 76.5
L 225.364252 76.5
L 225.364252 59.003857
L 221.559707 59.003857
z
" clip-path="url(#p4af005cee8)" style="fill: #17becf"/>
   </g>
   <g id="PathCollection_36">
    <g clip-path="url(#p4af005cee8)">
     <use xlink:href="#m7a2c118a1a" x="223.461979" y="59.003857" style="stroke: #000000"/>
    </g>
   </g>
   <g id="matplotlib.axis_1">
    <g id="xtick_1">
     <g id="line2d_1">
      <defs>
       <path id="m3f166d7cf0" d="M 0 0
L 0 3.5
" style="stroke: #000000; stroke-width: 0.8"/>
      </defs>
      <g>
       <use xlink:href="#m3f166d7cf0" x="55.427888" y="76.5" style="stroke: #000000; stroke-width: 0.8"/>
      </g>
     </g>
     <g id="text_1">
      <!-- toffoli_n3 -->
      <g transform="translate(21.6828 108.415116) rotate(-30) scale(0.1 -0.1)">
       <defs>
        <path id="CMSS17-74" d="M 1069 2368
L 1901 2368
L 1901 2737
L 1069 2737
L 1069 3520
L 614 3520
L 614 2737
L 109 2737
L 109 2368
L 602 2368
L 602 749
C 602 384 685 -64 1107 -64
C 1427 -64 1722 25 2003 172
L 1901 548
C 1747 414 1562 337 1363 337
C 1082 337 1069 696 1069 856
L 1069 2368
z
" transform="scale(0.015625)"/>
        <path id="CMSS17-6f" d="M 2829 1356
C 2829 2176 2221 2816 1504 2816
C 768 2816 173 2157 173 1356
C 173 544 787 -64 1498 -64
C 2227 -64 2829 563 2829 1356
z
M 1504 337
C 1050 337 659 709 659 1408
C 659 2151 1114 2427 1498 2427
C 1914 2427 2342 2126 2342 1408
C 2342 683 1926 337 1504 337
z
" transform="scale(0.015625)"/>
        <path id="CMSS17-b" d="M 1075 2368
L 1734 2368
L 1734 2737
L 1062 2737
L 1062 3559
C 1062 4001 1395 4092 1613 4092
C 1837 4092 2022 4034 2093 4009
L 2093 4429
C 2022 4442 1830 4480 1619 4480
C 1030 4480 602 3999 602 3359
L 602 2737
L 160 2737
L 160 2368
L 602 2368
L 602 0
L 1075 0
L 1075 2368
z
M 2739 2368
L 3398 2368
L 3398 2737
L 2726 2737
L 2726 3559
C 2726 4001 3059 4092 3277 4092
C 3501 4092 3686 4034 3757 4009
L 3757 4429
C 3686 4442 3494 4480 3283 4480
C 2694 4480 2266 4001 2266 3363
L 2266 0
L 2739 0
L 2739 2368
z
" transform="scale(0.015625)"/>
        <path id="CMSS17-6c" d="M 947 4416
L 474 4416
L 474 0
L 947 0
L 947 4416
z
" transform="scale(0.015625)"/>
        <path id="CMSS17-69" d="M 979 4183
L 442 4183
L 442 3648
L 979 3648
L 979 4183
z
M 947 2739
L 474 2739
L 474 0
L 947 0
L 947 2739
z
" transform="scale(0.015625)"/>
        <path id="CMSS17-6e" d="M 2618 1877
C 2618 2283 2522 2816 1798 2816
C 1389 2816 1120 2606 941 2389
L 941 2758
L 474 2758
L 474 0
L 960 0
L 960 1559
C 960 1964 1114 2428 1549 2428
C 2112 2428 2131 2048 2131 1829
L 2131 0
L 2618 0
L 2618 1877
z
" transform="scale(0.015625)"/>
        <path id="CMSS17-33" d="M 1005 2025
L 1440 2025
C 2042 2025 2214 1507 2214 1146
C 2214 653 1933 267 1472 267
C 1114 267 608 444 320 912
C 275 691 275 678 250 526
C 550 88 1037 -128 1485 -128
C 2214 -128 2752 473 2752 1138
C 2752 1638 2400 2057 1920 2215
C 2304 2424 2586 2816 2586 3273
C 2586 3805 2093 4229 1491 4229
C 941 4229 512 3892 333 3530
C 378 3468 493 3284 550 3189
C 691 3562 1056 3840 1485 3840
C 1843 3840 2080 3607 2080 3271
C 2080 2923 1856 2543 1478 2455
C 1453 2455 1056 2417 1005 2411
L 1005 2025
z
" transform="scale(0.015625)"/>
       </defs>
       <use xlink:href="#CMSS17-74" transform="scale(0.996264)"/>
       <use xlink:href="#CMSS17-6f" transform="translate(33.831567 0) scale(0.996264)"/>
       <use xlink:href="#CMSS17-b" transform="translate(80.67519 0) scale(0.996264)"/>
       <use xlink:href="#CMSS17-6f" transform="translate(135.32616 0) scale(0.996264)"/>
       <use xlink:href="#CMSS17-6c" transform="translate(182.169784 0) scale(0.996264)"/>
       <use xlink:href="#CMSS17-69" transform="translate(204.350507 0) scale(0.996264)"/>
       <use xlink:href="#CMSS17-6e" transform="translate(260.258725 0) scale(0.996264)"/>
       <use xlink:href="#CMSS17-33" transform="translate(308.463668 0) scale(0.996264)"/>
       <path d="M 232.152241 0
L 260.258725 0
L 260.258725 0.3985
L 232.152241 0.3985
L 232.152241 0
z
"/>
      </g>
     </g>
    </g>
    <g id="xtick_2">
     <g id="line2d_2">
      <g>
       <use xlink:href="#m3f166d7cf0" x="75.718797" y="76.5" style="stroke: #000000; stroke-width: 0.8"/>
      </g>
     </g>
     <g id="text_2">
      <!-- adder_n4 -->
      <g transform="translate(43.028236 107.806285) rotate(-30) scale(0.1 -0.1)">
       <defs>
        <path id="CMSS17-61" d="M 2406 1791
C 2406 2392 1978 2808 1402 2808
C 1120 2808 813 2757 461 2553
L 499 2135
C 659 2248 934 2432 1395 2432
C 1722 2432 1920 2180 1920 1782
L 1920 1536
C 896 1536 256 1238 256 726
C 256 461 416 -64 947 -64
C 1043 -64 1562 -64 1933 217
L 1933 -19
L 2406 -19
L 2406 1791
z
M 1920 816
C 1920 701 1920 548 1728 434
C 1562 325 1350 325 1261 325
C 941 325 723 511 723 744
C 723 1211 1722 1211 1920 1211
L 1920 816
z
" transform="scale(0.015625)"/>
        <path id="CMSS17-64" d="M 2611 4416
L 2138 4416
L 2138 2438
C 1939 2603 1613 2756 1254 2756
C 672 2756 211 2131 211 1347
C 211 562 666 -64 1235 -64
C 1677 -64 1971 172 2125 306
L 2125 -13
L 2611 -13
L 2611 4416
z
M 2125 836
C 2125 747 2125 653 1926 482
C 1798 375 1645 325 1498 325
C 1152 325 698 576 698 1340
C 698 2134 1210 2368 1562 2368
C 1798 2368 1990 2254 2125 2065
L 2125 836
z
" transform="scale(0.015625)"/>
        <path id="CMSS17-65" d="M 2502 1377
C 2502 1590 2490 2003 2285 2345
C 2061 2713 1696 2816 1421 2816
C 755 2816 192 2188 192 1375
C 192 582 774 -64 1510 -64
C 1798 -64 2150 19 2470 248
C 2470 274 2458 414 2451 420
C 2451 433 2432 630 2432 656
C 2125 407 1773 325 1517 325
C 1107 325 666 667 646 1377
L 2502 1377
z
M 698 1728
C 781 2084 1062 2421 1421 2421
C 1517 2421 1965 2421 2080 1728
L 698 1728
z
" transform="scale(0.015625)"/>
        <path id="CMSS17-72" d="M 954 1363
C 954 1965 1395 2368 1958 2368
L 1958 2789
C 1549 2789 1165 2585 934 2253
L 934 2758
L 480 2758
L 480 0
L 954 0
L 954 1363
z
" transform="scale(0.015625)"/>
        <path id="CMSS17-34" d="M 2253 1088
L 2835 1088
L 2835 1477
L 2253 1477
L 2253 4192
L 1690 4192
L 166 1477
L 166 1088
L 1747 1088
L 1747 0
L 2253 0
L 2253 1088
z
M 659 1477
C 1030 2127 1766 3439 1766 3885
L 1766 1477
L 659 1477
z
" transform="scale(0.015625)"/>
       </defs>
       <use xlink:href="#CMSS17-61" transform="scale(0.996264)"/>
       <use xlink:href="#CMSS17-64" transform="translate(44.921921 0) scale(0.996264)"/>
       <use xlink:href="#CMSS17-64" transform="translate(93.126864 0) scale(0.996264)"/>
       <use xlink:href="#CMSS17-65" transform="translate(141.331807 0) scale(0.996264)"/>
       <use xlink:href="#CMSS17-72" transform="translate(182.970629 0) scale(0.996264)"/>
       <use xlink:href="#CMSS17-6e" transform="translate(248.607897 0) scale(0.996264)"/>
       <use xlink:href="#CMSS17-34" transform="translate(296.81284 0) scale(0.996264)"/>
       <path d="M 220.501413 0
L 248.607897 0
L 248.607897 0.3985
L 220.501413 0.3985
L 220.501413 0
z
"/>
      </g>
     </g>
    </g>
    <g id="xtick_3">
     <g id="line2d_3">
      <g>
       <use xlink:href="#m3f166d7cf0" x="96.009707" y="76.5" style="stroke: #000000; stroke-width: 0.8"/>
      </g>
     </g>
     <g id="text_3">
      <!-- fredkin_n3 -->
      <g transform="translate(58.549813 110.55986) rotate(-30) scale(0.1 -0.1)">
       <defs>
        <path id="CMSS17-66" d="M 1075 2368
L 1722 2368
L 1722 2737
L 1062 2737
L 1062 3559
C 1062 4014 1408 4092 1606 4092
C 1670 4092 1850 4092 2080 4009
L 2080 4429
C 1933 4461 1754 4480 1613 4480
C 1018 4480 602 3993 602 3359
L 602 2737
L 160 2737
L 160 2368
L 602 2368
L 602 0
L 1075 0
L 1075 2368
z
" transform="scale(0.015625)"/>
        <path id="CMSS17-6b" d="M 1696 1688
L 2688 2739
L 2074 2739
L 954 1554
L 954 4416
L 480 4416
L 480 0
L 947 0
L 947 892
L 1376 1344
L 2278 0
L 2822 0
L 1696 1688
z
" transform="scale(0.015625)"/>
       </defs>
       <use xlink:href="#CMSS17-66" transform="scale(0.996264)"/>
       <use xlink:href="#CMSS17-72" transform="translate(28.626659 0) scale(0.996264)"/>
       <use xlink:href="#CMSS17-65" transform="translate(60.536431 0) scale(0.996264)"/>
       <use xlink:href="#CMSS17-64" transform="translate(102.175253 0) scale(0.996264)"/>
       <use xlink:href="#CMSS17-6b" transform="translate(150.380197 0) scale(0.996264)"/>
       <use xlink:href="#CMSS17-69" transform="translate(195.982686 0) scale(0.996264)"/>
       <use xlink:href="#CMSS17-6e" transform="translate(218.163409 0) scale(0.996264)"/>
       <use xlink:href="#CMSS17-6e" transform="translate(300.095847 0) scale(0.996264)"/>
       <use xlink:href="#CMSS17-33" transform="translate(348.30079 0) scale(0.996264)"/>
       <path d="M 271.989363 0
L 300.095847 0
L 300.095847 0.3985
L 271.989363 0.3985
L 271.989363 0
z
"/>
      </g>
     </g>
    </g>
    <g id="xtick_4">
     <g id="line2d_4">
      <g>
       <use xlink:href="#m3f166d7cf0" x="116.300616" y="76.5" style="stroke: #000000; stroke-width: 0.8"/>
      </g>
     </g>
     <g id="text_4">
      <!-- qaoa -->
      <g transform="translate(98.267912 99.343566) rotate(-30) scale(0.1 -0.1)">
       <defs>
        <path id="CMSS17-71" d="M 2611 2816
L 2138 2816
L 2138 2428
C 2112 2460 1818 2816 1318 2816
C 736 2816 211 2228 211 1399
C 211 633 653 -5 1229 -5
C 1498 -5 1837 91 2125 365
L 2125 -1216
L 2611 -1216
L 2611 2816
z
M 2138 914
C 2138 832 2138 718 1939 554
C 1888 510 1747 384 1504 384
C 1050 384 698 850 698 1399
C 698 2011 1126 2415 1562 2415
C 1926 2415 2138 2061 2138 1797
L 2138 914
z
" transform="scale(0.015625)"/>
       </defs>
       <use xlink:href="#CMSS17-71" transform="scale(0.996264)"/>
       <use xlink:href="#CMSS17-61" transform="translate(48.204943 0) scale(0.996264)"/>
       <use xlink:href="#CMSS17-6f" transform="translate(93.126864 0) scale(0.996264)"/>
       <use xlink:href="#CMSS17-61" transform="translate(139.970487 0) scale(0.996264)"/>
      </g>
     </g>
    </g>
    <g id="xtick_5">
     <g id="line2d_5">
      <g>
       <use xlink:href="#m3f166d7cf0" x="136.591525" y="76.5" style="stroke: #000000; stroke-width: 0.8"/>
      </g>
     </g>
     <g id="text_5">
      <!-- dj -->
      <g transform="translate(128.864406 93.393634) rotate(-30) scale(0.1 -0.1)">
       <defs>
        <path id="CMSS17-6a" d="M 1114 4224
L 576 4224
L 576 3689
L 1114 3689
L 1114 4224
z
M -371 -1064
C -166 -1191 83 -1280 352 -1280
C 755 -1280 1114 -935 1114 -366
L 1114 2767
L 640 2767
L 640 -425
C 640 -815 346 -873 179 -873
C 38 -873 -128 -828 -275 -675
L -371 -1064
z
" transform="scale(0.015625)"/>
       </defs>
       <use xlink:href="#CMSS17-64" transform="scale(0.996264)"/>
       <use xlink:href="#CMSS17-6a" transform="translate(48.204943 0) scale(0.996264)"/>
      </g>
     </g>
    </g>
    <g id="xtick_6">
     <g id="line2d_6">
      <g>
       <use xlink:href="#m3f166d7cf0" x="156.882434" y="76.5" style="stroke: #000000; stroke-width: 0.8"/>
      </g>
     </g>
     <g id="text_6">
      <!-- qft -->
      <g transform="translate(145.704142 95.38617) rotate(-30) scale(0.1 -0.1)">
       <use xlink:href="#CMSS17-71" transform="scale(0.996264)"/>
       <use xlink:href="#CMSS17-66" transform="translate(48.204943 0) scale(0.996264)"/>
       <use xlink:href="#CMSS17-74" transform="translate(76.831602 0) scale(0.996264)"/>
      </g>
     </g>
    </g>
    <g id="xtick_7">
     <g id="line2d_7">
      <g>
       <use xlink:href="#m3f166d7cf0" x="177.173343" y="76.5" style="stroke: #000000; stroke-width: 0.8"/>
      </g>
     </g>
     <g id="text_7">
      <!-- qpeexact -->
      <g transform="translate(144.305447 107.908669) rotate(-30) scale(0.1 -0.1)">
       <defs>
        <path id="CMSS17-70" d="M 966 333
C 1178 129 1466 -5 1773 -5
C 2368 -5 2880 603 2880 1412
C 2880 2159 2496 2816 1946 2816
C 1626 2816 1242 2702 954 2472
L 954 2765
L 480 2765
L 480 -1216
L 966 -1216
L 966 333
z
M 966 2100
C 1018 2176 1235 2415 1587 2415
C 2035 2415 2394 1960 2394 1412
C 2394 787 1958 384 1530 384
C 1402 384 1267 415 1139 523
C 966 674 966 768 966 857
L 966 2100
z
" transform="scale(0.015625)"/>
        <path id="CMSS17-78" d="M 1587 1414
L 2656 2739
L 2099 2739
L 1363 1777
L 602 2739
L 32 2739
L 1139 1414
L 0 0
L 563 0
L 1363 1121
L 2195 0
L 2758 0
L 1587 1414
z
" transform="scale(0.015625)"/>
        <path id="CMSS17-63" d="M 2464 2541
C 2464 2585 2170 2714 2093 2739
C 1882 2816 1613 2816 1542 2816
C 710 2816 211 2093 211 1363
C 211 595 768 -64 1517 -64
C 1946 -64 2253 76 2502 242
L 2464 664
C 2189 453 1869 337 1523 337
C 1024 337 698 774 698 1369
C 698 1831 909 2414 1549 2414
C 1901 2414 2099 2343 2394 2145
L 2464 2541
z
" transform="scale(0.015625)"/>
       </defs>
       <use xlink:href="#CMSS17-71" transform="scale(0.996264)"/>
       <use xlink:href="#CMSS17-70" transform="translate(48.204943 0) scale(0.996264)"/>
       <use xlink:href="#CMSS17-65" transform="translate(99.012325 0) scale(0.996264)"/>
       <use xlink:href="#CMSS17-65" transform="translate(140.651147 0) scale(0.996264)"/>
       <use xlink:href="#CMSS17-78" transform="translate(182.289969 0) scale(0.996264)"/>
       <use xlink:href="#CMSS17-61" transform="translate(225.290111 0) scale(0.996264)"/>
       <use xlink:href="#CMSS17-63" transform="translate(270.212031 0) scale(0.996264)"/>
       <use xlink:href="#CMSS17-74" transform="translate(311.850853 0) scale(0.996264)"/>
      </g>
     </g>
    </g>
    <g id="xtick_8">
     <g id="line2d_8">
      <g>
       <use xlink:href="#m3f166d7cf0" x="197.464252" y="76.5" style="stroke: #000000; stroke-width: 0.8"/>
      </g>
     </g>
     <g id="text_8">
      <!-- ae -->
      <g transform="translate(188.514843 94.099324) rotate(-30) scale(0.1 -0.1)">
       <use xlink:href="#CMSS17-61" transform="scale(0.996264)"/>
       <use xlink:href="#CMSS17-65" transform="translate(44.921921 0) scale(0.996264)"/>
      </g>
     </g>
    </g>
    <g id="xtick_9">
     <g id="line2d_9">
      <g>
       <use xlink:href="#m3f166d7cf0" x="217.755161" y="76.5" style="stroke: #000000; stroke-width: 0.8"/>
      </g>
     </g>
     <g id="text_9">
      <!-- qftentangled -->
      <g transform="translate(171.897469 115.408331) rotate(-30) scale(0.1 -0.1)">
       <defs>
        <path id="CMSS17-67" d="M 2848 2808
C 2483 2808 2170 2738 1914 2617
C 1702 2777 1485 2808 1338 2808
C 781 2808 358 2349 358 1814
C 358 1468 550 1207 563 1195
C 448 1035 384 863 384 672
C 384 448 474 289 544 200
C 211 -3 166 -314 166 -435
C 166 -898 749 -1280 1498 -1280
C 2253 -1280 2835 -898 2835 -428
C 2835 448 1856 448 1587 448
L 1069 448
C 973 448 717 448 717 791
C 717 921 774 1004 781 1010
C 877 940 1075 832 1338 832
C 1869 832 2310 1278 2310 1827
C 2310 2132 2170 2355 2112 2432
L 2131 2432
C 2150 2432 2419 2432 2515 2432
C 2720 2432 2739 2429 2918 2419
L 2848 2808
z
M 1338 1182
C 1120 1182 813 1315 813 1823
C 813 2375 1165 2464 1331 2464
C 1549 2464 1856 2331 1856 1823
C 1856 1271 1504 1182 1338 1182
z
M 1581 -10
C 1734 -10 2381 -10 2381 -442
C 2381 -714 1984 -929 1504 -929
C 1018 -929 621 -720 621 -435
C 621 -403 621 -10 1062 -10
L 1581 -10
z
" transform="scale(0.015625)"/>
       </defs>
       <use xlink:href="#CMSS17-71" transform="scale(0.996264)"/>
       <use xlink:href="#CMSS17-66" transform="translate(48.204943 0) scale(0.996264)"/>
       <use xlink:href="#CMSS17-74" transform="translate(76.831602 0) scale(0.996264)"/>
       <use xlink:href="#CMSS17-65" transform="translate(110.663169 0) scale(0.996264)"/>
       <use xlink:href="#CMSS17-6e" transform="translate(152.301991 0) scale(0.996264)"/>
       <use xlink:href="#CMSS17-74" transform="translate(200.506934 0) scale(0.996264)"/>
       <use xlink:href="#CMSS17-61" transform="translate(234.338501 0) scale(0.996264)"/>
       <use xlink:href="#CMSS17-6e" transform="translate(279.260421 0) scale(0.996264)"/>
       <use xlink:href="#CMSS17-67" transform="translate(327.465364 0) scale(0.996264)"/>
       <use xlink:href="#CMSS17-6c" transform="translate(374.308988 0) scale(0.996264)"/>
       <use xlink:href="#CMSS17-65" transform="translate(396.489711 0) scale(0.996264)"/>
       <use xlink:href="#CMSS17-64" transform="translate(438.128533 0) scale(0.996264)"/>
      </g>
     </g>
    </g>
   </g>
   <g id="matplotlib.axis_2">
    <g id="ytick_1">
     <g id="line2d_10">
      <defs>
       <path id="md3e10358ee" d="M 0 0
L -3.5 0
" style="stroke: #000000; stroke-width: 0.8"/>
      </defs>
      <g>
       <use xlink:href="#md3e10358ee" x="38.941525" y="76.5" style="stroke: #000000; stroke-width: 0.8"/>
      </g>
     </g>
     <g id="text_10">
      <!-- $\mathdefault{0}$ -->
      <g transform="translate(25.113036 81.342938) scale(0.14 -0.14)">
       <defs>
        <path id="CMR17-30" d="M 2688 2025
C 2688 2416 2682 3080 2413 3591
C 2176 4039 1798 4198 1466 4198
C 1158 4198 768 4058 525 3597
C 269 3118 243 2524 243 2025
C 243 1661 250 1106 448 619
C 723 -39 1216 -128 1466 -128
C 1760 -128 2208 -7 2470 600
C 2662 1042 2688 1559 2688 2025
z
M 1466 -26
C 1056 -26 813 325 723 812
C 653 1188 653 1738 653 2096
C 653 2588 653 2997 736 3387
C 858 3929 1216 4096 1466 4096
C 1728 4096 2067 3923 2189 3400
C 2272 3036 2278 2607 2278 2096
C 2278 1680 2278 1169 2202 792
C 2067 95 1690 -26 1466 -26
z
" transform="scale(0.015625)"/>
       </defs>
       <use xlink:href="#CMR17-30" transform="scale(0.996264)"/>
      </g>
     </g>
    </g>
    <g id="ytick_2">
     <g id="line2d_11">
      <g>
       <use xlink:href="#md3e10358ee" x="38.941525" y="51.505509" style="stroke: #000000; stroke-width: 0.8"/>
      </g>
     </g>
     <g id="text_11">
      <!-- $\mathdefault{30}$ -->
      <g transform="translate(18.284547 56.348448) scale(0.14 -0.14)">
       <defs>
        <path id="CMR17-33" d="M 1414 2157
C 1984 2157 2234 1662 2234 1090
C 2234 320 1824 25 1453 25
C 1114 25 563 194 390 693
C 422 680 454 680 486 680
C 640 680 755 782 755 948
C 755 1133 614 1216 486 1216
C 378 1216 211 1165 211 926
C 211 335 787 -128 1466 -128
C 2176 -128 2720 430 2720 1085
C 2720 1707 2208 2157 1600 2227
C 2086 2328 2554 2756 2554 3329
C 2554 3820 2048 4179 1472 4179
C 890 4179 378 3829 378 3329
C 378 3110 544 3072 627 3072
C 762 3072 877 3155 877 3321
C 877 3486 762 3569 627 3569
C 602 3569 570 3569 544 3557
C 730 3959 1235 4032 1459 4032
C 1683 4032 2106 3925 2106 3320
C 2106 3143 2080 2828 1862 2550
C 1670 2304 1453 2304 1242 2284
C 1210 2284 1062 2269 1037 2269
C 992 2263 966 2257 966 2208
C 966 2163 973 2157 1101 2157
L 1414 2157
z
" transform="scale(0.015625)"/>
       </defs>
       <use xlink:href="#CMR17-33" transform="scale(0.996264)"/>
       <use xlink:href="#CMR17-30" transform="translate(45.690477 0) scale(0.996264)"/>
      </g>
     </g>
    </g>
    <g id="ytick_3">
     <g id="line2d_12">
      <g>
       <use xlink:href="#md3e10358ee" x="38.941525" y="26.511019" style="stroke: #000000; stroke-width: 0.8"/>
      </g>
     </g>
     <g id="text_12">
      <!-- $\mathdefault{60}$ -->
      <g transform="translate(18.284547 31.353957) scale(0.14 -0.14)">
       <defs>
        <path id="CMR17-36" d="M 678 2176
C 678 3690 1395 4032 1811 4032
C 1946 4032 2272 4009 2400 3776
C 2298 3776 2106 3776 2106 3553
C 2106 3381 2246 3323 2336 3323
C 2394 3323 2566 3348 2566 3560
C 2566 3954 2246 4179 1805 4179
C 1043 4179 243 3390 243 1984
C 243 253 966 -128 1478 -128
C 2099 -128 2688 427 2688 1283
C 2688 2081 2170 2662 1517 2662
C 1126 2662 838 2407 678 1960
L 678 2176
z
M 1478 25
C 691 25 691 1200 691 1436
C 691 1896 909 2560 1504 2560
C 1613 2560 1926 2560 2138 2120
C 2253 1870 2253 1609 2253 1289
C 2253 944 2253 690 2118 434
C 1978 171 1773 25 1478 25
z
" transform="scale(0.015625)"/>
       </defs>
       <use xlink:href="#CMR17-36" transform="scale(0.996264)"/>
       <use xlink:href="#CMR17-30" transform="translate(45.690477 0) scale(0.996264)"/>
      </g>
     </g>
    </g>
    <g id="text_13">
     <!-- Average Depth -->
     <g transform="translate(12.734802 68.237527) rotate(-90) scale(0.08 -0.08)">
      <defs>
       <path id="CMSS17-41" d="M 2272 4416
L 1722 4416
L 166 0
L 653 0
L 1101 1280
L 2816 1280
L 3270 0
L 3827 0
L 2272 4416
z
M 2694 1637
L 1222 1637
C 1530 2528 1914 3638 1958 3925
L 1965 3925
C 2010 3663 2138 3281 2246 2956
L 2694 1637
z
" transform="scale(0.015625)"/>
       <path id="CMSS17-76" d="M 2675 2752
L 2176 2752
L 1747 1556
C 1613 1165 1421 627 1389 352
L 1382 352
C 1370 468 1318 634 1286 749
C 1248 890 1197 1056 1158 1172
L 595 2752
L 83 2752
L 1094 0
L 1664 0
L 2675 2752
z
" transform="scale(0.015625)"/>
       <path id="CMSS17-44" d="M 570 4416
L 570 0
L 2144 0
C 3194 0 4000 980 4000 2170
C 4000 3398 3194 4416 2144 4416
L 570 4416
z
M 1094 357
L 1094 4059
L 2003 4059
C 2861 4059 3475 3277 3475 2170
C 3475 1107 2867 357 2003 357
L 1094 357
z
" transform="scale(0.015625)"/>
       <path id="CMSS17-68" d="M 2618 1891
C 2618 2292 2522 2820 1798 2820
C 1395 2820 1133 2623 947 2407
L 947 4448
L 474 4448
L 474 32
L 960 32
L 960 1573
C 960 1973 1114 2432 1549 2432
C 2112 2432 2131 2056 2131 1839
L 2131 32
L 2618 32
L 2618 1891
z
" transform="scale(0.015625)"/>
      </defs>
      <use xlink:href="#CMSS17-41" transform="scale(0.996264)"/>
      <use xlink:href="#CMSS17-76" transform="translate(62.217855 0) scale(0.996264)"/>
      <use xlink:href="#CMSS17-65" transform="translate(105.217997 0) scale(0.996264)"/>
      <use xlink:href="#CMSS17-72" transform="translate(146.856819 0) scale(0.996264)"/>
      <use xlink:href="#CMSS17-61" transform="translate(178.766591 0) scale(0.996264)"/>
      <use xlink:href="#CMSS17-67" transform="translate(223.688512 0) scale(0.996264)"/>
      <use xlink:href="#CMSS17-65" transform="translate(270.532135 0) scale(0.996264)"/>
      <use xlink:href="#CMSS17-44" transform="translate(343.40007 0) scale(0.996264)"/>
      <use xlink:href="#CMSS17-65" transform="translate(410.942912 0) scale(0.996264)"/>
      <use xlink:href="#CMSS17-70" transform="translate(452.581734 0) scale(0.996264)"/>
      <use xlink:href="#CMSS17-74" transform="translate(500.786677 0) scale(0.996264)"/>
      <use xlink:href="#CMSS17-68" transform="translate(534.618244 0) scale(0.996264)"/>
     </g>
    </g>
   </g>
   <g id="patch_39">
    <path d="M 38.941525 76.5
L 38.941525 7.2
" style="fill: none; stroke: #000000; stroke-width: 0.8; stroke-linejoin: miter; stroke-linecap: square"/>
   </g>
   <g id="patch_40">
    <path d="M 234.241525 76.5
L 234.241525 7.2
" style="fill: none; stroke: #000000; stroke-width: 0.8; stroke-linejoin: miter; stroke-linecap: square"/>
   </g>
   <g id="patch_41">
    <path d="M 38.941525 76.5
L 234.241525 76.5
" style="fill: none; stroke: #000000; stroke-width: 0.8; stroke-linejoin: miter; stroke-linecap: square"/>
   </g>
   <g id="patch_42">
    <path d="M 38.941525 7.2
L 234.241525 7.2
" style="fill: none; stroke: #000000; stroke-width: 0.8; stroke-linejoin: miter; stroke-linecap: square"/>
   </g>
  </g>
 </g>
 <defs>
  <clipPath id="p4af005cee8">
   <rect x="38.941525" y="7.2" width="195.3" height="69.3"/>
  </clipPath>
 </defs>
</svg>
