<?xml version="1.0" encoding="utf-8" standalone="no"?>
<!DOCTYPE svg PUBLIC "-//W3C//DTD SVG 1.1//EN"
  "http://www.w3.org/Graphics/SVG/1.1/DTD/svg11.dtd">
<svg xmlns:xlink="http://www.w3.org/1999/xlink" width="1332.63798pt" height="218.357597pt" viewBox="0 0 1332.63798 218.357597" xmlns="http://www.w3.org/2000/svg" version="1.1">
 <metadata>
  <rdf:RDF xmlns:dc="http://purl.org/dc/elements/1.1/" xmlns:cc="http://creativecommons.org/ns#" xmlns:rdf="http://www.w3.org/1999/02/22-rdf-syntax-ns#">
   <cc:Work>
    <dc:type rdf:resource="http://purl.org/dc/dcmitype/StillImage"/>
    <dc:date>2023-06-05T14:20:22.560009</dc:date>
    <dc:format>image/svg+xml</dc:format>
    <dc:creator>
     <cc:Agent>
      <dc:title>Matplotlib v3.7.1, https://matplotlib.org/</dc:title>
     </cc:Agent>
    </dc:creator>
   </cc:Work>
  </rdf:RDF>
 </metadata>
 <defs>
  <style type="text/css">*{stroke-linejoin: round; stroke-linecap: butt}</style>
 </defs>
 <g id="figure_1">
  <g id="patch_1">
   <path d="M 0 218.357597
L 1332.63798 218.357597
L 1332.63798 0
L 0 0
z
" style="fill: #ffffff"/>
  </g>
  <g id="axes_1">
   <g id="line2d_1">
    <path d="M 64.609196 44.2832
L 1320.80258 44.2832
" clip-path="url(#p0fb440b34d)" style="fill: none; stroke: #000000; stroke-width: 2; stroke-linecap: square"/>
   </g>
   <g id="line2d_2">
    <path d="M 64.609196 90.637199
L 1320.80258 90.637199
" clip-path="url(#p0fb440b34d)" style="fill: none; stroke: #000000; stroke-width: 2; stroke-linecap: square"/>
   </g>
   <g id="line2d_3">
    <path d="M 64.609196 136.991198
L 1320.80258 136.991198
" clip-path="url(#p0fb440b34d)" style="fill: none; stroke: #000000; stroke-width: 2; stroke-linecap: square"/>
   </g>
   <g id="line2d_4">
    <path d="M 64.609196 183.345198
L 1320.80258 183.345198
" clip-path="url(#p0fb440b34d)" style="fill: none; stroke: #000000; stroke-width: 2; stroke-linecap: square"/>
   </g>
   <g id="line2d_5">
    <path d="M 135.994356 136.991198
L 135.994356 90.637199
" clip-path="url(#p0fb440b34d)" style="fill: none; stroke: #6fa4ff; stroke-width: 2; stroke-linecap: square"/>
   </g>
   <g id="line2d_6">
    <path d="M 228.702354 136.991198
L 228.702354 90.637199
" clip-path="url(#p0fb440b34d)" style="fill: none; stroke: #6fa4ff; stroke-width: 2; stroke-linecap: square"/>
   </g>
   <g id="line2d_7">
    <path d="M 367.764352 90.637199
L 367.764352 44.2832
" clip-path="url(#p0fb440b34d)" style="fill: none; stroke: #6fa4ff; stroke-width: 2; stroke-linecap: square"/>
   </g>
   <g id="line2d_8">
    <path d="M 460.472351 90.637199
L 460.472351 44.2832
" clip-path="url(#p0fb440b34d)" style="fill: none; stroke: #6fa4ff; stroke-width: 2; stroke-linecap: square"/>
   </g>
   <g id="line2d_9">
    <path d="M 553.18035 90.637199
L 553.18035 136.991198
" clip-path="url(#p0fb440b34d)" style="fill: none; stroke: #6fa4ff; stroke-width: 2; stroke-linecap: square"/>
   </g>
   <g id="line2d_10">
    <path d="M 599.534349 90.637199
L 599.534349 44.2832
" clip-path="url(#p0fb440b34d)" style="fill: none; stroke: #6fa4ff; stroke-width: 2; stroke-linecap: square"/>
   </g>
   <g id="line2d_11">
    <path d="M 599.534349 183.345198
L 599.534349 136.991198
" clip-path="url(#p0fb440b34d)" style="fill: none; stroke: #6fa4ff; stroke-width: 2; stroke-linecap: square"/>
   </g>
   <g id="line2d_12">
    <path d="M 738.596348 90.637199
L 738.596348 44.2832
" clip-path="url(#p0fb440b34d)" style="fill: none; stroke: #6fa4ff; stroke-width: 2; stroke-linecap: square"/>
   </g>
   <g id="line2d_13">
    <path d="M 738.596348 183.345198
L 738.596348 136.991198
" clip-path="url(#p0fb440b34d)" style="fill: none; stroke: #6fa4ff; stroke-width: 2; stroke-linecap: square"/>
   </g>
   <g id="line2d_14">
    <path d="M 877.658346 136.991198
L 877.658346 183.345198
" clip-path="url(#p0fb440b34d)" style="fill: none; stroke: #6fa4ff; stroke-width: 2; stroke-linecap: square"/>
   </g>
   <g id="line2d_15">
    <path d="M 924.012345 136.991198
L 924.012345 90.637199
" clip-path="url(#p0fb440b34d)" style="fill: none; stroke: #6fa4ff; stroke-width: 2; stroke-linecap: square"/>
   </g>
   <g id="line2d_16">
    <path d="M 1016.720344 136.991198
L 1016.720344 90.637199
" clip-path="url(#p0fb440b34d)" style="fill: none; stroke: #6fa4ff; stroke-width: 2; stroke-linecap: square"/>
   </g>
   <g id="line2d_17">
    <path d="M 1063.074343 44.2832
L 1063.074343 90.637199
" clip-path="url(#p0fb440b34d)" style="fill: none; stroke: #6fa4ff; stroke-width: 2; stroke-linecap: square"/>
   </g>
   <g id="line2d_18">
    <path d="M 1109.428343 136.991198
L 1109.428343 90.637199
" clip-path="url(#p0fb440b34d)" style="fill: none; stroke: #6fa4ff; stroke-width: 2; stroke-linecap: square"/>
   </g>
   <g id="line2d_19">
    <path d="M 1202.136341 136.991198
L 1202.136341 90.637199
" clip-path="url(#p0fb440b34d)" style="fill: none; stroke: #6fa4ff; stroke-width: 2; stroke-linecap: square"/>
   </g>
   <g id="line2d_20">
    <path d="M 547.15433 96.663219
L 559.20637 84.611179
" clip-path="url(#p0fb440b34d)" style="fill: none; stroke: #6fa4ff; stroke-width: 2; stroke-linecap: square"/>
   </g>
   <g id="line2d_21">
    <path d="M 547.15433 84.611179
L 559.20637 96.663219
" clip-path="url(#p0fb440b34d)" style="fill: none; stroke: #6fa4ff; stroke-width: 2; stroke-linecap: square"/>
   </g>
   <g id="line2d_22">
    <path d="M 547.15433 143.017218
L 559.20637 130.965178
" clip-path="url(#p0fb440b34d)" style="fill: none; stroke: #6fa4ff; stroke-width: 2; stroke-linecap: square"/>
   </g>
   <g id="line2d_23">
    <path d="M 547.15433 130.965178
L 559.20637 143.017218
" clip-path="url(#p0fb440b34d)" style="fill: none; stroke: #6fa4ff; stroke-width: 2; stroke-linecap: square"/>
   </g>
   <g id="line2d_24">
    <path d="M 871.632326 143.017218
L 883.684366 130.965178
" clip-path="url(#p0fb440b34d)" style="fill: none; stroke: #6fa4ff; stroke-width: 2; stroke-linecap: square"/>
   </g>
   <g id="line2d_25">
    <path d="M 871.632326 130.965178
L 883.684366 143.017218
" clip-path="url(#p0fb440b34d)" style="fill: none; stroke: #6fa4ff; stroke-width: 2; stroke-linecap: square"/>
   </g>
   <g id="line2d_26">
    <path d="M 871.632326 189.371218
L 883.684366 177.319178
" clip-path="url(#p0fb440b34d)" style="fill: none; stroke: #6fa4ff; stroke-width: 2; stroke-linecap: square"/>
   </g>
   <g id="line2d_27">
    <path d="M 871.632326 177.319178
L 883.684366 189.371218
" clip-path="url(#p0fb440b34d)" style="fill: none; stroke: #6fa4ff; stroke-width: 2; stroke-linecap: square"/>
   </g>
   <g id="line2d_28">
    <path d="M 1057.048323 50.309219
L 1069.100363 38.25718
" clip-path="url(#p0fb440b34d)" style="fill: none; stroke: #6fa4ff; stroke-width: 2; stroke-linecap: square"/>
   </g>
   <g id="line2d_29">
    <path d="M 1057.048323 38.25718
L 1069.100363 50.309219
" clip-path="url(#p0fb440b34d)" style="fill: none; stroke: #6fa4ff; stroke-width: 2; stroke-linecap: square"/>
   </g>
   <g id="line2d_30">
    <path d="M 1057.048323 96.663219
L 1069.100363 84.611179
" clip-path="url(#p0fb440b34d)" style="fill: none; stroke: #6fa4ff; stroke-width: 2; stroke-linecap: square"/>
   </g>
   <g id="line2d_31">
    <path d="M 1057.048323 84.611179
L 1069.100363 96.663219
" clip-path="url(#p0fb440b34d)" style="fill: none; stroke: #6fa4ff; stroke-width: 2; stroke-linecap: square"/>
   </g>
   <g id="patch_2">
    <path d="M 68.732385 105.702249
L 110.548328 105.702249
L 110.548328 75.572149
L 68.732385 75.572149
z
" clip-path="url(#p0fb440b34d)" style="fill: #bb8bff; stroke: #bb8bff; stroke-width: 1.5; stroke-linejoin: miter"/>
   </g>
   <g id="patch_3">
    <path d="M 135.994356 95.156714
C 137.192945 95.156714 138.342605 94.680509 139.190135 93.832979
C 140.037666 92.985448 140.51387 91.835788 140.51387 90.637199
C 140.51387 89.43861 140.037666 88.28895 139.190135 87.441419
C 138.342605 86.593889 137.192945 86.117684 135.994356 86.117684
C 134.795766 86.117684 133.646107 86.593889 132.798576 87.441419
C 131.951045 88.28895 131.474841 89.43861 131.474841 90.637199
C 131.474841 91.835788 131.951045 92.985448 132.798576 93.832979
C 133.646107 94.680509 134.795766 95.156714 135.994356 95.156714
z
" clip-path="url(#p0fb440b34d)" style="fill: #6fa4ff; stroke: #6fa4ff; stroke-width: 1.5; stroke-linejoin: miter"/>
   </g>
   <g id="patch_4">
    <path d="M 135.994356 147.536733
C 138.791064 147.536733 141.473603 146.425589 143.451175 144.448017
C 145.428746 142.470446 146.53989 139.787907 146.53989 136.991198
C 146.53989 134.19449 145.428746 131.511951 143.451175 129.534379
C 141.473603 127.556807 138.791064 126.445663 135.994356 126.445663
C 133.197647 126.445663 130.515108 127.556807 128.537536 129.534379
C 126.559965 131.511951 125.448821 134.19449 125.448821 136.991198
C 125.448821 139.787907 126.559965 142.470446 128.537536 144.448017
C 130.515108 146.425589 133.197647 147.536733 135.994356 147.536733
z
" clip-path="url(#p0fb440b34d)" style="fill: #6fa4ff; stroke: #6fa4ff; stroke-width: 2; stroke-linejoin: miter"/>
   </g>
   <g id="patch_5">
    <path d="M 161.345358 152.056248
L 203.351352 152.056248
L 203.351352 121.926148
L 161.345358 121.926148
z
" clip-path="url(#p0fb440b34d)" style="fill: #bb8bff; stroke: #bb8bff; stroke-width: 1.5; stroke-linejoin: miter"/>
   </g>
   <g id="patch_6">
    <path d="M 228.702354 95.156714
C 229.900944 95.156714 231.050603 94.680509 231.898134 93.832979
C 232.745665 92.985448 233.221869 91.835788 233.221869 90.637199
C 233.221869 89.43861 232.745665 88.28895 231.898134 87.441419
C 231.050603 86.593889 229.900944 86.117684 228.702354 86.117684
C 227.503765 86.117684 226.354105 86.593889 225.506575 87.441419
C 224.659044 88.28895 224.182839 89.43861 224.182839 90.637199
C 224.182839 91.835788 224.659044 92.985448 225.506575 93.832979
C 226.354105 94.680509 227.503765 95.156714 228.702354 95.156714
z
" clip-path="url(#p0fb440b34d)" style="fill: #6fa4ff; stroke: #6fa4ff; stroke-width: 1.5; stroke-linejoin: miter"/>
   </g>
   <g id="patch_7">
    <path d="M 228.702354 147.536733
C 231.499063 147.536733 234.181602 146.425589 236.159173 144.448017
C 238.136745 142.470446 239.247889 139.787907 239.247889 136.991198
C 239.247889 134.19449 238.136745 131.511951 236.159173 129.534379
C 234.181602 127.556807 231.499063 126.445663 228.702354 126.445663
C 225.905646 126.445663 223.223107 127.556807 221.245535 129.534379
C 219.267964 131.511951 218.156819 134.19449 218.156819 136.991198
C 218.156819 139.787907 219.267964 142.470446 221.245535 144.448017
C 223.223107 146.425589 225.905646 147.536733 228.702354 147.536733
z
" clip-path="url(#p0fb440b34d)" style="fill: #6fa4ff; stroke: #6fa4ff; stroke-width: 2; stroke-linejoin: miter"/>
   </g>
   <g id="patch_8">
    <path d="M 280.850604 105.702249
L 315.616103 105.702249
L 315.616103 75.572149
L 280.850604 75.572149
z
" clip-path="url(#p0fb440b34d)" style="fill: #bb8bff; stroke: #bb8bff; stroke-width: 1.5; stroke-linejoin: miter"/>
   </g>
   <g id="patch_9">
    <path d="M 270.418636 152.056248
L 326.048071 152.056248
L 326.048071 121.926148
L 270.418636 121.926148
z
" clip-path="url(#p0fb440b34d)" style="fill: #bb8bff; stroke: #bb8bff; stroke-width: 1.5; stroke-linejoin: miter"/>
   </g>
   <g id="patch_10">
    <path d="M 367.764352 95.156714
C 368.962942 95.156714 370.112601 94.680509 370.960132 93.832979
C 371.807663 92.985448 372.283867 91.835788 372.283867 90.637199
C 372.283867 89.43861 371.807663 88.28895 370.960132 87.441419
C 370.112601 86.593889 368.962942 86.117684 367.764352 86.117684
C 366.565763 86.117684 365.416103 86.593889 364.568573 87.441419
C 363.721042 88.28895 363.244837 89.43861 363.244837 90.637199
C 363.244837 91.835788 363.721042 92.985448 364.568573 93.832979
C 365.416103 94.680509 366.565763 95.156714 367.764352 95.156714
z
" clip-path="url(#p0fb440b34d)" style="fill: #6fa4ff; stroke: #6fa4ff; stroke-width: 1.5; stroke-linejoin: miter"/>
   </g>
   <g id="patch_11">
    <path d="M 367.764352 54.828734
C 370.561061 54.828734 373.2436 53.71759 375.221172 51.740019
C 377.198743 49.762447 378.309887 47.079908 378.309887 44.2832
C 378.309887 41.486491 377.198743 38.803952 375.221172 36.82638
C 373.2436 34.848809 370.561061 33.737665 367.764352 33.737665
C 364.967644 33.737665 362.285105 34.848809 360.307533 36.82638
C 358.329962 38.803952 357.218818 41.486491 357.218818 44.2832
C 357.218818 47.079908 358.329962 49.762447 360.307533 51.740019
C 362.285105 53.71759 364.967644 54.828734 367.764352 54.828734
z
" clip-path="url(#p0fb440b34d)" style="fill: #6fa4ff; stroke: #6fa4ff; stroke-width: 2; stroke-linejoin: miter"/>
   </g>
   <g id="patch_12">
    <path d="M 393.115355 59.348249
L 435.121349 59.348249
L 435.121349 29.21815
L 393.115355 29.21815
z
" clip-path="url(#p0fb440b34d)" style="fill: #bb8bff; stroke: #bb8bff; stroke-width: 1.5; stroke-linejoin: miter"/>
   </g>
   <g id="patch_13">
    <path d="M 460.472351 95.156714
C 461.670941 95.156714 462.8206 94.680509 463.668131 93.832979
C 464.515662 92.985448 464.991866 91.835788 464.991866 90.637199
C 464.991866 89.43861 464.515662 88.28895 463.668131 87.441419
C 462.8206 86.593889 461.670941 86.117684 460.472351 86.117684
C 459.273762 86.117684 458.124102 86.593889 457.276572 87.441419
C 456.429041 88.28895 455.952836 89.43861 455.952836 90.637199
C 455.952836 91.835788 456.429041 92.985448 457.276572 93.832979
C 458.124102 94.680509 459.273762 95.156714 460.472351 95.156714
z
" clip-path="url(#p0fb440b34d)" style="fill: #6fa4ff; stroke: #6fa4ff; stroke-width: 1.5; stroke-linejoin: miter"/>
   </g>
   <g id="patch_14">
    <path d="M 460.472351 54.828734
C 463.26906 54.828734 465.951599 53.71759 467.92917 51.740019
C 469.906742 49.762447 471.017886 47.079908 471.017886 44.2832
C 471.017886 41.486491 469.906742 38.803952 467.92917 36.82638
C 465.951599 34.848809 463.26906 33.737665 460.472351 33.737665
C 457.675643 33.737665 454.993104 34.848809 453.015532 36.82638
C 451.03796 38.803952 449.926816 41.486491 449.926816 44.2832
C 449.926816 47.079908 451.03796 49.762447 453.015532 51.740019
C 454.993104 53.71759 457.675643 54.828734 460.472351 54.828734
z
" clip-path="url(#p0fb440b34d)" style="fill: #6fa4ff; stroke: #6fa4ff; stroke-width: 2; stroke-linejoin: miter"/>
   </g>
   <g id="patch_15">
    <path d="M 489.443601 59.348249
L 524.2091 59.348249
L 524.2091 29.21815
L 489.443601 29.21815
z
" clip-path="url(#p0fb440b34d)" style="fill: #bb8bff; stroke: #bb8bff; stroke-width: 1.5; stroke-linejoin: miter"/>
   </g>
   <g id="patch_16">
    <path d="M 486.787517 105.702249
L 526.865185 105.702249
L 526.865185 75.572149
L 486.787517 75.572149
z
" clip-path="url(#p0fb440b34d)" style="fill: #bb8bff; stroke: #bb8bff; stroke-width: 1.5; stroke-linejoin: miter"/>
   </g>
   <g id="patch_17">
    <path d="M 599.534349 95.156714
C 600.732939 95.156714 601.882598 94.680509 602.730129 93.832979
C 603.57766 92.985448 604.053864 91.835788 604.053864 90.637199
C 604.053864 89.43861 603.57766 88.28895 602.730129 87.441419
C 601.882598 86.593889 600.732939 86.117684 599.534349 86.117684
C 598.33576 86.117684 597.1861 86.593889 596.33857 87.441419
C 595.491039 88.28895 595.014834 89.43861 595.014834 90.637199
C 595.014834 91.835788 595.491039 92.985448 596.33857 93.832979
C 597.1861 94.680509 598.33576 95.156714 599.534349 95.156714
z
" clip-path="url(#p0fb440b34d)" style="fill: #6fa4ff; stroke: #6fa4ff; stroke-width: 1.5; stroke-linejoin: miter"/>
   </g>
   <g id="patch_18">
    <path d="M 599.534349 54.828734
C 602.331058 54.828734 605.013597 53.71759 606.991169 51.740019
C 608.96874 49.762447 610.079884 47.079908 610.079884 44.2832
C 610.079884 41.486491 608.96874 38.803952 606.991169 36.82638
C 605.013597 34.848809 602.331058 33.737665 599.534349 33.737665
C 596.737641 33.737665 594.055102 34.848809 592.07753 36.82638
C 590.099959 38.803952 588.988814 41.486491 588.988814 44.2832
C 588.988814 47.079908 590.099959 49.762447 592.07753 51.740019
C 594.055102 53.71759 596.737641 54.828734 599.534349 54.828734
z
" clip-path="url(#p0fb440b34d)" style="fill: #6fa4ff; stroke: #6fa4ff; stroke-width: 2; stroke-linejoin: miter"/>
   </g>
   <g id="patch_19">
    <path d="M 599.534349 141.510713
C 600.732939 141.510713 601.882598 141.034509 602.730129 140.186978
C 603.57766 139.339447 604.053864 138.189788 604.053864 136.991198
C 604.053864 135.792609 603.57766 134.642949 602.730129 133.795419
C 601.882598 132.947888 600.732939 132.471683 599.534349 132.471683
C 598.33576 132.471683 597.1861 132.947888 596.33857 133.795419
C 595.491039 134.642949 595.014834 135.792609 595.014834 136.991198
C 595.014834 138.189788 595.491039 139.339447 596.33857 140.186978
C 597.1861 141.034509 598.33576 141.510713 599.534349 141.510713
z
" clip-path="url(#p0fb440b34d)" style="fill: #6fa4ff; stroke: #6fa4ff; stroke-width: 1.5; stroke-linejoin: miter"/>
   </g>
   <g id="patch_20">
    <path d="M 599.534349 193.890733
C 602.331058 193.890733 605.013597 192.779588 606.991169 190.802017
C 608.96874 188.824445 610.079884 186.141906 610.079884 183.345198
C 610.079884 180.548489 608.96874 177.86595 606.991169 175.888378
C 605.013597 173.910807 602.331058 172.799663 599.534349 172.799663
C 596.737641 172.799663 594.055102 173.910807 592.07753 175.888378
C 590.099959 177.86595 588.988814 180.548489 588.988814 183.345198
C 588.988814 186.141906 590.099959 188.824445 592.07753 190.802017
C 594.055102 192.779588 596.737641 193.890733 599.534349 193.890733
z
" clip-path="url(#p0fb440b34d)" style="fill: #6fa4ff; stroke: #6fa4ff; stroke-width: 2; stroke-linejoin: miter"/>
   </g>
   <g id="patch_21">
    <path d="M 648.062351 59.348249
L 690.068346 59.348249
L 690.068346 29.21815
L 648.062351 29.21815
z
" clip-path="url(#p0fb440b34d)" style="fill: #bb8bff; stroke: #bb8bff; stroke-width: 1.5; stroke-linejoin: miter"/>
   </g>
   <g id="patch_22">
    <path d="M 645.406267 198.410247
L 692.72443 198.410247
L 692.72443 168.280148
L 645.406267 168.280148
z
" clip-path="url(#p0fb440b34d)" style="fill: #bb8bff; stroke: #bb8bff; stroke-width: 1.5; stroke-linejoin: miter"/>
   </g>
   <g id="patch_23">
    <path d="M 738.596348 95.156714
C 739.794937 95.156714 740.944596 94.680509 741.792127 93.832979
C 742.639658 92.985448 743.115862 91.835788 743.115862 90.637199
C 743.115862 89.43861 742.639658 88.28895 741.792127 87.441419
C 740.944596 86.593889 739.794937 86.117684 738.596348 86.117684
C 737.397758 86.117684 736.248099 86.593889 735.400568 87.441419
C 734.553037 88.28895 734.076833 89.43861 734.076833 90.637199
C 734.076833 91.835788 734.553037 92.985448 735.400568 93.832979
C 736.248099 94.680509 737.397758 95.156714 738.596348 95.156714
z
" clip-path="url(#p0fb440b34d)" style="fill: #6fa4ff; stroke: #6fa4ff; stroke-width: 1.5; stroke-linejoin: miter"/>
   </g>
   <g id="patch_24">
    <path d="M 738.596348 54.828734
C 741.393056 54.828734 744.075595 53.71759 746.053167 51.740019
C 748.030738 49.762447 749.141882 47.079908 749.141882 44.2832
C 749.141882 41.486491 748.030738 38.803952 746.053167 36.82638
C 744.075595 34.848809 741.393056 33.737665 738.596348 33.737665
C 735.799639 33.737665 733.1171 34.848809 731.139528 36.82638
C 729.161957 38.803952 728.050813 41.486491 728.050813 44.2832
C 728.050813 47.079908 729.161957 49.762447 731.139528 51.740019
C 733.1171 53.71759 735.799639 54.828734 738.596348 54.828734
z
" clip-path="url(#p0fb440b34d)" style="fill: #6fa4ff; stroke: #6fa4ff; stroke-width: 2; stroke-linejoin: miter"/>
   </g>
   <g id="patch_25">
    <path d="M 738.596348 141.510713
C 739.794937 141.510713 740.944596 141.034509 741.792127 140.186978
C 742.639658 139.339447 743.115862 138.189788 743.115862 136.991198
C 743.115862 135.792609 742.639658 134.642949 741.792127 133.795419
C 740.944596 132.947888 739.794937 132.471683 738.596348 132.471683
C 737.397758 132.471683 736.248099 132.947888 735.400568 133.795419
C 734.553037 134.642949 734.076833 135.792609 734.076833 136.991198
C 734.076833 138.189788 734.553037 139.339447 735.400568 140.186978
C 736.248099 141.034509 737.397758 141.510713 738.596348 141.510713
z
" clip-path="url(#p0fb440b34d)" style="fill: #6fa4ff; stroke: #6fa4ff; stroke-width: 1.5; stroke-linejoin: miter"/>
   </g>
   <g id="patch_26">
    <path d="M 738.596348 193.890733
C 741.393056 193.890733 744.075595 192.779588 746.053167 190.802017
C 748.030738 188.824445 749.141882 186.141906 749.141882 183.345198
C 749.141882 180.548489 748.030738 177.86595 746.053167 175.888378
C 744.075595 173.910807 741.393056 172.799663 738.596348 172.799663
C 735.799639 172.799663 733.1171 173.910807 731.139528 175.888378
C 729.161957 177.86595 728.050813 180.548489 728.050813 183.345198
C 728.050813 186.141906 729.161957 188.824445 731.139528 190.802017
C 733.1171 192.779588 735.799639 193.890733 738.596348 193.890733
z
" clip-path="url(#p0fb440b34d)" style="fill: #6fa4ff; stroke: #6fa4ff; stroke-width: 2; stroke-linejoin: miter"/>
   </g>
   <g id="patch_27">
    <path d="M 780.312629 59.348249
L 835.942064 59.348249
L 835.942064 29.21815
L 780.312629 29.21815
z
" clip-path="url(#p0fb440b34d)" style="fill: #bb8bff; stroke: #bb8bff; stroke-width: 1.5; stroke-linejoin: miter"/>
   </g>
   <g id="patch_28">
    <path d="M 790.744597 105.702249
L 825.510096 105.702249
L 825.510096 75.572149
L 790.744597 75.572149
z
" clip-path="url(#p0fb440b34d)" style="fill: #bb8bff; stroke: #bb8bff; stroke-width: 1.5; stroke-linejoin: miter"/>
   </g>
   <g id="patch_29">
    <path d="M 788.088513 198.410247
L 828.166181 198.410247
L 828.166181 168.280148
L 788.088513 168.280148
z
" clip-path="url(#p0fb440b34d)" style="fill: #bb8bff; stroke: #bb8bff; stroke-width: 1.5; stroke-linejoin: miter"/>
   </g>
   <g id="patch_30">
    <path d="M 924.012345 95.156714
C 925.210934 95.156714 926.360594 94.680509 927.208125 93.832979
C 928.055655 92.985448 928.53186 91.835788 928.53186 90.637199
C 928.53186 89.43861 928.055655 88.28895 927.208125 87.441419
C 926.360594 86.593889 925.210934 86.117684 924.012345 86.117684
C 922.813756 86.117684 921.664096 86.593889 920.816565 87.441419
C 919.969035 88.28895 919.49283 89.43861 919.49283 90.637199
C 919.49283 91.835788 919.969035 92.985448 920.816565 93.832979
C 921.664096 94.680509 922.813756 95.156714 924.012345 95.156714
z
" clip-path="url(#p0fb440b34d)" style="fill: #6fa4ff; stroke: #6fa4ff; stroke-width: 1.5; stroke-linejoin: miter"/>
   </g>
   <g id="patch_31">
    <path d="M 924.012345 147.536733
C 926.809054 147.536733 929.491593 146.425589 931.469164 144.448017
C 933.446736 142.470446 934.55788 139.787907 934.55788 136.991198
C 934.55788 134.19449 933.446736 131.511951 931.469164 129.534379
C 929.491593 127.556807 926.809054 126.445663 924.012345 126.445663
C 921.215637 126.445663 918.533097 127.556807 916.555526 129.534379
C 914.577954 131.511951 913.46681 134.19449 913.46681 136.991198
C 913.46681 139.787907 914.577954 142.470446 916.555526 144.448017
C 918.533097 146.425589 921.215637 147.536733 924.012345 147.536733
z
" clip-path="url(#p0fb440b34d)" style="fill: #6fa4ff; stroke: #6fa4ff; stroke-width: 2; stroke-linejoin: miter"/>
   </g>
   <g id="patch_32">
    <path d="M 949.363347 152.056248
L 991.369342 152.056248
L 991.369342 121.926148
L 949.363347 121.926148
z
" clip-path="url(#p0fb440b34d)" style="fill: #bb8bff; stroke: #bb8bff; stroke-width: 1.5; stroke-linejoin: miter"/>
   </g>
   <g id="patch_33">
    <path d="M 1016.720344 95.156714
C 1017.918933 95.156714 1019.068593 94.680509 1019.916123 93.832979
C 1020.763654 92.985448 1021.239859 91.835788 1021.239859 90.637199
C 1021.239859 89.43861 1020.763654 88.28895 1019.916123 87.441419
C 1019.068593 86.593889 1017.918933 86.117684 1016.720344 86.117684
C 1015.521754 86.117684 1014.372095 86.593889 1013.524564 87.441419
C 1012.677033 88.28895 1012.200829 89.43861 1012.200829 90.637199
C 1012.200829 91.835788 1012.677033 92.985448 1013.524564 93.832979
C 1014.372095 94.680509 1015.521754 95.156714 1016.720344 95.156714
z
" clip-path="url(#p0fb440b34d)" style="fill: #6fa4ff; stroke: #6fa4ff; stroke-width: 1.5; stroke-linejoin: miter"/>
   </g>
   <g id="patch_34">
    <path d="M 1016.720344 147.536733
C 1019.517052 147.536733 1022.199591 146.425589 1024.177163 144.448017
C 1026.154735 142.470446 1027.265879 139.787907 1027.265879 136.991198
C 1027.265879 134.19449 1026.154735 131.511951 1024.177163 129.534379
C 1022.199591 127.556807 1019.517052 126.445663 1016.720344 126.445663
C 1013.923635 126.445663 1011.241096 127.556807 1009.263525 129.534379
C 1007.285953 131.511951 1006.174809 134.19449 1006.174809 136.991198
C 1006.174809 139.787907 1007.285953 142.470446 1009.263525 144.448017
C 1011.241096 146.425589 1013.923635 147.536733 1016.720344 147.536733
z
" clip-path="url(#p0fb440b34d)" style="fill: #6fa4ff; stroke: #6fa4ff; stroke-width: 2; stroke-linejoin: miter"/>
   </g>
   <g id="patch_35">
    <path d="M 1045.691593 152.056248
L 1080.457093 152.056248
L 1080.457093 121.926148
L 1045.691593 121.926148
z
" clip-path="url(#p0fb440b34d)" style="fill: #bb8bff; stroke: #bb8bff; stroke-width: 1.5; stroke-linejoin: miter"/>
   </g>
   <g id="patch_36">
    <path d="M 1109.428343 95.156714
C 1110.626932 95.156714 1111.776592 94.680509 1112.624122 93.832979
C 1113.471653 92.985448 1113.947858 91.835788 1113.947858 90.637199
C 1113.947858 89.43861 1113.471653 88.28895 1112.624122 87.441419
C 1111.776592 86.593889 1110.626932 86.117684 1109.428343 86.117684
C 1108.229753 86.117684 1107.080094 86.593889 1106.232563 87.441419
C 1105.385032 88.28895 1104.908828 89.43861 1104.908828 90.637199
C 1104.908828 91.835788 1105.385032 92.985448 1106.232563 93.832979
C 1107.080094 94.680509 1108.229753 95.156714 1109.428343 95.156714
z
" clip-path="url(#p0fb440b34d)" style="fill: #6fa4ff; stroke: #6fa4ff; stroke-width: 1.5; stroke-linejoin: miter"/>
   </g>
   <g id="patch_37">
    <path d="M 1109.428343 147.536733
C 1112.225051 147.536733 1114.90759 146.425589 1116.885162 144.448017
C 1118.862733 142.470446 1119.973877 139.787907 1119.973877 136.991198
C 1119.973877 134.19449 1118.862733 131.511951 1116.885162 129.534379
C 1114.90759 127.556807 1112.225051 126.445663 1109.428343 126.445663
C 1106.631634 126.445663 1103.949095 127.556807 1101.971523 129.534379
C 1099.993952 131.511951 1098.882808 134.19449 1098.882808 136.991198
C 1098.882808 139.787907 1099.993952 142.470446 1101.971523 144.448017
C 1103.949095 146.425589 1106.631634 147.536733 1109.428343 147.536733
z
" clip-path="url(#p0fb440b34d)" style="fill: #6fa4ff; stroke: #6fa4ff; stroke-width: 2; stroke-linejoin: miter"/>
   </g>
   <g id="patch_38">
    <path d="M 1134.779345 152.056248
L 1176.785339 152.056248
L 1176.785339 121.926148
L 1134.779345 121.926148
z
" clip-path="url(#p0fb440b34d)" style="fill: #bb8bff; stroke: #bb8bff; stroke-width: 1.5; stroke-linejoin: miter"/>
   </g>
   <g id="patch_39">
    <path d="M 1202.136341 95.156714
C 1203.334931 95.156714 1204.48459 94.680509 1205.332121 93.832979
C 1206.179652 92.985448 1206.655856 91.835788 1206.655856 90.637199
C 1206.655856 89.43861 1206.179652 88.28895 1205.332121 87.441419
C 1204.48459 86.593889 1203.334931 86.117684 1202.136341 86.117684
C 1200.937752 86.117684 1199.788092 86.593889 1198.940562 87.441419
C 1198.093031 88.28895 1197.616826 89.43861 1197.616826 90.637199
C 1197.616826 91.835788 1198.093031 92.985448 1198.940562 93.832979
C 1199.788092 94.680509 1200.937752 95.156714 1202.136341 95.156714
z
" clip-path="url(#p0fb440b34d)" style="fill: #6fa4ff; stroke: #6fa4ff; stroke-width: 1.5; stroke-linejoin: miter"/>
   </g>
   <g id="patch_40">
    <path d="M 1202.136341 147.536733
C 1204.93305 147.536733 1207.615589 146.425589 1209.593161 144.448017
C 1211.570732 142.470446 1212.681876 139.787907 1212.681876 136.991198
C 1212.681876 134.19449 1211.570732 131.511951 1209.593161 129.534379
C 1207.615589 127.556807 1204.93305 126.445663 1202.136341 126.445663
C 1199.339633 126.445663 1196.657094 127.556807 1194.679522 129.534379
C 1192.701951 131.511951 1191.590806 134.19449 1191.590806 136.991198
C 1191.590806 139.787907 1192.701951 142.470446 1194.679522 144.448017
C 1196.657094 146.425589 1199.339633 147.536733 1202.136341 147.536733
z
" clip-path="url(#p0fb440b34d)" style="fill: #6fa4ff; stroke: #6fa4ff; stroke-width: 2; stroke-linejoin: miter"/>
   </g>
   <g id="patch_41">
    <path d="M 1247.716229 152.056248
L 1295.618452 152.056248
L 1295.618452 121.926148
L 1247.716229 121.926148
z
" clip-path="url(#p0fb440b34d)" style="fill: #bb8bff; stroke: #bb8bff; stroke-width: 1.5; stroke-linejoin: miter"/>
   </g>
   <g id="text_1">
    <g clip-path="url(#p0fb440b34d)">
     <!-- ${q}_{0}$ -->
     <g transform="translate(37.300897 48.734176) scale(0.1625 -0.1625)">
      <defs>
       <path id="DejaVuSans-Oblique-71" d="M 2669 525
Q 2438 222 2123 65
Q 1809 -91 1428 -91
Q 897 -91 595 267
Q 294 625 294 1253
Q 294 1759 480 2231
Q 666 2703 1013 3078
Q 1238 3322 1530 3453
Q 1822 3584 2144 3584
Q 2531 3584 2781 3431
Q 3031 3278 3144 2969
L 3244 3494
L 3822 3494
L 2888 -1319
L 2309 -1319
L 2669 525
z
M 891 1338
Q 891 875 1084 633
Q 1278 391 1644 391
Q 2188 391 2572 911
Q 2956 1431 2956 2175
Q 2956 2625 2757 2864
Q 2559 3103 2188 3103
Q 1916 3103 1684 2976
Q 1453 2850 1281 2606
Q 1100 2350 995 2006
Q 891 1663 891 1338
z
" transform="scale(0.015625)"/>
       <path id="DejaVuSans-30" d="M 2034 4250
Q 1547 4250 1301 3770
Q 1056 3291 1056 2328
Q 1056 1369 1301 889
Q 1547 409 2034 409
Q 2525 409 2770 889
Q 3016 1369 3016 2328
Q 3016 3291 2770 3770
Q 2525 4250 2034 4250
z
M 2034 4750
Q 2819 4750 3233 4129
Q 3647 3509 3647 2328
Q 3647 1150 3233 529
Q 2819 -91 2034 -91
Q 1250 -91 836 529
Q 422 1150 422 2328
Q 422 3509 836 4129
Q 1250 4750 2034 4750
z
" transform="scale(0.015625)"/>
      </defs>
      <use xlink:href="#DejaVuSans-Oblique-71"/>
      <use xlink:href="#DejaVuSans-30" transform="translate(63.476562 -16.40625) scale(0.7)"/>
     </g>
    </g>
   </g>
   <g id="text_2">
    <g clip-path="url(#p0fb440b34d)">
     <!-- ${q}_{1}$ -->
     <g transform="translate(37.300897 95.088175) scale(0.1625 -0.1625)">
      <defs>
       <path id="DejaVuSans-31" d="M 794 531
L 1825 531
L 1825 4091
L 703 3866
L 703 4441
L 1819 4666
L 2450 4666
L 2450 531
L 3481 531
L 3481 0
L 794 0
L 794 531
z
" transform="scale(0.015625)"/>
      </defs>
      <use xlink:href="#DejaVuSans-Oblique-71"/>
      <use xlink:href="#DejaVuSans-31" transform="translate(63.476562 -16.40625) scale(0.7)"/>
     </g>
    </g>
   </g>
   <g id="text_3">
    <g clip-path="url(#p0fb440b34d)">
     <!-- ${q}_{2}$ -->
     <g transform="translate(37.300897 141.442175) scale(0.1625 -0.1625)">
      <defs>
       <path id="DejaVuSans-32" d="M 1228 531
L 3431 531
L 3431 0
L 469 0
L 469 531
Q 828 903 1448 1529
Q 2069 2156 2228 2338
Q 2531 2678 2651 2914
Q 2772 3150 2772 3378
Q 2772 3750 2511 3984
Q 2250 4219 1831 4219
Q 1534 4219 1204 4116
Q 875 4013 500 3803
L 500 4441
Q 881 4594 1212 4672
Q 1544 4750 1819 4750
Q 2544 4750 2975 4387
Q 3406 4025 3406 3419
Q 3406 3131 3298 2873
Q 3191 2616 2906 2266
Q 2828 2175 2409 1742
Q 1991 1309 1228 531
z
" transform="scale(0.015625)"/>
      </defs>
      <use xlink:href="#DejaVuSans-Oblique-71"/>
      <use xlink:href="#DejaVuSans-32" transform="translate(63.476562 -16.40625) scale(0.7)"/>
     </g>
    </g>
   </g>
   <g id="text_4">
    <g clip-path="url(#p0fb440b34d)">
     <!-- ${q}_{3}$ -->
     <g transform="translate(37.300897 187.796174) scale(0.1625 -0.1625)">
      <defs>
       <path id="DejaVuSans-33" d="M 2597 2516
Q 3050 2419 3304 2112
Q 3559 1806 3559 1356
Q 3559 666 3084 287
Q 2609 -91 1734 -91
Q 1441 -91 1130 -33
Q 819 25 488 141
L 488 750
Q 750 597 1062 519
Q 1375 441 1716 441
Q 2309 441 2620 675
Q 2931 909 2931 1356
Q 2931 1769 2642 2001
Q 2353 2234 1838 2234
L 1294 2234
L 1294 2753
L 1863 2753
Q 2328 2753 2575 2939
Q 2822 3125 2822 3475
Q 2822 3834 2567 4026
Q 2313 4219 1838 4219
Q 1578 4219 1281 4162
Q 984 4106 628 3988
L 628 4550
Q 988 4650 1302 4700
Q 1616 4750 1894 4750
Q 2613 4750 3031 4423
Q 3450 4097 3450 3541
Q 3450 3153 3228 2886
Q 3006 2619 2597 2516
z
" transform="scale(0.015625)"/>
      </defs>
      <use xlink:href="#DejaVuSans-Oblique-71"/>
      <use xlink:href="#DejaVuSans-33" transform="translate(63.476562 -16.40625) scale(0.7)"/>
     </g>
    </g>
   </g>
   <g id="text_5">
    <g clip-path="url(#p0fb440b34d)">
     <!-- $\pi$/2, $\pi$/4, $\pi$ -->
     <g transform="translate(69.680356 101.883729) scale(0.08 -0.08)">
      <defs>
       <path id="DejaVuSans-Oblique-3c0" d="M 584 3500
L 3938 3500
L 3825 2925
L 3384 2925
L 2966 775
Q 2922 550 2981 450
Q 3038 353 3209 353
Q 3256 353 3325 363
Q 3397 369 3419 372
L 3338 -44
Q 3222 -84 3103 -103
Q 2981 -122 2866 -122
Q 2491 -122 2388 81
Q 2284 288 2391 838
L 2797 2925
L 1506 2925
L 938 0
L 350 0
L 919 2925
L 472 2925
L 584 3500
z
" transform="scale(0.015625)"/>
       <path id="DejaVuSans-2f" d="M 1625 4666
L 2156 4666
L 531 -594
L 0 -594
L 1625 4666
z
" transform="scale(0.015625)"/>
       <path id="DejaVuSans-2c" d="M 750 794
L 1409 794
L 1409 256
L 897 -744
L 494 -744
L 750 256
L 750 794
z
" transform="scale(0.015625)"/>
       <path id="DejaVuSans-20" transform="scale(0.015625)"/>
       <path id="DejaVuSans-34" d="M 2419 4116
L 825 1625
L 2419 1625
L 2419 4116
z
M 2253 4666
L 3047 4666
L 3047 1625
L 3713 1625
L 3713 1100
L 3047 1100
L 3047 0
L 2419 0
L 2419 1100
L 313 1100
L 313 1709
L 2253 4666
z
" transform="scale(0.015625)"/>
      </defs>
      <use xlink:href="#DejaVuSans-Oblique-3c0" transform="translate(0 0.78125)"/>
      <use xlink:href="#DejaVuSans-2f" transform="translate(60.205078 0.78125)"/>
      <use xlink:href="#DejaVuSans-32" transform="translate(90.271484 0.78125)"/>
      <use xlink:href="#DejaVuSans-2c" transform="translate(153.894531 0.78125)"/>
      <use xlink:href="#DejaVuSans-20" transform="translate(185.681641 0.78125)"/>
      <use xlink:href="#DejaVuSans-Oblique-3c0" transform="translate(217.46875 0.78125)"/>
      <use xlink:href="#DejaVuSans-2f" transform="translate(277.673828 0.78125)"/>
      <use xlink:href="#DejaVuSans-34" transform="translate(311.365234 0.78125)"/>
      <use xlink:href="#DejaVuSans-2c" transform="translate(374.988281 0.78125)"/>
      <use xlink:href="#DejaVuSans-20" transform="translate(406.775391 0.78125)"/>
      <use xlink:href="#DejaVuSans-Oblique-3c0" transform="translate(438.5625 0.78125)"/>
     </g>
    </g>
   </g>
   <g id="text_6">
    <g clip-path="url(#p0fb440b34d)">
     <!-- U -->
     <g transform="translate(84.883169 89.704871) scale(0.13 -0.13)">
      <defs>
       <path id="DejaVuSans-55" d="M 556 4666
L 1191 4666
L 1191 1831
Q 1191 1081 1462 751
Q 1734 422 2344 422
Q 2950 422 3222 751
Q 3494 1081 3494 1831
L 3494 4666
L 4128 4666
L 4128 1753
Q 4128 841 3676 375
Q 3225 -91 2344 -91
Q 1459 -91 1007 375
Q 556 841 556 1753
L 556 4666
z
" transform="scale(0.015625)"/>
      </defs>
      <use xlink:href="#DejaVuSans-55"/>
     </g>
    </g>
   </g>
   <g id="line2d_32">
    <path d="M 135.994356 143.017218
L 135.994356 130.965178
" clip-path="url(#p0fb440b34d)" style="fill: none; stroke: #ffffff; stroke-width: 2; stroke-linecap: square"/>
   </g>
   <g id="line2d_33">
    <path d="M 129.968336 136.991198
L 142.020375 136.991198
" clip-path="url(#p0fb440b34d)" style="fill: none; stroke: #ffffff; stroke-width: 2; stroke-linecap: square"/>
   </g>
   <g id="text_7">
    <g clip-path="url(#p0fb440b34d)">
     <!-- 0, 0, $-$$\pi$/4 -->
     <g transform="translate(162.508355 148.237728) scale(0.08 -0.08)">
      <defs>
       <path id="DejaVuSans-2212" d="M 678 2272
L 4684 2272
L 4684 1741
L 678 1741
L 678 2272
z
" transform="scale(0.015625)"/>
      </defs>
      <use xlink:href="#DejaVuSans-30" transform="translate(0 0.78125)"/>
      <use xlink:href="#DejaVuSans-2c" transform="translate(63.623047 0.78125)"/>
      <use xlink:href="#DejaVuSans-20" transform="translate(95.410156 0.78125)"/>
      <use xlink:href="#DejaVuSans-30" transform="translate(127.197266 0.78125)"/>
      <use xlink:href="#DejaVuSans-2c" transform="translate(190.820312 0.78125)"/>
      <use xlink:href="#DejaVuSans-20" transform="translate(222.607422 0.78125)"/>
      <use xlink:href="#DejaVuSans-2212" transform="translate(254.394531 0.78125)"/>
      <use xlink:href="#DejaVuSans-Oblique-3c0" transform="translate(338.183594 0.78125)"/>
      <use xlink:href="#DejaVuSans-2f" transform="translate(398.388672 0.78125)"/>
      <use xlink:href="#DejaVuSans-34" transform="translate(432.080078 0.78125)"/>
     </g>
    </g>
   </g>
   <g id="text_8">
    <g clip-path="url(#p0fb440b34d)">
     <!-- U -->
     <g transform="translate(177.591167 136.058871) scale(0.13 -0.13)">
      <use xlink:href="#DejaVuSans-55"/>
     </g>
    </g>
   </g>
   <g id="line2d_34">
    <path d="M 228.702354 143.017218
L 228.702354 130.965178
" clip-path="url(#p0fb440b34d)" style="fill: none; stroke: #ffffff; stroke-width: 2; stroke-linecap: square"/>
   </g>
   <g id="line2d_35">
    <path d="M 222.676334 136.991198
L 234.728374 136.991198
" clip-path="url(#p0fb440b34d)" style="fill: none; stroke: #ffffff; stroke-width: 2; stroke-linecap: square"/>
   </g>
   <g id="text_9">
    <g clip-path="url(#p0fb440b34d)">
     <!-- 0, 0, $\pi$/8 -->
     <g transform="translate(281.953353 101.883729) scale(0.08 -0.08)">
      <defs>
       <path id="DejaVuSans-38" d="M 2034 2216
Q 1584 2216 1326 1975
Q 1069 1734 1069 1313
Q 1069 891 1326 650
Q 1584 409 2034 409
Q 2484 409 2743 651
Q 3003 894 3003 1313
Q 3003 1734 2745 1975
Q 2488 2216 2034 2216
z
M 1403 2484
Q 997 2584 770 2862
Q 544 3141 544 3541
Q 544 4100 942 4425
Q 1341 4750 2034 4750
Q 2731 4750 3128 4425
Q 3525 4100 3525 3541
Q 3525 3141 3298 2862
Q 3072 2584 2669 2484
Q 3125 2378 3379 2068
Q 3634 1759 3634 1313
Q 3634 634 3220 271
Q 2806 -91 2034 -91
Q 1263 -91 848 271
Q 434 634 434 1313
Q 434 1759 690 2068
Q 947 2378 1403 2484
z
M 1172 3481
Q 1172 3119 1398 2916
Q 1625 2713 2034 2713
Q 2441 2713 2670 2916
Q 2900 3119 2900 3481
Q 2900 3844 2670 4047
Q 2441 4250 2034 4250
Q 1625 4250 1398 4047
Q 1172 3844 1172 3481
z
" transform="scale(0.015625)"/>
      </defs>
      <use xlink:href="#DejaVuSans-30" transform="translate(0 0.78125)"/>
      <use xlink:href="#DejaVuSans-2c" transform="translate(63.623047 0.78125)"/>
      <use xlink:href="#DejaVuSans-20" transform="translate(95.410156 0.78125)"/>
      <use xlink:href="#DejaVuSans-30" transform="translate(127.197266 0.78125)"/>
      <use xlink:href="#DejaVuSans-2c" transform="translate(190.820312 0.78125)"/>
      <use xlink:href="#DejaVuSans-20" transform="translate(222.607422 0.78125)"/>
      <use xlink:href="#DejaVuSans-Oblique-3c0" transform="translate(254.394531 0.78125)"/>
      <use xlink:href="#DejaVuSans-2f" transform="translate(314.599609 0.78125)"/>
      <use xlink:href="#DejaVuSans-38" transform="translate(343.291016 0.78125)"/>
     </g>
    </g>
   </g>
   <g id="text_10">
    <g clip-path="url(#p0fb440b34d)">
     <!-- U -->
     <g transform="translate(293.476166 89.704871) scale(0.13 -0.13)">
      <use xlink:href="#DejaVuSans-55"/>
     </g>
    </g>
   </g>
   <g id="text_11">
    <g clip-path="url(#p0fb440b34d)">
     <!-- $\pi$/2, $\pi$/4, 5$\pi$/4 -->
     <g transform="translate(271.833353 148.237728) scale(0.08 -0.08)">
      <defs>
       <path id="DejaVuSans-35" d="M 691 4666
L 3169 4666
L 3169 4134
L 1269 4134
L 1269 2991
Q 1406 3038 1543 3061
Q 1681 3084 1819 3084
Q 2600 3084 3056 2656
Q 3513 2228 3513 1497
Q 3513 744 3044 326
Q 2575 -91 1722 -91
Q 1428 -91 1123 -41
Q 819 9 494 109
L 494 744
Q 775 591 1075 516
Q 1375 441 1709 441
Q 2250 441 2565 725
Q 2881 1009 2881 1497
Q 2881 1984 2565 2268
Q 2250 2553 1709 2553
Q 1456 2553 1204 2497
Q 953 2441 691 2322
L 691 4666
z
" transform="scale(0.015625)"/>
      </defs>
      <use xlink:href="#DejaVuSans-Oblique-3c0" transform="translate(0 0.78125)"/>
      <use xlink:href="#DejaVuSans-2f" transform="translate(60.205078 0.78125)"/>
      <use xlink:href="#DejaVuSans-32" transform="translate(90.271484 0.78125)"/>
      <use xlink:href="#DejaVuSans-2c" transform="translate(153.894531 0.78125)"/>
      <use xlink:href="#DejaVuSans-20" transform="translate(185.681641 0.78125)"/>
      <use xlink:href="#DejaVuSans-Oblique-3c0" transform="translate(217.46875 0.78125)"/>
      <use xlink:href="#DejaVuSans-2f" transform="translate(277.673828 0.78125)"/>
      <use xlink:href="#DejaVuSans-34" transform="translate(311.365234 0.78125)"/>
      <use xlink:href="#DejaVuSans-2c" transform="translate(374.988281 0.78125)"/>
      <use xlink:href="#DejaVuSans-20" transform="translate(406.775391 0.78125)"/>
      <use xlink:href="#DejaVuSans-35" transform="translate(438.5625 0.78125)"/>
      <use xlink:href="#DejaVuSans-Oblique-3c0" transform="translate(502.185547 0.78125)"/>
      <use xlink:href="#DejaVuSans-2f" transform="translate(562.390625 0.78125)"/>
      <use xlink:href="#DejaVuSans-34" transform="translate(596.082031 0.78125)"/>
     </g>
    </g>
   </g>
   <g id="text_12">
    <g clip-path="url(#p0fb440b34d)">
     <!-- U -->
     <g transform="translate(293.476166 136.058871) scale(0.13 -0.13)">
      <use xlink:href="#DejaVuSans-55"/>
     </g>
    </g>
   </g>
   <g id="line2d_36">
    <path d="M 367.764352 50.309219
L 367.764352 38.25718
" clip-path="url(#p0fb440b34d)" style="fill: none; stroke: #ffffff; stroke-width: 2; stroke-linecap: square"/>
   </g>
   <g id="line2d_37">
    <path d="M 361.738333 44.2832
L 373.790372 44.2832
" clip-path="url(#p0fb440b34d)" style="fill: none; stroke: #ffffff; stroke-width: 2; stroke-linecap: square"/>
   </g>
   <g id="text_13">
    <g clip-path="url(#p0fb440b34d)">
     <!-- 0, 0, $-$$\pi$/8 -->
     <g transform="translate(394.478352 55.529729) scale(0.08 -0.08)">
      <use xlink:href="#DejaVuSans-30" transform="translate(0 0.78125)"/>
      <use xlink:href="#DejaVuSans-2c" transform="translate(63.623047 0.78125)"/>
      <use xlink:href="#DejaVuSans-20" transform="translate(95.410156 0.78125)"/>
      <use xlink:href="#DejaVuSans-30" transform="translate(127.197266 0.78125)"/>
      <use xlink:href="#DejaVuSans-2c" transform="translate(190.820312 0.78125)"/>
      <use xlink:href="#DejaVuSans-20" transform="translate(222.607422 0.78125)"/>
      <use xlink:href="#DejaVuSans-2212" transform="translate(254.394531 0.78125)"/>
      <use xlink:href="#DejaVuSans-Oblique-3c0" transform="translate(338.183594 0.78125)"/>
      <use xlink:href="#DejaVuSans-2f" transform="translate(398.388672 0.78125)"/>
      <use xlink:href="#DejaVuSans-38" transform="translate(427.080078 0.78125)"/>
     </g>
    </g>
   </g>
   <g id="text_14">
    <g clip-path="url(#p0fb440b34d)">
     <!-- U -->
     <g transform="translate(409.361164 43.350872) scale(0.13 -0.13)">
      <use xlink:href="#DejaVuSans-55"/>
     </g>
    </g>
   </g>
   <g id="line2d_38">
    <path d="M 460.472351 50.309219
L 460.472351 38.25718
" clip-path="url(#p0fb440b34d)" style="fill: none; stroke: #ffffff; stroke-width: 2; stroke-linecap: square"/>
   </g>
   <g id="line2d_39">
    <path d="M 454.446331 44.2832
L 466.498371 44.2832
" clip-path="url(#p0fb440b34d)" style="fill: none; stroke: #ffffff; stroke-width: 2; stroke-linecap: square"/>
   </g>
   <g id="text_15">
    <g clip-path="url(#p0fb440b34d)">
     <!-- 0, 0, $\pi$/8 -->
     <g transform="translate(490.546351 55.529729) scale(0.08 -0.08)">
      <use xlink:href="#DejaVuSans-30" transform="translate(0 0.78125)"/>
      <use xlink:href="#DejaVuSans-2c" transform="translate(63.623047 0.78125)"/>
      <use xlink:href="#DejaVuSans-20" transform="translate(95.410156 0.78125)"/>
      <use xlink:href="#DejaVuSans-30" transform="translate(127.197266 0.78125)"/>
      <use xlink:href="#DejaVuSans-2c" transform="translate(190.820312 0.78125)"/>
      <use xlink:href="#DejaVuSans-20" transform="translate(222.607422 0.78125)"/>
      <use xlink:href="#DejaVuSans-Oblique-3c0" transform="translate(254.394531 0.78125)"/>
      <use xlink:href="#DejaVuSans-2f" transform="translate(314.599609 0.78125)"/>
      <use xlink:href="#DejaVuSans-38" transform="translate(343.291016 0.78125)"/>
     </g>
    </g>
   </g>
   <g id="text_16">
    <g clip-path="url(#p0fb440b34d)">
     <!-- U -->
     <g transform="translate(502.069163 43.350872) scale(0.13 -0.13)">
      <use xlink:href="#DejaVuSans-55"/>
     </g>
    </g>
   </g>
   <g id="text_17">
    <g clip-path="url(#p0fb440b34d)">
     <!-- 0, 0, $\pi$/16 -->
     <g transform="translate(487.786351 101.883729) scale(0.08 -0.08)">
      <defs>
       <path id="DejaVuSans-36" d="M 2113 2584
Q 1688 2584 1439 2293
Q 1191 2003 1191 1497
Q 1191 994 1439 701
Q 1688 409 2113 409
Q 2538 409 2786 701
Q 3034 994 3034 1497
Q 3034 2003 2786 2293
Q 2538 2584 2113 2584
z
M 3366 4563
L 3366 3988
Q 3128 4100 2886 4159
Q 2644 4219 2406 4219
Q 1781 4219 1451 3797
Q 1122 3375 1075 2522
Q 1259 2794 1537 2939
Q 1816 3084 2150 3084
Q 2853 3084 3261 2657
Q 3669 2231 3669 1497
Q 3669 778 3244 343
Q 2819 -91 2113 -91
Q 1303 -91 875 529
Q 447 1150 447 2328
Q 447 3434 972 4092
Q 1497 4750 2381 4750
Q 2619 4750 2861 4703
Q 3103 4656 3366 4563
z
" transform="scale(0.015625)"/>
      </defs>
      <use xlink:href="#DejaVuSans-30" transform="translate(0 0.78125)"/>
      <use xlink:href="#DejaVuSans-2c" transform="translate(63.623047 0.78125)"/>
      <use xlink:href="#DejaVuSans-20" transform="translate(95.410156 0.78125)"/>
      <use xlink:href="#DejaVuSans-30" transform="translate(127.197266 0.78125)"/>
      <use xlink:href="#DejaVuSans-2c" transform="translate(190.820312 0.78125)"/>
      <use xlink:href="#DejaVuSans-20" transform="translate(222.607422 0.78125)"/>
      <use xlink:href="#DejaVuSans-Oblique-3c0" transform="translate(254.394531 0.78125)"/>
      <use xlink:href="#DejaVuSans-2f" transform="translate(314.599609 0.78125)"/>
      <use xlink:href="#DejaVuSans-31" transform="translate(348.291016 0.78125)"/>
      <use xlink:href="#DejaVuSans-36" transform="translate(411.914062 0.78125)"/>
     </g>
    </g>
   </g>
   <g id="text_18">
    <g clip-path="url(#p0fb440b34d)">
     <!-- U -->
     <g transform="translate(502.069163 89.704871) scale(0.13 -0.13)">
      <use xlink:href="#DejaVuSans-55"/>
     </g>
    </g>
   </g>
   <g id="line2d_40">
    <path d="M 599.534349 50.309219
L 599.534349 38.25718
" clip-path="url(#p0fb440b34d)" style="fill: none; stroke: #ffffff; stroke-width: 2; stroke-linecap: square"/>
   </g>
   <g id="line2d_41">
    <path d="M 593.508329 44.2832
L 605.560369 44.2832
" clip-path="url(#p0fb440b34d)" style="fill: none; stroke: #ffffff; stroke-width: 2; stroke-linecap: square"/>
   </g>
   <g id="line2d_42">
    <path d="M 599.534349 189.371218
L 599.534349 177.319178
" clip-path="url(#p0fb440b34d)" style="fill: none; stroke: #ffffff; stroke-width: 2; stroke-linecap: square"/>
   </g>
   <g id="line2d_43">
    <path d="M 593.508329 183.345198
L 605.560369 183.345198
" clip-path="url(#p0fb440b34d)" style="fill: none; stroke: #ffffff; stroke-width: 2; stroke-linecap: square"/>
   </g>
   <g id="text_19">
    <g clip-path="url(#p0fb440b34d)">
     <!-- 0, 0, $-$$\pi$/4 -->
     <g transform="translate(649.225348 55.529729) scale(0.08 -0.08)">
      <use xlink:href="#DejaVuSans-30" transform="translate(0 0.78125)"/>
      <use xlink:href="#DejaVuSans-2c" transform="translate(63.623047 0.78125)"/>
      <use xlink:href="#DejaVuSans-20" transform="translate(95.410156 0.78125)"/>
      <use xlink:href="#DejaVuSans-30" transform="translate(127.197266 0.78125)"/>
      <use xlink:href="#DejaVuSans-2c" transform="translate(190.820312 0.78125)"/>
      <use xlink:href="#DejaVuSans-20" transform="translate(222.607422 0.78125)"/>
      <use xlink:href="#DejaVuSans-2212" transform="translate(254.394531 0.78125)"/>
      <use xlink:href="#DejaVuSans-Oblique-3c0" transform="translate(338.183594 0.78125)"/>
      <use xlink:href="#DejaVuSans-2f" transform="translate(398.388672 0.78125)"/>
      <use xlink:href="#DejaVuSans-34" transform="translate(432.080078 0.78125)"/>
     </g>
    </g>
   </g>
   <g id="text_20">
    <g clip-path="url(#p0fb440b34d)">
     <!-- U -->
     <g transform="translate(664.308161 43.350872) scale(0.13 -0.13)">
      <use xlink:href="#DejaVuSans-55"/>
     </g>
    </g>
   </g>
   <g id="text_21">
    <g clip-path="url(#p0fb440b34d)">
     <!-- 0, 0, $-$$\pi$/16 -->
     <g transform="translate(646.665348 194.591728) scale(0.08 -0.08)">
      <use xlink:href="#DejaVuSans-30" transform="translate(0 0.78125)"/>
      <use xlink:href="#DejaVuSans-2c" transform="translate(63.623047 0.78125)"/>
      <use xlink:href="#DejaVuSans-20" transform="translate(95.410156 0.78125)"/>
      <use xlink:href="#DejaVuSans-30" transform="translate(127.197266 0.78125)"/>
      <use xlink:href="#DejaVuSans-2c" transform="translate(190.820312 0.78125)"/>
      <use xlink:href="#DejaVuSans-20" transform="translate(222.607422 0.78125)"/>
      <use xlink:href="#DejaVuSans-2212" transform="translate(254.394531 0.78125)"/>
      <use xlink:href="#DejaVuSans-Oblique-3c0" transform="translate(338.183594 0.78125)"/>
      <use xlink:href="#DejaVuSans-2f" transform="translate(398.388672 0.78125)"/>
      <use xlink:href="#DejaVuSans-31" transform="translate(432.080078 0.78125)"/>
      <use xlink:href="#DejaVuSans-36" transform="translate(495.703125 0.78125)"/>
     </g>
    </g>
   </g>
   <g id="text_22">
    <g clip-path="url(#p0fb440b34d)">
     <!-- U -->
     <g transform="translate(664.308161 182.41287) scale(0.13 -0.13)">
      <use xlink:href="#DejaVuSans-55"/>
     </g>
    </g>
   </g>
   <g id="line2d_44">
    <path d="M 738.596348 50.309219
L 738.596348 38.25718
" clip-path="url(#p0fb440b34d)" style="fill: none; stroke: #ffffff; stroke-width: 2; stroke-linecap: square"/>
   </g>
   <g id="line2d_45">
    <path d="M 732.570328 44.2832
L 744.622367 44.2832
" clip-path="url(#p0fb440b34d)" style="fill: none; stroke: #ffffff; stroke-width: 2; stroke-linecap: square"/>
   </g>
   <g id="line2d_46">
    <path d="M 738.596348 189.371218
L 738.596348 177.319178
" clip-path="url(#p0fb440b34d)" style="fill: none; stroke: #ffffff; stroke-width: 2; stroke-linecap: square"/>
   </g>
   <g id="line2d_47">
    <path d="M 732.570328 183.345198
L 744.622367 183.345198
" clip-path="url(#p0fb440b34d)" style="fill: none; stroke: #ffffff; stroke-width: 2; stroke-linecap: square"/>
   </g>
   <g id="text_23">
    <g clip-path="url(#p0fb440b34d)">
     <!-- $\pi$/2, $\pi$/4, 5$\pi$/4 -->
     <g transform="translate(781.727347 55.529729) scale(0.08 -0.08)">
      <use xlink:href="#DejaVuSans-Oblique-3c0" transform="translate(0 0.78125)"/>
      <use xlink:href="#DejaVuSans-2f" transform="translate(60.205078 0.78125)"/>
      <use xlink:href="#DejaVuSans-32" transform="translate(90.271484 0.78125)"/>
      <use xlink:href="#DejaVuSans-2c" transform="translate(153.894531 0.78125)"/>
      <use xlink:href="#DejaVuSans-20" transform="translate(185.681641 0.78125)"/>
      <use xlink:href="#DejaVuSans-Oblique-3c0" transform="translate(217.46875 0.78125)"/>
      <use xlink:href="#DejaVuSans-2f" transform="translate(277.673828 0.78125)"/>
      <use xlink:href="#DejaVuSans-34" transform="translate(311.365234 0.78125)"/>
      <use xlink:href="#DejaVuSans-2c" transform="translate(374.988281 0.78125)"/>
      <use xlink:href="#DejaVuSans-20" transform="translate(406.775391 0.78125)"/>
      <use xlink:href="#DejaVuSans-35" transform="translate(438.5625 0.78125)"/>
      <use xlink:href="#DejaVuSans-Oblique-3c0" transform="translate(502.185547 0.78125)"/>
      <use xlink:href="#DejaVuSans-2f" transform="translate(562.390625 0.78125)"/>
      <use xlink:href="#DejaVuSans-34" transform="translate(596.082031 0.78125)"/>
     </g>
    </g>
   </g>
   <g id="text_24">
    <g clip-path="url(#p0fb440b34d)">
     <!-- U -->
     <g transform="translate(803.370159 43.350872) scale(0.13 -0.13)">
      <use xlink:href="#DejaVuSans-55"/>
     </g>
    </g>
   </g>
   <g id="text_25">
    <g clip-path="url(#p0fb440b34d)">
     <!-- 0, 0, $\pi$/8 -->
     <g transform="translate(791.847347 101.883729) scale(0.08 -0.08)">
      <use xlink:href="#DejaVuSans-30" transform="translate(0 0.78125)"/>
      <use xlink:href="#DejaVuSans-2c" transform="translate(63.623047 0.78125)"/>
      <use xlink:href="#DejaVuSans-20" transform="translate(95.410156 0.78125)"/>
      <use xlink:href="#DejaVuSans-30" transform="translate(127.197266 0.78125)"/>
      <use xlink:href="#DejaVuSans-2c" transform="translate(190.820312 0.78125)"/>
      <use xlink:href="#DejaVuSans-20" transform="translate(222.607422 0.78125)"/>
      <use xlink:href="#DejaVuSans-Oblique-3c0" transform="translate(254.394531 0.78125)"/>
      <use xlink:href="#DejaVuSans-2f" transform="translate(314.599609 0.78125)"/>
      <use xlink:href="#DejaVuSans-38" transform="translate(343.291016 0.78125)"/>
     </g>
    </g>
   </g>
   <g id="text_26">
    <g clip-path="url(#p0fb440b34d)">
     <!-- U -->
     <g transform="translate(803.370159 89.704871) scale(0.13 -0.13)">
      <use xlink:href="#DejaVuSans-55"/>
     </g>
    </g>
   </g>
   <g id="text_27">
    <g clip-path="url(#p0fb440b34d)">
     <!-- 0, 0, $\pi$/16 -->
     <g transform="translate(789.087347 194.591728) scale(0.08 -0.08)">
      <use xlink:href="#DejaVuSans-30" transform="translate(0 0.78125)"/>
      <use xlink:href="#DejaVuSans-2c" transform="translate(63.623047 0.78125)"/>
      <use xlink:href="#DejaVuSans-20" transform="translate(95.410156 0.78125)"/>
      <use xlink:href="#DejaVuSans-30" transform="translate(127.197266 0.78125)"/>
      <use xlink:href="#DejaVuSans-2c" transform="translate(190.820312 0.78125)"/>
      <use xlink:href="#DejaVuSans-20" transform="translate(222.607422 0.78125)"/>
      <use xlink:href="#DejaVuSans-Oblique-3c0" transform="translate(254.394531 0.78125)"/>
      <use xlink:href="#DejaVuSans-2f" transform="translate(314.599609 0.78125)"/>
      <use xlink:href="#DejaVuSans-31" transform="translate(348.291016 0.78125)"/>
      <use xlink:href="#DejaVuSans-36" transform="translate(411.914062 0.78125)"/>
     </g>
    </g>
   </g>
   <g id="text_28">
    <g clip-path="url(#p0fb440b34d)">
     <!-- U -->
     <g transform="translate(803.370159 182.41287) scale(0.13 -0.13)">
      <use xlink:href="#DejaVuSans-55"/>
     </g>
    </g>
   </g>
   <g id="line2d_48">
    <path d="M 924.012345 143.017218
L 924.012345 130.965178
" clip-path="url(#p0fb440b34d)" style="fill: none; stroke: #ffffff; stroke-width: 2; stroke-linecap: square"/>
   </g>
   <g id="line2d_49">
    <path d="M 917.986325 136.991198
L 930.038365 136.991198
" clip-path="url(#p0fb440b34d)" style="fill: none; stroke: #ffffff; stroke-width: 2; stroke-linecap: square"/>
   </g>
   <g id="text_29">
    <g clip-path="url(#p0fb440b34d)">
     <!-- 0, 0, $-$$\pi$/8 -->
     <g transform="translate(950.726344 148.237728) scale(0.08 -0.08)">
      <use xlink:href="#DejaVuSans-30" transform="translate(0 0.78125)"/>
      <use xlink:href="#DejaVuSans-2c" transform="translate(63.623047 0.78125)"/>
      <use xlink:href="#DejaVuSans-20" transform="translate(95.410156 0.78125)"/>
      <use xlink:href="#DejaVuSans-30" transform="translate(127.197266 0.78125)"/>
      <use xlink:href="#DejaVuSans-2c" transform="translate(190.820312 0.78125)"/>
      <use xlink:href="#DejaVuSans-20" transform="translate(222.607422 0.78125)"/>
      <use xlink:href="#DejaVuSans-2212" transform="translate(254.394531 0.78125)"/>
      <use xlink:href="#DejaVuSans-Oblique-3c0" transform="translate(338.183594 0.78125)"/>
      <use xlink:href="#DejaVuSans-2f" transform="translate(398.388672 0.78125)"/>
      <use xlink:href="#DejaVuSans-38" transform="translate(427.080078 0.78125)"/>
     </g>
    </g>
   </g>
   <g id="text_30">
    <g clip-path="url(#p0fb440b34d)">
     <!-- U -->
     <g transform="translate(965.609157 136.058871) scale(0.13 -0.13)">
      <use xlink:href="#DejaVuSans-55"/>
     </g>
    </g>
   </g>
   <g id="line2d_50">
    <path d="M 1016.720344 143.017218
L 1016.720344 130.965178
" clip-path="url(#p0fb440b34d)" style="fill: none; stroke: #ffffff; stroke-width: 2; stroke-linecap: square"/>
   </g>
   <g id="line2d_51">
    <path d="M 1010.694324 136.991198
L 1022.746364 136.991198
" clip-path="url(#p0fb440b34d)" style="fill: none; stroke: #ffffff; stroke-width: 2; stroke-linecap: square"/>
   </g>
   <g id="text_31">
    <g clip-path="url(#p0fb440b34d)">
     <!-- 0, 0, $\pi$/8 -->
     <g transform="translate(1046.794343 148.237728) scale(0.08 -0.08)">
      <use xlink:href="#DejaVuSans-30" transform="translate(0 0.78125)"/>
      <use xlink:href="#DejaVuSans-2c" transform="translate(63.623047 0.78125)"/>
      <use xlink:href="#DejaVuSans-20" transform="translate(95.410156 0.78125)"/>
      <use xlink:href="#DejaVuSans-30" transform="translate(127.197266 0.78125)"/>
      <use xlink:href="#DejaVuSans-2c" transform="translate(190.820312 0.78125)"/>
      <use xlink:href="#DejaVuSans-20" transform="translate(222.607422 0.78125)"/>
      <use xlink:href="#DejaVuSans-Oblique-3c0" transform="translate(254.394531 0.78125)"/>
      <use xlink:href="#DejaVuSans-2f" transform="translate(314.599609 0.78125)"/>
      <use xlink:href="#DejaVuSans-38" transform="translate(343.291016 0.78125)"/>
     </g>
    </g>
   </g>
   <g id="text_32">
    <g clip-path="url(#p0fb440b34d)">
     <!-- U -->
     <g transform="translate(1058.317156 136.058871) scale(0.13 -0.13)">
      <use xlink:href="#DejaVuSans-55"/>
     </g>
    </g>
   </g>
   <g id="line2d_52">
    <path d="M 1109.428343 143.017218
L 1109.428343 130.965178
" clip-path="url(#p0fb440b34d)" style="fill: none; stroke: #ffffff; stroke-width: 2; stroke-linecap: square"/>
   </g>
   <g id="line2d_53">
    <path d="M 1103.402323 136.991198
L 1115.454363 136.991198
" clip-path="url(#p0fb440b34d)" style="fill: none; stroke: #ffffff; stroke-width: 2; stroke-linecap: square"/>
   </g>
   <g id="text_33">
    <g clip-path="url(#p0fb440b34d)">
     <!-- 0, 0, $-$$\pi$/4 -->
     <g transform="translate(1135.942342 148.237728) scale(0.08 -0.08)">
      <use xlink:href="#DejaVuSans-30" transform="translate(0 0.78125)"/>
      <use xlink:href="#DejaVuSans-2c" transform="translate(63.623047 0.78125)"/>
      <use xlink:href="#DejaVuSans-20" transform="translate(95.410156 0.78125)"/>
      <use xlink:href="#DejaVuSans-30" transform="translate(127.197266 0.78125)"/>
      <use xlink:href="#DejaVuSans-2c" transform="translate(190.820312 0.78125)"/>
      <use xlink:href="#DejaVuSans-20" transform="translate(222.607422 0.78125)"/>
      <use xlink:href="#DejaVuSans-2212" transform="translate(254.394531 0.78125)"/>
      <use xlink:href="#DejaVuSans-Oblique-3c0" transform="translate(338.183594 0.78125)"/>
      <use xlink:href="#DejaVuSans-2f" transform="translate(398.388672 0.78125)"/>
      <use xlink:href="#DejaVuSans-34" transform="translate(432.080078 0.78125)"/>
     </g>
    </g>
   </g>
   <g id="text_34">
    <g clip-path="url(#p0fb440b34d)">
     <!-- U -->
     <g transform="translate(1151.025154 136.058871) scale(0.13 -0.13)">
      <use xlink:href="#DejaVuSans-55"/>
     </g>
    </g>
   </g>
   <g id="line2d_54">
    <path d="M 1202.136341 143.017218
L 1202.136341 130.965178
" clip-path="url(#p0fb440b34d)" style="fill: none; stroke: #ffffff; stroke-width: 2; stroke-linecap: square"/>
   </g>
   <g id="line2d_55">
    <path d="M 1196.110321 136.991198
L 1208.162361 136.991198
" clip-path="url(#p0fb440b34d)" style="fill: none; stroke: #ffffff; stroke-width: 2; stroke-linecap: square"/>
   </g>
   <g id="text_35">
    <g clip-path="url(#p0fb440b34d)">
     <!-- $\pi$/2, 0, 5$\pi$/4 -->
     <g transform="translate(1249.02734 148.237728) scale(0.08 -0.08)">
      <use xlink:href="#DejaVuSans-Oblique-3c0" transform="translate(0 0.78125)"/>
      <use xlink:href="#DejaVuSans-2f" transform="translate(60.205078 0.78125)"/>
      <use xlink:href="#DejaVuSans-32" transform="translate(90.271484 0.78125)"/>
      <use xlink:href="#DejaVuSans-2c" transform="translate(153.894531 0.78125)"/>
      <use xlink:href="#DejaVuSans-20" transform="translate(185.681641 0.78125)"/>
      <use xlink:href="#DejaVuSans-30" transform="translate(217.46875 0.78125)"/>
      <use xlink:href="#DejaVuSans-2c" transform="translate(281.091797 0.78125)"/>
      <use xlink:href="#DejaVuSans-20" transform="translate(312.878906 0.78125)"/>
      <use xlink:href="#DejaVuSans-35" transform="translate(344.666016 0.78125)"/>
      <use xlink:href="#DejaVuSans-Oblique-3c0" transform="translate(408.289062 0.78125)"/>
      <use xlink:href="#DejaVuSans-2f" transform="translate(468.494141 0.78125)"/>
      <use xlink:href="#DejaVuSans-34" transform="translate(502.185547 0.78125)"/>
     </g>
    </g>
   </g>
   <g id="text_36">
    <g clip-path="url(#p0fb440b34d)">
     <!-- U -->
     <g transform="translate(1266.910153 136.058871) scale(0.13 -0.13)">
      <use xlink:href="#DejaVuSans-55"/>
     </g>
    </g>
   </g>
  </g>
 </g>
 <defs>
  <clipPath id="p0fb440b34d">
   <rect x="7.2" y="7.2" width="1318.23798" height="203.957597"/>
  </clipPath>
 </defs>
</svg>
