<?xml version="1.0" encoding="utf-8" standalone="no"?>
<!DOCTYPE svg PUBLIC "-//W3C//DTD SVG 1.1//EN"
  "http://www.w3.org/Graphics/SVG/1.1/DTD/svg11.dtd">
<svg xmlns:xlink="http://www.w3.org/1999/xlink" width="248.936966pt" height="127.374401pt" viewBox="0 0 248.936966 127.374401" xmlns="http://www.w3.org/2000/svg" version="1.1">
 <metadata>
  <rdf:RDF xmlns:dc="http://purl.org/dc/elements/1.1/" xmlns:cc="http://creativecommons.org/ns#" xmlns:rdf="http://www.w3.org/1999/02/22-rdf-syntax-ns#">
   <cc:Work>
    <dc:type rdf:resource="http://purl.org/dc/dcmitype/StillImage"/>
    <dc:date>2023-07-11T05:44:38.951444</dc:date>
    <dc:format>image/svg+xml</dc:format>
    <dc:creator>
     <cc:Agent>
      <dc:title>Matplotlib v3.5.2, https://matplotlib.org/</dc:title>
     </cc:Agent>
    </dc:creator>
   </cc:Work>
  </rdf:RDF>
 </metadata>
 <defs>
  <style type="text/css">*{stroke-linejoin: round; stroke-linecap: butt}</style>
 </defs>
 <g id="figure_1">
  <g id="patch_1">
   <path d="M 0 127.374401
L 248.936966 127.374401
L 248.936966 0
L 0 0
L 0 127.374401
z
" style="fill: none"/>
  </g>
  <g id="axes_1">
   <g id="patch_2">
    <path d="M 46.436966 76.5
L 241.736966 76.5
L 241.736966 7.2
L 46.436966 7.2
L 46.436966 76.5
z
" style="fill: none"/>
   </g>
   <g id="patch_3">
    <path d="M 55.314239 76.5
L 57.427875 76.5
L 57.427875 72.34518
L 55.314239 72.34518
z
" clip-path="url(#p5c7b69f8da)" style="fill: #1f77b4"/>
   </g>
   <g id="patch_4">
    <path d="M 57.427875 76.5
L 59.541512 76.5
L 59.541512 72.34518
L 57.427875 72.34518
z
" clip-path="url(#p5c7b69f8da)" style="fill: #d62728"/>
   </g>
   <g id="patch_5">
    <path d="M 59.541512 76.5
L 61.655148 76.5
L 61.655148 72.34518
L 59.541512 72.34518
z
" clip-path="url(#p5c7b69f8da)" style="fill: #e377c2"/>
   </g>
   <g id="patch_6">
    <path d="M 61.655148 76.5
L 63.768784 76.5
L 63.768784 72.34518
L 61.655148 72.34518
z
" clip-path="url(#p5c7b69f8da)" style="fill: #17becf"/>
   </g>
   <g id="patch_7">
    <path d="M 66.586966 76.5
L 68.700603 76.5
L 68.700603 72.147331
L 66.586966 72.147331
z
" clip-path="url(#p5c7b69f8da)" style="fill: #1f77b4"/>
   </g>
   <g id="patch_8">
    <path d="M 68.700603 76.5
L 70.814239 76.5
L 70.814239 72.147331
L 68.700603 72.147331
z
" clip-path="url(#p5c7b69f8da)" style="fill: #d62728"/>
   </g>
   <g id="patch_9">
    <path d="M 70.814239 76.5
L 72.927875 76.5
L 72.927875 72.147331
L 70.814239 72.147331
z
" clip-path="url(#p5c7b69f8da)" style="fill: #e377c2"/>
   </g>
   <g id="patch_10">
    <path d="M 72.927875 76.5
L 75.041512 76.5
L 75.041512 72.147331
L 72.927875 72.147331
z
" clip-path="url(#p5c7b69f8da)" style="fill: #17becf"/>
   </g>
   <g id="patch_11">
    <path d="M 77.859694 76.5
L 79.97333 76.5
L 79.97333 72.082372
L 77.859694 72.082372
z
" clip-path="url(#p5c7b69f8da)" style="fill: #1f77b4"/>
   </g>
   <g id="patch_12">
    <path d="M 79.97333 76.5
L 82.086966 76.5
L 82.086966 72.622976
L 79.97333 72.622976
z
" clip-path="url(#p5c7b69f8da)" style="fill: #d62728"/>
   </g>
   <g id="patch_13">
    <path d="M 82.086966 76.5
L 84.200603 76.5
L 84.200603 74.360937
L 82.086966 74.360937
z
" clip-path="url(#p5c7b69f8da)" style="fill: #e377c2"/>
   </g>
   <g id="patch_14">
    <path d="M 84.200603 76.5
L 86.314239 76.5
L 86.314239 74.561488
L 84.200603 74.561488
z
" clip-path="url(#p5c7b69f8da)" style="fill: #17becf"/>
   </g>
   <g id="patch_15">
    <path d="M 89.132421 76.5
L 91.246057 76.5
L 91.246057 70.972035
L 89.132421 70.972035
z
" clip-path="url(#p5c7b69f8da)" style="fill: #1f77b4"/>
   </g>
   <g id="patch_16">
    <path d="M 91.246057 76.5
L 93.359694 76.5
L 93.359694 71.265419
L 91.246057 71.265419
z
" clip-path="url(#p5c7b69f8da)" style="fill: #d62728"/>
   </g>
   <g id="patch_17">
    <path d="M 93.359694 76.5
L 95.47333 76.5
L 95.47333 72.435767
L 93.359694 72.435767
z
" clip-path="url(#p5c7b69f8da)" style="fill: #e377c2"/>
   </g>
   <g id="patch_18">
    <path d="M 95.47333 76.5
L 97.586966 76.5
L 97.586966 73.090339
L 95.47333 73.090339
z
" clip-path="url(#p5c7b69f8da)" style="fill: #17becf"/>
   </g>
   <g id="patch_19">
    <path d="M 100.405148 76.5
L 102.518784 76.5
L 102.518784 69.004747
L 100.405148 69.004747
z
" clip-path="url(#p5c7b69f8da)" style="fill: #1f77b4"/>
   </g>
   <g id="patch_20">
    <path d="M 102.518784 76.5
L 104.632421 76.5
L 104.632421 71.009925
L 102.518784 71.009925
z
" clip-path="url(#p5c7b69f8da)" style="fill: #d62728"/>
   </g>
   <g id="patch_21">
    <path d="M 104.632421 76.5
L 106.746057 76.5
L 106.746057 71.867239
L 104.632421 71.867239
z
" clip-path="url(#p5c7b69f8da)" style="fill: #e377c2"/>
   </g>
   <g id="patch_22">
    <path d="M 106.746057 76.5
L 108.859694 76.5
L 108.859694 72.905902
L 106.746057 72.905902
z
" clip-path="url(#p5c7b69f8da)" style="fill: #17becf"/>
   </g>
   <g id="patch_23">
    <path d="M 111.677875 76.5
L 113.791512 76.5
L 113.791512 68.135934
L 111.677875 68.135934
z
" clip-path="url(#p5c7b69f8da)" style="fill: #1f77b4"/>
   </g>
   <g id="patch_24">
    <path d="M 113.791512 76.5
L 115.905148 76.5
L 115.905148 68.275589
L 113.791512 68.275589
z
" clip-path="url(#p5c7b69f8da)" style="fill: #d62728"/>
   </g>
   <g id="patch_25">
    <path d="M 115.905148 76.5
L 118.018784 76.5
L 118.018784 70.897379
L 115.905148 70.897379
z
" clip-path="url(#p5c7b69f8da)" style="fill: #e377c2"/>
   </g>
   <g id="patch_26">
    <path d="M 118.018784 76.5
L 120.132421 76.5
L 120.132421 70.684463
L 118.018784 70.684463
z
" clip-path="url(#p5c7b69f8da)" style="fill: #17becf"/>
   </g>
   <g id="patch_27">
    <path d="M 122.950603 76.5
L 125.064239 76.5
L 125.064239 67.771967
L 122.950603 67.771967
z
" clip-path="url(#p5c7b69f8da)" style="fill: #1f77b4"/>
   </g>
   <g id="patch_28">
    <path d="M 125.064239 76.5
L 127.177875 76.5
L 127.177875 68.304196
L 125.064239 68.304196
z
" clip-path="url(#p5c7b69f8da)" style="fill: #d62728"/>
   </g>
   <g id="patch_29">
    <path d="M 127.177875 76.5
L 129.291512 76.5
L 129.291512 71.070262
L 127.177875 71.070262
z
" clip-path="url(#p5c7b69f8da)" style="fill: #e377c2"/>
   </g>
   <g id="patch_30">
    <path d="M 129.291512 76.5
L 131.405148 76.5
L 131.405148 71.553786
L 129.291512 71.553786
z
" clip-path="url(#p5c7b69f8da)" style="fill: #17becf"/>
   </g>
   <g id="patch_31">
    <path d="M 134.22333 76.5
L 136.336966 76.5
L 136.336966 63.685123
L 134.22333 63.685123
z
" clip-path="url(#p5c7b69f8da)" style="fill: #1f77b4"/>
   </g>
   <g id="patch_32">
    <path d="M 136.336966 76.5
L 138.450603 76.5
L 138.450603 65.196629
L 136.336966 65.196629
z
" clip-path="url(#p5c7b69f8da)" style="fill: #d62728"/>
   </g>
   <g id="patch_33">
    <path d="M 138.450603 76.5
L 140.564239 76.5
L 140.564239 67.016006
L 138.450603 67.016006
z
" clip-path="url(#p5c7b69f8da)" style="fill: #e377c2"/>
   </g>
   <g id="patch_34">
    <path d="M 140.564239 76.5
L 142.677875 76.5
L 142.677875 69.242705
L 140.564239 69.242705
z
" clip-path="url(#p5c7b69f8da)" style="fill: #17becf"/>
   </g>
   <g id="patch_35">
    <path d="M 145.496057 76.5
L 147.609694 76.5
L 147.609694 53.915004
L 145.496057 53.915004
z
" clip-path="url(#p5c7b69f8da)" style="fill: #1f77b4"/>
   </g>
   <g id="patch_36">
    <path d="M 147.609694 76.5
L 149.72333 76.5
L 149.72333 55.398728
L 147.609694 55.398728
z
" clip-path="url(#p5c7b69f8da)" style="fill: #d62728"/>
   </g>
   <g id="patch_37">
    <path d="M 149.72333 76.5
L 151.836966 76.5
L 151.836966 61.907763
L 149.72333 61.907763
z
" clip-path="url(#p5c7b69f8da)" style="fill: #e377c2"/>
   </g>
   <g id="patch_38">
    <path d="M 151.836966 76.5
L 153.950603 76.5
L 153.950603 63.028851
L 151.836966 63.028851
z
" clip-path="url(#p5c7b69f8da)" style="fill: #17becf"/>
   </g>
   <g id="patch_39">
    <path d="M 156.768784 76.5
L 158.882421 76.5
L 158.882421 53.787189
L 156.768784 53.787189
z
" clip-path="url(#p5c7b69f8da)" style="fill: #1f77b4"/>
   </g>
   <g id="patch_40">
    <path d="M 158.882421 76.5
L 160.996057 76.5
L 160.996057 55.398728
L 158.882421 55.398728
z
" clip-path="url(#p5c7b69f8da)" style="fill: #d62728"/>
   </g>
   <g id="patch_41">
    <path d="M 160.996057 76.5
L 163.109694 76.5
L 163.109694 61.873851
L 160.996057 61.873851
z
" clip-path="url(#p5c7b69f8da)" style="fill: #e377c2"/>
   </g>
   <g id="patch_42">
    <path d="M 163.109694 76.5
L 165.22333 76.5
L 165.22333 63.028851
L 163.109694 63.028851
z
" clip-path="url(#p5c7b69f8da)" style="fill: #17becf"/>
   </g>
   <g id="patch_43">
    <path d="M 168.041512 76.5
L 170.155148 76.5
L 170.155148 50.44069
L 168.041512 50.44069
z
" clip-path="url(#p5c7b69f8da)" style="fill: #1f77b4"/>
   </g>
   <g id="patch_44">
    <path d="M 170.155148 76.5
L 172.268784 76.5
L 172.268784 53.959151
L 170.155148 53.959151
z
" clip-path="url(#p5c7b69f8da)" style="fill: #d62728"/>
   </g>
   <g id="patch_45">
    <path d="M 172.268784 76.5
L 174.382421 76.5
L 174.382421 59.40385
L 172.268784 59.40385
z
" clip-path="url(#p5c7b69f8da)" style="fill: #e377c2"/>
   </g>
   <g id="patch_46">
    <path d="M 174.382421 76.5
L 176.496057 76.5
L 176.496057 60.430968
L 174.382421 60.430968
z
" clip-path="url(#p5c7b69f8da)" style="fill: #17becf"/>
   </g>
   <g id="patch_47">
    <path d="M 179.314239 76.5
L 181.427875 76.5
L 181.427875 44.627868
L 179.314239 44.627868
z
" clip-path="url(#p5c7b69f8da)" style="fill: #1f77b4"/>
   </g>
   <g id="patch_48">
    <path d="M 181.427875 76.5
L 183.541512 76.5
L 183.541512 50.10964
L 181.427875 50.10964
z
" clip-path="url(#p5c7b69f8da)" style="fill: #d62728"/>
   </g>
   <g id="patch_49">
    <path d="M 183.541512 76.5
L 185.655148 76.5
L 185.655148 54.323082
L 183.541512 54.323082
z
" clip-path="url(#p5c7b69f8da)" style="fill: #e377c2"/>
   </g>
   <g id="patch_50">
    <path d="M 185.655148 76.5
L 187.768784 76.5
L 187.768784 58.707098
L 185.655148 58.707098
z
" clip-path="url(#p5c7b69f8da)" style="fill: #17becf"/>
   </g>
   <g id="patch_51">
    <path d="M 190.586966 76.5
L 192.700603 76.5
L 192.700603 38.710428
L 190.586966 38.710428
z
" clip-path="url(#p5c7b69f8da)" style="fill: #1f77b4"/>
   </g>
   <g id="patch_52">
    <path d="M 192.700603 76.5
L 194.814239 76.5
L 194.814239 36.92979
L 192.700603 36.92979
z
" clip-path="url(#p5c7b69f8da)" style="fill: #d62728"/>
   </g>
   <g id="patch_53">
    <path d="M 194.814239 76.5
L 196.927875 76.5
L 196.927875 56.005178
L 194.814239 56.005178
z
" clip-path="url(#p5c7b69f8da)" style="fill: #e377c2"/>
   </g>
   <g id="patch_54">
    <path d="M 196.927875 76.5
L 199.041512 76.5
L 199.041512 56.122557
L 196.927875 56.122557
z
" clip-path="url(#p5c7b69f8da)" style="fill: #17becf"/>
   </g>
   <g id="patch_55">
    <path d="M 201.859694 76.5
L 203.97333 76.5
L 203.97333 28.634097
L 201.859694 28.634097
z
" clip-path="url(#p5c7b69f8da)" style="fill: #1f77b4"/>
   </g>
   <g id="patch_56">
    <path d="M 203.97333 76.5
L 206.086966 76.5
L 206.086966 51.238061
L 203.97333 51.238061
z
" clip-path="url(#p5c7b69f8da)" style="fill: #d62728"/>
   </g>
   <g id="patch_57">
    <path d="M 206.086966 76.5
L 208.200603 76.5
L 208.200603 52.833634
L 206.086966 52.833634
z
" clip-path="url(#p5c7b69f8da)" style="fill: #e377c2"/>
   </g>
   <g id="patch_58">
    <path d="M 208.200603 76.5
L 210.314239 76.5
L 210.314239 63.86903
L 208.200603 63.86903
z
" clip-path="url(#p5c7b69f8da)" style="fill: #17becf"/>
   </g>
   <g id="patch_59">
    <path d="M 213.132421 76.5
L 215.246057 76.5
L 215.246057 25.022644
L 213.132421 25.022644
z
" clip-path="url(#p5c7b69f8da)" style="fill: #1f77b4"/>
   </g>
   <g id="patch_60">
    <path d="M 215.246057 76.5
L 217.359694 76.5
L 217.359694 22.672824
L 215.246057 22.672824
z
" clip-path="url(#p5c7b69f8da)" style="fill: #d62728"/>
   </g>
   <g id="patch_61">
    <path d="M 217.359694 76.5
L 219.47333 76.5
L 219.47333 40.370949
L 217.359694 40.370949
z
" clip-path="url(#p5c7b69f8da)" style="fill: #e377c2"/>
   </g>
   <g id="patch_62">
    <path d="M 219.47333 76.5
L 221.586966 76.5
L 221.586966 43.7734
L 219.47333 43.7734
z
" clip-path="url(#p5c7b69f8da)" style="fill: #17becf"/>
   </g>
   <g id="patch_63">
    <path d="M 224.405148 76.5
L 226.518784 76.5
L 226.518784 10.5
L 224.405148 10.5
z
" clip-path="url(#p5c7b69f8da)" style="fill: #1f77b4"/>
   </g>
   <g id="patch_64">
    <path d="M 226.518784 76.5
L 228.632421 76.5
L 228.632421 11.687754
L 226.518784 11.687754
z
" clip-path="url(#p5c7b69f8da)" style="fill: #d62728"/>
   </g>
   <g id="patch_65">
    <path d="M 228.632421 76.5
L 230.746057 76.5
L 230.746057 30.312556
L 228.632421 30.312556
z
" clip-path="url(#p5c7b69f8da)" style="fill: #e377c2"/>
   </g>
   <g id="patch_66">
    <path d="M 230.746057 76.5
L 232.859694 76.5
L 232.859694 33.609961
L 230.746057 33.609961
z
" clip-path="url(#p5c7b69f8da)" style="fill: #17becf"/>
   </g>
   <g id="matplotlib.axis_1">
    <g id="xtick_1">
     <g id="line2d_1">
      <defs>
       <path id="m67e4a2ca4a" d="M 0 0
L 0 3.5
" style="stroke: #000000; stroke-width: 0.8"/>
      </defs>
      <g>
       <use xlink:href="#m67e4a2ca4a" x="59.541512" y="76.5" style="stroke: #000000; stroke-width: 0.8"/>
      </g>
     </g>
     <g id="text_1">
      <!-- cat_state_n22 -->
      <g transform="translate(10.659249 117.154568)rotate(-30)scale(0.1 -0.1)">
       <defs>
        <path id="CMSS17-63" d="M 2464 2541
C 2464 2585 2170 2714 2093 2739
C 1882 2816 1613 2816 1542 2816
C 710 2816 211 2093 211 1363
C 211 595 768 -64 1517 -64
C 1946 -64 2253 76 2502 242
L 2464 664
C 2189 453 1869 337 1523 337
C 1024 337 698 774 698 1369
C 698 1831 909 2414 1549 2414
C 1901 2414 2099 2343 2394 2145
L 2464 2541
z
" transform="scale(0.015625)"/>
        <path id="CMSS17-61" d="M 2406 1791
C 2406 2392 1978 2808 1402 2808
C 1120 2808 813 2757 461 2553
L 499 2135
C 659 2248 934 2432 1395 2432
C 1722 2432 1920 2180 1920 1782
L 1920 1536
C 896 1536 256 1238 256 726
C 256 461 416 -64 947 -64
C 1043 -64 1562 -64 1933 217
L 1933 -19
L 2406 -19
L 2406 1791
z
M 1920 816
C 1920 701 1920 548 1728 434
C 1562 325 1350 325 1261 325
C 941 325 723 511 723 744
C 723 1211 1722 1211 1920 1211
L 1920 816
z
" transform="scale(0.015625)"/>
        <path id="CMSS17-74" d="M 1069 2368
L 1901 2368
L 1901 2737
L 1069 2737
L 1069 3520
L 614 3520
L 614 2737
L 109 2737
L 109 2368
L 602 2368
L 602 749
C 602 384 685 -64 1107 -64
C 1427 -64 1722 25 2003 172
L 1901 548
C 1747 414 1562 337 1363 337
C 1082 337 1069 696 1069 856
L 1069 2368
z
" transform="scale(0.015625)"/>
        <path id="CMSS17-73" d="M 2061 2627
C 1683 2807 1389 2807 1197 2807
C 742 2807 198 2648 198 2003
C 198 1359 902 1218 1094 1179
C 1389 1122 1715 1058 1715 740
C 1715 337 1254 337 1171 337
C 915 337 563 407 243 638
L 166 210
C 531 0 883 -64 1178 -64
C 1965 -64 2163 416 2163 781
C 2163 1094 1984 1305 1862 1401
C 1651 1568 1574 1587 1050 1696
C 960 1709 646 1779 646 2066
C 646 2432 1050 2432 1139 2432
C 1555 2432 1811 2303 1984 2208
L 2061 2627
z
" transform="scale(0.015625)"/>
        <path id="CMSS17-65" d="M 2502 1377
C 2502 1590 2490 2003 2285 2345
C 2061 2713 1696 2816 1421 2816
C 755 2816 192 2188 192 1375
C 192 582 774 -64 1510 -64
C 1798 -64 2150 19 2470 248
C 2470 274 2458 414 2451 420
C 2451 433 2432 630 2432 656
C 2125 407 1773 325 1517 325
C 1107 325 666 667 646 1377
L 2502 1377
z
M 698 1728
C 781 2084 1062 2421 1421 2421
C 1517 2421 1965 2421 2080 1728
L 698 1728
z
" transform="scale(0.015625)"/>
        <path id="CMSS17-6e" d="M 2618 1877
C 2618 2283 2522 2816 1798 2816
C 1389 2816 1120 2606 941 2389
L 941 2758
L 474 2758
L 474 0
L 960 0
L 960 1559
C 960 1964 1114 2428 1549 2428
C 2112 2428 2131 2048 2131 1829
L 2131 0
L 2618 0
L 2618 1877
z
" transform="scale(0.015625)"/>
        <path id="CMSS17-32" d="M 1651 1357
C 1830 1541 2099 1764 2285 1987
C 2464 2204 2701 2511 2701 2957
C 2701 3657 2227 4288 1421 4288
C 787 4288 422 3893 250 3274
L 499 2929
C 640 3510 838 3880 1338 3880
C 1888 3880 2195 3433 2195 2942
C 2195 2355 1747 1901 1408 1563
C 1030 1187 659 804 301 408
L 301 0
L 2701 0
L 2701 433
L 1613 433
C 1536 433 1459 433 1382 433
L 742 433
L 742 439
L 1651 1357
z
" transform="scale(0.015625)"/>
       </defs>
       <use xlink:href="#CMSS17-63" transform="scale(0.996264)"/>
       <use xlink:href="#CMSS17-61" transform="translate(41.638822 0)scale(0.996264)"/>
       <use xlink:href="#CMSS17-74" transform="translate(86.560743 0)scale(0.996264)"/>
       <use xlink:href="#CMSS17-73" transform="translate(154.119805 0)scale(0.996264)"/>
       <use xlink:href="#CMSS17-74" transform="translate(190.033347 0)scale(0.996264)"/>
       <use xlink:href="#CMSS17-61" transform="translate(223.864913 0)scale(0.996264)"/>
       <use xlink:href="#CMSS17-74" transform="translate(268.786834 0)scale(0.996264)"/>
       <use xlink:href="#CMSS17-65" transform="translate(302.618401 0)scale(0.996264)"/>
       <use xlink:href="#CMSS17-6e" transform="translate(377.984718 0)scale(0.996264)"/>
       <use xlink:href="#CMSS17-32" transform="translate(426.189661 0)scale(0.996264)"/>
       <use xlink:href="#CMSS17-32" transform="translate(473.033285 0)scale(0.996264)"/>
       <path d="M 126.01332 0
L 154.119805 0
L 154.119805 0.3985
L 126.01332 0.3985
L 126.01332 0
z
"/>
       <path d="M 349.878234 0
L 377.984718 0
L 377.984718 0.3985
L 349.878234 0.3985
L 349.878234 0
z
"/>
      </g>
     </g>
    </g>
    <g id="xtick_2">
     <g id="line2d_2">
      <g>
       <use xlink:href="#m67e4a2ca4a" x="70.814239" y="76.5" style="stroke: #000000; stroke-width: 0.8"/>
      </g>
     </g>
     <g id="text_2">
      <!-- ghz_state_n23 -->
      <g transform="translate(20.505969 117.977873)rotate(-30)scale(0.1 -0.1)">
       <defs>
        <path id="CMSS17-67" d="M 2848 2808
C 2483 2808 2170 2738 1914 2617
C 1702 2777 1485 2808 1338 2808
C 781 2808 358 2349 358 1814
C 358 1468 550 1207 563 1195
C 448 1035 384 863 384 672
C 384 448 474 289 544 200
C 211 -3 166 -314 166 -435
C 166 -898 749 -1280 1498 -1280
C 2253 -1280 2835 -898 2835 -428
C 2835 448 1856 448 1587 448
L 1069 448
C 973 448 717 448 717 791
C 717 921 774 1004 781 1010
C 877 940 1075 832 1338 832
C 1869 832 2310 1278 2310 1827
C 2310 2132 2170 2355 2112 2432
L 2131 2432
C 2150 2432 2419 2432 2515 2432
C 2720 2432 2739 2429 2918 2419
L 2848 2808
z
M 1338 1182
C 1120 1182 813 1315 813 1823
C 813 2375 1165 2464 1331 2464
C 1549 2464 1856 2331 1856 1823
C 1856 1271 1504 1182 1338 1182
z
M 1581 -10
C 1734 -10 2381 -10 2381 -442
C 2381 -714 1984 -929 1504 -929
C 1018 -929 621 -720 621 -435
C 621 -403 621 -10 1062 -10
L 1581 -10
z
" transform="scale(0.015625)"/>
        <path id="CMSS17-68" d="M 2618 1891
C 2618 2292 2522 2820 1798 2820
C 1395 2820 1133 2623 947 2407
L 947 4448
L 474 4448
L 474 32
L 960 32
L 960 1573
C 960 1973 1114 2432 1549 2432
C 2112 2432 2131 2056 2131 1839
L 2131 32
L 2618 32
L 2618 1891
z
" transform="scale(0.015625)"/>
        <path id="CMSS17-7a" d="M 2400 2502
L 2400 2750
L 250 2750
L 250 2368
L 1069 2368
C 1146 2368 1222 2368 1299 2368
L 1747 2368
L 166 261
L 166 0
L 2419 0
L 2419 395
L 1549 395
C 1472 395 1395 395 1318 395
L 826 395
L 2400 2502
z
" transform="scale(0.015625)"/>
        <path id="CMSS17-33" d="M 1005 2025
L 1440 2025
C 2042 2025 2214 1507 2214 1146
C 2214 653 1933 267 1472 267
C 1114 267 608 444 320 912
C 275 691 275 678 250 526
C 550 88 1037 -128 1485 -128
C 2214 -128 2752 473 2752 1138
C 2752 1638 2400 2057 1920 2215
C 2304 2424 2586 2816 2586 3273
C 2586 3805 2093 4229 1491 4229
C 941 4229 512 3892 333 3530
C 378 3468 493 3284 550 3189
C 691 3562 1056 3840 1485 3840
C 1843 3840 2080 3607 2080 3271
C 2080 2923 1856 2543 1478 2455
C 1453 2455 1056 2417 1005 2411
L 1005 2025
z
" transform="scale(0.015625)"/>
       </defs>
       <use xlink:href="#CMSS17-67" transform="scale(0.996264)"/>
       <use xlink:href="#CMSS17-68" transform="translate(46.843624 0)scale(0.996264)"/>
       <use xlink:href="#CMSS17-7a" transform="translate(95.048567 0)scale(0.996264)"/>
       <use xlink:href="#CMSS17-73" transform="translate(169.453934 0)scale(0.996264)"/>
       <use xlink:href="#CMSS17-74" transform="translate(205.367476 0)scale(0.996264)"/>
       <use xlink:href="#CMSS17-61" transform="translate(239.199042 0)scale(0.996264)"/>
       <use xlink:href="#CMSS17-74" transform="translate(284.120963 0)scale(0.996264)"/>
       <use xlink:href="#CMSS17-65" transform="translate(317.95253 0)scale(0.996264)"/>
       <use xlink:href="#CMSS17-6e" transform="translate(393.318847 0)scale(0.996264)"/>
       <use xlink:href="#CMSS17-32" transform="translate(441.52379 0)scale(0.996264)"/>
       <use xlink:href="#CMSS17-33" transform="translate(488.367414 0)scale(0.996264)"/>
       <path d="M 141.34745 0
L 169.453934 0
L 169.453934 0.3985
L 141.34745 0.3985
L 141.34745 0
z
"/>
       <path d="M 365.212363 0
L 393.318847 0
L 393.318847 0.3985
L 365.212363 0.3985
L 365.212363 0
z
"/>
      </g>
     </g>
    </g>
    <g id="xtick_3">
     <g id="line2d_3">
      <g>
       <use xlink:href="#m67e4a2ca4a" x="82.086966" y="76.5" style="stroke: #000000; stroke-width: 0.8"/>
      </g>
     </g>
     <g id="text_3">
      <!-- dnn_n16 -->
      <g transform="translate(51.553393 106.560947)rotate(-30)scale(0.1 -0.1)">
       <defs>
        <path id="CMSS17-64" d="M 2611 4416
L 2138 4416
L 2138 2438
C 1939 2603 1613 2756 1254 2756
C 672 2756 211 2131 211 1347
C 211 562 666 -64 1235 -64
C 1677 -64 1971 172 2125 306
L 2125 -13
L 2611 -13
L 2611 4416
z
M 2125 836
C 2125 747 2125 653 1926 482
C 1798 375 1645 325 1498 325
C 1152 325 698 576 698 1340
C 698 2134 1210 2368 1562 2368
C 1798 2368 1990 2254 2125 2065
L 2125 836
z
" transform="scale(0.015625)"/>
        <path id="CMSS17-31" d="M 1818 4288
L 1696 4288
C 1350 3940 947 3890 538 3890
L 538 3520
C 723 3520 1024 3520 1325 3667
L 1325 369
L 570 369
L 570 0
L 2573 0
L 2573 369
L 1818 369
L 1818 4288
z
" transform="scale(0.015625)"/>
        <path id="CMSS17-36" d="M 2496 4101
C 2227 4210 2035 4229 1856 4229
C 1024 4229 250 3368 250 2006
C 250 265 986 -128 1510 -128
C 1798 -128 2086 -39 2362 280
C 2643 617 2752 898 2752 1389
C 2752 2179 2362 2880 1779 2880
C 1357 2880 992 2657 768 2376
C 832 3258 1254 3840 1862 3840
C 2029 3840 2246 3816 2496 3710
L 2496 4101
z
M 774 1369
C 774 1420 774 1452 781 1548
C 781 2045 1069 2491 1536 2491
C 1837 2491 1990 2332 2106 2135
C 2240 1886 2246 1650 2246 1388
C 2246 1140 2246 891 2099 637
C 1978 439 1818 267 1510 267
C 902 267 800 1114 774 1369
z
" transform="scale(0.015625)"/>
       </defs>
       <use xlink:href="#CMSS17-64" transform="scale(0.996264)"/>
       <use xlink:href="#CMSS17-6e" transform="translate(48.204943 0)scale(0.996264)"/>
       <use xlink:href="#CMSS17-6e" transform="translate(96.409886 0)scale(0.996264)"/>
       <use xlink:href="#CMSS17-6e" transform="translate(178.342325 0)scale(0.996264)"/>
       <use xlink:href="#CMSS17-31" transform="translate(226.547268 0)scale(0.996264)"/>
       <use xlink:href="#CMSS17-36" transform="translate(273.390891 0)scale(0.996264)"/>
       <path d="M 150.23584 0
L 178.342325 0
L 178.342325 0.3985
L 150.23584 0.3985
L 150.23584 0
z
"/>
      </g>
     </g>
    </g>
    <g id="xtick_4">
     <g id="line2d_4">
      <g>
       <use xlink:href="#m67e4a2ca4a" x="93.359694" y="76.5" style="stroke: #000000; stroke-width: 0.8"/>
      </g>
     </g>
     <g id="text_4">
      <!-- bv_n14 -->
      <g transform="translate(67.763188 103.710529)rotate(-30)scale(0.1 -0.1)">
       <defs>
        <path id="CMSS17-62" d="M 954 4416
L 480 4416
L 480 -13
L 966 -13
L 966 274
C 1210 38 1504 -64 1766 -64
C 2381 -64 2880 549 2880 1352
C 2880 2086 2496 2756 1926 2756
C 1523 2756 1165 2591 954 2419
L 954 4416
z
M 966 2046
C 1107 2222 1306 2368 1587 2368
C 1965 2368 2394 2097 2394 1352
C 2394 558 1882 325 1530 325
C 1402 325 1267 356 1139 464
C 966 615 966 709 966 797
L 966 2046
z
" transform="scale(0.015625)"/>
        <path id="CMSS17-76" d="M 2675 2752
L 2176 2752
L 1747 1556
C 1613 1165 1421 627 1389 352
L 1382 352
C 1370 468 1318 634 1286 749
C 1248 890 1197 1056 1158 1172
L 595 2752
L 83 2752
L 1094 0
L 1664 0
L 2675 2752
z
" transform="scale(0.015625)"/>
        <path id="CMSS17-34" d="M 2253 1088
L 2835 1088
L 2835 1477
L 2253 1477
L 2253 4192
L 1690 4192
L 166 1477
L 166 1088
L 1747 1088
L 1747 0
L 2253 0
L 2253 1088
z
M 659 1477
C 1030 2127 1766 3439 1766 3885
L 1766 1477
L 659 1477
z
" transform="scale(0.015625)"/>
       </defs>
       <use xlink:href="#CMSS17-62" transform="scale(0.996264)"/>
       <use xlink:href="#CMSS17-76" transform="translate(48.204943 0)scale(0.996264)"/>
       <use xlink:href="#CMSS17-6e" transform="translate(124.93258 0)scale(0.996264)"/>
       <use xlink:href="#CMSS17-31" transform="translate(173.137523 0)scale(0.996264)"/>
       <use xlink:href="#CMSS17-34" transform="translate(219.981147 0)scale(0.996264)"/>
       <path d="M 96.826096 0
L 124.93258 0
L 124.93258 0.3985
L 96.826096 0.3985
L 96.826096 0
z
"/>
      </g>
     </g>
    </g>
    <g id="xtick_5">
     <g id="line2d_5">
      <g>
       <use xlink:href="#m67e4a2ca4a" x="104.632421" y="76.5" style="stroke: #000000; stroke-width: 0.8"/>
      </g>
     </g>
     <g id="text_5">
      <!-- qec9xz_n17 -->
      <g transform="translate(63.301966 112.794529)rotate(-30)scale(0.1 -0.1)">
       <defs>
        <path id="CMSS17-71" d="M 2611 2816
L 2138 2816
L 2138 2428
C 2112 2460 1818 2816 1318 2816
C 736 2816 211 2228 211 1399
C 211 633 653 -5 1229 -5
C 1498 -5 1837 91 2125 365
L 2125 -1216
L 2611 -1216
L 2611 2816
z
M 2138 914
C 2138 832 2138 718 1939 554
C 1888 510 1747 384 1504 384
C 1050 384 698 850 698 1399
C 698 2011 1126 2415 1562 2415
C 1926 2415 2138 2061 2138 1797
L 2138 914
z
" transform="scale(0.015625)"/>
        <path id="CMSS17-39" d="M 435 174
C 614 21 845 -128 1235 -128
C 2010 -128 2752 721 2752 2095
C 2752 3932 1952 4229 1523 4229
C 1094 4229 819 4041 582 3741
C 301 3397 250 3090 250 2733
C 250 2307 326 2045 506 1745
C 749 1357 973 1275 1222 1275
C 1600 1275 1978 1459 2234 1776
C 2189 902 1798 267 1235 267
C 1005 267 819 339 634 516
L 435 174
z
M 2214 2746
C 2221 2703 2221 2622 2221 2596
C 2221 2074 1914 1664 1466 1664
C 1171 1664 1018 1813 902 2006
C 762 2249 755 2485 755 2733
C 755 2976 755 3244 934 3511
C 1069 3703 1235 3840 1523 3840
C 2112 3840 2208 3000 2214 2746
z
" transform="scale(0.015625)"/>
        <path id="CMSS17-78" d="M 1587 1414
L 2656 2739
L 2099 2739
L 1363 1777
L 602 2739
L 32 2739
L 1139 1414
L 0 0
L 563 0
L 1363 1121
L 2195 0
L 2758 0
L 1587 1414
z
" transform="scale(0.015625)"/>
        <path id="CMSS17-37" d="M 1389 3776
C 1466 3776 1542 3776 1619 3776
L 2355 3776
C 1440 2711 915 1365 915 -32
L 1427 -32
C 1427 1323 1875 2696 2752 3795
L 2752 4209
L 250 4209
L 250 3776
L 1389 3776
z
" transform="scale(0.015625)"/>
       </defs>
       <use xlink:href="#CMSS17-71" transform="scale(0.996264)"/>
       <use xlink:href="#CMSS17-65" transform="translate(48.204943 0)scale(0.996264)"/>
       <use xlink:href="#CMSS17-63" transform="translate(89.843765 0)scale(0.996264)"/>
       <use xlink:href="#CMSS17-39" transform="translate(131.482587 0)scale(0.996264)"/>
       <use xlink:href="#CMSS17-78" transform="translate(178.326211 0)scale(0.996264)"/>
       <use xlink:href="#CMSS17-7a" transform="translate(221.326352 0)scale(0.996264)"/>
       <use xlink:href="#CMSS17-6e" transform="translate(295.73172 0)scale(0.996264)"/>
       <use xlink:href="#CMSS17-31" transform="translate(343.936663 0)scale(0.996264)"/>
       <use xlink:href="#CMSS17-37" transform="translate(390.780286 0)scale(0.996264)"/>
       <path d="M 267.625235 0
L 295.73172 0
L 295.73172 0.3985
L 267.625235 0.3985
L 267.625235 0
z
"/>
      </g>
     </g>
    </g>
    <g id="xtick_6">
     <g id="line2d_6">
      <g>
       <use xlink:href="#m67e4a2ca4a" x="115.905148" y="76.5" style="stroke: #000000; stroke-width: 0.8"/>
      </g>
     </g>
     <g id="text_6">
      <!-- bv_n19 -->
      <g transform="translate(90.308643 103.710529)rotate(-30)scale(0.1 -0.1)">
       <use xlink:href="#CMSS17-62" transform="scale(0.996264)"/>
       <use xlink:href="#CMSS17-76" transform="translate(48.204943 0)scale(0.996264)"/>
       <use xlink:href="#CMSS17-6e" transform="translate(124.93258 0)scale(0.996264)"/>
       <use xlink:href="#CMSS17-31" transform="translate(173.137523 0)scale(0.996264)"/>
       <use xlink:href="#CMSS17-39" transform="translate(219.981147 0)scale(0.996264)"/>
       <path d="M 96.826096 0
L 124.93258 0
L 124.93258 0.3985
L 96.826096 0.3985
L 96.826096 0
z
"/>
      </g>
     </g>
    </g>
    <g id="xtick_7">
     <g id="line2d_7">
      <g>
       <use xlink:href="#m67e4a2ca4a" x="127.177875" y="76.5" style="stroke: #000000; stroke-width: 0.8"/>
      </g>
     </g>
     <g id="text_7">
      <!-- multiply_n13 -->
      <g transform="translate(80.970267 115.610355)rotate(-30)scale(0.1 -0.1)">
       <defs>
        <path id="CMSS17-6d" d="M 4288 1877
C 4288 2308 4179 2816 3462 2816
C 2982 2816 2694 2516 2566 2331
C 2451 2670 2182 2816 1798 2816
C 1363 2816 1088 2568 941 2389
L 941 2758
L 474 2758
L 474 0
L 960 0
L 960 1559
C 960 1939 1101 2428 1555 2428
C 2138 2428 2138 2016 2138 1829
L 2138 0
L 2624 0
L 2624 1559
C 2624 1939 2765 2428 3219 2428
C 3802 2428 3802 2016 3802 1829
L 3802 0
L 4288 0
L 4288 1877
z
" transform="scale(0.015625)"/>
        <path id="CMSS17-75" d="M 2618 2739
L 2131 2739
L 2131 972
C 2131 498 1786 306 1421 306
C 998 306 960 447 960 709
L 960 2739
L 474 2739
L 474 678
C 474 179 646 -64 1088 -64
C 1306 -64 1798 -13 2144 306
L 2144 0
L 2618 0
L 2618 2739
z
" transform="scale(0.015625)"/>
        <path id="CMSS17-6c" d="M 947 4416
L 474 4416
L 474 0
L 947 0
L 947 4416
z
" transform="scale(0.015625)"/>
        <path id="CMSS17-69" d="M 979 4183
L 442 4183
L 442 3648
L 979 3648
L 979 4183
z
M 947 2739
L 474 2739
L 474 0
L 947 0
L 947 2739
z
" transform="scale(0.015625)"/>
        <path id="CMSS17-70" d="M 966 333
C 1178 129 1466 -5 1773 -5
C 2368 -5 2880 603 2880 1412
C 2880 2159 2496 2816 1946 2816
C 1626 2816 1242 2702 954 2472
L 954 2765
L 480 2765
L 480 -1216
L 966 -1216
L 966 333
z
M 966 2100
C 1018 2176 1235 2415 1587 2415
C 2035 2415 2394 1960 2394 1412
C 2394 787 1958 384 1530 384
C 1402 384 1267 415 1139 523
C 966 674 966 768 966 857
L 966 2100
z
" transform="scale(0.015625)"/>
        <path id="CMSS17-79" d="M 2675 2752
L 2176 2752
C 1632 1294 1446 702 1434 383
L 1427 383
C 1408 696 1126 1460 902 2007
L 602 2752
L 83 2752
L 1216 13
C 1146 -178 1043 -465 1011 -529
C 870 -885 774 -885 672 -885
C 646 -885 442 -885 211 -809
L 250 -1229
C 410 -1261 570 -1280 685 -1280
C 845 -1280 1165 -1280 1459 -497
L 2675 2752
z
" transform="scale(0.015625)"/>
       </defs>
       <use xlink:href="#CMSS17-6d" transform="scale(0.996264)"/>
       <use xlink:href="#CMSS17-75" transform="translate(74.229254 0)scale(0.996264)"/>
       <use xlink:href="#CMSS17-6c" transform="translate(122.434198 0)scale(0.996264)"/>
       <use xlink:href="#CMSS17-74" transform="translate(144.614921 0)scale(0.996264)"/>
       <use xlink:href="#CMSS17-69" transform="translate(178.446487 0)scale(0.996264)"/>
       <use xlink:href="#CMSS17-70" transform="translate(200.62721 0)scale(0.996264)"/>
       <use xlink:href="#CMSS17-6c" transform="translate(248.832153 0)scale(0.996264)"/>
       <use xlink:href="#CMSS17-79" transform="translate(271.012877 0)scale(0.996264)"/>
       <use xlink:href="#CMSS17-6e" transform="translate(347.740513 0)scale(0.996264)"/>
       <use xlink:href="#CMSS17-31" transform="translate(395.945457 0)scale(0.996264)"/>
       <use xlink:href="#CMSS17-33" transform="translate(442.78908 0)scale(0.996264)"/>
       <path d="M 319.634029 0
L 347.740513 0
L 347.740513 0.3985
L 319.634029 0.3985
L 319.634029 0
z
"/>
      </g>
     </g>
    </g>
    <g id="xtick_8">
     <g id="line2d_8">
      <g>
       <use xlink:href="#m67e4a2ca4a" x="138.450603" y="76.5" style="stroke: #000000; stroke-width: 0.8"/>
      </g>
     </g>
     <g id="text_8">
      <!-- seca_n11 -->
      <g transform="translate(106.167489 107.571045)rotate(-30)scale(0.1 -0.1)">
       <use xlink:href="#CMSS17-73" transform="scale(0.996264)"/>
       <use xlink:href="#CMSS17-65" transform="translate(35.913542 0)scale(0.996264)"/>
       <use xlink:href="#CMSS17-63" transform="translate(77.552364 0)scale(0.996264)"/>
       <use xlink:href="#CMSS17-61" transform="translate(119.191186 0)scale(0.996264)"/>
       <use xlink:href="#CMSS17-6e" transform="translate(197.840602 0)scale(0.996264)"/>
       <use xlink:href="#CMSS17-31" transform="translate(246.045545 0)scale(0.996264)"/>
       <use xlink:href="#CMSS17-31" transform="translate(292.889169 0)scale(0.996264)"/>
       <path d="M 169.734118 0
L 197.840602 0
L 197.840602 0.3985
L 169.734118 0.3985
L 169.734118 0
z
"/>
      </g>
     </g>
    </g>
    <g id="xtick_9">
     <g id="line2d_9">
      <g>
       <use xlink:href="#m67e4a2ca4a" x="149.72333" y="76.5" style="stroke: #000000; stroke-width: 0.8"/>
      </g>
     </g>
     <g id="text_9">
      <!-- swap_test_n25 -->
      <g transform="translate(98.516329 118.496756)rotate(-30)scale(0.1 -0.1)">
       <defs>
        <path id="CMSS17-77" d="M 4013 2752
L 3526 2752
L 3187 1601
C 3117 1358 2918 685 2893 371
L 2886 371
C 2874 564 2765 1024 2586 1633
L 2259 2752
L 1818 2752
L 1498 1658
C 1338 1101 1216 627 1203 371
L 1197 371
C 1171 749 909 1633 870 1773
L 582 2752
L 83 2752
L 915 0
L 1402 0
C 1734 1096 1990 1943 2010 2370
C 2022 2160 2131 1707 2195 1484
L 2618 0
L 3181 0
L 4013 2752
z
" transform="scale(0.015625)"/>
        <path id="CMSS17-35" d="M 934 3752
L 2502 3752
L 2502 4160
L 467 4160
L 467 1781
L 896 1781
C 1011 2046 1248 2240 1555 2240
C 1843 2240 2163 1989 2163 1266
C 2163 493 1709 267 1376 267
C 966 267 589 512 422 851
L 218 499
C 512 49 992 -128 1376 -128
C 2118 -128 2701 497 2701 1253
C 2701 2030 2182 2629 1562 2629
C 1338 2629 1120 2553 934 2399
L 934 3752
z
" transform="scale(0.015625)"/>
       </defs>
       <use xlink:href="#CMSS17-73" transform="scale(0.996264)"/>
       <use xlink:href="#CMSS17-77" transform="translate(35.913542 0)scale(0.996264)"/>
       <use xlink:href="#CMSS17-61" transform="translate(97.130633 0)scale(0.996264)"/>
       <use xlink:href="#CMSS17-70" transform="translate(142.052554 0)scale(0.996264)"/>
       <use xlink:href="#CMSS17-74" transform="translate(223.984992 0)scale(0.996264)"/>
       <use xlink:href="#CMSS17-65" transform="translate(257.816559 0)scale(0.996264)"/>
       <use xlink:href="#CMSS17-73" transform="translate(299.455381 0)scale(0.996264)"/>
       <use xlink:href="#CMSS17-74" transform="translate(335.368923 0)scale(0.996264)"/>
       <use xlink:href="#CMSS17-6e" transform="translate(402.927985 0)scale(0.996264)"/>
       <use xlink:href="#CMSS17-32" transform="translate(451.132928 0)scale(0.996264)"/>
       <use xlink:href="#CMSS17-35" transform="translate(497.976552 0)scale(0.996264)"/>
       <path d="M 195.878508 0
L 223.984992 0
L 223.984992 0.3985
L 195.878508 0.3985
L 195.878508 0
z
"/>
       <path d="M 374.821501 0
L 402.927985 0
L 402.927985 0.3985
L 374.821501 0.3985
L 374.821501 0
z
"/>
      </g>
     </g>
    </g>
    <g id="xtick_10">
     <g id="line2d_10">
      <g>
       <use xlink:href="#m67e4a2ca4a" x="160.996057" y="76.5" style="stroke: #000000; stroke-width: 0.8"/>
      </g>
     </g>
     <g id="text_10">
      <!-- knn_n25 -->
      <g transform="translate(130.702128 106.422588)rotate(-30)scale(0.1 -0.1)">
       <defs>
        <path id="CMSS17-6b" d="M 1696 1688
L 2688 2739
L 2074 2739
L 954 1554
L 954 4416
L 480 4416
L 480 0
L 947 0
L 947 892
L 1376 1344
L 2278 0
L 2822 0
L 1696 1688
z
" transform="scale(0.015625)"/>
       </defs>
       <use xlink:href="#CMSS17-6b" transform="scale(0.996264)"/>
       <use xlink:href="#CMSS17-6e" transform="translate(45.602489 0)scale(0.996264)"/>
       <use xlink:href="#CMSS17-6e" transform="translate(93.807432 0)scale(0.996264)"/>
       <use xlink:href="#CMSS17-6e" transform="translate(175.739871 0)scale(0.996264)"/>
       <use xlink:href="#CMSS17-32" transform="translate(223.944814 0)scale(0.996264)"/>
       <use xlink:href="#CMSS17-35" transform="translate(270.788437 0)scale(0.996264)"/>
       <path d="M 147.633387 0
L 175.739871 0
L 175.739871 0.3985
L 147.633387 0.3985
L 147.633387 0
z
"/>
      </g>
     </g>
    </g>
    <g id="xtick_11">
     <g id="line2d_11">
      <g>
       <use xlink:href="#m67e4a2ca4a" x="172.268784" y="76.5" style="stroke: #000000; stroke-width: 0.8"/>
      </g>
     </g>
     <g id="text_11">
      <!-- qram_n20 -->
      <g transform="translate(136.702234 109.466737)rotate(-30)scale(0.1 -0.1)">
       <defs>
        <path id="CMSS17-72" d="M 954 1363
C 954 1965 1395 2368 1958 2368
L 1958 2789
C 1549 2789 1165 2585 934 2253
L 934 2758
L 480 2758
L 480 0
L 954 0
L 954 1363
z
" transform="scale(0.015625)"/>
        <path id="CMSS17-30" d="M 2758 2044
C 2758 2405 2752 3077 2490 3596
C 2227 4096 1805 4229 1504 4229
C 1069 4229 698 3975 506 3570
C 301 3146 243 2709 243 2044
C 243 1589 262 1031 493 543
C 755 5 1197 -128 1498 -128
C 1894 -128 2278 81 2496 518
C 2720 974 2758 1474 2758 2044
z
M 1498 261
C 1011 261 864 811 819 995
C 742 1310 730 1614 730 2114
C 730 2506 730 2948 851 3297
C 998 3701 1254 3840 1498 3840
C 1971 3840 2125 3372 2176 3208
C 2272 2873 2272 2481 2272 2114
C 2272 1526 2272 261 1498 261
z
" transform="scale(0.015625)"/>
       </defs>
       <use xlink:href="#CMSS17-71" transform="scale(0.996264)"/>
       <use xlink:href="#CMSS17-72" transform="translate(48.204943 0)scale(0.996264)"/>
       <use xlink:href="#CMSS17-61" transform="translate(80.114716 0)scale(0.996264)"/>
       <use xlink:href="#CMSS17-6d" transform="translate(125.036636 0)scale(0.996264)"/>
       <use xlink:href="#CMSS17-6e" transform="translate(232.993386 0)scale(0.996264)"/>
       <use xlink:href="#CMSS17-32" transform="translate(281.198329 0)scale(0.996264)"/>
       <use xlink:href="#CMSS17-30" transform="translate(328.041953 0)scale(0.996264)"/>
       <path d="M 204.886902 0
L 232.993386 0
L 232.993386 0.3985
L 204.886902 0.3985
L 204.886902 0
z
"/>
      </g>
     </g>
    </g>
    <g id="xtick_12">
     <g id="line2d_12">
      <g>
       <use xlink:href="#m67e4a2ca4a" x="183.541512" y="76.5" style="stroke: #000000; stroke-width: 0.8"/>
      </g>
     </g>
     <g id="text_12">
      <!-- bigadder_n18 -->
      <g transform="translate(135.704166 116.551285)rotate(-30)scale(0.1 -0.1)">
       <defs>
        <path id="CMSS17-38" d="M 1933 2222
C 2419 2380 2669 2760 2669 3134
C 2669 3722 2157 4229 1504 4229
C 826 4229 333 3708 333 3144
C 333 2780 576 2403 1069 2241
C 442 1997 250 1512 250 1149
C 250 446 819 -128 1498 -128
C 2202 -128 2752 455 2752 1138
C 2752 1557 2502 2000 1933 2222
z
M 1504 2432
C 1075 2432 787 2712 787 3136
C 787 3566 1075 3840 1504 3840
C 1901 3840 2214 3591 2214 3136
C 2214 2687 1907 2432 1504 2432
z
M 1504 267
C 1139 267 749 517 749 1156
C 749 1813 1184 2043 1498 2043
C 1843 2043 2253 1800 2253 1156
C 2253 491 1830 267 1504 267
z
" transform="scale(0.015625)"/>
       </defs>
       <use xlink:href="#CMSS17-62" transform="scale(0.996264)"/>
       <use xlink:href="#CMSS17-69" transform="translate(48.204943 0)scale(0.996264)"/>
       <use xlink:href="#CMSS17-67" transform="translate(70.385666 0)scale(0.996264)"/>
       <use xlink:href="#CMSS17-61" transform="translate(117.22929 0)scale(0.996264)"/>
       <use xlink:href="#CMSS17-64" transform="translate(162.15121 0)scale(0.996264)"/>
       <use xlink:href="#CMSS17-64" transform="translate(210.356153 0)scale(0.996264)"/>
       <use xlink:href="#CMSS17-65" transform="translate(258.561097 0)scale(0.996264)"/>
       <use xlink:href="#CMSS17-72" transform="translate(300.199919 0)scale(0.996264)"/>
       <use xlink:href="#CMSS17-6e" transform="translate(365.837186 0)scale(0.996264)"/>
       <use xlink:href="#CMSS17-31" transform="translate(414.04213 0)scale(0.996264)"/>
       <use xlink:href="#CMSS17-38" transform="translate(460.885753 0)scale(0.996264)"/>
       <path d="M 337.730702 0
L 365.837186 0
L 365.837186 0.3985
L 337.730702 0.3985
L 337.730702 0
z
"/>
      </g>
     </g>
    </g>
    <g id="xtick_13">
     <g id="line2d_13">
      <g>
       <use xlink:href="#m67e4a2ca4a" x="194.814239" y="76.5" style="stroke: #000000; stroke-width: 0.8"/>
      </g>
     </g>
     <g id="text_13">
      <!-- qf21_n15 -->
      <g transform="translate(161.931927 107.916992)rotate(-30)scale(0.1 -0.1)">
       <defs>
        <path id="CMSS17-66" d="M 1075 2368
L 1722 2368
L 1722 2737
L 1062 2737
L 1062 3559
C 1062 4014 1408 4092 1606 4092
C 1670 4092 1850 4092 2080 4009
L 2080 4429
C 1933 4461 1754 4480 1613 4480
C 1018 4480 602 3993 602 3359
L 602 2737
L 160 2737
L 160 2368
L 602 2368
L 602 0
L 1075 0
L 1075 2368
z
" transform="scale(0.015625)"/>
       </defs>
       <use xlink:href="#CMSS17-71" transform="scale(0.996264)"/>
       <use xlink:href="#CMSS17-66" transform="translate(48.204943 0)scale(0.996264)"/>
       <use xlink:href="#CMSS17-32" transform="translate(76.831602 0)scale(0.996264)"/>
       <use xlink:href="#CMSS17-31" transform="translate(123.675225 0)scale(0.996264)"/>
       <use xlink:href="#CMSS17-6e" transform="translate(204.246344 0)scale(0.996264)"/>
       <use xlink:href="#CMSS17-31" transform="translate(252.451287 0)scale(0.996264)"/>
       <use xlink:href="#CMSS17-35" transform="translate(299.294911 0)scale(0.996264)"/>
       <path d="M 176.13986 0
L 204.246344 0
L 204.246344 0.3985
L 176.13986 0.3985
L 176.13986 0
z
"/>
      </g>
     </g>
    </g>
    <g id="xtick_14">
     <g id="line2d_14">
      <g>
       <use xlink:href="#m67e4a2ca4a" x="206.086966" y="76.5" style="stroke: #000000; stroke-width: 0.8"/>
      </g>
     </g>
     <g id="text_14">
      <!-- qft_n18 -->
      <g transform="translate(178.716947 104.734468)rotate(-30)scale(0.1 -0.1)">
       <use xlink:href="#CMSS17-71" transform="scale(0.996264)"/>
       <use xlink:href="#CMSS17-66" transform="translate(48.204943 0)scale(0.996264)"/>
       <use xlink:href="#CMSS17-74" transform="translate(76.831602 0)scale(0.996264)"/>
       <use xlink:href="#CMSS17-6e" transform="translate(144.390664 0)scale(0.996264)"/>
       <use xlink:href="#CMSS17-31" transform="translate(192.595607 0)scale(0.996264)"/>
       <use xlink:href="#CMSS17-38" transform="translate(239.439231 0)scale(0.996264)"/>
       <path d="M 116.28418 0
L 144.390664 0
L 144.390664 0.3985
L 116.28418 0.3985
L 116.28418 0
z
"/>
      </g>
     </g>
    </g>
    <g id="xtick_15">
     <g id="line2d_15">
      <g>
       <use xlink:href="#m67e4a2ca4a" x="217.359694" y="76.5" style="stroke: #000000; stroke-width: 0.8"/>
      </g>
     </g>
     <g id="text_15">
      <!-- multiplier_n15 -->
      <g transform="translate(166.286911 118.419265)rotate(-30)scale(0.1 -0.1)">
       <use xlink:href="#CMSS17-6d" transform="scale(0.996264)"/>
       <use xlink:href="#CMSS17-75" transform="translate(74.229254 0)scale(0.996264)"/>
       <use xlink:href="#CMSS17-6c" transform="translate(122.434198 0)scale(0.996264)"/>
       <use xlink:href="#CMSS17-74" transform="translate(144.614921 0)scale(0.996264)"/>
       <use xlink:href="#CMSS17-69" transform="translate(178.446487 0)scale(0.996264)"/>
       <use xlink:href="#CMSS17-70" transform="translate(200.62721 0)scale(0.996264)"/>
       <use xlink:href="#CMSS17-6c" transform="translate(248.832153 0)scale(0.996264)"/>
       <use xlink:href="#CMSS17-69" transform="translate(271.012877 0)scale(0.996264)"/>
       <use xlink:href="#CMSS17-65" transform="translate(293.1936 0)scale(0.996264)"/>
       <use xlink:href="#CMSS17-72" transform="translate(334.832422 0)scale(0.996264)"/>
       <use xlink:href="#CMSS17-6e" transform="translate(400.469689 0)scale(0.996264)"/>
       <use xlink:href="#CMSS17-31" transform="translate(448.674633 0)scale(0.996264)"/>
       <use xlink:href="#CMSS17-35" transform="translate(495.518256 0)scale(0.996264)"/>
       <path d="M 372.363205 0
L 400.469689 0
L 400.469689 0.3985
L 372.363205 0.3985
L 372.363205 0
z
"/>
      </g>
     </g>
    </g>
    <g id="xtick_16">
     <g id="line2d_16">
      <g>
       <use xlink:href="#m67e4a2ca4a" x="228.632421" y="76.5" style="stroke: #000000; stroke-width: 0.8"/>
      </g>
     </g>
     <g id="text_16">
      <!-- sat_n11 -->
      <g transform="translate(200.902914 104.942018)rotate(-30)scale(0.1 -0.1)">
       <use xlink:href="#CMSS17-73" transform="scale(0.996264)"/>
       <use xlink:href="#CMSS17-61" transform="translate(35.913542 0)scale(0.996264)"/>
       <use xlink:href="#CMSS17-74" transform="translate(80.835463 0)scale(0.996264)"/>
       <use xlink:href="#CMSS17-6e" transform="translate(148.394525 0)scale(0.996264)"/>
       <use xlink:href="#CMSS17-31" transform="translate(196.599468 0)scale(0.996264)"/>
       <use xlink:href="#CMSS17-31" transform="translate(243.443091 0)scale(0.996264)"/>
       <path d="M 120.28804 0
L 148.394525 0
L 148.394525 0.3985
L 120.28804 0.3985
L 120.28804 0
z
"/>
      </g>
     </g>
    </g>
   </g>
   <g id="matplotlib.axis_2">
    <g id="ytick_1">
     <g id="line2d_17">
      <defs>
       <path id="ma92150746e" d="M 0 0
L -3.5 0
" style="stroke: #000000; stroke-width: 0.8"/>
      </defs>
      <g>
       <use xlink:href="#ma92150746e" x="46.436966" y="76.5" style="stroke: #000000; stroke-width: 0.8"/>
      </g>
     </g>
     <g id="text_17">
      <!-- $\mathdefault{0}$ -->
      <g transform="translate(32.608478 81.342938)scale(0.14 -0.14)">
       <defs>
        <path id="CMR17-30" d="M 2688 2025
C 2688 2416 2682 3080 2413 3591
C 2176 4039 1798 4198 1466 4198
C 1158 4198 768 4058 525 3597
C 269 3118 243 2524 243 2025
C 243 1661 250 1106 448 619
C 723 -39 1216 -128 1466 -128
C 1760 -128 2208 -7 2470 600
C 2662 1042 2688 1559 2688 2025
z
M 1466 -26
C 1056 -26 813 325 723 812
C 653 1188 653 1738 653 2096
C 653 2588 653 2997 736 3387
C 858 3929 1216 4096 1466 4096
C 1728 4096 2067 3923 2189 3400
C 2272 3036 2278 2607 2278 2096
C 2278 1680 2278 1169 2202 792
C 2067 95 1690 -26 1466 -26
z
" transform="scale(0.015625)"/>
       </defs>
       <use xlink:href="#CMR17-30" transform="scale(0.996264)"/>
      </g>
     </g>
    </g>
    <g id="ytick_2">
     <g id="line2d_18">
      <g>
       <use xlink:href="#ma92150746e" x="46.436966" y="46.822714" style="stroke: #000000; stroke-width: 0.8"/>
      </g>
     </g>
     <g id="text_18">
      <!-- $\mathdefault{150}$ -->
      <g transform="translate(18.9515 51.665652)scale(0.14 -0.14)">
       <defs>
        <path id="CMR17-31" d="M 1702 4058
C 1702 4192 1696 4192 1606 4192
C 1357 3916 979 3827 621 3827
C 602 3827 570 3827 563 3808
C 557 3795 557 3782 557 3648
C 755 3648 1088 3686 1344 3839
L 1344 461
C 1344 236 1331 160 781 160
L 589 160
L 589 0
C 896 0 1216 0 1523 0
C 1830 0 2150 0 2458 0
L 2458 160
L 2266 160
C 1715 160 1702 230 1702 458
L 1702 4058
z
" transform="scale(0.015625)"/>
        <path id="CMR17-35" d="M 730 3692
C 794 3666 1056 3584 1325 3584
C 1920 3584 2246 3911 2432 4100
C 2432 4157 2432 4192 2394 4192
C 2387 4192 2374 4192 2323 4163
C 2099 4058 1837 3973 1517 3973
C 1325 3973 1037 3999 723 4139
C 653 4171 640 4171 634 4171
C 602 4171 595 4164 595 4037
L 595 2203
C 595 2089 595 2057 659 2057
C 691 2057 704 2070 736 2114
C 941 2401 1222 2522 1542 2522
C 1766 2522 2246 2382 2246 1289
C 2246 1085 2246 715 2054 421
C 1894 159 1645 25 1370 25
C 947 25 518 320 403 814
C 429 807 480 795 506 795
C 589 795 749 840 749 1038
C 749 1210 627 1280 506 1280
C 358 1280 262 1190 262 1011
C 262 454 704 -128 1382 -128
C 2042 -128 2669 440 2669 1264
C 2669 2030 2170 2624 1549 2624
C 1222 2624 947 2503 730 2274
L 730 3692
z
" transform="scale(0.015625)"/>
       </defs>
       <use xlink:href="#CMR17-31" transform="scale(0.996264)"/>
       <use xlink:href="#CMR17-35" transform="translate(45.690477 0)scale(0.996264)"/>
       <use xlink:href="#CMR17-30" transform="translate(91.380954 0)scale(0.996264)"/>
      </g>
     </g>
    </g>
    <g id="ytick_3">
     <g id="line2d_19">
      <g>
       <use xlink:href="#ma92150746e" x="46.436966" y="17.145428" style="stroke: #000000; stroke-width: 0.8"/>
      </g>
     </g>
     <g id="text_19">
      <!-- $\mathdefault{300}$ -->
      <g transform="translate(18.9515 21.988366)scale(0.14 -0.14)">
       <defs>
        <path id="CMR17-33" d="M 1414 2157
C 1984 2157 2234 1662 2234 1090
C 2234 320 1824 25 1453 25
C 1114 25 563 194 390 693
C 422 680 454 680 486 680
C 640 680 755 782 755 948
C 755 1133 614 1216 486 1216
C 378 1216 211 1165 211 926
C 211 335 787 -128 1466 -128
C 2176 -128 2720 430 2720 1085
C 2720 1707 2208 2157 1600 2227
C 2086 2328 2554 2756 2554 3329
C 2554 3820 2048 4179 1472 4179
C 890 4179 378 3829 378 3329
C 378 3110 544 3072 627 3072
C 762 3072 877 3155 877 3321
C 877 3486 762 3569 627 3569
C 602 3569 570 3569 544 3557
C 730 3959 1235 4032 1459 4032
C 1683 4032 2106 3925 2106 3320
C 2106 3143 2080 2828 1862 2550
C 1670 2304 1453 2304 1242 2284
C 1210 2284 1062 2269 1037 2269
C 992 2263 966 2257 966 2208
C 966 2163 973 2157 1101 2157
L 1414 2157
z
" transform="scale(0.015625)"/>
       </defs>
       <use xlink:href="#CMR17-33" transform="scale(0.996264)"/>
       <use xlink:href="#CMR17-30" transform="translate(45.690477 0)scale(0.996264)"/>
       <use xlink:href="#CMR17-30" transform="translate(91.380954 0)scale(0.996264)"/>
      </g>
     </g>
    </g>
    <g id="text_20">
     <!-- Average Depth -->
     <g transform="translate(13.401755 68.237527)rotate(-90)scale(0.08 -0.08)">
      <defs>
       <path id="CMSS17-41" d="M 2272 4416
L 1722 4416
L 166 0
L 653 0
L 1101 1280
L 2816 1280
L 3270 0
L 3827 0
L 2272 4416
z
M 2694 1637
L 1222 1637
C 1530 2528 1914 3638 1958 3925
L 1965 3925
C 2010 3663 2138 3281 2246 2956
L 2694 1637
z
" transform="scale(0.015625)"/>
       <path id="CMSS17-44" d="M 570 4416
L 570 0
L 2144 0
C 3194 0 4000 980 4000 2170
C 4000 3398 3194 4416 2144 4416
L 570 4416
z
M 1094 357
L 1094 4059
L 2003 4059
C 2861 4059 3475 3277 3475 2170
C 3475 1107 2867 357 2003 357
L 1094 357
z
" transform="scale(0.015625)"/>
      </defs>
      <use xlink:href="#CMSS17-41" transform="scale(0.996264)"/>
      <use xlink:href="#CMSS17-76" transform="translate(62.217855 0)scale(0.996264)"/>
      <use xlink:href="#CMSS17-65" transform="translate(105.217997 0)scale(0.996264)"/>
      <use xlink:href="#CMSS17-72" transform="translate(146.856819 0)scale(0.996264)"/>
      <use xlink:href="#CMSS17-61" transform="translate(178.766591 0)scale(0.996264)"/>
      <use xlink:href="#CMSS17-67" transform="translate(223.688512 0)scale(0.996264)"/>
      <use xlink:href="#CMSS17-65" transform="translate(270.532135 0)scale(0.996264)"/>
      <use xlink:href="#CMSS17-44" transform="translate(343.40007 0)scale(0.996264)"/>
      <use xlink:href="#CMSS17-65" transform="translate(410.942912 0)scale(0.996264)"/>
      <use xlink:href="#CMSS17-70" transform="translate(452.581734 0)scale(0.996264)"/>
      <use xlink:href="#CMSS17-74" transform="translate(500.786677 0)scale(0.996264)"/>
      <use xlink:href="#CMSS17-68" transform="translate(534.618244 0)scale(0.996264)"/>
     </g>
    </g>
   </g>
   <g id="patch_67">
    <path d="M 46.436966 76.5
L 46.436966 7.2
" style="fill: none; stroke: #000000; stroke-width: 0.8; stroke-linejoin: miter; stroke-linecap: square"/>
   </g>
   <g id="patch_68">
    <path d="M 241.736966 76.5
L 241.736966 7.2
" style="fill: none; stroke: #000000; stroke-width: 0.8; stroke-linejoin: miter; stroke-linecap: square"/>
   </g>
   <g id="patch_69">
    <path d="M 46.436966 76.5
L 241.736966 76.5
" style="fill: none; stroke: #000000; stroke-width: 0.8; stroke-linejoin: miter; stroke-linecap: square"/>
   </g>
   <g id="patch_70">
    <path d="M 46.436966 7.2
L 241.736966 7.2
" style="fill: none; stroke: #000000; stroke-width: 0.8; stroke-linejoin: miter; stroke-linecap: square"/>
   </g>
  </g>
 </g>
 <defs>
  <clipPath id="p5c7b69f8da">
   <rect x="46.436966" y="7.2" width="195.3" height="69.3"/>
  </clipPath>
 </defs>
</svg>
