<?xml version="1.0" encoding="utf-8" standalone="no"?>
<!DOCTYPE svg PUBLIC "-//W3C//DTD SVG 1.1//EN"
  "http://www.w3.org/Graphics/SVG/1.1/DTD/svg11.dtd">
<svg xmlns:xlink="http://www.w3.org/1999/xlink" width="324pt" height="249.12pt" viewBox="0 0 324 249.12" xmlns="http://www.w3.org/2000/svg" version="1.1">
 <metadata>
  <rdf:RDF xmlns:dc="http://purl.org/dc/elements/1.1/" xmlns:cc="http://creativecommons.org/ns#" xmlns:rdf="http://www.w3.org/1999/02/22-rdf-syntax-ns#">
   <cc:Work>
    <dc:type rdf:resource="http://purl.org/dc/dcmitype/StillImage"/>
    <dc:date>2023-05-25T19:40:11.180356</dc:date>
    <dc:format>image/svg+xml</dc:format>
    <dc:creator>
     <cc:Agent>
      <dc:title>Matplotlib v3.7.1, https://matplotlib.org/</dc:title>
     </cc:Agent>
    </dc:creator>
   </cc:Work>
  </rdf:RDF>
 </metadata>
 <defs>
  <style type="text/css">*{stroke-linejoin: round; stroke-linecap: butt}</style>
 </defs>
 <g id="figure_1">
  <g id="patch_1">
   <path d="M 0 249.12 
L 324 249.12 
L 324 0 
L 0 0 
z
" style="fill: #ffffff"/>
  </g>
  <g id="axes_1">
   <g id="patch_2">
    <path d="M 40.5 221.7168 
L 291.6 221.7168 
L 291.6 29.8944 
L 40.5 29.8944 
z
" style="fill: #ffffff"/>
   </g>
   <g id="patch_3">
    <path d="M 51.913636 221.7168 
L 54.433998 221.7168 
L 54.433998 186.584492 
L 51.913636 186.584492 
z
" clip-path="url(#p467ac10c1f)" style="fill: #001219"/>
   </g>
   <g id="patch_4">
    <path d="M 59.114669 221.7168 
L 61.63503 221.7168 
L 61.63503 200.637415 
L 59.114669 200.637415 
z
" clip-path="url(#p467ac10c1f)" style="fill: #001219"/>
   </g>
   <g id="patch_5">
    <path d="M 66.315701 221.7168 
L 68.836063 221.7168 
L 68.836063 214.690338 
L 66.315701 214.690338 
z
" clip-path="url(#p467ac10c1f)" style="fill: #001219"/>
   </g>
   <g id="patch_6">
    <path d="M 73.516734 221.7168 
L 76.037095 221.7168 
L 76.037095 200.637415 
L 73.516734 200.637415 
z
" clip-path="url(#p467ac10c1f)" style="fill: #001219"/>
   </g>
   <g id="patch_7">
    <path d="M 80.717766 221.7168 
L 83.238127 221.7168 
L 83.238127 214.690338 
L 80.717766 214.690338 
z
" clip-path="url(#p467ac10c1f)" style="fill: #001219"/>
   </g>
   <g id="patch_8">
    <path d="M 87.918798 221.7168 
L 90.43916 221.7168 
L 90.43916 179.558031 
L 87.918798 179.558031 
z
" clip-path="url(#p467ac10c1f)" style="fill: #001219"/>
   </g>
   <g id="patch_9">
    <path d="M 95.119831 221.7168 
L 97.640192 221.7168 
L 97.640192 218.203569 
L 95.119831 218.203569 
z
" clip-path="url(#p467ac10c1f)" style="fill: #001219"/>
   </g>
   <g id="patch_10">
    <path d="M 102.320863 221.7168 
L 104.841225 221.7168 
L 104.841225 67.134646 
L 102.320863 67.134646 
z
" clip-path="url(#p467ac10c1f)" style="fill: #001219"/>
   </g>
   <g id="patch_11">
    <path d="M 109.521896 221.7168 
L 112.042257 221.7168 
L 112.042257 207.663877 
L 109.521896 207.663877 
z
" clip-path="url(#p467ac10c1f)" style="fill: #001219"/>
   </g>
   <g id="patch_12">
    <path d="M 116.722928 221.7168 
L 119.243289 221.7168 
L 119.243289 211.177108 
L 116.722928 211.177108 
z
" clip-path="url(#p467ac10c1f)" style="fill: #001219"/>
   </g>
   <g id="patch_13">
    <path d="M 123.92396 221.7168 
L 126.444322 221.7168 
L 126.444322 179.558031 
L 123.92396 179.558031 
z
" clip-path="url(#p467ac10c1f)" style="fill: #001219"/>
   </g>
   <g id="patch_14">
    <path d="M 131.124993 221.7168 
L 133.645354 221.7168 
L 133.645354 77.674338 
L 131.124993 77.674338 
z
" clip-path="url(#p467ac10c1f)" style="fill: #001219"/>
   </g>
   <g id="patch_15">
    <path d="M 138.326025 221.7168 
L 140.846387 221.7168 
L 140.846387 211.177108 
L 138.326025 211.177108 
z
" clip-path="url(#p467ac10c1f)" style="fill: #001219"/>
   </g>
   <g id="patch_16">
    <path d="M 145.527058 221.7168 
L 148.047419 221.7168 
L 148.047419 74.161108 
L 145.527058 74.161108 
z
" clip-path="url(#p467ac10c1f)" style="fill: #001219"/>
   </g>
   <g id="patch_17">
    <path d="M 152.72809 221.7168 
L 155.248451 221.7168 
L 155.248451 151.452185 
L 152.72809 151.452185 
z
" clip-path="url(#p467ac10c1f)" style="fill: #001219"/>
   </g>
   <g id="patch_18">
    <path d="M 159.929122 221.7168 
L 162.449484 221.7168 
L 162.449484 186.584492 
L 159.929122 186.584492 
z
" clip-path="url(#p467ac10c1f)" style="fill: #001219"/>
   </g>
   <g id="patch_19">
    <path d="M 167.130155 221.7168 
L 169.650516 221.7168 
L 169.650516 211.177108 
L 167.130155 211.177108 
z
" clip-path="url(#p467ac10c1f)" style="fill: #001219"/>
   </g>
   <g id="patch_20">
    <path d="M 174.331187 221.7168 
L 176.851549 221.7168 
L 176.851549 218.203569 
L 174.331187 218.203569 
z
" clip-path="url(#p467ac10c1f)" style="fill: #001219"/>
   </g>
   <g id="patch_21">
    <path d="M 181.53222 221.7168 
L 184.052581 221.7168 
L 184.052581 214.690338 
L 181.53222 214.690338 
z
" clip-path="url(#p467ac10c1f)" style="fill: #001219"/>
   </g>
   <g id="patch_22">
    <path d="M 188.733252 221.7168 
L 191.253613 221.7168 
L 191.253613 221.7168 
L 188.733252 221.7168 
z
" clip-path="url(#p467ac10c1f)" style="fill: #001219"/>
   </g>
   <g id="patch_23">
    <path d="M 195.934284 221.7168 
L 198.454646 221.7168 
L 198.454646 186.584492 
L 195.934284 186.584492 
z
" clip-path="url(#p467ac10c1f)" style="fill: #001219"/>
   </g>
   <g id="patch_24">
    <path d="M 203.135317 221.7168 
L 205.655678 221.7168 
L 205.655678 200.637415 
L 203.135317 200.637415 
z
" clip-path="url(#p467ac10c1f)" style="fill: #001219"/>
   </g>
   <g id="patch_25">
    <path d="M 210.336349 221.7168 
L 212.856711 221.7168 
L 212.856711 88.214031 
L 210.336349 88.214031 
z
" clip-path="url(#p467ac10c1f)" style="fill: #001219"/>
   </g>
   <g id="patch_26">
    <path d="M 217.537382 221.7168 
L 220.057743 221.7168 
L 220.057743 39.0288 
L 217.537382 39.0288 
z
" clip-path="url(#p467ac10c1f)" style="fill: #001219"/>
   </g>
   <g id="patch_27">
    <path d="M 224.738414 221.7168 
L 227.258775 221.7168 
L 227.258775 53.081723 
L 224.738414 53.081723 
z
" clip-path="url(#p467ac10c1f)" style="fill: #001219"/>
   </g>
   <g id="patch_28">
    <path d="M 231.939447 221.7168 
L 234.459808 221.7168 
L 234.459808 200.637415 
L 231.939447 200.637415 
z
" clip-path="url(#p467ac10c1f)" style="fill: #001219"/>
   </g>
   <g id="patch_29">
    <path d="M 239.140479 221.7168 
L 241.66084 221.7168 
L 241.66084 207.663877 
L 239.140479 207.663877 
z
" clip-path="url(#p467ac10c1f)" style="fill: #001219"/>
   </g>
   <g id="patch_30">
    <path d="M 246.341511 221.7168 
L 248.861873 221.7168 
L 248.861873 179.558031 
L 246.341511 179.558031 
z
" clip-path="url(#p467ac10c1f)" style="fill: #001219"/>
   </g>
   <g id="patch_31">
    <path d="M 253.542544 221.7168 
L 256.062905 221.7168 
L 256.062905 214.690338 
L 253.542544 214.690338 
z
" clip-path="url(#p467ac10c1f)" style="fill: #001219"/>
   </g>
   <g id="patch_32">
    <path d="M 260.743576 221.7168 
L 263.263937 221.7168 
L 263.263937 70.647877 
L 260.743576 70.647877 
z
" clip-path="url(#p467ac10c1f)" style="fill: #001219"/>
   </g>
   <g id="patch_33">
    <path d="M 267.944609 221.7168 
L 270.46497 221.7168 
L 270.46497 214.690338 
L 267.944609 214.690338 
z
" clip-path="url(#p467ac10c1f)" style="fill: #001219"/>
   </g>
   <g id="patch_34">
    <path d="M 275.145641 221.7168 
L 277.666002 221.7168 
L 277.666002 158.478646 
L 275.145641 158.478646 
z
" clip-path="url(#p467ac10c1f)" style="fill: #001219"/>
   </g>
   <g id="patch_35">
    <path d="M 54.433998 221.7168 
L 56.954359 221.7168 
L 56.954359 186.584492 
L 54.433998 186.584492 
z
" clip-path="url(#p467ac10c1f)" style="fill: #005f73"/>
   </g>
   <g id="patch_36">
    <path d="M 61.63503 221.7168 
L 64.155391 221.7168 
L 64.155391 200.637415 
L 61.63503 200.637415 
z
" clip-path="url(#p467ac10c1f)" style="fill: #005f73"/>
   </g>
   <g id="patch_37">
    <path d="M 68.836063 221.7168 
L 71.356424 221.7168 
L 71.356424 214.690338 
L 68.836063 214.690338 
z
" clip-path="url(#p467ac10c1f)" style="fill: #005f73"/>
   </g>
   <g id="patch_38">
    <path d="M 76.037095 221.7168 
L 78.557456 221.7168 
L 78.557456 200.637415 
L 76.037095 200.637415 
z
" clip-path="url(#p467ac10c1f)" style="fill: #005f73"/>
   </g>
   <g id="patch_39">
    <path d="M 83.238127 221.7168 
L 85.758489 221.7168 
L 85.758489 214.690338 
L 83.238127 214.690338 
z
" clip-path="url(#p467ac10c1f)" style="fill: #005f73"/>
   </g>
   <g id="patch_40">
    <path d="M 90.43916 221.7168 
L 92.959521 221.7168 
L 92.959521 179.558031 
L 90.43916 179.558031 
z
" clip-path="url(#p467ac10c1f)" style="fill: #005f73"/>
   </g>
   <g id="patch_41">
    <path d="M 97.640192 221.7168 
L 100.160553 221.7168 
L 100.160553 218.203569 
L 97.640192 218.203569 
z
" clip-path="url(#p467ac10c1f)" style="fill: #005f73"/>
   </g>
   <g id="patch_42">
    <path d="M 104.841225 221.7168 
L 107.361586 221.7168 
L 107.361586 67.134646 
L 104.841225 67.134646 
z
" clip-path="url(#p467ac10c1f)" style="fill: #005f73"/>
   </g>
   <g id="patch_43">
    <path d="M 112.042257 221.7168 
L 114.562618 221.7168 
L 114.562618 207.663877 
L 112.042257 207.663877 
z
" clip-path="url(#p467ac10c1f)" style="fill: #005f73"/>
   </g>
   <g id="patch_44">
    <path d="M 119.243289 221.7168 
L 121.763651 221.7168 
L 121.763651 211.177108 
L 119.243289 211.177108 
z
" clip-path="url(#p467ac10c1f)" style="fill: #005f73"/>
   </g>
   <g id="patch_45">
    <path d="M 126.444322 221.7168 
L 128.964683 221.7168 
L 128.964683 190.097723 
L 126.444322 190.097723 
z
" clip-path="url(#p467ac10c1f)" style="fill: #005f73"/>
   </g>
   <g id="patch_46">
    <path d="M 133.645354 221.7168 
L 136.165716 221.7168 
L 136.165716 102.266954 
L 133.645354 102.266954 
z
" clip-path="url(#p467ac10c1f)" style="fill: #005f73"/>
   </g>
   <g id="patch_47">
    <path d="M 140.846387 221.7168 
L 143.366748 221.7168 
L 143.366748 211.177108 
L 140.846387 211.177108 
z
" clip-path="url(#p467ac10c1f)" style="fill: #005f73"/>
   </g>
   <g id="patch_48">
    <path d="M 148.047419 221.7168 
L 150.56778 221.7168 
L 150.56778 74.161108 
L 148.047419 74.161108 
z
" clip-path="url(#p467ac10c1f)" style="fill: #005f73"/>
   </g>
   <g id="patch_49">
    <path d="M 155.248451 221.7168 
L 157.768813 221.7168 
L 157.768813 151.452185 
L 155.248451 151.452185 
z
" clip-path="url(#p467ac10c1f)" style="fill: #005f73"/>
   </g>
   <g id="patch_50">
    <path d="M 162.449484 221.7168 
L 164.969845 221.7168 
L 164.969845 186.584492 
L 162.449484 186.584492 
z
" clip-path="url(#p467ac10c1f)" style="fill: #005f73"/>
   </g>
   <g id="patch_51">
    <path d="M 169.650516 221.7168 
L 172.170878 221.7168 
L 172.170878 211.177108 
L 169.650516 211.177108 
z
" clip-path="url(#p467ac10c1f)" style="fill: #005f73"/>
   </g>
   <g id="patch_52">
    <path d="M 176.851549 221.7168 
L 179.37191 221.7168 
L 179.37191 218.203569 
L 176.851549 218.203569 
z
" clip-path="url(#p467ac10c1f)" style="fill: #005f73"/>
   </g>
   <g id="patch_53">
    <path d="M 184.052581 221.7168 
L 186.572942 221.7168 
L 186.572942 214.690338 
L 184.052581 214.690338 
z
" clip-path="url(#p467ac10c1f)" style="fill: #005f73"/>
   </g>
   <g id="patch_54">
    <path d="M 191.253613 221.7168 
L 193.773975 221.7168 
L 193.773975 221.7168 
L 191.253613 221.7168 
z
" clip-path="url(#p467ac10c1f)" style="fill: #005f73"/>
   </g>
   <g id="patch_55">
    <path d="M 198.454646 221.7168 
L 200.975007 221.7168 
L 200.975007 193.610954 
L 198.454646 193.610954 
z
" clip-path="url(#p467ac10c1f)" style="fill: #005f73"/>
   </g>
   <g id="patch_56">
    <path d="M 205.655678 221.7168 
L 208.17604 221.7168 
L 208.17604 200.637415 
L 205.655678 200.637415 
z
" clip-path="url(#p467ac10c1f)" style="fill: #005f73"/>
   </g>
   <g id="patch_57">
    <path d="M 212.856711 221.7168 
L 215.377072 221.7168 
L 215.377072 95.240492 
L 212.856711 95.240492 
z
" clip-path="url(#p467ac10c1f)" style="fill: #005f73"/>
   </g>
   <g id="patch_58">
    <path d="M 220.057743 221.7168 
L 222.578104 221.7168 
L 222.578104 53.081723 
L 220.057743 53.081723 
z
" clip-path="url(#p467ac10c1f)" style="fill: #005f73"/>
   </g>
   <g id="patch_59">
    <path d="M 227.258775 221.7168 
L 229.779137 221.7168 
L 229.779137 53.081723 
L 227.258775 53.081723 
z
" clip-path="url(#p467ac10c1f)" style="fill: #005f73"/>
   </g>
   <g id="patch_60">
    <path d="M 234.459808 221.7168 
L 236.980169 221.7168 
L 236.980169 200.637415 
L 234.459808 200.637415 
z
" clip-path="url(#p467ac10c1f)" style="fill: #005f73"/>
   </g>
   <g id="patch_61">
    <path d="M 241.66084 221.7168 
L 244.181202 221.7168 
L 244.181202 207.663877 
L 241.66084 207.663877 
z
" clip-path="url(#p467ac10c1f)" style="fill: #005f73"/>
   </g>
   <g id="patch_62">
    <path d="M 248.861873 221.7168 
L 251.382234 221.7168 
L 251.382234 179.558031 
L 248.861873 179.558031 
z
" clip-path="url(#p467ac10c1f)" style="fill: #005f73"/>
   </g>
   <g id="patch_63">
    <path d="M 256.062905 221.7168 
L 258.583266 221.7168 
L 258.583266 214.690338 
L 256.062905 214.690338 
z
" clip-path="url(#p467ac10c1f)" style="fill: #005f73"/>
   </g>
   <g id="patch_64">
    <path d="M 263.263937 221.7168 
L 265.784299 221.7168 
L 265.784299 67.134646 
L 263.263937 67.134646 
z
" clip-path="url(#p467ac10c1f)" style="fill: #005f73"/>
   </g>
   <g id="patch_65">
    <path d="M 270.46497 221.7168 
L 272.985331 221.7168 
L 272.985331 214.690338 
L 270.46497 214.690338 
z
" clip-path="url(#p467ac10c1f)" style="fill: #005f73"/>
   </g>
   <g id="patch_66">
    <path d="M 277.666002 221.7168 
L 280.186364 221.7168 
L 280.186364 165.505108 
L 277.666002 165.505108 
z
" clip-path="url(#p467ac10c1f)" style="fill: #005f73"/>
   </g>
   <g id="matplotlib.axis_1">
    <g id="xtick_1">
     <g id="line2d_1">
      <defs>
       <path id="m9694c4975d" d="M 0 0 
L 0 3.5 
" style="stroke: #000000; stroke-width: 0.8"/>
      </defs>
      <g>
       <use xlink:href="#m9694c4975d" x="54.433998" y="221.7168" style="stroke: #000000; stroke-width: 0.8"/>
      </g>
     </g>
     <g id="text_1">
      <!-- qec_en_n5 -->
      <g transform="translate(56.915248 281.907425) rotate(-90) scale(0.1 -0.1)">
       <defs>
        <path id="DejaVuSans-71" d="M 947 1747 
Q 947 1113 1208 752 
Q 1469 391 1925 391 
Q 2381 391 2643 752 
Q 2906 1113 2906 1747 
Q 2906 2381 2643 2742 
Q 2381 3103 1925 3103 
Q 1469 3103 1208 2742 
Q 947 2381 947 1747 
z
M 2906 525 
Q 2725 213 2448 61 
Q 2172 -91 1784 -91 
Q 1150 -91 751 415 
Q 353 922 353 1747 
Q 353 2572 751 3078 
Q 1150 3584 1784 3584 
Q 2172 3584 2448 3432 
Q 2725 3281 2906 2969 
L 2906 3500 
L 3481 3500 
L 3481 -1331 
L 2906 -1331 
L 2906 525 
z
" transform="scale(0.015625)"/>
        <path id="DejaVuSans-65" d="M 3597 1894 
L 3597 1613 
L 953 1613 
Q 991 1019 1311 708 
Q 1631 397 2203 397 
Q 2534 397 2845 478 
Q 3156 559 3463 722 
L 3463 178 
Q 3153 47 2828 -22 
Q 2503 -91 2169 -91 
Q 1331 -91 842 396 
Q 353 884 353 1716 
Q 353 2575 817 3079 
Q 1281 3584 2069 3584 
Q 2775 3584 3186 3129 
Q 3597 2675 3597 1894 
z
M 3022 2063 
Q 3016 2534 2758 2815 
Q 2500 3097 2075 3097 
Q 1594 3097 1305 2825 
Q 1016 2553 972 2059 
L 3022 2063 
z
" transform="scale(0.015625)"/>
        <path id="DejaVuSans-63" d="M 3122 3366 
L 3122 2828 
Q 2878 2963 2633 3030 
Q 2388 3097 2138 3097 
Q 1578 3097 1268 2742 
Q 959 2388 959 1747 
Q 959 1106 1268 751 
Q 1578 397 2138 397 
Q 2388 397 2633 464 
Q 2878 531 3122 666 
L 3122 134 
Q 2881 22 2623 -34 
Q 2366 -91 2075 -91 
Q 1284 -91 818 406 
Q 353 903 353 1747 
Q 353 2603 823 3093 
Q 1294 3584 2113 3584 
Q 2378 3584 2631 3529 
Q 2884 3475 3122 3366 
z
" transform="scale(0.015625)"/>
        <path id="DejaVuSans-5f" d="M 3263 -1063 
L 3263 -1509 
L -63 -1509 
L -63 -1063 
L 3263 -1063 
z
" transform="scale(0.015625)"/>
        <path id="DejaVuSans-6e" d="M 3513 2113 
L 3513 0 
L 2938 0 
L 2938 2094 
Q 2938 2591 2744 2837 
Q 2550 3084 2163 3084 
Q 1697 3084 1428 2787 
Q 1159 2491 1159 1978 
L 1159 0 
L 581 0 
L 581 3500 
L 1159 3500 
L 1159 2956 
Q 1366 3272 1645 3428 
Q 1925 3584 2291 3584 
Q 2894 3584 3203 3211 
Q 3513 2838 3513 2113 
z
" transform="scale(0.015625)"/>
        <path id="DejaVuSans-35" d="M 691 4666 
L 3169 4666 
L 3169 4134 
L 1269 4134 
L 1269 2991 
Q 1406 3038 1543 3061 
Q 1681 3084 1819 3084 
Q 2600 3084 3056 2656 
Q 3513 2228 3513 1497 
Q 3513 744 3044 326 
Q 2575 -91 1722 -91 
Q 1428 -91 1123 -41 
Q 819 9 494 109 
L 494 744 
Q 775 591 1075 516 
Q 1375 441 1709 441 
Q 2250 441 2565 725 
Q 2881 1009 2881 1497 
Q 2881 1984 2565 2268 
Q 2250 2553 1709 2553 
Q 1456 2553 1204 2497 
Q 953 2441 691 2322 
L 691 4666 
z
" transform="scale(0.015625)"/>
       </defs>
       <use xlink:href="#DejaVuSans-71"/>
       <use xlink:href="#DejaVuSans-65" x="63.476562"/>
       <use xlink:href="#DejaVuSans-63" x="125"/>
       <use xlink:href="#DejaVuSans-5f" x="179.980469"/>
       <use xlink:href="#DejaVuSans-65" x="229.980469"/>
       <use xlink:href="#DejaVuSans-6e" x="291.503906"/>
       <use xlink:href="#DejaVuSans-5f" x="354.882812"/>
       <use xlink:href="#DejaVuSans-6e" x="404.882812"/>
       <use xlink:href="#DejaVuSans-35" x="468.261719"/>
      </g>
     </g>
    </g>
    <g id="xtick_2">
     <g id="line2d_2">
      <g>
       <use xlink:href="#m9694c4975d" x="61.63503" y="221.7168" style="stroke: #000000; stroke-width: 0.8"/>
      </g>
     </g>
     <g id="text_2">
      <!-- qaoa_n3 -->
      <g transform="translate(64.167061 271.140238) rotate(-90) scale(0.1 -0.1)">
       <defs>
        <path id="DejaVuSans-61" d="M 2194 1759 
Q 1497 1759 1228 1600 
Q 959 1441 959 1056 
Q 959 750 1161 570 
Q 1363 391 1709 391 
Q 2188 391 2477 730 
Q 2766 1069 2766 1631 
L 2766 1759 
L 2194 1759 
z
M 3341 1997 
L 3341 0 
L 2766 0 
L 2766 531 
Q 2569 213 2275 61 
Q 1981 -91 1556 -91 
Q 1019 -91 701 211 
Q 384 513 384 1019 
Q 384 1609 779 1909 
Q 1175 2209 1959 2209 
L 2766 2209 
L 2766 2266 
Q 2766 2663 2505 2880 
Q 2244 3097 1772 3097 
Q 1472 3097 1187 3025 
Q 903 2953 641 2809 
L 641 3341 
Q 956 3463 1253 3523 
Q 1550 3584 1831 3584 
Q 2591 3584 2966 3190 
Q 3341 2797 3341 1997 
z
" transform="scale(0.015625)"/>
        <path id="DejaVuSans-6f" d="M 1959 3097 
Q 1497 3097 1228 2736 
Q 959 2375 959 1747 
Q 959 1119 1226 758 
Q 1494 397 1959 397 
Q 2419 397 2687 759 
Q 2956 1122 2956 1747 
Q 2956 2369 2687 2733 
Q 2419 3097 1959 3097 
z
M 1959 3584 
Q 2709 3584 3137 3096 
Q 3566 2609 3566 1747 
Q 3566 888 3137 398 
Q 2709 -91 1959 -91 
Q 1206 -91 779 398 
Q 353 888 353 1747 
Q 353 2609 779 3096 
Q 1206 3584 1959 3584 
z
" transform="scale(0.015625)"/>
        <path id="DejaVuSans-33" d="M 2597 2516 
Q 3050 2419 3304 2112 
Q 3559 1806 3559 1356 
Q 3559 666 3084 287 
Q 2609 -91 1734 -91 
Q 1441 -91 1130 -33 
Q 819 25 488 141 
L 488 750 
Q 750 597 1062 519 
Q 1375 441 1716 441 
Q 2309 441 2620 675 
Q 2931 909 2931 1356 
Q 2931 1769 2642 2001 
Q 2353 2234 1838 2234 
L 1294 2234 
L 1294 2753 
L 1863 2753 
Q 2328 2753 2575 2939 
Q 2822 3125 2822 3475 
Q 2822 3834 2567 4026 
Q 2313 4219 1838 4219 
Q 1578 4219 1281 4162 
Q 984 4106 628 3988 
L 628 4550 
Q 988 4650 1302 4700 
Q 1616 4750 1894 4750 
Q 2613 4750 3031 4423 
Q 3450 4097 3450 3541 
Q 3450 3153 3228 2886 
Q 3006 2619 2597 2516 
z
" transform="scale(0.015625)"/>
       </defs>
       <use xlink:href="#DejaVuSans-71"/>
       <use xlink:href="#DejaVuSans-61" x="63.476562"/>
       <use xlink:href="#DejaVuSans-6f" x="124.755859"/>
       <use xlink:href="#DejaVuSans-61" x="185.9375"/>
       <use xlink:href="#DejaVuSans-5f" x="247.216797"/>
       <use xlink:href="#DejaVuSans-6e" x="297.216797"/>
       <use xlink:href="#DejaVuSans-33" x="360.595703"/>
      </g>
     </g>
    </g>
    <g id="xtick_3">
     <g id="line2d_3">
      <g>
       <use xlink:href="#m9694c4975d" x="68.836063" y="221.7168" style="stroke: #000000; stroke-width: 0.8"/>
      </g>
     </g>
     <g id="text_3">
      <!-- grover_n2 -->
      <g transform="translate(71.368094 278.952738) rotate(-90) scale(0.1 -0.1)">
       <defs>
        <path id="DejaVuSans-67" d="M 2906 1791 
Q 2906 2416 2648 2759 
Q 2391 3103 1925 3103 
Q 1463 3103 1205 2759 
Q 947 2416 947 1791 
Q 947 1169 1205 825 
Q 1463 481 1925 481 
Q 2391 481 2648 825 
Q 2906 1169 2906 1791 
z
M 3481 434 
Q 3481 -459 3084 -895 
Q 2688 -1331 1869 -1331 
Q 1566 -1331 1297 -1286 
Q 1028 -1241 775 -1147 
L 775 -588 
Q 1028 -725 1275 -790 
Q 1522 -856 1778 -856 
Q 2344 -856 2625 -561 
Q 2906 -266 2906 331 
L 2906 616 
Q 2728 306 2450 153 
Q 2172 0 1784 0 
Q 1141 0 747 490 
Q 353 981 353 1791 
Q 353 2603 747 3093 
Q 1141 3584 1784 3584 
Q 2172 3584 2450 3431 
Q 2728 3278 2906 2969 
L 2906 3500 
L 3481 3500 
L 3481 434 
z
" transform="scale(0.015625)"/>
        <path id="DejaVuSans-72" d="M 2631 2963 
Q 2534 3019 2420 3045 
Q 2306 3072 2169 3072 
Q 1681 3072 1420 2755 
Q 1159 2438 1159 1844 
L 1159 0 
L 581 0 
L 581 3500 
L 1159 3500 
L 1159 2956 
Q 1341 3275 1631 3429 
Q 1922 3584 2338 3584 
Q 2397 3584 2469 3576 
Q 2541 3569 2628 3553 
L 2631 2963 
z
" transform="scale(0.015625)"/>
        <path id="DejaVuSans-76" d="M 191 3500 
L 800 3500 
L 1894 563 
L 2988 3500 
L 3597 3500 
L 2284 0 
L 1503 0 
L 191 3500 
z
" transform="scale(0.015625)"/>
        <path id="DejaVuSans-32" d="M 1228 531 
L 3431 531 
L 3431 0 
L 469 0 
L 469 531 
Q 828 903 1448 1529 
Q 2069 2156 2228 2338 
Q 2531 2678 2651 2914 
Q 2772 3150 2772 3378 
Q 2772 3750 2511 3984 
Q 2250 4219 1831 4219 
Q 1534 4219 1204 4116 
Q 875 4013 500 3803 
L 500 4441 
Q 881 4594 1212 4672 
Q 1544 4750 1819 4750 
Q 2544 4750 2975 4387 
Q 3406 4025 3406 3419 
Q 3406 3131 3298 2873 
Q 3191 2616 2906 2266 
Q 2828 2175 2409 1742 
Q 1991 1309 1228 531 
z
" transform="scale(0.015625)"/>
       </defs>
       <use xlink:href="#DejaVuSans-67"/>
       <use xlink:href="#DejaVuSans-72" x="63.476562"/>
       <use xlink:href="#DejaVuSans-6f" x="102.339844"/>
       <use xlink:href="#DejaVuSans-76" x="163.521484"/>
       <use xlink:href="#DejaVuSans-65" x="222.701172"/>
       <use xlink:href="#DejaVuSans-72" x="284.224609"/>
       <use xlink:href="#DejaVuSans-5f" x="325.337891"/>
       <use xlink:href="#DejaVuSans-6e" x="375.337891"/>
       <use xlink:href="#DejaVuSans-32" x="438.716797"/>
      </g>
     </g>
    </g>
    <g id="xtick_4">
     <g id="line2d_4">
      <g>
       <use xlink:href="#m9694c4975d" x="76.037095" y="221.7168" style="stroke: #000000; stroke-width: 0.8"/>
      </g>
     </g>
     <g id="text_4">
      <!-- toffoli_n3 -->
      <g transform="translate(78.657407 275.171488) rotate(-90) scale(0.1 -0.1)">
       <defs>
        <path id="DejaVuSans-74" d="M 1172 4494 
L 1172 3500 
L 2356 3500 
L 2356 3053 
L 1172 3053 
L 1172 1153 
Q 1172 725 1289 603 
Q 1406 481 1766 481 
L 2356 481 
L 2356 0 
L 1766 0 
Q 1100 0 847 248 
Q 594 497 594 1153 
L 594 3053 
L 172 3053 
L 172 3500 
L 594 3500 
L 594 4494 
L 1172 4494 
z
" transform="scale(0.015625)"/>
        <path id="DejaVuSans-66" d="M 2375 4863 
L 2375 4384 
L 1825 4384 
Q 1516 4384 1395 4259 
Q 1275 4134 1275 3809 
L 1275 3500 
L 2222 3500 
L 2222 3053 
L 1275 3053 
L 1275 0 
L 697 0 
L 697 3053 
L 147 3053 
L 147 3500 
L 697 3500 
L 697 3744 
Q 697 4328 969 4595 
Q 1241 4863 1831 4863 
L 2375 4863 
z
" transform="scale(0.015625)"/>
        <path id="DejaVuSans-6c" d="M 603 4863 
L 1178 4863 
L 1178 0 
L 603 0 
L 603 4863 
z
" transform="scale(0.015625)"/>
        <path id="DejaVuSans-69" d="M 603 3500 
L 1178 3500 
L 1178 0 
L 603 0 
L 603 3500 
z
M 603 4863 
L 1178 4863 
L 1178 4134 
L 603 4134 
L 603 4863 
z
" transform="scale(0.015625)"/>
       </defs>
       <use xlink:href="#DejaVuSans-74"/>
       <use xlink:href="#DejaVuSans-6f" x="39.208984"/>
       <use xlink:href="#DejaVuSans-66" x="100.390625"/>
       <use xlink:href="#DejaVuSans-66" x="135.595703"/>
       <use xlink:href="#DejaVuSans-6f" x="170.800781"/>
       <use xlink:href="#DejaVuSans-6c" x="231.982422"/>
       <use xlink:href="#DejaVuSans-69" x="259.765625"/>
       <use xlink:href="#DejaVuSans-5f" x="287.548828"/>
       <use xlink:href="#DejaVuSans-6e" x="337.548828"/>
       <use xlink:href="#DejaVuSans-33" x="400.927734"/>
      </g>
     </g>
    </g>
    <g id="xtick_5">
     <g id="line2d_5">
      <g>
       <use xlink:href="#m9694c4975d" x="83.238127" y="221.7168" style="stroke: #000000; stroke-width: 0.8"/>
      </g>
     </g>
     <g id="text_5">
      <!-- hs4_n4 -->
      <g transform="translate(85.85844 264.326175) rotate(-90) scale(0.1 -0.1)">
       <defs>
        <path id="DejaVuSans-68" d="M 3513 2113 
L 3513 0 
L 2938 0 
L 2938 2094 
Q 2938 2591 2744 2837 
Q 2550 3084 2163 3084 
Q 1697 3084 1428 2787 
Q 1159 2491 1159 1978 
L 1159 0 
L 581 0 
L 581 4863 
L 1159 4863 
L 1159 2956 
Q 1366 3272 1645 3428 
Q 1925 3584 2291 3584 
Q 2894 3584 3203 3211 
Q 3513 2838 3513 2113 
z
" transform="scale(0.015625)"/>
        <path id="DejaVuSans-73" d="M 2834 3397 
L 2834 2853 
Q 2591 2978 2328 3040 
Q 2066 3103 1784 3103 
Q 1356 3103 1142 2972 
Q 928 2841 928 2578 
Q 928 2378 1081 2264 
Q 1234 2150 1697 2047 
L 1894 2003 
Q 2506 1872 2764 1633 
Q 3022 1394 3022 966 
Q 3022 478 2636 193 
Q 2250 -91 1575 -91 
Q 1294 -91 989 -36 
Q 684 19 347 128 
L 347 722 
Q 666 556 975 473 
Q 1284 391 1588 391 
Q 1994 391 2212 530 
Q 2431 669 2431 922 
Q 2431 1156 2273 1281 
Q 2116 1406 1581 1522 
L 1381 1569 
Q 847 1681 609 1914 
Q 372 2147 372 2553 
Q 372 3047 722 3315 
Q 1072 3584 1716 3584 
Q 2034 3584 2315 3537 
Q 2597 3491 2834 3397 
z
" transform="scale(0.015625)"/>
        <path id="DejaVuSans-34" d="M 2419 4116 
L 825 1625 
L 2419 1625 
L 2419 4116 
z
M 2253 4666 
L 3047 4666 
L 3047 1625 
L 3713 1625 
L 3713 1100 
L 3047 1100 
L 3047 0 
L 2419 0 
L 2419 1100 
L 313 1100 
L 313 1709 
L 2253 4666 
z
" transform="scale(0.015625)"/>
       </defs>
       <use xlink:href="#DejaVuSans-68"/>
       <use xlink:href="#DejaVuSans-73" x="63.378906"/>
       <use xlink:href="#DejaVuSans-34" x="115.478516"/>
       <use xlink:href="#DejaVuSans-5f" x="179.101562"/>
       <use xlink:href="#DejaVuSans-6e" x="229.101562"/>
       <use xlink:href="#DejaVuSans-34" x="292.480469"/>
      </g>
     </g>
    </g>
    <g id="xtick_6">
     <g id="line2d_6">
      <g>
       <use xlink:href="#m9694c4975d" x="90.43916" y="221.7168" style="stroke: #000000; stroke-width: 0.8"/>
      </g>
     </g>
     <g id="text_6">
      <!-- variational_n4 -->
      <g transform="translate(93.059472 299.5418) rotate(-90) scale(0.1 -0.1)">
       <use xlink:href="#DejaVuSans-76"/>
       <use xlink:href="#DejaVuSans-61" x="59.179688"/>
       <use xlink:href="#DejaVuSans-72" x="120.458984"/>
       <use xlink:href="#DejaVuSans-69" x="161.572266"/>
       <use xlink:href="#DejaVuSans-61" x="189.355469"/>
       <use xlink:href="#DejaVuSans-74" x="250.634766"/>
       <use xlink:href="#DejaVuSans-69" x="289.84375"/>
       <use xlink:href="#DejaVuSans-6f" x="317.626953"/>
       <use xlink:href="#DejaVuSans-6e" x="378.808594"/>
       <use xlink:href="#DejaVuSans-61" x="442.1875"/>
       <use xlink:href="#DejaVuSans-6c" x="503.466797"/>
       <use xlink:href="#DejaVuSans-5f" x="531.25"/>
       <use xlink:href="#DejaVuSans-6e" x="581.25"/>
       <use xlink:href="#DejaVuSans-34" x="644.628906"/>
      </g>
     </g>
    </g>
    <g id="xtick_7">
     <g id="line2d_7">
      <g>
       <use xlink:href="#m9694c4975d" x="97.640192" y="221.7168" style="stroke: #000000; stroke-width: 0.8"/>
      </g>
     </g>
     <g id="text_7">
      <!-- deutsch_n2 -->
      <g transform="translate(100.260505 286.221488) rotate(-90) scale(0.1 -0.1)">
       <defs>
        <path id="DejaVuSans-64" d="M 2906 2969 
L 2906 4863 
L 3481 4863 
L 3481 0 
L 2906 0 
L 2906 525 
Q 2725 213 2448 61 
Q 2172 -91 1784 -91 
Q 1150 -91 751 415 
Q 353 922 353 1747 
Q 353 2572 751 3078 
Q 1150 3584 1784 3584 
Q 2172 3584 2448 3432 
Q 2725 3281 2906 2969 
z
M 947 1747 
Q 947 1113 1208 752 
Q 1469 391 1925 391 
Q 2381 391 2643 752 
Q 2906 1113 2906 1747 
Q 2906 2381 2643 2742 
Q 2381 3103 1925 3103 
Q 1469 3103 1208 2742 
Q 947 2381 947 1747 
z
" transform="scale(0.015625)"/>
        <path id="DejaVuSans-75" d="M 544 1381 
L 544 3500 
L 1119 3500 
L 1119 1403 
Q 1119 906 1312 657 
Q 1506 409 1894 409 
Q 2359 409 2629 706 
Q 2900 1003 2900 1516 
L 2900 3500 
L 3475 3500 
L 3475 0 
L 2900 0 
L 2900 538 
Q 2691 219 2414 64 
Q 2138 -91 1772 -91 
Q 1169 -91 856 284 
Q 544 659 544 1381 
z
M 1991 3584 
L 1991 3584 
z
" transform="scale(0.015625)"/>
       </defs>
       <use xlink:href="#DejaVuSans-64"/>
       <use xlink:href="#DejaVuSans-65" x="63.476562"/>
       <use xlink:href="#DejaVuSans-75" x="125"/>
       <use xlink:href="#DejaVuSans-74" x="188.378906"/>
       <use xlink:href="#DejaVuSans-73" x="227.587891"/>
       <use xlink:href="#DejaVuSans-63" x="279.6875"/>
       <use xlink:href="#DejaVuSans-68" x="334.667969"/>
       <use xlink:href="#DejaVuSans-5f" x="398.046875"/>
       <use xlink:href="#DejaVuSans-6e" x="448.046875"/>
       <use xlink:href="#DejaVuSans-32" x="511.425781"/>
      </g>
     </g>
    </g>
    <g id="xtick_8">
     <g id="line2d_8">
      <g>
       <use xlink:href="#m9694c4975d" x="104.841225" y="221.7168" style="stroke: #000000; stroke-width: 0.8"/>
      </g>
     </g>
     <g id="text_8">
      <!-- ipea_n2 -->
      <g transform="translate(107.461537 267.824613) rotate(-90) scale(0.1 -0.1)">
       <defs>
        <path id="DejaVuSans-70" d="M 1159 525 
L 1159 -1331 
L 581 -1331 
L 581 3500 
L 1159 3500 
L 1159 2969 
Q 1341 3281 1617 3432 
Q 1894 3584 2278 3584 
Q 2916 3584 3314 3078 
Q 3713 2572 3713 1747 
Q 3713 922 3314 415 
Q 2916 -91 2278 -91 
Q 1894 -91 1617 61 
Q 1341 213 1159 525 
z
M 3116 1747 
Q 3116 2381 2855 2742 
Q 2594 3103 2138 3103 
Q 1681 3103 1420 2742 
Q 1159 2381 1159 1747 
Q 1159 1113 1420 752 
Q 1681 391 2138 391 
Q 2594 391 2855 752 
Q 3116 1113 3116 1747 
z
" transform="scale(0.015625)"/>
       </defs>
       <use xlink:href="#DejaVuSans-69"/>
       <use xlink:href="#DejaVuSans-70" x="27.783203"/>
       <use xlink:href="#DejaVuSans-65" x="91.259766"/>
       <use xlink:href="#DejaVuSans-61" x="152.783203"/>
       <use xlink:href="#DejaVuSans-5f" x="214.0625"/>
       <use xlink:href="#DejaVuSans-6e" x="264.0625"/>
       <use xlink:href="#DejaVuSans-32" x="327.441406"/>
      </g>
     </g>
    </g>
    <g id="xtick_9">
     <g id="line2d_9">
      <g>
       <use xlink:href="#m9694c4975d" x="112.042257" y="221.7168" style="stroke: #000000; stroke-width: 0.8"/>
      </g>
     </g>
     <g id="text_9">
      <!-- bell_n4 -->
      <g transform="translate(114.662569 264.474613) rotate(-90) scale(0.1 -0.1)">
       <defs>
        <path id="DejaVuSans-62" d="M 3116 1747 
Q 3116 2381 2855 2742 
Q 2594 3103 2138 3103 
Q 1681 3103 1420 2742 
Q 1159 2381 1159 1747 
Q 1159 1113 1420 752 
Q 1681 391 2138 391 
Q 2594 391 2855 752 
Q 3116 1113 3116 1747 
z
M 1159 2969 
Q 1341 3281 1617 3432 
Q 1894 3584 2278 3584 
Q 2916 3584 3314 3078 
Q 3713 2572 3713 1747 
Q 3713 922 3314 415 
Q 2916 -91 2278 -91 
Q 1894 -91 1617 61 
Q 1341 213 1159 525 
L 1159 0 
L 581 0 
L 581 4863 
L 1159 4863 
L 1159 2969 
z
" transform="scale(0.015625)"/>
       </defs>
       <use xlink:href="#DejaVuSans-62"/>
       <use xlink:href="#DejaVuSans-65" x="63.476562"/>
       <use xlink:href="#DejaVuSans-6c" x="125"/>
       <use xlink:href="#DejaVuSans-6c" x="152.783203"/>
       <use xlink:href="#DejaVuSans-5f" x="180.566406"/>
       <use xlink:href="#DejaVuSans-6e" x="230.566406"/>
       <use xlink:href="#DejaVuSans-34" x="293.945312"/>
      </g>
     </g>
    </g>
    <g id="xtick_10">
     <g id="line2d_10">
      <g>
       <use xlink:href="#m9694c4975d" x="119.243289" y="221.7168" style="stroke: #000000; stroke-width: 0.8"/>
      </g>
     </g>
     <g id="text_10">
      <!-- quantumwalks_n2 -->
      <g transform="translate(121.863602 319.651175) rotate(-90) scale(0.1 -0.1)">
       <defs>
        <path id="DejaVuSans-6d" d="M 3328 2828 
Q 3544 3216 3844 3400 
Q 4144 3584 4550 3584 
Q 5097 3584 5394 3201 
Q 5691 2819 5691 2113 
L 5691 0 
L 5113 0 
L 5113 2094 
Q 5113 2597 4934 2840 
Q 4756 3084 4391 3084 
Q 3944 3084 3684 2787 
Q 3425 2491 3425 1978 
L 3425 0 
L 2847 0 
L 2847 2094 
Q 2847 2600 2669 2842 
Q 2491 3084 2119 3084 
Q 1678 3084 1418 2786 
Q 1159 2488 1159 1978 
L 1159 0 
L 581 0 
L 581 3500 
L 1159 3500 
L 1159 2956 
Q 1356 3278 1631 3431 
Q 1906 3584 2284 3584 
Q 2666 3584 2933 3390 
Q 3200 3197 3328 2828 
z
" transform="scale(0.015625)"/>
        <path id="DejaVuSans-77" d="M 269 3500 
L 844 3500 
L 1563 769 
L 2278 3500 
L 2956 3500 
L 3675 769 
L 4391 3500 
L 4966 3500 
L 4050 0 
L 3372 0 
L 2619 2869 
L 1863 0 
L 1184 0 
L 269 3500 
z
" transform="scale(0.015625)"/>
        <path id="DejaVuSans-6b" d="M 581 4863 
L 1159 4863 
L 1159 1991 
L 2875 3500 
L 3609 3500 
L 1753 1863 
L 3688 0 
L 2938 0 
L 1159 1709 
L 1159 0 
L 581 0 
L 581 4863 
z
" transform="scale(0.015625)"/>
       </defs>
       <use xlink:href="#DejaVuSans-71"/>
       <use xlink:href="#DejaVuSans-75" x="63.476562"/>
       <use xlink:href="#DejaVuSans-61" x="126.855469"/>
       <use xlink:href="#DejaVuSans-6e" x="188.134766"/>
       <use xlink:href="#DejaVuSans-74" x="251.513672"/>
       <use xlink:href="#DejaVuSans-75" x="290.722656"/>
       <use xlink:href="#DejaVuSans-6d" x="354.101562"/>
       <use xlink:href="#DejaVuSans-77" x="451.513672"/>
       <use xlink:href="#DejaVuSans-61" x="533.300781"/>
       <use xlink:href="#DejaVuSans-6c" x="594.580078"/>
       <use xlink:href="#DejaVuSans-6b" x="622.363281"/>
       <use xlink:href="#DejaVuSans-73" x="680.273438"/>
       <use xlink:href="#DejaVuSans-5f" x="732.373047"/>
       <use xlink:href="#DejaVuSans-6e" x="782.373047"/>
       <use xlink:href="#DejaVuSans-32" x="845.751953"/>
      </g>
     </g>
    </g>
    <g id="xtick_11">
     <g id="line2d_11">
      <g>
       <use xlink:href="#m9694c4975d" x="126.444322" y="221.7168" style="stroke: #000000; stroke-width: 0.8"/>
      </g>
     </g>
     <g id="text_11">
      <!-- wstate_n3 -->
      <g transform="translate(128.976353 279.926175) rotate(-90) scale(0.1 -0.1)">
       <use xlink:href="#DejaVuSans-77"/>
       <use xlink:href="#DejaVuSans-73" x="81.787109"/>
       <use xlink:href="#DejaVuSans-74" x="133.886719"/>
       <use xlink:href="#DejaVuSans-61" x="173.095703"/>
       <use xlink:href="#DejaVuSans-74" x="234.375"/>
       <use xlink:href="#DejaVuSans-65" x="273.583984"/>
       <use xlink:href="#DejaVuSans-5f" x="335.107422"/>
       <use xlink:href="#DejaVuSans-6e" x="385.107422"/>
       <use xlink:href="#DejaVuSans-33" x="448.486328"/>
      </g>
     </g>
    </g>
    <g id="xtick_12">
     <g id="line2d_12">
      <g>
       <use xlink:href="#m9694c4975d" x="133.645354" y="221.7168" style="stroke: #000000; stroke-width: 0.8"/>
      </g>
     </g>
     <g id="text_12">
      <!-- shor_n5 -->
      <g transform="translate(136.265667 268.193363) rotate(-90) scale(0.1 -0.1)">
       <use xlink:href="#DejaVuSans-73"/>
       <use xlink:href="#DejaVuSans-68" x="52.099609"/>
       <use xlink:href="#DejaVuSans-6f" x="115.478516"/>
       <use xlink:href="#DejaVuSans-72" x="176.660156"/>
       <use xlink:href="#DejaVuSans-5f" x="217.773438"/>
       <use xlink:href="#DejaVuSans-6e" x="267.773438"/>
       <use xlink:href="#DejaVuSans-35" x="331.152344"/>
      </g>
     </g>
    </g>
    <g id="xtick_13">
     <g id="line2d_13">
      <g>
       <use xlink:href="#m9694c4975d" x="140.846387" y="221.7168" style="stroke: #000000; stroke-width: 0.8"/>
      </g>
     </g>
     <g id="text_13">
      <!-- inverseqft_n4 -->
      <g transform="translate(143.466699 296.6918) rotate(-90) scale(0.1 -0.1)">
       <use xlink:href="#DejaVuSans-69"/>
       <use xlink:href="#DejaVuSans-6e" x="27.783203"/>
       <use xlink:href="#DejaVuSans-76" x="91.162109"/>
       <use xlink:href="#DejaVuSans-65" x="150.341797"/>
       <use xlink:href="#DejaVuSans-72" x="211.865234"/>
       <use xlink:href="#DejaVuSans-73" x="252.978516"/>
       <use xlink:href="#DejaVuSans-65" x="305.078125"/>
       <use xlink:href="#DejaVuSans-71" x="366.601562"/>
       <use xlink:href="#DejaVuSans-66" x="430.078125"/>
       <use xlink:href="#DejaVuSans-74" x="463.533203"/>
       <use xlink:href="#DejaVuSans-5f" x="502.742188"/>
       <use xlink:href="#DejaVuSans-6e" x="552.742188"/>
       <use xlink:href="#DejaVuSans-34" x="616.121094"/>
      </g>
     </g>
    </g>
    <g id="xtick_14">
     <g id="line2d_14">
      <g>
       <use xlink:href="#m9694c4975d" x="148.047419" y="221.7168" style="stroke: #000000; stroke-width: 0.8"/>
      </g>
     </g>
     <g id="text_14">
      <!-- dnn_n2 -->
      <g transform="translate(150.667731 265.440238) rotate(-90) scale(0.1 -0.1)">
       <use xlink:href="#DejaVuSans-64"/>
       <use xlink:href="#DejaVuSans-6e" x="63.476562"/>
       <use xlink:href="#DejaVuSans-6e" x="126.855469"/>
       <use xlink:href="#DejaVuSans-5f" x="190.234375"/>
       <use xlink:href="#DejaVuSans-6e" x="240.234375"/>
       <use xlink:href="#DejaVuSans-32" x="303.613281"/>
      </g>
     </g>
    </g>
    <g id="xtick_15">
     <g id="line2d_15">
      <g>
       <use xlink:href="#m9694c4975d" x="155.248451" y="221.7168" style="stroke: #000000; stroke-width: 0.8"/>
      </g>
     </g>
     <g id="text_15">
      <!-- basis_test_n4 -->
      <g transform="translate(157.868764 296.293363) rotate(-90) scale(0.1 -0.1)">
       <use xlink:href="#DejaVuSans-62"/>
       <use xlink:href="#DejaVuSans-61" x="63.476562"/>
       <use xlink:href="#DejaVuSans-73" x="124.755859"/>
       <use xlink:href="#DejaVuSans-69" x="176.855469"/>
       <use xlink:href="#DejaVuSans-73" x="204.638672"/>
       <use xlink:href="#DejaVuSans-5f" x="256.738281"/>
       <use xlink:href="#DejaVuSans-74" x="306.738281"/>
       <use xlink:href="#DejaVuSans-65" x="345.947266"/>
       <use xlink:href="#DejaVuSans-73" x="407.470703"/>
       <use xlink:href="#DejaVuSans-74" x="459.570312"/>
       <use xlink:href="#DejaVuSans-5f" x="498.779297"/>
       <use xlink:href="#DejaVuSans-6e" x="548.779297"/>
       <use xlink:href="#DejaVuSans-34" x="612.158203"/>
      </g>
     </g>
    </g>
    <g id="xtick_16">
     <g id="line2d_16">
      <g>
       <use xlink:href="#m9694c4975d" x="162.449484" y="221.7168" style="stroke: #000000; stroke-width: 0.8"/>
      </g>
     </g>
     <g id="text_16">
      <!-- basis_change_n3 -->
      <g transform="translate(165.069796 313.893363) rotate(-90) scale(0.1 -0.1)">
       <use xlink:href="#DejaVuSans-62"/>
       <use xlink:href="#DejaVuSans-61" x="63.476562"/>
       <use xlink:href="#DejaVuSans-73" x="124.755859"/>
       <use xlink:href="#DejaVuSans-69" x="176.855469"/>
       <use xlink:href="#DejaVuSans-73" x="204.638672"/>
       <use xlink:href="#DejaVuSans-5f" x="256.738281"/>
       <use xlink:href="#DejaVuSans-63" x="306.738281"/>
       <use xlink:href="#DejaVuSans-68" x="361.71875"/>
       <use xlink:href="#DejaVuSans-61" x="425.097656"/>
       <use xlink:href="#DejaVuSans-6e" x="486.376953"/>
       <use xlink:href="#DejaVuSans-67" x="549.755859"/>
       <use xlink:href="#DejaVuSans-65" x="613.232422"/>
       <use xlink:href="#DejaVuSans-5f" x="674.755859"/>
       <use xlink:href="#DejaVuSans-6e" x="724.755859"/>
       <use xlink:href="#DejaVuSans-33" x="788.134766"/>
      </g>
     </g>
    </g>
    <g id="xtick_17">
     <g id="line2d_17">
      <g>
       <use xlink:href="#m9694c4975d" x="169.650516" y="221.7168" style="stroke: #000000; stroke-width: 0.8"/>
      </g>
     </g>
     <g id="text_17">
      <!-- cat_state_n4 -->
      <g transform="translate(172.131766 292.294925) rotate(-90) scale(0.1 -0.1)">
       <use xlink:href="#DejaVuSans-63"/>
       <use xlink:href="#DejaVuSans-61" x="54.980469"/>
       <use xlink:href="#DejaVuSans-74" x="116.259766"/>
       <use xlink:href="#DejaVuSans-5f" x="155.46875"/>
       <use xlink:href="#DejaVuSans-73" x="205.46875"/>
       <use xlink:href="#DejaVuSans-74" x="257.568359"/>
       <use xlink:href="#DejaVuSans-61" x="296.777344"/>
       <use xlink:href="#DejaVuSans-74" x="358.056641"/>
       <use xlink:href="#DejaVuSans-65" x="397.265625"/>
       <use xlink:href="#DejaVuSans-5f" x="458.789062"/>
       <use xlink:href="#DejaVuSans-6e" x="508.789062"/>
       <use xlink:href="#DejaVuSans-34" x="572.167969"/>
      </g>
     </g>
    </g>
    <g id="xtick_18">
     <g id="line2d_18">
      <g>
       <use xlink:href="#m9694c4975d" x="176.851549" y="221.7168" style="stroke: #000000; stroke-width: 0.8"/>
      </g>
     </g>
     <g id="text_18">
      <!-- bb84_n8 -->
      <g transform="translate(179.471861 271.838675) rotate(-90) scale(0.1 -0.1)">
       <defs>
        <path id="DejaVuSans-38" d="M 2034 2216 
Q 1584 2216 1326 1975 
Q 1069 1734 1069 1313 
Q 1069 891 1326 650 
Q 1584 409 2034 409 
Q 2484 409 2743 651 
Q 3003 894 3003 1313 
Q 3003 1734 2745 1975 
Q 2488 2216 2034 2216 
z
M 1403 2484 
Q 997 2584 770 2862 
Q 544 3141 544 3541 
Q 544 4100 942 4425 
Q 1341 4750 2034 4750 
Q 2731 4750 3128 4425 
Q 3525 4100 3525 3541 
Q 3525 3141 3298 2862 
Q 3072 2584 2669 2484 
Q 3125 2378 3379 2068 
Q 3634 1759 3634 1313 
Q 3634 634 3220 271 
Q 2806 -91 2034 -91 
Q 1263 -91 848 271 
Q 434 634 434 1313 
Q 434 1759 690 2068 
Q 947 2378 1403 2484 
z
M 1172 3481 
Q 1172 3119 1398 2916 
Q 1625 2713 2034 2713 
Q 2441 2713 2670 2916 
Q 2900 3119 2900 3481 
Q 2900 3844 2670 4047 
Q 2441 4250 2034 4250 
Q 1625 4250 1398 4047 
Q 1172 3844 1172 3481 
z
" transform="scale(0.015625)"/>
       </defs>
       <use xlink:href="#DejaVuSans-62"/>
       <use xlink:href="#DejaVuSans-62" x="63.476562"/>
       <use xlink:href="#DejaVuSans-38" x="126.953125"/>
       <use xlink:href="#DejaVuSans-34" x="190.576172"/>
       <use xlink:href="#DejaVuSans-5f" x="254.199219"/>
       <use xlink:href="#DejaVuSans-6e" x="304.199219"/>
       <use xlink:href="#DejaVuSans-38" x="367.578125"/>
      </g>
     </g>
    </g>
    <g id="xtick_19">
     <g id="line2d_19">
      <g>
       <use xlink:href="#m9694c4975d" x="184.052581" y="221.7168" style="stroke: #000000; stroke-width: 0.8"/>
      </g>
     </g>
     <g id="text_19">
      <!-- teleportation_n3 -->
      <g transform="translate(186.672894 311.202738) rotate(-90) scale(0.1 -0.1)">
       <use xlink:href="#DejaVuSans-74"/>
       <use xlink:href="#DejaVuSans-65" x="39.208984"/>
       <use xlink:href="#DejaVuSans-6c" x="100.732422"/>
       <use xlink:href="#DejaVuSans-65" x="128.515625"/>
       <use xlink:href="#DejaVuSans-70" x="190.039062"/>
       <use xlink:href="#DejaVuSans-6f" x="253.515625"/>
       <use xlink:href="#DejaVuSans-72" x="314.697266"/>
       <use xlink:href="#DejaVuSans-74" x="355.810547"/>
       <use xlink:href="#DejaVuSans-61" x="395.019531"/>
       <use xlink:href="#DejaVuSans-74" x="456.298828"/>
       <use xlink:href="#DejaVuSans-69" x="495.507812"/>
       <use xlink:href="#DejaVuSans-6f" x="523.291016"/>
       <use xlink:href="#DejaVuSans-6e" x="584.472656"/>
       <use xlink:href="#DejaVuSans-5f" x="647.851562"/>
       <use xlink:href="#DejaVuSans-6e" x="697.851562"/>
       <use xlink:href="#DejaVuSans-33" x="761.230469"/>
      </g>
     </g>
    </g>
    <g id="xtick_20">
     <g id="line2d_20">
      <g>
       <use xlink:href="#m9694c4975d" x="191.253613" y="221.7168" style="stroke: #000000; stroke-width: 0.8"/>
      </g>
     </g>
     <g id="text_20">
      <!-- qrng_n4 -->
      <g transform="translate(193.734863 269.387113) rotate(-90) scale(0.1 -0.1)">
       <use xlink:href="#DejaVuSans-71"/>
       <use xlink:href="#DejaVuSans-72" x="63.476562"/>
       <use xlink:href="#DejaVuSans-6e" x="102.839844"/>
       <use xlink:href="#DejaVuSans-67" x="166.21875"/>
       <use xlink:href="#DejaVuSans-5f" x="229.695312"/>
       <use xlink:href="#DejaVuSans-6e" x="279.695312"/>
       <use xlink:href="#DejaVuSans-34" x="343.074219"/>
      </g>
     </g>
    </g>
    <g id="xtick_21">
     <g id="line2d_21">
      <g>
       <use xlink:href="#m9694c4975d" x="198.454646" y="221.7168" style="stroke: #000000; stroke-width: 0.8"/>
      </g>
     </g>
     <g id="text_21">
      <!-- fredkin_n3 -->
      <g transform="translate(201.074958 281.230863) rotate(-90) scale(0.1 -0.1)">
       <use xlink:href="#DejaVuSans-66"/>
       <use xlink:href="#DejaVuSans-72" x="35.205078"/>
       <use xlink:href="#DejaVuSans-65" x="74.068359"/>
       <use xlink:href="#DejaVuSans-64" x="135.591797"/>
       <use xlink:href="#DejaVuSans-6b" x="199.068359"/>
       <use xlink:href="#DejaVuSans-69" x="256.978516"/>
       <use xlink:href="#DejaVuSans-6e" x="284.761719"/>
       <use xlink:href="#DejaVuSans-5f" x="348.140625"/>
       <use xlink:href="#DejaVuSans-6e" x="398.140625"/>
       <use xlink:href="#DejaVuSans-33" x="461.519531"/>
      </g>
     </g>
    </g>
    <g id="xtick_22">
     <g id="line2d_22">
      <g>
       <use xlink:href="#m9694c4975d" x="205.655678" y="221.7168" style="stroke: #000000; stroke-width: 0.8"/>
      </g>
     </g>
     <g id="text_22">
      <!-- qec_sm_n5 -->
      <g transform="translate(208.136928 284.3668) rotate(-90) scale(0.1 -0.1)">
       <use xlink:href="#DejaVuSans-71"/>
       <use xlink:href="#DejaVuSans-65" x="63.476562"/>
       <use xlink:href="#DejaVuSans-63" x="125"/>
       <use xlink:href="#DejaVuSans-5f" x="179.980469"/>
       <use xlink:href="#DejaVuSans-73" x="229.980469"/>
       <use xlink:href="#DejaVuSans-6d" x="282.080078"/>
       <use xlink:href="#DejaVuSans-5f" x="379.492188"/>
       <use xlink:href="#DejaVuSans-6e" x="429.492188"/>
       <use xlink:href="#DejaVuSans-35" x="492.871094"/>
      </g>
     </g>
    </g>
    <g id="xtick_23">
     <g id="line2d_23">
      <g>
       <use xlink:href="#m9694c4975d" x="212.856711" y="221.7168" style="stroke: #000000; stroke-width: 0.8"/>
      </g>
     </g>
     <g id="text_23">
      <!-- qaoa_n6 -->
      <g transform="translate(215.388742 271.140238) rotate(-90) scale(0.1 -0.1)">
       <defs>
        <path id="DejaVuSans-36" d="M 2113 2584 
Q 1688 2584 1439 2293 
Q 1191 2003 1191 1497 
Q 1191 994 1439 701 
Q 1688 409 2113 409 
Q 2538 409 2786 701 
Q 3034 994 3034 1497 
Q 3034 2003 2786 2293 
Q 2538 2584 2113 2584 
z
M 3366 4563 
L 3366 3988 
Q 3128 4100 2886 4159 
Q 2644 4219 2406 4219 
Q 1781 4219 1451 3797 
Q 1122 3375 1075 2522 
Q 1259 2794 1537 2939 
Q 1816 3084 2150 3084 
Q 2853 3084 3261 2657 
Q 3669 2231 3669 1497 
Q 3669 778 3244 343 
Q 2819 -91 2113 -91 
Q 1303 -91 875 529 
Q 447 1150 447 2328 
Q 447 3434 972 4092 
Q 1497 4750 2381 4750 
Q 2619 4750 2861 4703 
Q 3103 4656 3366 4563 
z
" transform="scale(0.015625)"/>
       </defs>
       <use xlink:href="#DejaVuSans-71"/>
       <use xlink:href="#DejaVuSans-61" x="63.476562"/>
       <use xlink:href="#DejaVuSans-6f" x="124.755859"/>
       <use xlink:href="#DejaVuSans-61" x="185.9375"/>
       <use xlink:href="#DejaVuSans-5f" x="247.216797"/>
       <use xlink:href="#DejaVuSans-6e" x="297.216797"/>
       <use xlink:href="#DejaVuSans-36" x="360.595703"/>
      </g>
     </g>
    </g>
    <g id="xtick_24">
     <g id="line2d_24">
      <g>
       <use xlink:href="#m9694c4975d" x="220.057743" y="221.7168" style="stroke: #000000; stroke-width: 0.8"/>
      </g>
     </g>
     <g id="text_24">
      <!-- qpe_n9 -->
      <g transform="translate(222.589774 265.2668) rotate(-90) scale(0.1 -0.1)">
       <defs>
        <path id="DejaVuSans-39" d="M 703 97 
L 703 672 
Q 941 559 1184 500 
Q 1428 441 1663 441 
Q 2288 441 2617 861 
Q 2947 1281 2994 2138 
Q 2813 1869 2534 1725 
Q 2256 1581 1919 1581 
Q 1219 1581 811 2004 
Q 403 2428 403 3163 
Q 403 3881 828 4315 
Q 1253 4750 1959 4750 
Q 2769 4750 3195 4129 
Q 3622 3509 3622 2328 
Q 3622 1225 3098 567 
Q 2575 -91 1691 -91 
Q 1453 -91 1209 -44 
Q 966 3 703 97 
z
M 1959 2075 
Q 2384 2075 2632 2365 
Q 2881 2656 2881 3163 
Q 2881 3666 2632 3958 
Q 2384 4250 1959 4250 
Q 1534 4250 1286 3958 
Q 1038 3666 1038 3163 
Q 1038 2656 1286 2365 
Q 1534 2075 1959 2075 
z
" transform="scale(0.015625)"/>
       </defs>
       <use xlink:href="#DejaVuSans-71"/>
       <use xlink:href="#DejaVuSans-70" x="63.476562"/>
       <use xlink:href="#DejaVuSans-65" x="126.953125"/>
       <use xlink:href="#DejaVuSans-5f" x="188.476562"/>
       <use xlink:href="#DejaVuSans-6e" x="238.476562"/>
       <use xlink:href="#DejaVuSans-39" x="301.855469"/>
      </g>
     </g>
    </g>
    <g id="xtick_25">
     <g id="line2d_25">
      <g>
       <use xlink:href="#m9694c4975d" x="227.258775" y="221.7168" style="stroke: #000000; stroke-width: 0.8"/>
      </g>
     </g>
     <g id="text_25">
      <!-- dnn_n8 -->
      <g transform="translate(229.879088 265.440238) rotate(-90) scale(0.1 -0.1)">
       <use xlink:href="#DejaVuSans-64"/>
       <use xlink:href="#DejaVuSans-6e" x="63.476562"/>
       <use xlink:href="#DejaVuSans-6e" x="126.855469"/>
       <use xlink:href="#DejaVuSans-5f" x="190.234375"/>
       <use xlink:href="#DejaVuSans-6e" x="240.234375"/>
       <use xlink:href="#DejaVuSans-38" x="303.613281"/>
      </g>
     </g>
    </g>
    <g id="xtick_26">
     <g id="line2d_26">
      <g>
       <use xlink:href="#m9694c4975d" x="234.459808" y="221.7168" style="stroke: #000000; stroke-width: 0.8"/>
      </g>
     </g>
     <g id="text_26">
      <!-- adder_n4 -->
      <g transform="translate(237.08012 275.505863) rotate(-90) scale(0.1 -0.1)">
       <use xlink:href="#DejaVuSans-61"/>
       <use xlink:href="#DejaVuSans-64" x="61.279297"/>
       <use xlink:href="#DejaVuSans-64" x="124.755859"/>
       <use xlink:href="#DejaVuSans-65" x="188.232422"/>
       <use xlink:href="#DejaVuSans-72" x="249.755859"/>
       <use xlink:href="#DejaVuSans-5f" x="290.869141"/>
       <use xlink:href="#DejaVuSans-6e" x="340.869141"/>
       <use xlink:href="#DejaVuSans-34" x="404.248047"/>
      </g>
     </g>
    </g>
    <g id="xtick_27">
     <g id="line2d_27">
      <g>
       <use xlink:href="#m9694c4975d" x="241.66084" y="221.7168" style="stroke: #000000; stroke-width: 0.8"/>
      </g>
     </g>
     <g id="text_27">
      <!-- linearsolver_n3 -->
      <g transform="translate(244.281153 304.9918) rotate(-90) scale(0.1 -0.1)">
       <use xlink:href="#DejaVuSans-6c"/>
       <use xlink:href="#DejaVuSans-69" x="27.783203"/>
       <use xlink:href="#DejaVuSans-6e" x="55.566406"/>
       <use xlink:href="#DejaVuSans-65" x="118.945312"/>
       <use xlink:href="#DejaVuSans-61" x="180.46875"/>
       <use xlink:href="#DejaVuSans-72" x="241.748047"/>
       <use xlink:href="#DejaVuSans-73" x="282.861328"/>
       <use xlink:href="#DejaVuSans-6f" x="334.960938"/>
       <use xlink:href="#DejaVuSans-6c" x="396.142578"/>
       <use xlink:href="#DejaVuSans-76" x="423.925781"/>
       <use xlink:href="#DejaVuSans-65" x="483.105469"/>
       <use xlink:href="#DejaVuSans-72" x="544.628906"/>
       <use xlink:href="#DejaVuSans-5f" x="585.742188"/>
       <use xlink:href="#DejaVuSans-6e" x="635.742188"/>
       <use xlink:href="#DejaVuSans-33" x="699.121094"/>
      </g>
     </g>
    </g>
    <g id="xtick_28">
     <g id="line2d_28">
      <g>
       <use xlink:href="#m9694c4975d" x="248.861873" y="221.7168" style="stroke: #000000; stroke-width: 0.8"/>
      </g>
     </g>
     <g id="text_28">
      <!-- qft_n4 -->
      <g transform="translate(251.482185 260.030863) rotate(-90) scale(0.1 -0.1)">
       <use xlink:href="#DejaVuSans-71"/>
       <use xlink:href="#DejaVuSans-66" x="63.476562"/>
       <use xlink:href="#DejaVuSans-74" x="96.931641"/>
       <use xlink:href="#DejaVuSans-5f" x="136.140625"/>
       <use xlink:href="#DejaVuSans-6e" x="186.140625"/>
       <use xlink:href="#DejaVuSans-34" x="249.519531"/>
      </g>
     </g>
    </g>
    <g id="xtick_29">
     <g id="line2d_29">
      <g>
       <use xlink:href="#m9694c4975d" x="256.062905" y="221.7168" style="stroke: #000000; stroke-width: 0.8"/>
      </g>
     </g>
     <g id="text_29">
      <!-- lpn_n5 -->
      <g transform="translate(258.683218 261.880863) rotate(-90) scale(0.1 -0.1)">
       <use xlink:href="#DejaVuSans-6c"/>
       <use xlink:href="#DejaVuSans-70" x="27.783203"/>
       <use xlink:href="#DejaVuSans-6e" x="91.259766"/>
       <use xlink:href="#DejaVuSans-5f" x="154.638672"/>
       <use xlink:href="#DejaVuSans-6e" x="204.638672"/>
       <use xlink:href="#DejaVuSans-35" x="268.017578"/>
      </g>
     </g>
    </g>
    <g id="xtick_30">
     <g id="line2d_30">
      <g>
       <use xlink:href="#m9694c4975d" x="263.263937" y="221.7168" style="stroke: #000000; stroke-width: 0.8"/>
      </g>
     </g>
     <g id="text_30">
      <!-- pea_n5 -->
      <g transform="translate(265.745187 265.046488) rotate(-90) scale(0.1 -0.1)">
       <use xlink:href="#DejaVuSans-70"/>
       <use xlink:href="#DejaVuSans-65" x="63.476562"/>
       <use xlink:href="#DejaVuSans-61" x="125"/>
       <use xlink:href="#DejaVuSans-5f" x="186.279297"/>
       <use xlink:href="#DejaVuSans-6e" x="236.279297"/>
       <use xlink:href="#DejaVuSans-35" x="299.658203"/>
      </g>
     </g>
    </g>
    <g id="xtick_31">
     <g id="line2d_31">
      <g>
       <use xlink:href="#m9694c4975d" x="270.46497" y="221.7168" style="stroke: #000000; stroke-width: 0.8"/>
      </g>
     </g>
     <g id="text_31">
      <!-- iswap_n2 -->
      <g transform="translate(273.085282 275.058988) rotate(-90) scale(0.1 -0.1)">
       <use xlink:href="#DejaVuSans-69"/>
       <use xlink:href="#DejaVuSans-73" x="27.783203"/>
       <use xlink:href="#DejaVuSans-77" x="79.882812"/>
       <use xlink:href="#DejaVuSans-61" x="161.669922"/>
       <use xlink:href="#DejaVuSans-70" x="222.949219"/>
       <use xlink:href="#DejaVuSans-5f" x="286.425781"/>
       <use xlink:href="#DejaVuSans-6e" x="336.425781"/>
       <use xlink:href="#DejaVuSans-32" x="399.804688"/>
      </g>
     </g>
    </g>
    <g id="xtick_32">
     <g id="line2d_32">
      <g>
       <use xlink:href="#m9694c4975d" x="277.666002" y="221.7168" style="stroke: #000000; stroke-width: 0.8"/>
      </g>
     </g>
     <g id="text_32">
      <!-- simon_n6 -->
      <g transform="translate(280.286315 276.601175) rotate(-90) scale(0.1 -0.1)">
       <use xlink:href="#DejaVuSans-73"/>
       <use xlink:href="#DejaVuSans-69" x="52.099609"/>
       <use xlink:href="#DejaVuSans-6d" x="79.882812"/>
       <use xlink:href="#DejaVuSans-6f" x="177.294922"/>
       <use xlink:href="#DejaVuSans-6e" x="238.476562"/>
       <use xlink:href="#DejaVuSans-5f" x="301.855469"/>
       <use xlink:href="#DejaVuSans-6e" x="351.855469"/>
       <use xlink:href="#DejaVuSans-36" x="415.234375"/>
      </g>
     </g>
    </g>
    <g id="text_33">
     <!-- Circuit -->
     <g transform="translate(143.523125 334.288988) scale(0.14 -0.14)">
      <defs>
       <path id="DejaVuSans-43" d="M 4122 4306 
L 4122 3641 
Q 3803 3938 3442 4084 
Q 3081 4231 2675 4231 
Q 1875 4231 1450 3742 
Q 1025 3253 1025 2328 
Q 1025 1406 1450 917 
Q 1875 428 2675 428 
Q 3081 428 3442 575 
Q 3803 722 4122 1019 
L 4122 359 
Q 3791 134 3420 21 
Q 3050 -91 2638 -91 
Q 1578 -91 968 557 
Q 359 1206 359 2328 
Q 359 3453 968 4101 
Q 1578 4750 2638 4750 
Q 3056 4750 3426 4639 
Q 3797 4528 4122 4306 
z
" transform="scale(0.015625)"/>
      </defs>
      <use xlink:href="#DejaVuSans-43"/>
      <use xlink:href="#DejaVuSans-69" x="69.824219"/>
      <use xlink:href="#DejaVuSans-72" x="97.607422"/>
      <use xlink:href="#DejaVuSans-63" x="136.470703"/>
      <use xlink:href="#DejaVuSans-75" x="191.451172"/>
      <use xlink:href="#DejaVuSans-69" x="254.830078"/>
      <use xlink:href="#DejaVuSans-74" x="282.613281"/>
     </g>
    </g>
   </g>
   <g id="matplotlib.axis_2">
    <g id="ytick_1">
     <g id="line2d_33">
      <defs>
       <path id="mb923135e55" d="M 0 0 
L -3.5 0 
" style="stroke: #000000; stroke-width: 0.8"/>
      </defs>
      <g>
       <use xlink:href="#mb923135e55" x="40.5" y="221.7168" style="stroke: #000000; stroke-width: 0.8"/>
      </g>
     </g>
     <g id="text_34">
      <!-- 0 -->
      <g transform="translate(24.5925 227.035706) scale(0.14 -0.14)">
       <defs>
        <path id="DejaVuSans-30" d="M 2034 4250 
Q 1547 4250 1301 3770 
Q 1056 3291 1056 2328 
Q 1056 1369 1301 889 
Q 1547 409 2034 409 
Q 2525 409 2770 889 
Q 3016 1369 3016 2328 
Q 3016 3291 2770 3770 
Q 2525 4250 2034 4250 
z
M 2034 4750 
Q 2819 4750 3233 4129 
Q 3647 3509 3647 2328 
Q 3647 1150 3233 529 
Q 2819 -91 2034 -91 
Q 1250 -91 836 529 
Q 422 1150 422 2328 
Q 422 3509 836 4129 
Q 1250 4750 2034 4750 
z
" transform="scale(0.015625)"/>
       </defs>
       <use xlink:href="#DejaVuSans-30"/>
      </g>
     </g>
    </g>
    <g id="ytick_2">
     <g id="line2d_34">
      <g>
       <use xlink:href="#mb923135e55" x="40.5" y="186.584492" style="stroke: #000000; stroke-width: 0.8"/>
      </g>
     </g>
     <g id="text_35">
      <!-- 1 -->
      <g transform="translate(24.5925 191.903399) scale(0.14 -0.14)">
       <defs>
        <path id="DejaVuSans-31" d="M 794 531 
L 1825 531 
L 1825 4091 
L 703 3866 
L 703 4441 
L 1819 4666 
L 2450 4666 
L 2450 531 
L 3481 531 
L 3481 0 
L 794 0 
L 794 531 
z
" transform="scale(0.015625)"/>
       </defs>
       <use xlink:href="#DejaVuSans-31"/>
      </g>
     </g>
    </g>
    <g id="ytick_3">
     <g id="line2d_35">
      <g>
       <use xlink:href="#mb923135e55" x="40.5" y="151.452185" style="stroke: #000000; stroke-width: 0.8"/>
      </g>
     </g>
     <g id="text_36">
      <!-- 2 -->
      <g transform="translate(24.5925 156.771091) scale(0.14 -0.14)">
       <use xlink:href="#DejaVuSans-32"/>
      </g>
     </g>
    </g>
    <g id="ytick_4">
     <g id="line2d_36">
      <g>
       <use xlink:href="#mb923135e55" x="40.5" y="116.319877" style="stroke: #000000; stroke-width: 0.8"/>
      </g>
     </g>
     <g id="text_37">
      <!-- 3 -->
      <g transform="translate(24.5925 121.638783) scale(0.14 -0.14)">
       <use xlink:href="#DejaVuSans-33"/>
      </g>
     </g>
    </g>
    <g id="ytick_5">
     <g id="line2d_37">
      <g>
       <use xlink:href="#mb923135e55" x="40.5" y="81.187569" style="stroke: #000000; stroke-width: 0.8"/>
      </g>
     </g>
     <g id="text_38">
      <!-- 4 -->
      <g transform="translate(24.5925 86.506475) scale(0.14 -0.14)">
       <use xlink:href="#DejaVuSans-34"/>
      </g>
     </g>
    </g>
    <g id="ytick_6">
     <g id="line2d_38">
      <g>
       <use xlink:href="#mb923135e55" x="40.5" y="46.055262" style="stroke: #000000; stroke-width: 0.8"/>
      </g>
     </g>
     <g id="text_39">
      <!-- 5 -->
      <g transform="translate(24.5925 51.374168) scale(0.14 -0.14)">
       <use xlink:href="#DejaVuSans-35"/>
      </g>
     </g>
    </g>
    <g id="text_40">
     <!-- Depth -->
     <g transform="translate(17.680937 147.127162) rotate(-90) scale(0.14 -0.14)">
      <defs>
       <path id="DejaVuSans-44" d="M 1259 4147 
L 1259 519 
L 2022 519 
Q 2988 519 3436 956 
Q 3884 1394 3884 2338 
Q 3884 3275 3436 3711 
Q 2988 4147 2022 4147 
L 1259 4147 
z
M 628 4666 
L 1925 4666 
Q 3281 4666 3915 4102 
Q 4550 3538 4550 2338 
Q 4550 1131 3912 565 
Q 3275 0 1925 0 
L 628 0 
L 628 4666 
z
" transform="scale(0.015625)"/>
      </defs>
      <use xlink:href="#DejaVuSans-44"/>
      <use xlink:href="#DejaVuSans-65" x="77.001953"/>
      <use xlink:href="#DejaVuSans-70" x="138.525391"/>
      <use xlink:href="#DejaVuSans-74" x="202.001953"/>
      <use xlink:href="#DejaVuSans-68" x="241.210938"/>
     </g>
    </g>
    <g id="text_41">
     <!-- 1e1 -->
     <g transform="translate(40.5 26.8944) scale(0.14 -0.14)">
      <use xlink:href="#DejaVuSans-31"/>
      <use xlink:href="#DejaVuSans-65" x="63.623047"/>
      <use xlink:href="#DejaVuSans-31" x="125.146484"/>
     </g>
    </g>
   </g>
   <g id="patch_67">
    <path d="M 40.5 221.7168 
L 40.5 29.8944 
" style="fill: none; stroke: #000000; stroke-width: 0.8; stroke-linejoin: miter; stroke-linecap: square"/>
   </g>
   <g id="patch_68">
    <path d="M 291.6 221.7168 
L 291.6 29.8944 
" style="fill: none; stroke: #000000; stroke-width: 0.8; stroke-linejoin: miter; stroke-linecap: square"/>
   </g>
   <g id="patch_69">
    <path d="M 40.5 221.7168 
L 291.6 221.7168 
" style="fill: none; stroke: #000000; stroke-width: 0.8; stroke-linejoin: miter; stroke-linecap: square"/>
   </g>
   <g id="patch_70">
    <path d="M 40.5 29.8944 
L 291.6 29.8944 
" style="fill: none; stroke: #000000; stroke-width: 0.8; stroke-linejoin: miter; stroke-linecap: square"/>
   </g>
   <g id="text_42">
    <!-- Transpiler Depth Comparison -->
    <g transform="translate(44.017688 10.256587) scale(0.168 -0.168)">
     <defs>
      <path id="DejaVuSans-54" d="M -19 4666 
L 3928 4666 
L 3928 4134 
L 2272 4134 
L 2272 0 
L 1638 0 
L 1638 4134 
L -19 4134 
L -19 4666 
z
" transform="scale(0.015625)"/>
      <path id="DejaVuSans-20" transform="scale(0.015625)"/>
     </defs>
     <use xlink:href="#DejaVuSans-54"/>
     <use xlink:href="#DejaVuSans-72" x="46.333984"/>
     <use xlink:href="#DejaVuSans-61" x="87.447266"/>
     <use xlink:href="#DejaVuSans-6e" x="148.726562"/>
     <use xlink:href="#DejaVuSans-73" x="212.105469"/>
     <use xlink:href="#DejaVuSans-70" x="264.205078"/>
     <use xlink:href="#DejaVuSans-69" x="327.681641"/>
     <use xlink:href="#DejaVuSans-6c" x="355.464844"/>
     <use xlink:href="#DejaVuSans-65" x="383.248047"/>
     <use xlink:href="#DejaVuSans-72" x="444.771484"/>
     <use xlink:href="#DejaVuSans-20" x="485.884766"/>
     <use xlink:href="#DejaVuSans-44" x="517.671875"/>
     <use xlink:href="#DejaVuSans-65" x="594.673828"/>
     <use xlink:href="#DejaVuSans-70" x="656.197266"/>
     <use xlink:href="#DejaVuSans-74" x="719.673828"/>
     <use xlink:href="#DejaVuSans-68" x="758.882812"/>
     <use xlink:href="#DejaVuSans-20" x="822.261719"/>
     <use xlink:href="#DejaVuSans-43" x="854.048828"/>
     <use xlink:href="#DejaVuSans-6f" x="923.873047"/>
     <use xlink:href="#DejaVuSans-6d" x="985.054688"/>
     <use xlink:href="#DejaVuSans-70" x="1082.466797"/>
     <use xlink:href="#DejaVuSans-61" x="1145.943359"/>
     <use xlink:href="#DejaVuSans-72" x="1207.222656"/>
     <use xlink:href="#DejaVuSans-69" x="1248.335938"/>
     <use xlink:href="#DejaVuSans-73" x="1276.119141"/>
     <use xlink:href="#DejaVuSans-6f" x="1328.21875"/>
     <use xlink:href="#DejaVuSans-6e" x="1389.400391"/>
    </g>
   </g>
   <g id="legend_1">
    <g id="patch_71">
     <path d="M 53.1 53.132213 
L 81.1 53.132213 
L 81.1 43.332213 
L 53.1 43.332213 
z
" style="fill: #001219"/>
    </g>
    <g id="text_43">
     <!-- Transpiler 1 -->
     <g transform="translate(92.3 53.132213) scale(0.14 -0.14)">
      <use xlink:href="#DejaVuSans-54"/>
      <use xlink:href="#DejaVuSans-72" x="46.333984"/>
      <use xlink:href="#DejaVuSans-61" x="87.447266"/>
      <use xlink:href="#DejaVuSans-6e" x="148.726562"/>
      <use xlink:href="#DejaVuSans-73" x="212.105469"/>
      <use xlink:href="#DejaVuSans-70" x="264.205078"/>
      <use xlink:href="#DejaVuSans-69" x="327.681641"/>
      <use xlink:href="#DejaVuSans-6c" x="355.464844"/>
      <use xlink:href="#DejaVuSans-65" x="383.248047"/>
      <use xlink:href="#DejaVuSans-72" x="444.771484"/>
      <use xlink:href="#DejaVuSans-20" x="485.884766"/>
      <use xlink:href="#DejaVuSans-31" x="517.671875"/>
     </g>
    </g>
    <g id="patch_72">
     <path d="M 53.1 73.681588 
L 81.1 73.681588 
L 81.1 63.881588 
L 53.1 63.881588 
z
" style="fill: #005f73"/>
    </g>
    <g id="text_44">
     <!-- Transpiler 2 -->
     <g transform="translate(92.3 73.681588) scale(0.14 -0.14)">
      <use xlink:href="#DejaVuSans-54"/>
      <use xlink:href="#DejaVuSans-72" x="46.333984"/>
      <use xlink:href="#DejaVuSans-61" x="87.447266"/>
      <use xlink:href="#DejaVuSans-6e" x="148.726562"/>
      <use xlink:href="#DejaVuSans-73" x="212.105469"/>
      <use xlink:href="#DejaVuSans-70" x="264.205078"/>
      <use xlink:href="#DejaVuSans-69" x="327.681641"/>
      <use xlink:href="#DejaVuSans-6c" x="355.464844"/>
      <use xlink:href="#DejaVuSans-65" x="383.248047"/>
      <use xlink:href="#DejaVuSans-72" x="444.771484"/>
      <use xlink:href="#DejaVuSans-20" x="485.884766"/>
      <use xlink:href="#DejaVuSans-32" x="517.671875"/>
     </g>
    </g>
   </g>
  </g>
 </g>
 <defs>
  <clipPath id="p467ac10c1f">
   <rect x="40.5" y="29.8944" width="251.1" height="191.8224"/>
  </clipPath>
 </defs>
</svg>
