<?xml version="1.0" encoding="utf-8" standalone="no"?>
<!DOCTYPE svg PUBLIC "-//W3C//DTD SVG 1.1//EN"
  "http://www.w3.org/Graphics/SVG/1.1/DTD/svg11.dtd">
<svg xmlns:xlink="http://www.w3.org/1999/xlink" width="324pt" height="249.12pt" viewBox="0 0 324 249.12" xmlns="http://www.w3.org/2000/svg" version="1.1">
 <metadata>
  <rdf:RDF xmlns:dc="http://purl.org/dc/elements/1.1/" xmlns:cc="http://creativecommons.org/ns#" xmlns:rdf="http://www.w3.org/1999/02/22-rdf-syntax-ns#">
   <cc:Work>
    <dc:type rdf:resource="http://purl.org/dc/dcmitype/StillImage"/>
    <dc:date>2023-05-25T19:49:33.442110</dc:date>
    <dc:format>image/svg+xml</dc:format>
    <dc:creator>
     <cc:Agent>
      <dc:title>Matplotlib v3.7.1, https://matplotlib.org/</dc:title>
     </cc:Agent>
    </dc:creator>
   </cc:Work>
  </rdf:RDF>
 </metadata>
 <defs>
  <style type="text/css">*{stroke-linejoin: round; stroke-linecap: butt}</style>
 </defs>
 <g id="figure_1">
  <g id="patch_1">
   <path d="M 0 249.12
L 324 249.12
L 324 0
L 0 0
z
" style="fill: #ffffff"/>
  </g>
  <g id="axes_1">
   <g id="patch_2">
    <path d="M 40.5 221.7168
L 291.6 221.7168
L 291.6 29.8944
L 40.5 29.8944
z
" style="fill: #ffffff"/>
   </g>
   <g id="patch_3">
    <path d="M 51.913636 221.7168
L 56.697795 221.7168
L 56.697795 175.149271
L 51.913636 175.149271
z
" clip-path="url(#p50dee7a561)" style="fill: #001219"/>
   </g>
   <g id="patch_4">
    <path d="M 65.582662 221.7168
L 70.366821 221.7168
L 70.366821 172.761192
L 65.582662 172.761192
z
" clip-path="url(#p50dee7a561)" style="fill: #001219"/>
   </g>
   <g id="patch_5">
    <path d="M 79.251688 221.7168
L 84.035846 221.7168
L 84.035846 209.776408
L 79.251688 209.776408
z
" clip-path="url(#p50dee7a561)" style="fill: #001219"/>
   </g>
   <g id="patch_6">
    <path d="M 92.920713 221.7168
L 97.704872 221.7168
L 97.704872 61.715545
L 92.920713 61.715545
z
" clip-path="url(#p50dee7a561)" style="fill: #001219"/>
   </g>
   <g id="patch_7">
    <path d="M 106.589739 221.7168
L 111.373898 221.7168
L 111.373898 197.836016
L 106.589739 197.836016
z
" clip-path="url(#p50dee7a561)" style="fill: #001219"/>
   </g>
   <g id="patch_8">
    <path d="M 120.258764 221.7168
L 125.042923 221.7168
L 125.042923 156.044643
L 120.258764 156.044643
z
" clip-path="url(#p50dee7a561)" style="fill: #001219"/>
   </g>
   <g id="patch_9">
    <path d="M 133.92779 221.7168
L 138.711949 221.7168
L 138.711949 103.506918
L 133.92779 103.506918
z
" clip-path="url(#p50dee7a561)" style="fill: #001219"/>
   </g>
   <g id="patch_10">
    <path d="M 147.596815 221.7168
L 152.380974 221.7168
L 152.380974 113.059231
L 147.596815 113.059231
z
" clip-path="url(#p50dee7a561)" style="fill: #001219"/>
   </g>
   <g id="patch_11">
    <path d="M 161.265841 221.7168
L 166.05 221.7168
L 166.05 39.0288
L 161.265841 39.0288
z
" clip-path="url(#p50dee7a561)" style="fill: #001219"/>
   </g>
   <g id="patch_12">
    <path d="M 174.934867 221.7168
L 179.719026 221.7168
L 179.719026 109.477114
L 174.934867 109.477114
z
" clip-path="url(#p50dee7a561)" style="fill: #001219"/>
   </g>
   <g id="patch_13">
    <path d="M 188.603892 221.7168
L 193.388051 221.7168
L 193.388051 178.731388
L 188.603892 178.731388
z
" clip-path="url(#p50dee7a561)" style="fill: #001219"/>
   </g>
   <g id="patch_14">
    <path d="M 202.272918 221.7168
L 207.057077 221.7168
L 207.057077 194.253898
L 202.272918 194.253898
z
" clip-path="url(#p50dee7a561)" style="fill: #001219"/>
   </g>
   <g id="patch_15">
    <path d="M 215.941943 221.7168
L 220.726102 221.7168
L 220.726102 175.149271
L 215.941943 175.149271
z
" clip-path="url(#p50dee7a561)" style="fill: #001219"/>
   </g>
   <g id="patch_16">
    <path d="M 229.610969 221.7168
L 234.395128 221.7168
L 234.395128 144.104251
L 229.610969 144.104251
z
" clip-path="url(#p50dee7a561)" style="fill: #001219"/>
   </g>
   <g id="patch_17">
    <path d="M 243.279995 221.7168
L 248.064154 221.7168
L 248.064154 46.193035
L 243.279995 46.193035
z
" clip-path="url(#p50dee7a561)" style="fill: #001219"/>
   </g>
   <g id="patch_18">
    <path d="M 256.94902 221.7168
L 261.733179 221.7168
L 261.733179 169.179075
L 256.94902 169.179075
z
" clip-path="url(#p50dee7a561)" style="fill: #001219"/>
   </g>
   <g id="patch_19">
    <path d="M 270.618046 221.7168
L 275.402205 221.7168
L 275.402205 187.089663
L 270.618046 187.089663
z
" clip-path="url(#p50dee7a561)" style="fill: #001219"/>
   </g>
   <g id="patch_20">
    <path d="M 56.697795 221.7168
L 61.481954 221.7168
L 61.481954 169.179075
L 56.697795 169.179075
z
" clip-path="url(#p50dee7a561)" style="fill: #005f73"/>
   </g>
   <g id="patch_21">
    <path d="M 70.366821 221.7168
L 75.15098 221.7168
L 75.15098 172.761192
L 70.366821 172.761192
z
" clip-path="url(#p50dee7a561)" style="fill: #005f73"/>
   </g>
   <g id="patch_22">
    <path d="M 84.035846 221.7168
L 88.820005 221.7168
L 88.820005 210.970447
L 84.035846 210.970447
z
" clip-path="url(#p50dee7a561)" style="fill: #005f73"/>
   </g>
   <g id="patch_23">
    <path d="M 97.704872 221.7168
L 102.489031 221.7168
L 102.489031 116.641349
L 97.704872 116.641349
z
" clip-path="url(#p50dee7a561)" style="fill: #005f73"/>
   </g>
   <g id="patch_24">
    <path d="M 111.373898 221.7168
L 116.158057 221.7168
L 116.158057 197.836016
L 111.373898 197.836016
z
" clip-path="url(#p50dee7a561)" style="fill: #005f73"/>
   </g>
   <g id="patch_25">
    <path d="M 125.042923 221.7168
L 129.827082 221.7168
L 129.827082 158.432722
L 125.042923 158.432722
z
" clip-path="url(#p50dee7a561)" style="fill: #005f73"/>
   </g>
   <g id="patch_26">
    <path d="M 138.711949 221.7168
L 143.496108 221.7168
L 143.496108 145.29829
L 138.711949 145.29829
z
" clip-path="url(#p50dee7a561)" style="fill: #005f73"/>
   </g>
   <g id="patch_27">
    <path d="M 152.380974 221.7168
L 157.165133 221.7168
L 157.165133 146.492329
L 152.380974 146.492329
z
" clip-path="url(#p50dee7a561)" style="fill: #005f73"/>
   </g>
   <g id="patch_28">
    <path d="M 166.05 221.7168
L 170.834159 221.7168
L 170.834159 43.804957
L 166.05 43.804957
z
" clip-path="url(#p50dee7a561)" style="fill: #005f73"/>
   </g>
   <g id="patch_29">
    <path d="M 179.719026 221.7168
L 184.503185 221.7168
L 184.503185 146.492329
L 179.719026 146.492329
z
" clip-path="url(#p50dee7a561)" style="fill: #005f73"/>
   </g>
   <g id="patch_30">
    <path d="M 193.388051 221.7168
L 198.17221 221.7168
L 198.17221 181.119467
L 193.388051 181.119467
z
" clip-path="url(#p50dee7a561)" style="fill: #005f73"/>
   </g>
   <g id="patch_31">
    <path d="M 207.057077 221.7168
L 211.841236 221.7168
L 211.841236 199.030055
L 207.057077 199.030055
z
" clip-path="url(#p50dee7a561)" style="fill: #005f73"/>
   </g>
   <g id="patch_32">
    <path d="M 220.726102 221.7168
L 225.510261 221.7168
L 225.510261 189.477741
L 220.726102 189.477741
z
" clip-path="url(#p50dee7a561)" style="fill: #005f73"/>
   </g>
   <g id="patch_33">
    <path d="M 234.395128 221.7168
L 239.179287 221.7168
L 239.179287 156.044643
L 234.395128 156.044643
z
" clip-path="url(#p50dee7a561)" style="fill: #005f73"/>
   </g>
   <g id="patch_34">
    <path d="M 248.064154 221.7168
L 252.848312 221.7168
L 252.848312 116.641349
L 248.064154 116.641349
z
" clip-path="url(#p50dee7a561)" style="fill: #005f73"/>
   </g>
   <g id="patch_35">
    <path d="M 261.733179 221.7168
L 266.517338 221.7168
L 266.517338 165.596957
L 261.733179 165.596957
z
" clip-path="url(#p50dee7a561)" style="fill: #005f73"/>
   </g>
   <g id="patch_36">
    <path d="M 275.402205 221.7168
L 280.186364 221.7168
L 280.186364 187.089663
L 275.402205 187.089663
z
" clip-path="url(#p50dee7a561)" style="fill: #005f73"/>
   </g>
   <g id="matplotlib.axis_1">
    <g id="xtick_1">
     <g id="line2d_1">
      <defs>
       <path id="mb7bb757a58" d="M 0 0
L 0 3.5
" style="stroke: #000000; stroke-width: 0.8"/>
      </defs>
      <g>
       <use xlink:href="#mb7bb757a58" x="56.697795" y="221.7168" style="stroke: #000000; stroke-width: 0.8"/>
      </g>
     </g>
     <g id="text_1">
      <!-- wstate_n27 -->
      <g transform="translate(59.229827 286.288675) rotate(-90) scale(0.1 -0.1)">
       <defs>
        <path id="DejaVuSans-77" d="M 269 3500
L 844 3500
L 1563 769
L 2278 3500
L 2956 3500
L 3675 769
L 4391 3500
L 4966 3500
L 4050 0
L 3372 0
L 2619 2869
L 1863 0
L 1184 0
L 269 3500
z
" transform="scale(0.015625)"/>
        <path id="DejaVuSans-73" d="M 2834 3397
L 2834 2853
Q 2591 2978 2328 3040
Q 2066 3103 1784 3103
Q 1356 3103 1142 2972
Q 928 2841 928 2578
Q 928 2378 1081 2264
Q 1234 2150 1697 2047
L 1894 2003
Q 2506 1872 2764 1633
Q 3022 1394 3022 966
Q 3022 478 2636 193
Q 2250 -91 1575 -91
Q 1294 -91 989 -36
Q 684 19 347 128
L 347 722
Q 666 556 975 473
Q 1284 391 1588 391
Q 1994 391 2212 530
Q 2431 669 2431 922
Q 2431 1156 2273 1281
Q 2116 1406 1581 1522
L 1381 1569
Q 847 1681 609 1914
Q 372 2147 372 2553
Q 372 3047 722 3315
Q 1072 3584 1716 3584
Q 2034 3584 2315 3537
Q 2597 3491 2834 3397
z
" transform="scale(0.015625)"/>
        <path id="DejaVuSans-74" d="M 1172 4494
L 1172 3500
L 2356 3500
L 2356 3053
L 1172 3053
L 1172 1153
Q 1172 725 1289 603
Q 1406 481 1766 481
L 2356 481
L 2356 0
L 1766 0
Q 1100 0 847 248
Q 594 497 594 1153
L 594 3053
L 172 3053
L 172 3500
L 594 3500
L 594 4494
L 1172 4494
z
" transform="scale(0.015625)"/>
        <path id="DejaVuSans-61" d="M 2194 1759
Q 1497 1759 1228 1600
Q 959 1441 959 1056
Q 959 750 1161 570
Q 1363 391 1709 391
Q 2188 391 2477 730
Q 2766 1069 2766 1631
L 2766 1759
L 2194 1759
z
M 3341 1997
L 3341 0
L 2766 0
L 2766 531
Q 2569 213 2275 61
Q 1981 -91 1556 -91
Q 1019 -91 701 211
Q 384 513 384 1019
Q 384 1609 779 1909
Q 1175 2209 1959 2209
L 2766 2209
L 2766 2266
Q 2766 2663 2505 2880
Q 2244 3097 1772 3097
Q 1472 3097 1187 3025
Q 903 2953 641 2809
L 641 3341
Q 956 3463 1253 3523
Q 1550 3584 1831 3584
Q 2591 3584 2966 3190
Q 3341 2797 3341 1997
z
" transform="scale(0.015625)"/>
        <path id="DejaVuSans-65" d="M 3597 1894
L 3597 1613
L 953 1613
Q 991 1019 1311 708
Q 1631 397 2203 397
Q 2534 397 2845 478
Q 3156 559 3463 722
L 3463 178
Q 3153 47 2828 -22
Q 2503 -91 2169 -91
Q 1331 -91 842 396
Q 353 884 353 1716
Q 353 2575 817 3079
Q 1281 3584 2069 3584
Q 2775 3584 3186 3129
Q 3597 2675 3597 1894
z
M 3022 2063
Q 3016 2534 2758 2815
Q 2500 3097 2075 3097
Q 1594 3097 1305 2825
Q 1016 2553 972 2059
L 3022 2063
z
" transform="scale(0.015625)"/>
        <path id="DejaVuSans-5f" d="M 3263 -1063
L 3263 -1509
L -63 -1509
L -63 -1063
L 3263 -1063
z
" transform="scale(0.015625)"/>
        <path id="DejaVuSans-6e" d="M 3513 2113
L 3513 0
L 2938 0
L 2938 2094
Q 2938 2591 2744 2837
Q 2550 3084 2163 3084
Q 1697 3084 1428 2787
Q 1159 2491 1159 1978
L 1159 0
L 581 0
L 581 3500
L 1159 3500
L 1159 2956
Q 1366 3272 1645 3428
Q 1925 3584 2291 3584
Q 2894 3584 3203 3211
Q 3513 2838 3513 2113
z
" transform="scale(0.015625)"/>
        <path id="DejaVuSans-32" d="M 1228 531
L 3431 531
L 3431 0
L 469 0
L 469 531
Q 828 903 1448 1529
Q 2069 2156 2228 2338
Q 2531 2678 2651 2914
Q 2772 3150 2772 3378
Q 2772 3750 2511 3984
Q 2250 4219 1831 4219
Q 1534 4219 1204 4116
Q 875 4013 500 3803
L 500 4441
Q 881 4594 1212 4672
Q 1544 4750 1819 4750
Q 2544 4750 2975 4387
Q 3406 4025 3406 3419
Q 3406 3131 3298 2873
Q 3191 2616 2906 2266
Q 2828 2175 2409 1742
Q 1991 1309 1228 531
z
" transform="scale(0.015625)"/>
        <path id="DejaVuSans-37" d="M 525 4666
L 3525 4666
L 3525 4397
L 1831 0
L 1172 0
L 2766 4134
L 525 4134
L 525 4666
z
" transform="scale(0.015625)"/>
       </defs>
       <use xlink:href="#DejaVuSans-77"/>
       <use xlink:href="#DejaVuSans-73" x="81.787109"/>
       <use xlink:href="#DejaVuSans-74" x="133.886719"/>
       <use xlink:href="#DejaVuSans-61" x="173.095703"/>
       <use xlink:href="#DejaVuSans-74" x="234.375"/>
       <use xlink:href="#DejaVuSans-65" x="273.583984"/>
       <use xlink:href="#DejaVuSans-5f" x="335.107422"/>
       <use xlink:href="#DejaVuSans-6e" x="385.107422"/>
       <use xlink:href="#DejaVuSans-32" x="448.486328"/>
       <use xlink:href="#DejaVuSans-37" x="512.109375"/>
      </g>
     </g>
    </g>
    <g id="xtick_2">
     <g id="line2d_2">
      <g>
       <use xlink:href="#mb7bb757a58" x="70.366821" y="221.7168" style="stroke: #000000; stroke-width: 0.8"/>
      </g>
     </g>
     <g id="text_2">
      <!-- cc_n12 -->
      <g transform="translate(72.898852 263.776175) rotate(-90) scale(0.1 -0.1)">
       <defs>
        <path id="DejaVuSans-63" d="M 3122 3366
L 3122 2828
Q 2878 2963 2633 3030
Q 2388 3097 2138 3097
Q 1578 3097 1268 2742
Q 959 2388 959 1747
Q 959 1106 1268 751
Q 1578 397 2138 397
Q 2388 397 2633 464
Q 2878 531 3122 666
L 3122 134
Q 2881 22 2623 -34
Q 2366 -91 2075 -91
Q 1284 -91 818 406
Q 353 903 353 1747
Q 353 2603 823 3093
Q 1294 3584 2113 3584
Q 2378 3584 2631 3529
Q 2884 3475 3122 3366
z
" transform="scale(0.015625)"/>
        <path id="DejaVuSans-31" d="M 794 531
L 1825 531
L 1825 4091
L 703 3866
L 703 4441
L 1819 4666
L 2450 4666
L 2450 531
L 3481 531
L 3481 0
L 794 0
L 794 531
z
" transform="scale(0.015625)"/>
       </defs>
       <use xlink:href="#DejaVuSans-63"/>
       <use xlink:href="#DejaVuSans-63" x="54.980469"/>
       <use xlink:href="#DejaVuSans-5f" x="109.960938"/>
       <use xlink:href="#DejaVuSans-6e" x="159.960938"/>
       <use xlink:href="#DejaVuSans-31" x="223.339844"/>
       <use xlink:href="#DejaVuSans-32" x="286.962891"/>
      </g>
     </g>
    </g>
    <g id="xtick_3">
     <g id="line2d_3">
      <g>
       <use xlink:href="#mb7bb757a58" x="84.035846" y="221.7168" style="stroke: #000000; stroke-width: 0.8"/>
      </g>
     </g>
     <g id="text_3">
      <!-- ising_n26 -->
      <g transform="translate(86.656159 276.230863) rotate(-90) scale(0.1 -0.1)">
       <defs>
        <path id="DejaVuSans-69" d="M 603 3500
L 1178 3500
L 1178 0
L 603 0
L 603 3500
z
M 603 4863
L 1178 4863
L 1178 4134
L 603 4134
L 603 4863
z
" transform="scale(0.015625)"/>
        <path id="DejaVuSans-67" d="M 2906 1791
Q 2906 2416 2648 2759
Q 2391 3103 1925 3103
Q 1463 3103 1205 2759
Q 947 2416 947 1791
Q 947 1169 1205 825
Q 1463 481 1925 481
Q 2391 481 2648 825
Q 2906 1169 2906 1791
z
M 3481 434
Q 3481 -459 3084 -895
Q 2688 -1331 1869 -1331
Q 1566 -1331 1297 -1286
Q 1028 -1241 775 -1147
L 775 -588
Q 1028 -725 1275 -790
Q 1522 -856 1778 -856
Q 2344 -856 2625 -561
Q 2906 -266 2906 331
L 2906 616
Q 2728 306 2450 153
Q 2172 0 1784 0
Q 1141 0 747 490
Q 353 981 353 1791
Q 353 2603 747 3093
Q 1141 3584 1784 3584
Q 2172 3584 2450 3431
Q 2728 3278 2906 2969
L 2906 3500
L 3481 3500
L 3481 434
z
" transform="scale(0.015625)"/>
        <path id="DejaVuSans-36" d="M 2113 2584
Q 1688 2584 1439 2293
Q 1191 2003 1191 1497
Q 1191 994 1439 701
Q 1688 409 2113 409
Q 2538 409 2786 701
Q 3034 994 3034 1497
Q 3034 2003 2786 2293
Q 2538 2584 2113 2584
z
M 3366 4563
L 3366 3988
Q 3128 4100 2886 4159
Q 2644 4219 2406 4219
Q 1781 4219 1451 3797
Q 1122 3375 1075 2522
Q 1259 2794 1537 2939
Q 1816 3084 2150 3084
Q 2853 3084 3261 2657
Q 3669 2231 3669 1497
Q 3669 778 3244 343
Q 2819 -91 2113 -91
Q 1303 -91 875 529
Q 447 1150 447 2328
Q 447 3434 972 4092
Q 1497 4750 2381 4750
Q 2619 4750 2861 4703
Q 3103 4656 3366 4563
z
" transform="scale(0.015625)"/>
       </defs>
       <use xlink:href="#DejaVuSans-69"/>
       <use xlink:href="#DejaVuSans-73" x="27.783203"/>
       <use xlink:href="#DejaVuSans-69" x="79.882812"/>
       <use xlink:href="#DejaVuSans-6e" x="107.666016"/>
       <use xlink:href="#DejaVuSans-67" x="171.044922"/>
       <use xlink:href="#DejaVuSans-5f" x="234.521484"/>
       <use xlink:href="#DejaVuSans-6e" x="284.521484"/>
       <use xlink:href="#DejaVuSans-32" x="347.900391"/>
       <use xlink:href="#DejaVuSans-36" x="411.523438"/>
      </g>
     </g>
    </g>
    <g id="xtick_4">
     <g id="line2d_4">
      <g>
       <use xlink:href="#mb7bb757a58" x="97.704872" y="221.7168" style="stroke: #000000; stroke-width: 0.8"/>
      </g>
     </g>
     <g id="text_4">
      <!-- bigadder_n18 -->
      <g transform="translate(100.325185 297.343363) rotate(-90) scale(0.1 -0.1)">
       <defs>
        <path id="DejaVuSans-62" d="M 3116 1747
Q 3116 2381 2855 2742
Q 2594 3103 2138 3103
Q 1681 3103 1420 2742
Q 1159 2381 1159 1747
Q 1159 1113 1420 752
Q 1681 391 2138 391
Q 2594 391 2855 752
Q 3116 1113 3116 1747
z
M 1159 2969
Q 1341 3281 1617 3432
Q 1894 3584 2278 3584
Q 2916 3584 3314 3078
Q 3713 2572 3713 1747
Q 3713 922 3314 415
Q 2916 -91 2278 -91
Q 1894 -91 1617 61
Q 1341 213 1159 525
L 1159 0
L 581 0
L 581 4863
L 1159 4863
L 1159 2969
z
" transform="scale(0.015625)"/>
        <path id="DejaVuSans-64" d="M 2906 2969
L 2906 4863
L 3481 4863
L 3481 0
L 2906 0
L 2906 525
Q 2725 213 2448 61
Q 2172 -91 1784 -91
Q 1150 -91 751 415
Q 353 922 353 1747
Q 353 2572 751 3078
Q 1150 3584 1784 3584
Q 2172 3584 2448 3432
Q 2725 3281 2906 2969
z
M 947 1747
Q 947 1113 1208 752
Q 1469 391 1925 391
Q 2381 391 2643 752
Q 2906 1113 2906 1747
Q 2906 2381 2643 2742
Q 2381 3103 1925 3103
Q 1469 3103 1208 2742
Q 947 2381 947 1747
z
" transform="scale(0.015625)"/>
        <path id="DejaVuSans-72" d="M 2631 2963
Q 2534 3019 2420 3045
Q 2306 3072 2169 3072
Q 1681 3072 1420 2755
Q 1159 2438 1159 1844
L 1159 0
L 581 0
L 581 3500
L 1159 3500
L 1159 2956
Q 1341 3275 1631 3429
Q 1922 3584 2338 3584
Q 2397 3584 2469 3576
Q 2541 3569 2628 3553
L 2631 2963
z
" transform="scale(0.015625)"/>
        <path id="DejaVuSans-38" d="M 2034 2216
Q 1584 2216 1326 1975
Q 1069 1734 1069 1313
Q 1069 891 1326 650
Q 1584 409 2034 409
Q 2484 409 2743 651
Q 3003 894 3003 1313
Q 3003 1734 2745 1975
Q 2488 2216 2034 2216
z
M 1403 2484
Q 997 2584 770 2862
Q 544 3141 544 3541
Q 544 4100 942 4425
Q 1341 4750 2034 4750
Q 2731 4750 3128 4425
Q 3525 4100 3525 3541
Q 3525 3141 3298 2862
Q 3072 2584 2669 2484
Q 3125 2378 3379 2068
Q 3634 1759 3634 1313
Q 3634 634 3220 271
Q 2806 -91 2034 -91
Q 1263 -91 848 271
Q 434 634 434 1313
Q 434 1759 690 2068
Q 947 2378 1403 2484
z
M 1172 3481
Q 1172 3119 1398 2916
Q 1625 2713 2034 2713
Q 2441 2713 2670 2916
Q 2900 3119 2900 3481
Q 2900 3844 2670 4047
Q 2441 4250 2034 4250
Q 1625 4250 1398 4047
Q 1172 3844 1172 3481
z
" transform="scale(0.015625)"/>
       </defs>
       <use xlink:href="#DejaVuSans-62"/>
       <use xlink:href="#DejaVuSans-69" x="63.476562"/>
       <use xlink:href="#DejaVuSans-67" x="91.259766"/>
       <use xlink:href="#DejaVuSans-61" x="154.736328"/>
       <use xlink:href="#DejaVuSans-64" x="216.015625"/>
       <use xlink:href="#DejaVuSans-64" x="279.492188"/>
       <use xlink:href="#DejaVuSans-65" x="342.96875"/>
       <use xlink:href="#DejaVuSans-72" x="404.492188"/>
       <use xlink:href="#DejaVuSans-5f" x="445.605469"/>
       <use xlink:href="#DejaVuSans-6e" x="495.605469"/>
       <use xlink:href="#DejaVuSans-31" x="558.984375"/>
       <use xlink:href="#DejaVuSans-38" x="622.607422"/>
      </g>
     </g>
    </g>
    <g id="xtick_5">
     <g id="line2d_5">
      <g>
       <use xlink:href="#mb7bb757a58" x="111.373898" y="221.7168" style="stroke: #000000; stroke-width: 0.8"/>
      </g>
     </g>
     <g id="text_5">
      <!-- bv_n14 -->
      <g transform="translate(113.99421 265.046488) rotate(-90) scale(0.1 -0.1)">
       <defs>
        <path id="DejaVuSans-76" d="M 191 3500
L 800 3500
L 1894 563
L 2988 3500
L 3597 3500
L 2284 0
L 1503 0
L 191 3500
z
" transform="scale(0.015625)"/>
        <path id="DejaVuSans-34" d="M 2419 4116
L 825 1625
L 2419 1625
L 2419 4116
z
M 2253 4666
L 3047 4666
L 3047 1625
L 3713 1625
L 3713 1100
L 3047 1100
L 3047 0
L 2419 0
L 2419 1100
L 313 1100
L 313 1709
L 2253 4666
z
" transform="scale(0.015625)"/>
       </defs>
       <use xlink:href="#DejaVuSans-62"/>
       <use xlink:href="#DejaVuSans-76" x="63.476562"/>
       <use xlink:href="#DejaVuSans-5f" x="122.65625"/>
       <use xlink:href="#DejaVuSans-6e" x="172.65625"/>
       <use xlink:href="#DejaVuSans-31" x="236.035156"/>
       <use xlink:href="#DejaVuSans-34" x="299.658203"/>
      </g>
     </g>
    </g>
    <g id="xtick_6">
     <g id="line2d_6">
      <g>
       <use xlink:href="#mb7bb757a58" x="125.042923" y="221.7168" style="stroke: #000000; stroke-width: 0.8"/>
      </g>
     </g>
     <g id="text_6">
      <!-- dnn_n16 -->
      <g transform="translate(127.663236 271.802738) rotate(-90) scale(0.1 -0.1)">
       <use xlink:href="#DejaVuSans-64"/>
       <use xlink:href="#DejaVuSans-6e" x="63.476562"/>
       <use xlink:href="#DejaVuSans-6e" x="126.855469"/>
       <use xlink:href="#DejaVuSans-5f" x="190.234375"/>
       <use xlink:href="#DejaVuSans-6e" x="240.234375"/>
       <use xlink:href="#DejaVuSans-31" x="303.613281"/>
       <use xlink:href="#DejaVuSans-36" x="367.236328"/>
      </g>
     </g>
    </g>
    <g id="xtick_7">
     <g id="line2d_7">
      <g>
       <use xlink:href="#mb7bb757a58" x="138.711949" y="221.7168" style="stroke: #000000; stroke-width: 0.8"/>
      </g>
     </g>
     <g id="text_7">
      <!-- qram_n20 -->
      <g transform="translate(141.24398 279.107425) rotate(-90) scale(0.1 -0.1)">
       <defs>
        <path id="DejaVuSans-71" d="M 947 1747
Q 947 1113 1208 752
Q 1469 391 1925 391
Q 2381 391 2643 752
Q 2906 1113 2906 1747
Q 2906 2381 2643 2742
Q 2381 3103 1925 3103
Q 1469 3103 1208 2742
Q 947 2381 947 1747
z
M 2906 525
Q 2725 213 2448 61
Q 2172 -91 1784 -91
Q 1150 -91 751 415
Q 353 922 353 1747
Q 353 2572 751 3078
Q 1150 3584 1784 3584
Q 2172 3584 2448 3432
Q 2725 3281 2906 2969
L 2906 3500
L 3481 3500
L 3481 -1331
L 2906 -1331
L 2906 525
z
" transform="scale(0.015625)"/>
        <path id="DejaVuSans-6d" d="M 3328 2828
Q 3544 3216 3844 3400
Q 4144 3584 4550 3584
Q 5097 3584 5394 3201
Q 5691 2819 5691 2113
L 5691 0
L 5113 0
L 5113 2094
Q 5113 2597 4934 2840
Q 4756 3084 4391 3084
Q 3944 3084 3684 2787
Q 3425 2491 3425 1978
L 3425 0
L 2847 0
L 2847 2094
Q 2847 2600 2669 2842
Q 2491 3084 2119 3084
Q 1678 3084 1418 2786
Q 1159 2488 1159 1978
L 1159 0
L 581 0
L 581 3500
L 1159 3500
L 1159 2956
Q 1356 3278 1631 3431
Q 1906 3584 2284 3584
Q 2666 3584 2933 3390
Q 3200 3197 3328 2828
z
" transform="scale(0.015625)"/>
        <path id="DejaVuSans-30" d="M 2034 4250
Q 1547 4250 1301 3770
Q 1056 3291 1056 2328
Q 1056 1369 1301 889
Q 1547 409 2034 409
Q 2525 409 2770 889
Q 3016 1369 3016 2328
Q 3016 3291 2770 3770
Q 2525 4250 2034 4250
z
M 2034 4750
Q 2819 4750 3233 4129
Q 3647 3509 3647 2328
Q 3647 1150 3233 529
Q 2819 -91 2034 -91
Q 1250 -91 836 529
Q 422 1150 422 2328
Q 422 3509 836 4129
Q 1250 4750 2034 4750
z
" transform="scale(0.015625)"/>
       </defs>
       <use xlink:href="#DejaVuSans-71"/>
       <use xlink:href="#DejaVuSans-72" x="63.476562"/>
       <use xlink:href="#DejaVuSans-61" x="104.589844"/>
       <use xlink:href="#DejaVuSans-6d" x="165.869141"/>
       <use xlink:href="#DejaVuSans-5f" x="263.28125"/>
       <use xlink:href="#DejaVuSans-6e" x="313.28125"/>
       <use xlink:href="#DejaVuSans-32" x="376.660156"/>
       <use xlink:href="#DejaVuSans-30" x="440.283203"/>
      </g>
     </g>
    </g>
    <g id="xtick_8">
     <g id="line2d_8">
      <g>
       <use xlink:href="#mb7bb757a58" x="152.380974" y="221.7168" style="stroke: #000000; stroke-width: 0.8"/>
      </g>
     </g>
     <g id="text_8">
      <!-- swap_test_n25 -->
      <g transform="translate(154.913006 302.846488) rotate(-90) scale(0.1 -0.1)">
       <defs>
        <path id="DejaVuSans-70" d="M 1159 525
L 1159 -1331
L 581 -1331
L 581 3500
L 1159 3500
L 1159 2969
Q 1341 3281 1617 3432
Q 1894 3584 2278 3584
Q 2916 3584 3314 3078
Q 3713 2572 3713 1747
Q 3713 922 3314 415
Q 2916 -91 2278 -91
Q 1894 -91 1617 61
Q 1341 213 1159 525
z
M 3116 1747
Q 3116 2381 2855 2742
Q 2594 3103 2138 3103
Q 1681 3103 1420 2742
Q 1159 2381 1159 1747
Q 1159 1113 1420 752
Q 1681 391 2138 391
Q 2594 391 2855 752
Q 3116 1113 3116 1747
z
" transform="scale(0.015625)"/>
        <path id="DejaVuSans-35" d="M 691 4666
L 3169 4666
L 3169 4134
L 1269 4134
L 1269 2991
Q 1406 3038 1543 3061
Q 1681 3084 1819 3084
Q 2600 3084 3056 2656
Q 3513 2228 3513 1497
Q 3513 744 3044 326
Q 2575 -91 1722 -91
Q 1428 -91 1123 -41
Q 819 9 494 109
L 494 744
Q 775 591 1075 516
Q 1375 441 1709 441
Q 2250 441 2565 725
Q 2881 1009 2881 1497
Q 2881 1984 2565 2268
Q 2250 2553 1709 2553
Q 1456 2553 1204 2497
Q 953 2441 691 2322
L 691 4666
z
" transform="scale(0.015625)"/>
       </defs>
       <use xlink:href="#DejaVuSans-73"/>
       <use xlink:href="#DejaVuSans-77" x="52.099609"/>
       <use xlink:href="#DejaVuSans-61" x="133.886719"/>
       <use xlink:href="#DejaVuSans-70" x="195.166016"/>
       <use xlink:href="#DejaVuSans-5f" x="258.642578"/>
       <use xlink:href="#DejaVuSans-74" x="308.642578"/>
       <use xlink:href="#DejaVuSans-65" x="347.851562"/>
       <use xlink:href="#DejaVuSans-73" x="409.375"/>
       <use xlink:href="#DejaVuSans-74" x="461.474609"/>
       <use xlink:href="#DejaVuSans-5f" x="500.683594"/>
       <use xlink:href="#DejaVuSans-6e" x="550.683594"/>
       <use xlink:href="#DejaVuSans-32" x="614.0625"/>
       <use xlink:href="#DejaVuSans-35" x="677.685547"/>
      </g>
     </g>
    </g>
    <g id="xtick_9">
     <g id="line2d_9">
      <g>
       <use xlink:href="#mb7bb757a58" x="166.05" y="221.7168" style="stroke: #000000; stroke-width: 0.8"/>
      </g>
     </g>
     <g id="text_9">
      <!-- qf21_n15 -->
      <g transform="translate(168.670313 275.37305) rotate(-90) scale(0.1 -0.1)">
       <defs>
        <path id="DejaVuSans-66" d="M 2375 4863
L 2375 4384
L 1825 4384
Q 1516 4384 1395 4259
Q 1275 4134 1275 3809
L 1275 3500
L 2222 3500
L 2222 3053
L 1275 3053
L 1275 0
L 697 0
L 697 3053
L 147 3053
L 147 3500
L 697 3500
L 697 3744
Q 697 4328 969 4595
Q 1241 4863 1831 4863
L 2375 4863
z
" transform="scale(0.015625)"/>
       </defs>
       <use xlink:href="#DejaVuSans-71"/>
       <use xlink:href="#DejaVuSans-66" x="63.476562"/>
       <use xlink:href="#DejaVuSans-32" x="98.681641"/>
       <use xlink:href="#DejaVuSans-31" x="162.304688"/>
       <use xlink:href="#DejaVuSans-5f" x="225.927734"/>
       <use xlink:href="#DejaVuSans-6e" x="275.927734"/>
       <use xlink:href="#DejaVuSans-31" x="339.306641"/>
       <use xlink:href="#DejaVuSans-35" x="402.929688"/>
      </g>
     </g>
    </g>
    <g id="xtick_10">
     <g id="line2d_10">
      <g>
       <use xlink:href="#mb7bb757a58" x="179.719026" y="221.7168" style="stroke: #000000; stroke-width: 0.8"/>
      </g>
     </g>
     <g id="text_10">
      <!-- knn_n25 -->
      <g transform="translate(182.339338 271.244925) rotate(-90) scale(0.1 -0.1)">
       <defs>
        <path id="DejaVuSans-6b" d="M 581 4863
L 1159 4863
L 1159 1991
L 2875 3500
L 3609 3500
L 1753 1863
L 3688 0
L 2938 0
L 1159 1709
L 1159 0
L 581 0
L 581 4863
z
" transform="scale(0.015625)"/>
       </defs>
       <use xlink:href="#DejaVuSans-6b"/>
       <use xlink:href="#DejaVuSans-6e" x="57.910156"/>
       <use xlink:href="#DejaVuSans-6e" x="121.289062"/>
       <use xlink:href="#DejaVuSans-5f" x="184.667969"/>
       <use xlink:href="#DejaVuSans-6e" x="234.667969"/>
       <use xlink:href="#DejaVuSans-32" x="298.046875"/>
       <use xlink:href="#DejaVuSans-35" x="361.669922"/>
      </g>
     </g>
    </g>
    <g id="xtick_11">
     <g id="line2d_11">
      <g>
       <use xlink:href="#mb7bb757a58" x="193.388051" y="221.7168" style="stroke: #000000; stroke-width: 0.8"/>
      </g>
     </g>
     <g id="text_11">
      <!-- cat_state_n22 -->
      <g transform="translate(195.920082 298.657425) rotate(-90) scale(0.1 -0.1)">
       <use xlink:href="#DejaVuSans-63"/>
       <use xlink:href="#DejaVuSans-61" x="54.980469"/>
       <use xlink:href="#DejaVuSans-74" x="116.259766"/>
       <use xlink:href="#DejaVuSans-5f" x="155.46875"/>
       <use xlink:href="#DejaVuSans-73" x="205.46875"/>
       <use xlink:href="#DejaVuSans-74" x="257.568359"/>
       <use xlink:href="#DejaVuSans-61" x="296.777344"/>
       <use xlink:href="#DejaVuSans-74" x="358.056641"/>
       <use xlink:href="#DejaVuSans-65" x="397.265625"/>
       <use xlink:href="#DejaVuSans-5f" x="458.789062"/>
       <use xlink:href="#DejaVuSans-6e" x="508.789062"/>
       <use xlink:href="#DejaVuSans-32" x="572.167969"/>
       <use xlink:href="#DejaVuSans-32" x="635.791016"/>
      </g>
     </g>
    </g>
    <g id="xtick_12">
     <g id="line2d_12">
      <g>
       <use xlink:href="#mb7bb757a58" x="207.057077" y="221.7168" style="stroke: #000000; stroke-width: 0.8"/>
      </g>
     </g>
     <g id="text_12">
      <!-- qec9xz_n17 -->
      <g transform="translate(209.589108 288.308988) rotate(-90) scale(0.1 -0.1)">
       <defs>
        <path id="DejaVuSans-39" d="M 703 97
L 703 672
Q 941 559 1184 500
Q 1428 441 1663 441
Q 2288 441 2617 861
Q 2947 1281 2994 2138
Q 2813 1869 2534 1725
Q 2256 1581 1919 1581
Q 1219 1581 811 2004
Q 403 2428 403 3163
Q 403 3881 828 4315
Q 1253 4750 1959 4750
Q 2769 4750 3195 4129
Q 3622 3509 3622 2328
Q 3622 1225 3098 567
Q 2575 -91 1691 -91
Q 1453 -91 1209 -44
Q 966 3 703 97
z
M 1959 2075
Q 2384 2075 2632 2365
Q 2881 2656 2881 3163
Q 2881 3666 2632 3958
Q 2384 4250 1959 4250
Q 1534 4250 1286 3958
Q 1038 3666 1038 3163
Q 1038 2656 1286 2365
Q 1534 2075 1959 2075
z
" transform="scale(0.015625)"/>
        <path id="DejaVuSans-78" d="M 3513 3500
L 2247 1797
L 3578 0
L 2900 0
L 1881 1375
L 863 0
L 184 0
L 1544 1831
L 300 3500
L 978 3500
L 1906 2253
L 2834 3500
L 3513 3500
z
" transform="scale(0.015625)"/>
        <path id="DejaVuSans-7a" d="M 353 3500
L 3084 3500
L 3084 2975
L 922 459
L 3084 459
L 3084 0
L 275 0
L 275 525
L 2438 3041
L 353 3041
L 353 3500
z
" transform="scale(0.015625)"/>
       </defs>
       <use xlink:href="#DejaVuSans-71"/>
       <use xlink:href="#DejaVuSans-65" x="63.476562"/>
       <use xlink:href="#DejaVuSans-63" x="125"/>
       <use xlink:href="#DejaVuSans-39" x="179.980469"/>
       <use xlink:href="#DejaVuSans-78" x="243.603516"/>
       <use xlink:href="#DejaVuSans-7a" x="302.783203"/>
       <use xlink:href="#DejaVuSans-5f" x="355.273438"/>
       <use xlink:href="#DejaVuSans-6e" x="405.273438"/>
       <use xlink:href="#DejaVuSans-31" x="468.652344"/>
       <use xlink:href="#DejaVuSans-37" x="532.275391"/>
      </g>
     </g>
    </g>
    <g id="xtick_13">
     <g id="line2d_13">
      <g>
       <use xlink:href="#mb7bb757a58" x="220.726102" y="221.7168" style="stroke: #000000; stroke-width: 0.8"/>
      </g>
     </g>
     <g id="text_13">
      <!-- multiply_n13 -->
      <g transform="translate(223.346415 293.3793) rotate(-90) scale(0.1 -0.1)">
       <defs>
        <path id="DejaVuSans-75" d="M 544 1381
L 544 3500
L 1119 3500
L 1119 1403
Q 1119 906 1312 657
Q 1506 409 1894 409
Q 2359 409 2629 706
Q 2900 1003 2900 1516
L 2900 3500
L 3475 3500
L 3475 0
L 2900 0
L 2900 538
Q 2691 219 2414 64
Q 2138 -91 1772 -91
Q 1169 -91 856 284
Q 544 659 544 1381
z
M 1991 3584
L 1991 3584
z
" transform="scale(0.015625)"/>
        <path id="DejaVuSans-6c" d="M 603 4863
L 1178 4863
L 1178 0
L 603 0
L 603 4863
z
" transform="scale(0.015625)"/>
        <path id="DejaVuSans-79" d="M 2059 -325
Q 1816 -950 1584 -1140
Q 1353 -1331 966 -1331
L 506 -1331
L 506 -850
L 844 -850
Q 1081 -850 1212 -737
Q 1344 -625 1503 -206
L 1606 56
L 191 3500
L 800 3500
L 1894 763
L 2988 3500
L 3597 3500
L 2059 -325
z
" transform="scale(0.015625)"/>
        <path id="DejaVuSans-33" d="M 2597 2516
Q 3050 2419 3304 2112
Q 3559 1806 3559 1356
Q 3559 666 3084 287
Q 2609 -91 1734 -91
Q 1441 -91 1130 -33
Q 819 25 488 141
L 488 750
Q 750 597 1062 519
Q 1375 441 1716 441
Q 2309 441 2620 675
Q 2931 909 2931 1356
Q 2931 1769 2642 2001
Q 2353 2234 1838 2234
L 1294 2234
L 1294 2753
L 1863 2753
Q 2328 2753 2575 2939
Q 2822 3125 2822 3475
Q 2822 3834 2567 4026
Q 2313 4219 1838 4219
Q 1578 4219 1281 4162
Q 984 4106 628 3988
L 628 4550
Q 988 4650 1302 4700
Q 1616 4750 1894 4750
Q 2613 4750 3031 4423
Q 3450 4097 3450 3541
Q 3450 3153 3228 2886
Q 3006 2619 2597 2516
z
" transform="scale(0.015625)"/>
       </defs>
       <use xlink:href="#DejaVuSans-6d"/>
       <use xlink:href="#DejaVuSans-75" x="97.412109"/>
       <use xlink:href="#DejaVuSans-6c" x="160.791016"/>
       <use xlink:href="#DejaVuSans-74" x="188.574219"/>
       <use xlink:href="#DejaVuSans-69" x="227.783203"/>
       <use xlink:href="#DejaVuSans-70" x="255.566406"/>
       <use xlink:href="#DejaVuSans-6c" x="319.042969"/>
       <use xlink:href="#DejaVuSans-79" x="346.826172"/>
       <use xlink:href="#DejaVuSans-5f" x="406.005859"/>
       <use xlink:href="#DejaVuSans-6e" x="456.005859"/>
       <use xlink:href="#DejaVuSans-31" x="519.384766"/>
       <use xlink:href="#DejaVuSans-33" x="583.007812"/>
      </g>
     </g>
    </g>
    <g id="xtick_14">
     <g id="line2d_14">
      <g>
       <use xlink:href="#mb7bb757a58" x="234.395128" y="221.7168" style="stroke: #000000; stroke-width: 0.8"/>
      </g>
     </g>
     <g id="text_14">
      <!-- seca_n11 -->
      <g transform="translate(236.876378 275.768363) rotate(-90) scale(0.1 -0.1)">
       <use xlink:href="#DejaVuSans-73"/>
       <use xlink:href="#DejaVuSans-65" x="52.099609"/>
       <use xlink:href="#DejaVuSans-63" x="113.623047"/>
       <use xlink:href="#DejaVuSans-61" x="168.603516"/>
       <use xlink:href="#DejaVuSans-5f" x="229.882812"/>
       <use xlink:href="#DejaVuSans-6e" x="279.882812"/>
       <use xlink:href="#DejaVuSans-31" x="343.261719"/>
       <use xlink:href="#DejaVuSans-31" x="406.884766"/>
      </g>
     </g>
    </g>
    <g id="xtick_15">
     <g id="line2d_15">
      <g>
       <use xlink:href="#mb7bb757a58" x="248.064154" y="221.7168" style="stroke: #000000; stroke-width: 0.8"/>
      </g>
     </g>
     <g id="text_15">
      <!-- qft_n18 -->
      <g transform="translate(250.684466 266.393363) rotate(-90) scale(0.1 -0.1)">
       <use xlink:href="#DejaVuSans-71"/>
       <use xlink:href="#DejaVuSans-66" x="63.476562"/>
       <use xlink:href="#DejaVuSans-74" x="96.931641"/>
       <use xlink:href="#DejaVuSans-5f" x="136.140625"/>
       <use xlink:href="#DejaVuSans-6e" x="186.140625"/>
       <use xlink:href="#DejaVuSans-31" x="249.519531"/>
       <use xlink:href="#DejaVuSans-38" x="313.142578"/>
      </g>
     </g>
    </g>
    <g id="xtick_16">
     <g id="line2d_16">
      <g>
       <use xlink:href="#mb7bb757a58" x="261.733179" y="221.7168" style="stroke: #000000; stroke-width: 0.8"/>
      </g>
     </g>
     <g id="text_16">
      <!-- ghz_state_n23 -->
      <g transform="translate(264.353492 301.044925) rotate(-90) scale(0.1 -0.1)">
       <defs>
        <path id="DejaVuSans-68" d="M 3513 2113
L 3513 0
L 2938 0
L 2938 2094
Q 2938 2591 2744 2837
Q 2550 3084 2163 3084
Q 1697 3084 1428 2787
Q 1159 2491 1159 1978
L 1159 0
L 581 0
L 581 4863
L 1159 4863
L 1159 2956
Q 1366 3272 1645 3428
Q 1925 3584 2291 3584
Q 2894 3584 3203 3211
Q 3513 2838 3513 2113
z
" transform="scale(0.015625)"/>
       </defs>
       <use xlink:href="#DejaVuSans-67"/>
       <use xlink:href="#DejaVuSans-68" x="63.476562"/>
       <use xlink:href="#DejaVuSans-7a" x="126.855469"/>
       <use xlink:href="#DejaVuSans-5f" x="179.345703"/>
       <use xlink:href="#DejaVuSans-73" x="229.345703"/>
       <use xlink:href="#DejaVuSans-74" x="281.445312"/>
       <use xlink:href="#DejaVuSans-61" x="320.654297"/>
       <use xlink:href="#DejaVuSans-74" x="381.933594"/>
       <use xlink:href="#DejaVuSans-65" x="421.142578"/>
       <use xlink:href="#DejaVuSans-5f" x="482.666016"/>
       <use xlink:href="#DejaVuSans-6e" x="532.666016"/>
       <use xlink:href="#DejaVuSans-32" x="596.044922"/>
       <use xlink:href="#DejaVuSans-33" x="659.667969"/>
      </g>
     </g>
    </g>
    <g id="xtick_17">
     <g id="line2d_17">
      <g>
       <use xlink:href="#mb7bb757a58" x="275.402205" y="221.7168" style="stroke: #000000; stroke-width: 0.8"/>
      </g>
     </g>
     <g id="text_17">
      <!-- bv_n19 -->
      <g transform="translate(278.022517 265.046488) rotate(-90) scale(0.1 -0.1)">
       <use xlink:href="#DejaVuSans-62"/>
       <use xlink:href="#DejaVuSans-76" x="63.476562"/>
       <use xlink:href="#DejaVuSans-5f" x="122.65625"/>
       <use xlink:href="#DejaVuSans-6e" x="172.65625"/>
       <use xlink:href="#DejaVuSans-31" x="236.035156"/>
       <use xlink:href="#DejaVuSans-39" x="299.658203"/>
      </g>
     </g>
    </g>
    <g id="text_18">
     <!-- Circuit -->
     <g transform="translate(143.523125 317.4843) scale(0.14 -0.14)">
      <defs>
       <path id="DejaVuSans-43" d="M 4122 4306
L 4122 3641
Q 3803 3938 3442 4084
Q 3081 4231 2675 4231
Q 1875 4231 1450 3742
Q 1025 3253 1025 2328
Q 1025 1406 1450 917
Q 1875 428 2675 428
Q 3081 428 3442 575
Q 3803 722 4122 1019
L 4122 359
Q 3791 134 3420 21
Q 3050 -91 2638 -91
Q 1578 -91 968 557
Q 359 1206 359 2328
Q 359 3453 968 4101
Q 1578 4750 2638 4750
Q 3056 4750 3426 4639
Q 3797 4528 4122 4306
z
" transform="scale(0.015625)"/>
      </defs>
      <use xlink:href="#DejaVuSans-43"/>
      <use xlink:href="#DejaVuSans-69" x="69.824219"/>
      <use xlink:href="#DejaVuSans-72" x="97.607422"/>
      <use xlink:href="#DejaVuSans-63" x="136.470703"/>
      <use xlink:href="#DejaVuSans-75" x="191.451172"/>
      <use xlink:href="#DejaVuSans-69" x="254.830078"/>
      <use xlink:href="#DejaVuSans-74" x="282.613281"/>
     </g>
    </g>
   </g>
   <g id="matplotlib.axis_2">
    <g id="ytick_1">
     <g id="line2d_18">
      <defs>
       <path id="me8343cb076" d="M 0 0
L -3.5 0
" style="stroke: #000000; stroke-width: 0.8"/>
      </defs>
      <g>
       <use xlink:href="#me8343cb076" x="40.5" y="221.7168" style="stroke: #000000; stroke-width: 0.8"/>
      </g>
     </g>
     <g id="text_19">
      <!-- 0.0 -->
      <g transform="translate(11.235625 227.035706) scale(0.14 -0.14)">
       <defs>
        <path id="DejaVuSans-2e" d="M 684 794
L 1344 794
L 1344 0
L 684 0
L 684 794
z
" transform="scale(0.015625)"/>
       </defs>
       <use xlink:href="#DejaVuSans-30"/>
       <use xlink:href="#DejaVuSans-2e" x="63.623047"/>
       <use xlink:href="#DejaVuSans-30" x="95.410156"/>
      </g>
     </g>
    </g>
    <g id="ytick_2">
     <g id="line2d_19">
      <g>
       <use xlink:href="#me8343cb076" x="40.5" y="197.836016" style="stroke: #000000; stroke-width: 0.8"/>
      </g>
     </g>
     <g id="text_20">
      <!-- 0.2 -->
      <g transform="translate(11.235625 203.154922) scale(0.14 -0.14)">
       <use xlink:href="#DejaVuSans-30"/>
       <use xlink:href="#DejaVuSans-2e" x="63.623047"/>
       <use xlink:href="#DejaVuSans-32" x="95.410156"/>
      </g>
     </g>
    </g>
    <g id="ytick_3">
     <g id="line2d_20">
      <g>
       <use xlink:href="#me8343cb076" x="40.5" y="173.955231" style="stroke: #000000; stroke-width: 0.8"/>
      </g>
     </g>
     <g id="text_21">
      <!-- 0.4 -->
      <g transform="translate(11.235625 179.274138) scale(0.14 -0.14)">
       <use xlink:href="#DejaVuSans-30"/>
       <use xlink:href="#DejaVuSans-2e" x="63.623047"/>
       <use xlink:href="#DejaVuSans-34" x="95.410156"/>
      </g>
     </g>
    </g>
    <g id="ytick_4">
     <g id="line2d_21">
      <g>
       <use xlink:href="#me8343cb076" x="40.5" y="150.074447" style="stroke: #000000; stroke-width: 0.8"/>
      </g>
     </g>
     <g id="text_22">
      <!-- 0.6 -->
      <g transform="translate(11.235625 155.393353) scale(0.14 -0.14)">
       <use xlink:href="#DejaVuSans-30"/>
       <use xlink:href="#DejaVuSans-2e" x="63.623047"/>
       <use xlink:href="#DejaVuSans-36" x="95.410156"/>
      </g>
     </g>
    </g>
    <g id="ytick_5">
     <g id="line2d_22">
      <g>
       <use xlink:href="#me8343cb076" x="40.5" y="126.193663" style="stroke: #000000; stroke-width: 0.8"/>
      </g>
     </g>
     <g id="text_23">
      <!-- 0.8 -->
      <g transform="translate(11.235625 131.512569) scale(0.14 -0.14)">
       <use xlink:href="#DejaVuSans-30"/>
       <use xlink:href="#DejaVuSans-2e" x="63.623047"/>
       <use xlink:href="#DejaVuSans-38" x="95.410156"/>
      </g>
     </g>
    </g>
    <g id="ytick_6">
     <g id="line2d_23">
      <g>
       <use xlink:href="#me8343cb076" x="40.5" y="102.312878" style="stroke: #000000; stroke-width: 0.8"/>
      </g>
     </g>
     <g id="text_24">
      <!-- 1.0 -->
      <g transform="translate(11.235625 107.631785) scale(0.14 -0.14)">
       <use xlink:href="#DejaVuSans-31"/>
       <use xlink:href="#DejaVuSans-2e" x="63.623047"/>
       <use xlink:href="#DejaVuSans-30" x="95.410156"/>
      </g>
     </g>
    </g>
    <g id="ytick_7">
     <g id="line2d_24">
      <g>
       <use xlink:href="#me8343cb076" x="40.5" y="78.432094" style="stroke: #000000; stroke-width: 0.8"/>
      </g>
     </g>
     <g id="text_25">
      <!-- 1.2 -->
      <g transform="translate(11.235625 83.751) scale(0.14 -0.14)">
       <use xlink:href="#DejaVuSans-31"/>
       <use xlink:href="#DejaVuSans-2e" x="63.623047"/>
       <use xlink:href="#DejaVuSans-32" x="95.410156"/>
      </g>
     </g>
    </g>
    <g id="ytick_8">
     <g id="line2d_25">
      <g>
       <use xlink:href="#me8343cb076" x="40.5" y="54.55131" style="stroke: #000000; stroke-width: 0.8"/>
      </g>
     </g>
     <g id="text_26">
      <!-- 1.4 -->
      <g transform="translate(11.235625 59.870216) scale(0.14 -0.14)">
       <use xlink:href="#DejaVuSans-31"/>
       <use xlink:href="#DejaVuSans-2e" x="63.623047"/>
       <use xlink:href="#DejaVuSans-34" x="95.410156"/>
      </g>
     </g>
    </g>
    <g id="ytick_9">
     <g id="line2d_26">
      <g>
       <use xlink:href="#me8343cb076" x="40.5" y="30.670525" style="stroke: #000000; stroke-width: 0.8"/>
      </g>
     </g>
     <g id="text_27">
      <!-- 1.6 -->
      <g transform="translate(11.235625 35.989432) scale(0.14 -0.14)">
       <use xlink:href="#DejaVuSans-31"/>
       <use xlink:href="#DejaVuSans-2e" x="63.623047"/>
       <use xlink:href="#DejaVuSans-36" x="95.410156"/>
      </g>
     </g>
    </g>
    <g id="text_28">
     <!-- Depth -->
     <g transform="translate(4.324062 147.127162) rotate(-90) scale(0.14 -0.14)">
      <defs>
       <path id="DejaVuSans-44" d="M 1259 4147
L 1259 519
L 2022 519
Q 2988 519 3436 956
Q 3884 1394 3884 2338
Q 3884 3275 3436 3711
Q 2988 4147 2022 4147
L 1259 4147
z
M 628 4666
L 1925 4666
Q 3281 4666 3915 4102
Q 4550 3538 4550 2338
Q 4550 1131 3912 565
Q 3275 0 1925 0
L 628 0
L 628 4666
z
" transform="scale(0.015625)"/>
      </defs>
      <use xlink:href="#DejaVuSans-44"/>
      <use xlink:href="#DejaVuSans-65" x="77.001953"/>
      <use xlink:href="#DejaVuSans-70" x="138.525391"/>
      <use xlink:href="#DejaVuSans-74" x="202.001953"/>
      <use xlink:href="#DejaVuSans-68" x="241.210938"/>
     </g>
    </g>
    <g id="text_29">
     <!-- 1e2 -->
     <g transform="translate(40.5 26.8944) scale(0.14 -0.14)">
      <use xlink:href="#DejaVuSans-31"/>
      <use xlink:href="#DejaVuSans-65" x="63.623047"/>
      <use xlink:href="#DejaVuSans-32" x="125.146484"/>
     </g>
    </g>
   </g>
   <g id="patch_37">
    <path d="M 40.5 221.7168
L 40.5 29.8944
" style="fill: none; stroke: #000000; stroke-width: 0.8; stroke-linejoin: miter; stroke-linecap: square"/>
   </g>
   <g id="patch_38">
    <path d="M 291.6 221.7168
L 291.6 29.8944
" style="fill: none; stroke: #000000; stroke-width: 0.8; stroke-linejoin: miter; stroke-linecap: square"/>
   </g>
   <g id="patch_39">
    <path d="M 40.5 221.7168
L 291.6 221.7168
" style="fill: none; stroke: #000000; stroke-width: 0.8; stroke-linejoin: miter; stroke-linecap: square"/>
   </g>
   <g id="patch_40">
    <path d="M 40.5 29.8944
L 291.6 29.8944
" style="fill: none; stroke: #000000; stroke-width: 0.8; stroke-linejoin: miter; stroke-linecap: square"/>
   </g>
   <g id="text_30">
    <!-- Transpiler Depth Comparison -->
    <g transform="translate(44.017688 10.256587) scale(0.168 -0.168)">
     <defs>
      <path id="DejaVuSans-54" d="M -19 4666
L 3928 4666
L 3928 4134
L 2272 4134
L 2272 0
L 1638 0
L 1638 4134
L -19 4134
L -19 4666
z
" transform="scale(0.015625)"/>
      <path id="DejaVuSans-20" transform="scale(0.015625)"/>
      <path id="DejaVuSans-6f" d="M 1959 3097
Q 1497 3097 1228 2736
Q 959 2375 959 1747
Q 959 1119 1226 758
Q 1494 397 1959 397
Q 2419 397 2687 759
Q 2956 1122 2956 1747
Q 2956 2369 2687 2733
Q 2419 3097 1959 3097
z
M 1959 3584
Q 2709 3584 3137 3096
Q 3566 2609 3566 1747
Q 3566 888 3137 398
Q 2709 -91 1959 -91
Q 1206 -91 779 398
Q 353 888 353 1747
Q 353 2609 779 3096
Q 1206 3584 1959 3584
z
" transform="scale(0.015625)"/>
     </defs>
     <use xlink:href="#DejaVuSans-54"/>
     <use xlink:href="#DejaVuSans-72" x="46.333984"/>
     <use xlink:href="#DejaVuSans-61" x="87.447266"/>
     <use xlink:href="#DejaVuSans-6e" x="148.726562"/>
     <use xlink:href="#DejaVuSans-73" x="212.105469"/>
     <use xlink:href="#DejaVuSans-70" x="264.205078"/>
     <use xlink:href="#DejaVuSans-69" x="327.681641"/>
     <use xlink:href="#DejaVuSans-6c" x="355.464844"/>
     <use xlink:href="#DejaVuSans-65" x="383.248047"/>
     <use xlink:href="#DejaVuSans-72" x="444.771484"/>
     <use xlink:href="#DejaVuSans-20" x="485.884766"/>
     <use xlink:href="#DejaVuSans-44" x="517.671875"/>
     <use xlink:href="#DejaVuSans-65" x="594.673828"/>
     <use xlink:href="#DejaVuSans-70" x="656.197266"/>
     <use xlink:href="#DejaVuSans-74" x="719.673828"/>
     <use xlink:href="#DejaVuSans-68" x="758.882812"/>
     <use xlink:href="#DejaVuSans-20" x="822.261719"/>
     <use xlink:href="#DejaVuSans-43" x="854.048828"/>
     <use xlink:href="#DejaVuSans-6f" x="923.873047"/>
     <use xlink:href="#DejaVuSans-6d" x="985.054688"/>
     <use xlink:href="#DejaVuSans-70" x="1082.466797"/>
     <use xlink:href="#DejaVuSans-61" x="1145.943359"/>
     <use xlink:href="#DejaVuSans-72" x="1207.222656"/>
     <use xlink:href="#DejaVuSans-69" x="1248.335938"/>
     <use xlink:href="#DejaVuSans-73" x="1276.119141"/>
     <use xlink:href="#DejaVuSans-6f" x="1328.21875"/>
     <use xlink:href="#DejaVuSans-6e" x="1389.400391"/>
    </g>
   </g>
   <g id="legend_1">
    <g id="patch_41">
     <path d="M 105.760312 53.132213
L 133.760312 53.132213
L 133.760312 43.332213
L 105.760312 43.332213
z
" style="fill: #001219"/>
    </g>
    <g id="text_31">
     <!-- Transpiler 1 -->
     <g transform="translate(144.960312 53.132213) scale(0.14 -0.14)">
      <use xlink:href="#DejaVuSans-54"/>
      <use xlink:href="#DejaVuSans-72" x="46.333984"/>
      <use xlink:href="#DejaVuSans-61" x="87.447266"/>
      <use xlink:href="#DejaVuSans-6e" x="148.726562"/>
      <use xlink:href="#DejaVuSans-73" x="212.105469"/>
      <use xlink:href="#DejaVuSans-70" x="264.205078"/>
      <use xlink:href="#DejaVuSans-69" x="327.681641"/>
      <use xlink:href="#DejaVuSans-6c" x="355.464844"/>
      <use xlink:href="#DejaVuSans-65" x="383.248047"/>
      <use xlink:href="#DejaVuSans-72" x="444.771484"/>
      <use xlink:href="#DejaVuSans-20" x="485.884766"/>
      <use xlink:href="#DejaVuSans-31" x="517.671875"/>
     </g>
    </g>
    <g id="patch_42">
     <path d="M 105.760312 73.681588
L 133.760312 73.681588
L 133.760312 63.881588
L 105.760312 63.881588
z
" style="fill: #005f73"/>
    </g>
    <g id="text_32">
     <!-- Transpiler 2 -->
     <g transform="translate(144.960312 73.681588) scale(0.14 -0.14)">
      <use xlink:href="#DejaVuSans-54"/>
      <use xlink:href="#DejaVuSans-72" x="46.333984"/>
      <use xlink:href="#DejaVuSans-61" x="87.447266"/>
      <use xlink:href="#DejaVuSans-6e" x="148.726562"/>
      <use xlink:href="#DejaVuSans-73" x="212.105469"/>
      <use xlink:href="#DejaVuSans-70" x="264.205078"/>
      <use xlink:href="#DejaVuSans-69" x="327.681641"/>
      <use xlink:href="#DejaVuSans-6c" x="355.464844"/>
      <use xlink:href="#DejaVuSans-65" x="383.248047"/>
      <use xlink:href="#DejaVuSans-72" x="444.771484"/>
      <use xlink:href="#DejaVuSans-20" x="485.884766"/>
      <use xlink:href="#DejaVuSans-32" x="517.671875"/>
     </g>
    </g>
   </g>
  </g>
 </g>
 <defs>
  <clipPath id="p50dee7a561">
   <rect x="40.5" y="29.8944" width="251.1" height="191.8224"/>
  </clipPath>
 </defs>
</svg>
