<?xml version="1.0" encoding="utf-8" standalone="no"?>
<!DOCTYPE svg PUBLIC "-//W3C//DTD SVG 1.1//EN"
  "http://www.w3.org/Graphics/SVG/1.1/DTD/svg11.dtd">
<svg xmlns:xlink="http://www.w3.org/1999/xlink" width="481.118951pt" height="218.357597pt" viewBox="0 0 481.118951 218.357597" xmlns="http://www.w3.org/2000/svg" version="1.1">
 <metadata>
  <rdf:RDF xmlns:dc="http://purl.org/dc/elements/1.1/" xmlns:cc="http://creativecommons.org/ns#" xmlns:rdf="http://www.w3.org/1999/02/22-rdf-syntax-ns#">
   <cc:Work>
    <dc:type rdf:resource="http://purl.org/dc/dcmitype/StillImage"/>
    <dc:date>2023-06-06T12:56:15.935274</dc:date>
    <dc:format>image/svg+xml</dc:format>
    <dc:creator>
     <cc:Agent>
      <dc:title>Matplotlib v3.7.1, https://matplotlib.org/</dc:title>
     </cc:Agent>
    </dc:creator>
   </cc:Work>
  </rdf:RDF>
 </metadata>
 <defs>
  <style type="text/css">*{stroke-linejoin: round; stroke-linecap: butt}</style>
 </defs>
 <g id="figure_1">
  <g id="patch_1">
   <path d="M 0 218.357597
L 481.118951 218.357597
L 481.118951 0
L 0 0
z
" style="fill: #ffffff"/>
  </g>
  <g id="axes_1">
   <g id="line2d_1">
    <path d="M 93.816156 44.2832
L 469.283551 44.2832
" clip-path="url(#p40079c90ca)" style="fill: none; stroke: #000000; stroke-width: 2; stroke-linecap: square"/>
   </g>
   <g id="line2d_2">
    <path d="M 93.816156 90.637199
L 469.283551 90.637199
" clip-path="url(#p40079c90ca)" style="fill: none; stroke: #000000; stroke-width: 2; stroke-linecap: square"/>
   </g>
   <g id="line2d_3">
    <path d="M 93.816156 136.991198
L 469.283551 136.991198
" clip-path="url(#p40079c90ca)" style="fill: none; stroke: #000000; stroke-width: 2; stroke-linecap: square"/>
   </g>
   <g id="line2d_4">
    <path d="M 93.816156 183.345198
L 469.283551 183.345198
" clip-path="url(#p40079c90ca)" style="fill: none; stroke: #000000; stroke-width: 2; stroke-linecap: square"/>
   </g>
   <g id="line2d_5">
    <path d="M 118.847316 136.991198
L 118.847316 90.637199
" clip-path="url(#p40079c90ca)" style="fill: none; stroke: #6fa4ff; stroke-width: 2; stroke-linecap: square"/>
   </g>
   <g id="line2d_6">
    <path d="M 165.201315 90.637199
L 165.201315 44.2832
" clip-path="url(#p40079c90ca)" style="fill: none; stroke: #6fa4ff; stroke-width: 2; stroke-linecap: square"/>
   </g>
   <g id="line2d_7">
    <path d="M 211.555315 90.637199
L 211.555315 136.991198
" clip-path="url(#p40079c90ca)" style="fill: none; stroke: #6fa4ff; stroke-width: 2; stroke-linecap: square"/>
   </g>
   <g id="line2d_8">
    <path d="M 257.909314 90.637199
L 257.909314 44.2832
" clip-path="url(#p40079c90ca)" style="fill: none; stroke: #6fa4ff; stroke-width: 2; stroke-linecap: square"/>
   </g>
   <g id="line2d_9">
    <path d="M 257.909314 183.345198
L 257.909314 136.991198
" clip-path="url(#p40079c90ca)" style="fill: none; stroke: #6fa4ff; stroke-width: 2; stroke-linecap: square"/>
   </g>
   <g id="line2d_10">
    <path d="M 304.263313 136.991198
L 304.263313 183.345198
" clip-path="url(#p40079c90ca)" style="fill: none; stroke: #6fa4ff; stroke-width: 2; stroke-linecap: square"/>
   </g>
   <g id="line2d_11">
    <path d="M 350.617313 136.991198
L 350.617313 90.637199
" clip-path="url(#p40079c90ca)" style="fill: none; stroke: #6fa4ff; stroke-width: 2; stroke-linecap: square"/>
   </g>
   <g id="line2d_12">
    <path d="M 396.971312 44.2832
L 396.971312 90.637199
" clip-path="url(#p40079c90ca)" style="fill: none; stroke: #6fa4ff; stroke-width: 2; stroke-linecap: square"/>
   </g>
   <g id="line2d_13">
    <path d="M 443.325312 136.991198
L 443.325312 90.637199
" clip-path="url(#p40079c90ca)" style="fill: none; stroke: #6fa4ff; stroke-width: 2; stroke-linecap: square"/>
   </g>
   <g id="line2d_14">
    <path d="M 205.529295 96.663219
L 217.581335 84.611179
" clip-path="url(#p40079c90ca)" style="fill: none; stroke: #6fa4ff; stroke-width: 2; stroke-linecap: square"/>
   </g>
   <g id="line2d_15">
    <path d="M 205.529295 84.611179
L 217.581335 96.663219
" clip-path="url(#p40079c90ca)" style="fill: none; stroke: #6fa4ff; stroke-width: 2; stroke-linecap: square"/>
   </g>
   <g id="line2d_16">
    <path d="M 205.529295 143.017218
L 217.581335 130.965178
" clip-path="url(#p40079c90ca)" style="fill: none; stroke: #6fa4ff; stroke-width: 2; stroke-linecap: square"/>
   </g>
   <g id="line2d_17">
    <path d="M 205.529295 130.965178
L 217.581335 143.017218
" clip-path="url(#p40079c90ca)" style="fill: none; stroke: #6fa4ff; stroke-width: 2; stroke-linecap: square"/>
   </g>
   <g id="line2d_18">
    <path d="M 298.237293 143.017218
L 310.289333 130.965178
" clip-path="url(#p40079c90ca)" style="fill: none; stroke: #6fa4ff; stroke-width: 2; stroke-linecap: square"/>
   </g>
   <g id="line2d_19">
    <path d="M 298.237293 130.965178
L 310.289333 143.017218
" clip-path="url(#p40079c90ca)" style="fill: none; stroke: #6fa4ff; stroke-width: 2; stroke-linecap: square"/>
   </g>
   <g id="line2d_20">
    <path d="M 298.237293 189.371218
L 310.289333 177.319178
" clip-path="url(#p40079c90ca)" style="fill: none; stroke: #6fa4ff; stroke-width: 2; stroke-linecap: square"/>
   </g>
   <g id="line2d_21">
    <path d="M 298.237293 177.319178
L 310.289333 189.371218
" clip-path="url(#p40079c90ca)" style="fill: none; stroke: #6fa4ff; stroke-width: 2; stroke-linecap: square"/>
   </g>
   <g id="line2d_22">
    <path d="M 390.945292 50.309219
L 402.997332 38.25718
" clip-path="url(#p40079c90ca)" style="fill: none; stroke: #6fa4ff; stroke-width: 2; stroke-linecap: square"/>
   </g>
   <g id="line2d_23">
    <path d="M 390.945292 38.25718
L 402.997332 50.309219
" clip-path="url(#p40079c90ca)" style="fill: none; stroke: #6fa4ff; stroke-width: 2; stroke-linecap: square"/>
   </g>
   <g id="line2d_24">
    <path d="M 390.945292 96.663219
L 402.997332 84.611179
" clip-path="url(#p40079c90ca)" style="fill: none; stroke: #6fa4ff; stroke-width: 2; stroke-linecap: square"/>
   </g>
   <g id="line2d_25">
    <path d="M 390.945292 84.611179
L 402.997332 96.663219
" clip-path="url(#p40079c90ca)" style="fill: none; stroke: #6fa4ff; stroke-width: 2; stroke-linecap: square"/>
   </g>
   <g id="patch_2">
    <path d="M 118.847316 95.156714
C 120.045905 95.156714 121.195565 94.680509 122.043095 93.832979
C 122.890626 92.985448 123.366831 91.835788 123.366831 90.637199
C 123.366831 89.43861 122.890626 88.28895 122.043095 87.441419
C 121.195565 86.593889 120.045905 86.117684 118.847316 86.117684
C 117.648726 86.117684 116.499067 86.593889 115.651536 87.441419
C 114.804006 88.28895 114.327801 89.43861 114.327801 90.637199
C 114.327801 91.835788 114.804006 92.985448 115.651536 93.832979
C 116.499067 94.680509 117.648726 95.156714 118.847316 95.156714
z
" clip-path="url(#p40079c90ca)" style="fill: #6fa4ff; stroke: #6fa4ff; stroke-width: 1.5; stroke-linejoin: miter"/>
   </g>
   <g id="patch_3">
    <path d="M 118.847316 147.536733
C 121.644024 147.536733 124.326563 146.425589 126.304135 144.448017
C 128.281707 142.470446 129.392851 139.787907 129.392851 136.991198
C 129.392851 134.19449 128.281707 131.511951 126.304135 129.534379
C 124.326563 127.556807 121.644024 126.445663 118.847316 126.445663
C 116.050607 126.445663 113.368068 127.556807 111.390497 129.534379
C 109.412925 131.511951 108.301781 134.19449 108.301781 136.991198
C 108.301781 139.787907 109.412925 142.470446 111.390497 144.448017
C 113.368068 146.425589 116.050607 147.536733 118.847316 147.536733
z
" clip-path="url(#p40079c90ca)" style="fill: #6fa4ff; stroke: #6fa4ff; stroke-width: 2; stroke-linejoin: miter"/>
   </g>
   <g id="patch_4">
    <path d="M 165.201315 95.156714
C 166.399905 95.156714 167.549564 94.680509 168.397095 93.832979
C 169.244626 92.985448 169.72083 91.835788 169.72083 90.637199
C 169.72083 89.43861 169.244626 88.28895 168.397095 87.441419
C 167.549564 86.593889 166.399905 86.117684 165.201315 86.117684
C 164.002726 86.117684 162.853066 86.593889 162.005536 87.441419
C 161.158005 88.28895 160.6818 89.43861 160.6818 90.637199
C 160.6818 91.835788 161.158005 92.985448 162.005536 93.832979
C 162.853066 94.680509 164.002726 95.156714 165.201315 95.156714
z
" clip-path="url(#p40079c90ca)" style="fill: #6fa4ff; stroke: #6fa4ff; stroke-width: 1.5; stroke-linejoin: miter"/>
   </g>
   <g id="patch_5">
    <path d="M 165.201315 54.828734
C 167.998024 54.828734 170.680563 53.71759 172.658134 51.740019
C 174.635706 49.762447 175.74685 47.079908 175.74685 44.2832
C 175.74685 41.486491 174.635706 38.803952 172.658134 36.82638
C 170.680563 34.848809 167.998024 33.737665 165.201315 33.737665
C 162.404607 33.737665 159.722068 34.848809 157.744496 36.82638
C 155.766924 38.803952 154.65578 41.486491 154.65578 44.2832
C 154.65578 47.079908 155.766924 49.762447 157.744496 51.740019
C 159.722068 53.71759 162.404607 54.828734 165.201315 54.828734
z
" clip-path="url(#p40079c90ca)" style="fill: #6fa4ff; stroke: #6fa4ff; stroke-width: 2; stroke-linejoin: miter"/>
   </g>
   <g id="patch_6">
    <path d="M 257.909314 95.156714
C 259.107903 95.156714 260.257563 94.680509 261.105094 93.832979
C 261.952624 92.985448 262.428829 91.835788 262.428829 90.637199
C 262.428829 89.43861 261.952624 88.28895 261.105094 87.441419
C 260.257563 86.593889 259.107903 86.117684 257.909314 86.117684
C 256.710725 86.117684 255.561065 86.593889 254.713534 87.441419
C 253.866004 88.28895 253.389799 89.43861 253.389799 90.637199
C 253.389799 91.835788 253.866004 92.985448 254.713534 93.832979
C 255.561065 94.680509 256.710725 95.156714 257.909314 95.156714
z
" clip-path="url(#p40079c90ca)" style="fill: #6fa4ff; stroke: #6fa4ff; stroke-width: 1.5; stroke-linejoin: miter"/>
   </g>
   <g id="patch_7">
    <path d="M 257.909314 54.828734
C 260.706023 54.828734 263.388562 53.71759 265.366133 51.740019
C 267.343705 49.762447 268.454849 47.079908 268.454849 44.2832
C 268.454849 41.486491 267.343705 38.803952 265.366133 36.82638
C 263.388562 34.848809 260.706023 33.737665 257.909314 33.737665
C 255.112605 33.737665 252.430066 34.848809 250.452495 36.82638
C 248.474923 38.803952 247.363779 41.486491 247.363779 44.2832
C 247.363779 47.079908 248.474923 49.762447 250.452495 51.740019
C 252.430066 53.71759 255.112605 54.828734 257.909314 54.828734
z
" clip-path="url(#p40079c90ca)" style="fill: #6fa4ff; stroke: #6fa4ff; stroke-width: 2; stroke-linejoin: miter"/>
   </g>
   <g id="patch_8">
    <path d="M 257.909314 141.510713
C 259.107903 141.510713 260.257563 141.034509 261.105094 140.186978
C 261.952624 139.339447 262.428829 138.189788 262.428829 136.991198
C 262.428829 135.792609 261.952624 134.642949 261.105094 133.795419
C 260.257563 132.947888 259.107903 132.471683 257.909314 132.471683
C 256.710725 132.471683 255.561065 132.947888 254.713534 133.795419
C 253.866004 134.642949 253.389799 135.792609 253.389799 136.991198
C 253.389799 138.189788 253.866004 139.339447 254.713534 140.186978
C 255.561065 141.034509 256.710725 141.510713 257.909314 141.510713
z
" clip-path="url(#p40079c90ca)" style="fill: #6fa4ff; stroke: #6fa4ff; stroke-width: 1.5; stroke-linejoin: miter"/>
   </g>
   <g id="patch_9">
    <path d="M 257.909314 193.890733
C 260.706023 193.890733 263.388562 192.779588 265.366133 190.802017
C 267.343705 188.824445 268.454849 186.141906 268.454849 183.345198
C 268.454849 180.548489 267.343705 177.86595 265.366133 175.888378
C 263.388562 173.910807 260.706023 172.799663 257.909314 172.799663
C 255.112605 172.799663 252.430066 173.910807 250.452495 175.888378
C 248.474923 177.86595 247.363779 180.548489 247.363779 183.345198
C 247.363779 186.141906 248.474923 188.824445 250.452495 190.802017
C 252.430066 192.779588 255.112605 193.890733 257.909314 193.890733
z
" clip-path="url(#p40079c90ca)" style="fill: #6fa4ff; stroke: #6fa4ff; stroke-width: 2; stroke-linejoin: miter"/>
   </g>
   <g id="patch_10">
    <path d="M 350.617313 95.156714
C 351.815902 95.156714 352.965562 94.680509 353.813092 93.832979
C 354.660623 92.985448 355.136828 91.835788 355.136828 90.637199
C 355.136828 89.43861 354.660623 88.28895 353.813092 87.441419
C 352.965562 86.593889 351.815902 86.117684 350.617313 86.117684
C 349.418723 86.117684 348.269064 86.593889 347.421533 87.441419
C 346.574002 88.28895 346.097798 89.43861 346.097798 90.637199
C 346.097798 91.835788 346.574002 92.985448 347.421533 93.832979
C 348.269064 94.680509 349.418723 95.156714 350.617313 95.156714
z
" clip-path="url(#p40079c90ca)" style="fill: #6fa4ff; stroke: #6fa4ff; stroke-width: 1.5; stroke-linejoin: miter"/>
   </g>
   <g id="patch_11">
    <path d="M 350.617313 147.536733
C 353.414021 147.536733 356.09656 146.425589 358.074132 144.448017
C 360.051704 142.470446 361.162848 139.787907 361.162848 136.991198
C 361.162848 134.19449 360.051704 131.511951 358.074132 129.534379
C 356.09656 127.556807 353.414021 126.445663 350.617313 126.445663
C 347.820604 126.445663 345.138065 127.556807 343.160494 129.534379
C 341.182922 131.511951 340.071778 134.19449 340.071778 136.991198
C 340.071778 139.787907 341.182922 142.470446 343.160494 144.448017
C 345.138065 146.425589 347.820604 147.536733 350.617313 147.536733
z
" clip-path="url(#p40079c90ca)" style="fill: #6fa4ff; stroke: #6fa4ff; stroke-width: 2; stroke-linejoin: miter"/>
   </g>
   <g id="patch_12">
    <path d="M 443.325312 95.156714
C 444.523901 95.156714 445.673561 94.680509 446.521091 93.832979
C 447.368622 92.985448 447.844826 91.835788 447.844826 90.637199
C 447.844826 89.43861 447.368622 88.28895 446.521091 87.441419
C 445.673561 86.593889 444.523901 86.117684 443.325312 86.117684
C 442.126722 86.117684 440.977063 86.593889 440.129532 87.441419
C 439.282001 88.28895 438.805797 89.43861 438.805797 90.637199
C 438.805797 91.835788 439.282001 92.985448 440.129532 93.832979
C 440.977063 94.680509 442.126722 95.156714 443.325312 95.156714
z
" clip-path="url(#p40079c90ca)" style="fill: #6fa4ff; stroke: #6fa4ff; stroke-width: 1.5; stroke-linejoin: miter"/>
   </g>
   <g id="patch_13">
    <path d="M 443.325312 147.536733
C 446.12202 147.536733 448.804559 146.425589 450.782131 144.448017
C 452.759702 142.470446 453.870846 139.787907 453.870846 136.991198
C 453.870846 134.19449 452.759702 131.511951 450.782131 129.534379
C 448.804559 127.556807 446.12202 126.445663 443.325312 126.445663
C 440.528603 126.445663 437.846064 127.556807 435.868492 129.534379
C 433.890921 131.511951 432.779777 134.19449 432.779777 136.991198
C 432.779777 139.787907 433.890921 142.470446 435.868492 144.448017
C 437.846064 146.425589 440.528603 147.536733 443.325312 147.536733
z
" clip-path="url(#p40079c90ca)" style="fill: #6fa4ff; stroke: #6fa4ff; stroke-width: 2; stroke-linejoin: miter"/>
   </g>
   <g id="text_1">
    <g clip-path="url(#p40079c90ca)">
     <!-- ${q}_{2}\;\mapsto\;{0}$ -->
     <g transform="translate(27.345356 48.734176) scale(0.1625 -0.1625)">
      <defs>
       <path id="DejaVuSans-Oblique-71" d="M 2669 525
Q 2438 222 2123 65
Q 1809 -91 1428 -91
Q 897 -91 595 267
Q 294 625 294 1253
Q 294 1759 480 2231
Q 666 2703 1013 3078
Q 1238 3322 1530 3453
Q 1822 3584 2144 3584
Q 2531 3584 2781 3431
Q 3031 3278 3144 2969
L 3244 3494
L 3822 3494
L 2888 -1319
L 2309 -1319
L 2669 525
z
M 891 1338
Q 891 875 1084 633
Q 1278 391 1644 391
Q 2188 391 2572 911
Q 2956 1431 2956 2175
Q 2956 2625 2757 2864
Q 2559 3103 2188 3103
Q 1916 3103 1684 2976
Q 1453 2850 1281 2606
Q 1100 2350 995 2006
Q 891 1663 891 1338
z
" transform="scale(0.015625)"/>
       <path id="DejaVuSans-32" d="M 1228 531
L 3431 531
L 3431 0
L 469 0
L 469 531
Q 828 903 1448 1529
Q 2069 2156 2228 2338
Q 2531 2678 2651 2914
Q 2772 3150 2772 3378
Q 2772 3750 2511 3984
Q 2250 4219 1831 4219
Q 1534 4219 1204 4116
Q 875 4013 500 3803
L 500 4441
Q 881 4594 1212 4672
Q 1544 4750 1819 4750
Q 2544 4750 2975 4387
Q 3406 4025 3406 3419
Q 3406 3131 3298 2873
Q 3191 2616 2906 2266
Q 2828 2175 2409 1742
Q 1991 1309 1228 531
z
" transform="scale(0.015625)"/>
       <path id="DejaVuSans-21a6" d="M 4175 1741
L 897 1741
L 897 663
L 366 663
L 366 3350
L 897 3350
L 897 2272
L 4175 2272
L 3447 3000
L 3822 3375
L 5050 2147
L 5050 1866
L 3822 638
L 3447 1013
L 4175 1741
z
" transform="scale(0.015625)"/>
       <path id="DejaVuSans-30" d="M 2034 4250
Q 1547 4250 1301 3770
Q 1056 3291 1056 2328
Q 1056 1369 1301 889
Q 1547 409 2034 409
Q 2525 409 2770 889
Q 3016 1369 3016 2328
Q 3016 3291 2770 3770
Q 2525 4250 2034 4250
z
M 2034 4750
Q 2819 4750 3233 4129
Q 3647 3509 3647 2328
Q 3647 1150 3233 529
Q 2819 -91 2034 -91
Q 1250 -91 836 529
Q 422 1150 422 2328
Q 422 3509 836 4129
Q 1250 4750 2034 4750
z
" transform="scale(0.015625)"/>
      </defs>
      <use xlink:href="#DejaVuSans-Oblique-71" transform="translate(0 0.78125)"/>
      <use xlink:href="#DejaVuSans-32" transform="translate(63.476562 -15.625) scale(0.7)"/>
      <use xlink:href="#DejaVuSans-21a6" transform="translate(157.288628 0.78125)"/>
      <use xlink:href="#DejaVuSans-30" transform="translate(287.619248 0.78125)"/>
     </g>
    </g>
   </g>
   <g id="text_2">
    <g clip-path="url(#p40079c90ca)">
     <!-- ${q}_{0}\;\mapsto\;{1}$ -->
     <g transform="translate(27.345356 95.088175) scale(0.1625 -0.1625)">
      <defs>
       <path id="DejaVuSans-31" d="M 794 531
L 1825 531
L 1825 4091
L 703 3866
L 703 4441
L 1819 4666
L 2450 4666
L 2450 531
L 3481 531
L 3481 0
L 794 0
L 794 531
z
" transform="scale(0.015625)"/>
      </defs>
      <use xlink:href="#DejaVuSans-Oblique-71" transform="translate(0 0.09375)"/>
      <use xlink:href="#DejaVuSans-30" transform="translate(63.476562 -16.3125) scale(0.7)"/>
      <use xlink:href="#DejaVuSans-21a6" transform="translate(157.288628 0.09375)"/>
      <use xlink:href="#DejaVuSans-31" transform="translate(287.619248 0.09375)"/>
     </g>
    </g>
   </g>
   <g id="text_3">
    <g clip-path="url(#p40079c90ca)">
     <!-- ${q}_{1}\;\mapsto\;{2}$ -->
     <g transform="translate(27.345356 141.442175) scale(0.1625 -0.1625)">
      <use xlink:href="#DejaVuSans-Oblique-71" transform="translate(0 0.78125)"/>
      <use xlink:href="#DejaVuSans-31" transform="translate(63.476562 -15.625) scale(0.7)"/>
      <use xlink:href="#DejaVuSans-21a6" transform="translate(157.288628 0.78125)"/>
      <use xlink:href="#DejaVuSans-32" transform="translate(287.619248 0.78125)"/>
     </g>
    </g>
   </g>
   <g id="text_4">
    <g clip-path="url(#p40079c90ca)">
     <!-- ${q}_{3}\;\mapsto\;{3}$ -->
     <g transform="translate(27.345356 187.796174) scale(0.1625 -0.1625)">
      <defs>
       <path id="DejaVuSans-33" d="M 2597 2516
Q 3050 2419 3304 2112
Q 3559 1806 3559 1356
Q 3559 666 3084 287
Q 2609 -91 1734 -91
Q 1441 -91 1130 -33
Q 819 25 488 141
L 488 750
Q 750 597 1062 519
Q 1375 441 1716 441
Q 2309 441 2620 675
Q 2931 909 2931 1356
Q 2931 1769 2642 2001
Q 2353 2234 1838 2234
L 1294 2234
L 1294 2753
L 1863 2753
Q 2328 2753 2575 2939
Q 2822 3125 2822 3475
Q 2822 3834 2567 4026
Q 2313 4219 1838 4219
Q 1578 4219 1281 4162
Q 984 4106 628 3988
L 628 4550
Q 988 4650 1302 4700
Q 1616 4750 1894 4750
Q 2613 4750 3031 4423
Q 3450 4097 3450 3541
Q 3450 3153 3228 2886
Q 3006 2619 2597 2516
z
" transform="scale(0.015625)"/>
      </defs>
      <use xlink:href="#DejaVuSans-Oblique-71" transform="translate(0 0.78125)"/>
      <use xlink:href="#DejaVuSans-33" transform="translate(63.476562 -15.625) scale(0.7)"/>
      <use xlink:href="#DejaVuSans-21a6" transform="translate(157.288628 0.78125)"/>
      <use xlink:href="#DejaVuSans-33" transform="translate(287.619248 0.78125)"/>
     </g>
    </g>
   </g>
   <g id="line2d_26">
    <path d="M 118.847316 143.017218
L 118.847316 130.965178
" clip-path="url(#p40079c90ca)" style="fill: none; stroke: #ffffff; stroke-width: 2; stroke-linecap: square"/>
   </g>
   <g id="line2d_27">
    <path d="M 112.821296 136.991198
L 124.873336 136.991198
" clip-path="url(#p40079c90ca)" style="fill: none; stroke: #ffffff; stroke-width: 2; stroke-linecap: square"/>
   </g>
   <g id="line2d_28">
    <path d="M 165.201315 50.309219
L 165.201315 38.25718
" clip-path="url(#p40079c90ca)" style="fill: none; stroke: #ffffff; stroke-width: 2; stroke-linecap: square"/>
   </g>
   <g id="line2d_29">
    <path d="M 159.175295 44.2832
L 171.227335 44.2832
" clip-path="url(#p40079c90ca)" style="fill: none; stroke: #ffffff; stroke-width: 2; stroke-linecap: square"/>
   </g>
   <g id="line2d_30">
    <path d="M 257.909314 50.309219
L 257.909314 38.25718
" clip-path="url(#p40079c90ca)" style="fill: none; stroke: #ffffff; stroke-width: 2; stroke-linecap: square"/>
   </g>
   <g id="line2d_31">
    <path d="M 251.883294 44.2832
L 263.935334 44.2832
" clip-path="url(#p40079c90ca)" style="fill: none; stroke: #ffffff; stroke-width: 2; stroke-linecap: square"/>
   </g>
   <g id="line2d_32">
    <path d="M 257.909314 189.371218
L 257.909314 177.319178
" clip-path="url(#p40079c90ca)" style="fill: none; stroke: #ffffff; stroke-width: 2; stroke-linecap: square"/>
   </g>
   <g id="line2d_33">
    <path d="M 251.883294 183.345198
L 263.935334 183.345198
" clip-path="url(#p40079c90ca)" style="fill: none; stroke: #ffffff; stroke-width: 2; stroke-linecap: square"/>
   </g>
   <g id="line2d_34">
    <path d="M 350.617313 143.017218
L 350.617313 130.965178
" clip-path="url(#p40079c90ca)" style="fill: none; stroke: #ffffff; stroke-width: 2; stroke-linecap: square"/>
   </g>
   <g id="line2d_35">
    <path d="M 344.591293 136.991198
L 356.643333 136.991198
" clip-path="url(#p40079c90ca)" style="fill: none; stroke: #ffffff; stroke-width: 2; stroke-linecap: square"/>
   </g>
   <g id="line2d_36">
    <path d="M 443.325312 143.017218
L 443.325312 130.965178
" clip-path="url(#p40079c90ca)" style="fill: none; stroke: #ffffff; stroke-width: 2; stroke-linecap: square"/>
   </g>
   <g id="line2d_37">
    <path d="M 437.299292 136.991198
L 449.351331 136.991198
" clip-path="url(#p40079c90ca)" style="fill: none; stroke: #ffffff; stroke-width: 2; stroke-linecap: square"/>
   </g>
  </g>
 </g>
 <defs>
  <clipPath id="p40079c90ca">
   <rect x="7.2" y="7.2" width="466.718951" height="203.957597"/>
  </clipPath>
 </defs>
</svg>
