<?xml version="1.0" encoding="utf-8" standalone="no"?>
<!DOCTYPE svg PUBLIC "-//W3C//DTD SVG 1.1//EN"
  "http://www.w3.org/Graphics/SVG/1.1/DTD/svg11.dtd">
<svg xmlns:xlink="http://www.w3.org/1999/xlink" width="359.203993pt" height="218.357597pt" viewBox="0 0 359.203993 218.357597" xmlns="http://www.w3.org/2000/svg" version="1.1">
 <metadata>
  <rdf:RDF xmlns:dc="http://purl.org/dc/elements/1.1/" xmlns:cc="http://creativecommons.org/ns#" xmlns:rdf="http://www.w3.org/1999/02/22-rdf-syntax-ns#">
   <cc:Work>
    <dc:type rdf:resource="http://purl.org/dc/dcmitype/StillImage"/>
    <dc:date>2023-06-06T12:56:09.086639</dc:date>
    <dc:format>image/svg+xml</dc:format>
    <dc:creator>
     <cc:Agent>
      <dc:title>Matplotlib v3.7.1, https://matplotlib.org/</dc:title>
     </cc:Agent>
    </dc:creator>
   </cc:Work>
  </rdf:RDF>
 </metadata>
 <defs>
  <style type="text/css">*{stroke-linejoin: round; stroke-linecap: butt}</style>
 </defs>
 <g id="figure_1">
  <g id="patch_1">
   <path d="M 0 218.357597
L 359.203993 218.357597
L 359.203993 0
L 0 0
z
" style="fill: #ffffff"/>
  </g>
  <g id="axes_1">
   <g id="line2d_1">
    <path d="M 64.609196 44.2832
L 347.368593 44.2832
" clip-path="url(#pa42b8588b3)" style="fill: none; stroke: #000000; stroke-width: 2; stroke-linecap: square"/>
   </g>
   <g id="line2d_2">
    <path d="M 64.609196 90.637199
L 347.368593 90.637199
" clip-path="url(#pa42b8588b3)" style="fill: none; stroke: #000000; stroke-width: 2; stroke-linecap: square"/>
   </g>
   <g id="line2d_3">
    <path d="M 64.609196 136.991198
L 347.368593 136.991198
" clip-path="url(#pa42b8588b3)" style="fill: none; stroke: #000000; stroke-width: 2; stroke-linecap: square"/>
   </g>
   <g id="line2d_4">
    <path d="M 64.609196 183.345198
L 347.368593 183.345198
" clip-path="url(#pa42b8588b3)" style="fill: none; stroke: #000000; stroke-width: 2; stroke-linecap: square"/>
   </g>
   <g id="line2d_5">
    <path d="M 89.640356 90.637199
L 89.640356 44.2832
" clip-path="url(#pa42b8588b3)" style="fill: none; stroke: #6fa4ff; stroke-width: 2; stroke-linecap: square"/>
   </g>
   <g id="line2d_6">
    <path d="M 135.994356 136.991198
L 135.994356 44.2832
" clip-path="url(#pa42b8588b3)" style="fill: none; stroke: #6fa4ff; stroke-width: 2; stroke-linecap: square"/>
   </g>
   <g id="line2d_7">
    <path d="M 182.348355 136.991198
L 182.348355 90.637199
" clip-path="url(#pa42b8588b3)" style="fill: none; stroke: #6fa4ff; stroke-width: 2; stroke-linecap: square"/>
   </g>
   <g id="line2d_8">
    <path d="M 228.702354 183.345198
L 228.702354 44.2832
" clip-path="url(#pa42b8588b3)" style="fill: none; stroke: #6fa4ff; stroke-width: 2; stroke-linecap: square"/>
   </g>
   <g id="line2d_9">
    <path d="M 275.056354 183.345198
L 275.056354 90.637199
" clip-path="url(#pa42b8588b3)" style="fill: none; stroke: #6fa4ff; stroke-width: 2; stroke-linecap: square"/>
   </g>
   <g id="line2d_10">
    <path d="M 321.410353 183.345198
L 321.410353 136.991198
" clip-path="url(#pa42b8588b3)" style="fill: none; stroke: #6fa4ff; stroke-width: 2; stroke-linecap: square"/>
   </g>
   <g id="patch_2">
    <path d="M 89.640356 48.802714
C 90.838946 48.802714 91.988605 48.32651 92.836136 47.478979
C 93.683666 46.631448 94.159871 45.481789 94.159871 44.2832
C 94.159871 43.08461 93.683666 41.934951 92.836136 41.08742
C 91.988605 40.239889 90.838946 39.763685 89.640356 39.763685
C 88.441767 39.763685 87.292107 40.239889 86.444576 41.08742
C 85.597046 41.934951 85.120841 43.08461 85.120841 44.2832
C 85.120841 45.481789 85.597046 46.631448 86.444576 47.478979
C 87.292107 48.32651 88.441767 48.802714 89.640356 48.802714
z
" clip-path="url(#pa42b8588b3)" style="fill: #6fa4ff; stroke: #6fa4ff; stroke-width: 1.5; stroke-linejoin: miter"/>
   </g>
   <g id="patch_3">
    <path d="M 89.640356 101.182734
C 92.437065 101.182734 95.119604 100.07159 97.097175 98.094018
C 99.074747 96.116447 100.185891 93.433907 100.185891 90.637199
C 100.185891 87.84049 99.074747 85.157951 97.097175 83.18038
C 95.119604 81.202808 92.437065 80.091664 89.640356 80.091664
C 86.843648 80.091664 84.161108 81.202808 82.183537 83.18038
C 80.205965 85.157951 79.094821 87.84049 79.094821 90.637199
C 79.094821 93.433907 80.205965 96.116447 82.183537 98.094018
C 84.161108 100.07159 86.843648 101.182734 89.640356 101.182734
z
" clip-path="url(#pa42b8588b3)" style="fill: #6fa4ff; stroke: #6fa4ff; stroke-width: 2; stroke-linejoin: miter"/>
   </g>
   <g id="patch_4">
    <path d="M 135.994356 48.802714
C 137.192945 48.802714 138.342605 48.32651 139.190135 47.478979
C 140.037666 46.631448 140.51387 45.481789 140.51387 44.2832
C 140.51387 43.08461 140.037666 41.934951 139.190135 41.08742
C 138.342605 40.239889 137.192945 39.763685 135.994356 39.763685
C 134.795766 39.763685 133.646107 40.239889 132.798576 41.08742
C 131.951045 41.934951 131.474841 43.08461 131.474841 44.2832
C 131.474841 45.481789 131.951045 46.631448 132.798576 47.478979
C 133.646107 48.32651 134.795766 48.802714 135.994356 48.802714
z
" clip-path="url(#pa42b8588b3)" style="fill: #6fa4ff; stroke: #6fa4ff; stroke-width: 1.5; stroke-linejoin: miter"/>
   </g>
   <g id="patch_5">
    <path d="M 135.994356 147.536733
C 138.791064 147.536733 141.473603 146.425589 143.451175 144.448017
C 145.428746 142.470446 146.53989 139.787907 146.53989 136.991198
C 146.53989 134.19449 145.428746 131.511951 143.451175 129.534379
C 141.473603 127.556807 138.791064 126.445663 135.994356 126.445663
C 133.197647 126.445663 130.515108 127.556807 128.537536 129.534379
C 126.559965 131.511951 125.448821 134.19449 125.448821 136.991198
C 125.448821 139.787907 126.559965 142.470446 128.537536 144.448017
C 130.515108 146.425589 133.197647 147.536733 135.994356 147.536733
z
" clip-path="url(#pa42b8588b3)" style="fill: #6fa4ff; stroke: #6fa4ff; stroke-width: 2; stroke-linejoin: miter"/>
   </g>
   <g id="patch_6">
    <path d="M 182.348355 95.156714
C 183.546944 95.156714 184.696604 94.680509 185.544135 93.832979
C 186.391665 92.985448 186.86787 91.835788 186.86787 90.637199
C 186.86787 89.43861 186.391665 88.28895 185.544135 87.441419
C 184.696604 86.593889 183.546944 86.117684 182.348355 86.117684
C 181.149766 86.117684 180.000106 86.593889 179.152575 87.441419
C 178.305045 88.28895 177.82884 89.43861 177.82884 90.637199
C 177.82884 91.835788 178.305045 92.985448 179.152575 93.832979
C 180.000106 94.680509 181.149766 95.156714 182.348355 95.156714
z
" clip-path="url(#pa42b8588b3)" style="fill: #6fa4ff; stroke: #6fa4ff; stroke-width: 1.5; stroke-linejoin: miter"/>
   </g>
   <g id="patch_7">
    <path d="M 182.348355 147.536733
C 185.145063 147.536733 187.827603 146.425589 189.805174 144.448017
C 191.782746 142.470446 192.89389 139.787907 192.89389 136.991198
C 192.89389 134.19449 191.782746 131.511951 189.805174 129.534379
C 187.827603 127.556807 185.145063 126.445663 182.348355 126.445663
C 179.551646 126.445663 176.869107 127.556807 174.891536 129.534379
C 172.913964 131.511951 171.80282 134.19449 171.80282 136.991198
C 171.80282 139.787907 172.913964 142.470446 174.891536 144.448017
C 176.869107 146.425589 179.551646 147.536733 182.348355 147.536733
z
" clip-path="url(#pa42b8588b3)" style="fill: #6fa4ff; stroke: #6fa4ff; stroke-width: 2; stroke-linejoin: miter"/>
   </g>
   <g id="patch_8">
    <path d="M 228.702354 48.802714
C 229.900944 48.802714 231.050603 48.32651 231.898134 47.478979
C 232.745665 46.631448 233.221869 45.481789 233.221869 44.2832
C 233.221869 43.08461 232.745665 41.934951 231.898134 41.08742
C 231.050603 40.239889 229.900944 39.763685 228.702354 39.763685
C 227.503765 39.763685 226.354105 40.239889 225.506575 41.08742
C 224.659044 41.934951 224.182839 43.08461 224.182839 44.2832
C 224.182839 45.481789 224.659044 46.631448 225.506575 47.478979
C 226.354105 48.32651 227.503765 48.802714 228.702354 48.802714
z
" clip-path="url(#pa42b8588b3)" style="fill: #6fa4ff; stroke: #6fa4ff; stroke-width: 1.5; stroke-linejoin: miter"/>
   </g>
   <g id="patch_9">
    <path d="M 228.702354 193.890733
C 231.499063 193.890733 234.181602 192.779588 236.159173 190.802017
C 238.136745 188.824445 239.247889 186.141906 239.247889 183.345198
C 239.247889 180.548489 238.136745 177.86595 236.159173 175.888378
C 234.181602 173.910807 231.499063 172.799663 228.702354 172.799663
C 225.905646 172.799663 223.223107 173.910807 221.245535 175.888378
C 219.267964 177.86595 218.156819 180.548489 218.156819 183.345198
C 218.156819 186.141906 219.267964 188.824445 221.245535 190.802017
C 223.223107 192.779588 225.905646 193.890733 228.702354 193.890733
z
" clip-path="url(#pa42b8588b3)" style="fill: #6fa4ff; stroke: #6fa4ff; stroke-width: 2; stroke-linejoin: miter"/>
   </g>
   <g id="patch_10">
    <path d="M 275.056354 95.156714
C 276.254943 95.156714 277.404603 94.680509 278.252133 93.832979
C 279.099664 92.985448 279.575869 91.835788 279.575869 90.637199
C 279.575869 89.43861 279.099664 88.28895 278.252133 87.441419
C 277.404603 86.593889 276.254943 86.117684 275.056354 86.117684
C 273.857764 86.117684 272.708105 86.593889 271.860574 87.441419
C 271.013043 88.28895 270.536839 89.43861 270.536839 90.637199
C 270.536839 91.835788 271.013043 92.985448 271.860574 93.832979
C 272.708105 94.680509 273.857764 95.156714 275.056354 95.156714
z
" clip-path="url(#pa42b8588b3)" style="fill: #6fa4ff; stroke: #6fa4ff; stroke-width: 1.5; stroke-linejoin: miter"/>
   </g>
   <g id="patch_11">
    <path d="M 275.056354 193.890733
C 277.853062 193.890733 280.535601 192.779588 282.513173 190.802017
C 284.490744 188.824445 285.601889 186.141906 285.601889 183.345198
C 285.601889 180.548489 284.490744 177.86595 282.513173 175.888378
C 280.535601 173.910807 277.853062 172.799663 275.056354 172.799663
C 272.259645 172.799663 269.577106 173.910807 267.599534 175.888378
C 265.621963 177.86595 264.510819 180.548489 264.510819 183.345198
C 264.510819 186.141906 265.621963 188.824445 267.599534 190.802017
C 269.577106 192.779588 272.259645 193.890733 275.056354 193.890733
z
" clip-path="url(#pa42b8588b3)" style="fill: #6fa4ff; stroke: #6fa4ff; stroke-width: 2; stroke-linejoin: miter"/>
   </g>
   <g id="patch_12">
    <path d="M 321.410353 141.510713
C 322.608942 141.510713 323.758602 141.034509 324.606133 140.186978
C 325.453663 139.339447 325.929868 138.189788 325.929868 136.991198
C 325.929868 135.792609 325.453663 134.642949 324.606133 133.795419
C 323.758602 132.947888 322.608942 132.471683 321.410353 132.471683
C 320.211764 132.471683 319.062104 132.947888 318.214573 133.795419
C 317.367043 134.642949 316.890838 135.792609 316.890838 136.991198
C 316.890838 138.189788 317.367043 139.339447 318.214573 140.186978
C 319.062104 141.034509 320.211764 141.510713 321.410353 141.510713
z
" clip-path="url(#pa42b8588b3)" style="fill: #6fa4ff; stroke: #6fa4ff; stroke-width: 1.5; stroke-linejoin: miter"/>
   </g>
   <g id="patch_13">
    <path d="M 321.410353 193.890733
C 324.207062 193.890733 326.889601 192.779588 328.867172 190.802017
C 330.844744 188.824445 331.955888 186.141906 331.955888 183.345198
C 331.955888 180.548489 330.844744 177.86595 328.867172 175.888378
C 326.889601 173.910807 324.207062 172.799663 321.410353 172.799663
C 318.613645 172.799663 315.931105 173.910807 313.953534 175.888378
C 311.975962 177.86595 310.864818 180.548489 310.864818 183.345198
C 310.864818 186.141906 311.975962 188.824445 313.953534 190.802017
C 315.931105 192.779588 318.613645 193.890733 321.410353 193.890733
z
" clip-path="url(#pa42b8588b3)" style="fill: #6fa4ff; stroke: #6fa4ff; stroke-width: 2; stroke-linejoin: miter"/>
   </g>
   <g id="text_1">
    <g clip-path="url(#pa42b8588b3)">
     <!-- ${q}_{0}$ -->
     <g transform="translate(37.300897 48.734176) scale(0.1625 -0.1625)">
      <defs>
       <path id="DejaVuSans-Oblique-71" d="M 2669 525
Q 2438 222 2123 65
Q 1809 -91 1428 -91
Q 897 -91 595 267
Q 294 625 294 1253
Q 294 1759 480 2231
Q 666 2703 1013 3078
Q 1238 3322 1530 3453
Q 1822 3584 2144 3584
Q 2531 3584 2781 3431
Q 3031 3278 3144 2969
L 3244 3494
L 3822 3494
L 2888 -1319
L 2309 -1319
L 2669 525
z
M 891 1338
Q 891 875 1084 633
Q 1278 391 1644 391
Q 2188 391 2572 911
Q 2956 1431 2956 2175
Q 2956 2625 2757 2864
Q 2559 3103 2188 3103
Q 1916 3103 1684 2976
Q 1453 2850 1281 2606
Q 1100 2350 995 2006
Q 891 1663 891 1338
z
" transform="scale(0.015625)"/>
       <path id="DejaVuSans-30" d="M 2034 4250
Q 1547 4250 1301 3770
Q 1056 3291 1056 2328
Q 1056 1369 1301 889
Q 1547 409 2034 409
Q 2525 409 2770 889
Q 3016 1369 3016 2328
Q 3016 3291 2770 3770
Q 2525 4250 2034 4250
z
M 2034 4750
Q 2819 4750 3233 4129
Q 3647 3509 3647 2328
Q 3647 1150 3233 529
Q 2819 -91 2034 -91
Q 1250 -91 836 529
Q 422 1150 422 2328
Q 422 3509 836 4129
Q 1250 4750 2034 4750
z
" transform="scale(0.015625)"/>
      </defs>
      <use xlink:href="#DejaVuSans-Oblique-71"/>
      <use xlink:href="#DejaVuSans-30" transform="translate(63.476562 -16.40625) scale(0.7)"/>
     </g>
    </g>
   </g>
   <g id="text_2">
    <g clip-path="url(#pa42b8588b3)">
     <!-- ${q}_{1}$ -->
     <g transform="translate(37.300897 95.088175) scale(0.1625 -0.1625)">
      <defs>
       <path id="DejaVuSans-31" d="M 794 531
L 1825 531
L 1825 4091
L 703 3866
L 703 4441
L 1819 4666
L 2450 4666
L 2450 531
L 3481 531
L 3481 0
L 794 0
L 794 531
z
" transform="scale(0.015625)"/>
      </defs>
      <use xlink:href="#DejaVuSans-Oblique-71"/>
      <use xlink:href="#DejaVuSans-31" transform="translate(63.476562 -16.40625) scale(0.7)"/>
     </g>
    </g>
   </g>
   <g id="text_3">
    <g clip-path="url(#pa42b8588b3)">
     <!-- ${q}_{2}$ -->
     <g transform="translate(37.300897 141.442175) scale(0.1625 -0.1625)">
      <defs>
       <path id="DejaVuSans-32" d="M 1228 531
L 3431 531
L 3431 0
L 469 0
L 469 531
Q 828 903 1448 1529
Q 2069 2156 2228 2338
Q 2531 2678 2651 2914
Q 2772 3150 2772 3378
Q 2772 3750 2511 3984
Q 2250 4219 1831 4219
Q 1534 4219 1204 4116
Q 875 4013 500 3803
L 500 4441
Q 881 4594 1212 4672
Q 1544 4750 1819 4750
Q 2544 4750 2975 4387
Q 3406 4025 3406 3419
Q 3406 3131 3298 2873
Q 3191 2616 2906 2266
Q 2828 2175 2409 1742
Q 1991 1309 1228 531
z
" transform="scale(0.015625)"/>
      </defs>
      <use xlink:href="#DejaVuSans-Oblique-71"/>
      <use xlink:href="#DejaVuSans-32" transform="translate(63.476562 -16.40625) scale(0.7)"/>
     </g>
    </g>
   </g>
   <g id="text_4">
    <g clip-path="url(#pa42b8588b3)">
     <!-- ${q}_{3}$ -->
     <g transform="translate(37.300897 187.796174) scale(0.1625 -0.1625)">
      <defs>
       <path id="DejaVuSans-33" d="M 2597 2516
Q 3050 2419 3304 2112
Q 3559 1806 3559 1356
Q 3559 666 3084 287
Q 2609 -91 1734 -91
Q 1441 -91 1130 -33
Q 819 25 488 141
L 488 750
Q 750 597 1062 519
Q 1375 441 1716 441
Q 2309 441 2620 675
Q 2931 909 2931 1356
Q 2931 1769 2642 2001
Q 2353 2234 1838 2234
L 1294 2234
L 1294 2753
L 1863 2753
Q 2328 2753 2575 2939
Q 2822 3125 2822 3475
Q 2822 3834 2567 4026
Q 2313 4219 1838 4219
Q 1578 4219 1281 4162
Q 984 4106 628 3988
L 628 4550
Q 988 4650 1302 4700
Q 1616 4750 1894 4750
Q 2613 4750 3031 4423
Q 3450 4097 3450 3541
Q 3450 3153 3228 2886
Q 3006 2619 2597 2516
z
" transform="scale(0.015625)"/>
      </defs>
      <use xlink:href="#DejaVuSans-Oblique-71"/>
      <use xlink:href="#DejaVuSans-33" transform="translate(63.476562 -16.40625) scale(0.7)"/>
     </g>
    </g>
   </g>
   <g id="line2d_11">
    <path d="M 89.640356 96.663219
L 89.640356 84.611179
" clip-path="url(#pa42b8588b3)" style="fill: none; stroke: #ffffff; stroke-width: 2; stroke-linecap: square"/>
   </g>
   <g id="line2d_12">
    <path d="M 83.614336 90.637199
L 95.666376 90.637199
" clip-path="url(#pa42b8588b3)" style="fill: none; stroke: #ffffff; stroke-width: 2; stroke-linecap: square"/>
   </g>
   <g id="line2d_13">
    <path d="M 135.994356 143.017218
L 135.994356 130.965178
" clip-path="url(#pa42b8588b3)" style="fill: none; stroke: #ffffff; stroke-width: 2; stroke-linecap: square"/>
   </g>
   <g id="line2d_14">
    <path d="M 129.968336 136.991198
L 142.020375 136.991198
" clip-path="url(#pa42b8588b3)" style="fill: none; stroke: #ffffff; stroke-width: 2; stroke-linecap: square"/>
   </g>
   <g id="line2d_15">
    <path d="M 182.348355 143.017218
L 182.348355 130.965178
" clip-path="url(#pa42b8588b3)" style="fill: none; stroke: #ffffff; stroke-width: 2; stroke-linecap: square"/>
   </g>
   <g id="line2d_16">
    <path d="M 176.322335 136.991198
L 188.374375 136.991198
" clip-path="url(#pa42b8588b3)" style="fill: none; stroke: #ffffff; stroke-width: 2; stroke-linecap: square"/>
   </g>
   <g id="line2d_17">
    <path d="M 228.702354 189.371218
L 228.702354 177.319178
" clip-path="url(#pa42b8588b3)" style="fill: none; stroke: #ffffff; stroke-width: 2; stroke-linecap: square"/>
   </g>
   <g id="line2d_18">
    <path d="M 222.676334 183.345198
L 234.728374 183.345198
" clip-path="url(#pa42b8588b3)" style="fill: none; stroke: #ffffff; stroke-width: 2; stroke-linecap: square"/>
   </g>
   <g id="line2d_19">
    <path d="M 275.056354 189.371218
L 275.056354 177.319178
" clip-path="url(#pa42b8588b3)" style="fill: none; stroke: #ffffff; stroke-width: 2; stroke-linecap: square"/>
   </g>
   <g id="line2d_20">
    <path d="M 269.030334 183.345198
L 281.082374 183.345198
" clip-path="url(#pa42b8588b3)" style="fill: none; stroke: #ffffff; stroke-width: 2; stroke-linecap: square"/>
   </g>
   <g id="line2d_21">
    <path d="M 321.410353 189.371218
L 321.410353 177.319178
" clip-path="url(#pa42b8588b3)" style="fill: none; stroke: #ffffff; stroke-width: 2; stroke-linecap: square"/>
   </g>
   <g id="line2d_22">
    <path d="M 315.384333 183.345198
L 327.436373 183.345198
" clip-path="url(#pa42b8588b3)" style="fill: none; stroke: #ffffff; stroke-width: 2; stroke-linecap: square"/>
   </g>
  </g>
 </g>
 <defs>
  <clipPath id="pa42b8588b3">
   <rect x="7.2" y="7.2" width="344.803993" height="203.957597"/>
  </clipPath>
 </defs>
</svg>
