<?xml version="1.0" encoding="utf-8" standalone="no"?>
<!DOCTYPE svg PUBLIC "-//W3C//DTD SVG 1.1//EN"
  "http://www.w3.org/Graphics/SVG/1.1/DTD/svg11.dtd">
<svg xmlns:xlink="http://www.w3.org/1999/xlink" width="324pt" height="249.12pt" viewBox="0 0 324 249.12" xmlns="http://www.w3.org/2000/svg" version="1.1">
 <metadata>
  <rdf:RDF xmlns:dc="http://purl.org/dc/elements/1.1/" xmlns:cc="http://creativecommons.org/ns#" xmlns:rdf="http://www.w3.org/1999/02/22-rdf-syntax-ns#">
   <cc:Work>
    <dc:type rdf:resource="http://purl.org/dc/dcmitype/StillImage"/>
    <dc:date>2023-05-15T23:57:41.724118</dc:date>
    <dc:format>image/svg+xml</dc:format>
    <dc:creator>
     <cc:Agent>
      <dc:title>Matplotlib v3.7.1, https://matplotlib.org/</dc:title>
     </cc:Agent>
    </dc:creator>
   </cc:Work>
  </rdf:RDF>
 </metadata>
 <defs>
  <style type="text/css">*{stroke-linejoin: round; stroke-linecap: butt}</style>
 </defs>
 <g id="figure_1">
  <g id="patch_1">
   <path d="M 0 249.12
L 324 249.12
L 324 0
L 0 0
z
" style="fill: #ffffff"/>
  </g>
  <g id="axes_1">
   <g id="patch_2">
    <path d="M 40.5 221.7168
L 291.6 221.7168
L 291.6 29.8944
L 40.5 29.8944
z
" style="fill: #ffffff"/>
   </g>
   <g id="patch_3">
    <path d="M 51.913636 221.7168
L 55.77332 221.7168
L 55.77332 39.0288
L 51.913636 39.0288
z
" clip-path="url(#paa342f64f1)" style="fill: #001219"/>
   </g>
   <g id="patch_4">
    <path d="M 62.941304 221.7168
L 66.800988 221.7168
L 66.800988 170.56416
L 62.941304 170.56416
z
" clip-path="url(#paa342f64f1)" style="fill: #001219"/>
   </g>
   <g id="patch_5">
    <path d="M 73.968972 221.7168
L 77.828656 221.7168
L 77.828656 64.60512
L 73.968972 64.60512
z
" clip-path="url(#paa342f64f1)" style="fill: #001219"/>
   </g>
   <g id="patch_6">
    <path d="M 84.99664 221.7168
L 88.856324 221.7168
L 88.856324 170.56416
L 84.99664 170.56416
z
" clip-path="url(#paa342f64f1)" style="fill: #001219"/>
   </g>
   <g id="patch_7">
    <path d="M 96.024308 221.7168
L 99.883992 221.7168
L 99.883992 82.87392
L 96.024308 82.87392
z
" clip-path="url(#paa342f64f1)" style="fill: #001219"/>
   </g>
   <g id="patch_8">
    <path d="M 107.051976 221.7168
L 110.91166 221.7168
L 110.91166 192.48672
L 107.051976 192.48672
z
" clip-path="url(#paa342f64f1)" style="fill: #001219"/>
   </g>
   <g id="patch_9">
    <path d="M 118.079644 221.7168
L 121.939328 221.7168
L 121.939328 75.5664
L 118.079644 75.5664
z
" clip-path="url(#paa342f64f1)" style="fill: #001219"/>
   </g>
   <g id="patch_10">
    <path d="M 129.107312 221.7168
L 132.966996 221.7168
L 132.966996 148.6416
L 129.107312 148.6416
z
" clip-path="url(#paa342f64f1)" style="fill: #001219"/>
   </g>
   <g id="patch_11">
    <path d="M 140.13498 221.7168
L 143.994664 221.7168
L 143.994664 148.6416
L 140.13498 148.6416
z
" clip-path="url(#paa342f64f1)" style="fill: #001219"/>
   </g>
   <g id="patch_12">
    <path d="M 151.162648 221.7168
L 155.022332 221.7168
L 155.022332 177.87168
L 151.162648 177.87168
z
" clip-path="url(#paa342f64f1)" style="fill: #001219"/>
   </g>
   <g id="patch_13">
    <path d="M 162.190316 221.7168
L 166.05 221.7168
L 166.05 148.6416
L 162.190316 148.6416
z
" clip-path="url(#paa342f64f1)" style="fill: #001219"/>
   </g>
   <g id="patch_14">
    <path d="M 173.217984 221.7168
L 177.077668 221.7168
L 177.077668 126.71904
L 173.217984 126.71904
z
" clip-path="url(#paa342f64f1)" style="fill: #001219"/>
   </g>
   <g id="patch_15">
    <path d="M 184.245652 221.7168
L 188.105336 221.7168
L 188.105336 159.60288
L 184.245652 159.60288
z
" clip-path="url(#paa342f64f1)" style="fill: #001219"/>
   </g>
   <g id="patch_16">
    <path d="M 195.27332 221.7168
L 199.133004 221.7168
L 199.133004 207.10176
L 195.27332 207.10176
z
" clip-path="url(#paa342f64f1)" style="fill: #001219"/>
   </g>
   <g id="patch_17">
    <path d="M 206.300988 221.7168
L 210.160672 221.7168
L 210.160672 174.21792
L 206.300988 174.21792
z
" clip-path="url(#paa342f64f1)" style="fill: #001219"/>
   </g>
   <g id="patch_18">
    <path d="M 217.328656 221.7168
L 221.18834 221.7168
L 221.18834 214.40928
L 217.328656 214.40928
z
" clip-path="url(#paa342f64f1)" style="fill: #001219"/>
   </g>
   <g id="patch_19">
    <path d="M 228.356324 221.7168
L 232.216008 221.7168
L 232.216008 126.71904
L 228.356324 126.71904
z
" clip-path="url(#paa342f64f1)" style="fill: #001219"/>
   </g>
   <g id="patch_20">
    <path d="M 239.383992 221.7168
L 243.243676 221.7168
L 243.243676 90.18144
L 239.383992 90.18144
z
" clip-path="url(#paa342f64f1)" style="fill: #001219"/>
   </g>
   <g id="patch_21">
    <path d="M 250.41166 221.7168
L 254.271344 221.7168
L 254.271344 126.71904
L 250.41166 126.71904
z
" clip-path="url(#paa342f64f1)" style="fill: #001219"/>
   </g>
   <g id="patch_22">
    <path d="M 261.439328 221.7168
L 265.299012 221.7168
L 265.299012 174.21792
L 261.439328 174.21792
z
" clip-path="url(#paa342f64f1)" style="fill: #001219"/>
   </g>
   <g id="patch_23">
    <path d="M 272.466996 221.7168
L 276.32668 221.7168
L 276.32668 170.56416
L 272.466996 170.56416
z
" clip-path="url(#paa342f64f1)" style="fill: #001219"/>
   </g>
   <g id="patch_24">
    <path d="M 55.77332 221.7168
L 59.633004 221.7168
L 59.633004 112.104
L 55.77332 112.104
z
" clip-path="url(#paa342f64f1)" style="fill: #005f73"/>
   </g>
   <g id="patch_25">
    <path d="M 66.800988 221.7168
L 70.660672 221.7168
L 70.660672 104.79648
L 66.800988 104.79648
z
" clip-path="url(#paa342f64f1)" style="fill: #005f73"/>
   </g>
   <g id="patch_26">
    <path d="M 77.828656 221.7168
L 81.68834 221.7168
L 81.68834 104.79648
L 77.828656 104.79648
z
" clip-path="url(#paa342f64f1)" style="fill: #005f73"/>
   </g>
   <g id="patch_27">
    <path d="M 88.856324 221.7168
L 92.716008 221.7168
L 92.716008 112.104
L 88.856324 112.104
z
" clip-path="url(#paa342f64f1)" style="fill: #005f73"/>
   </g>
   <g id="patch_28">
    <path d="M 99.883992 221.7168
L 103.743676 221.7168
L 103.743676 112.104
L 99.883992 112.104
z
" clip-path="url(#paa342f64f1)" style="fill: #005f73"/>
   </g>
   <g id="patch_29">
    <path d="M 110.91166 221.7168
L 114.771344 221.7168
L 114.771344 112.104
L 110.91166 112.104
z
" clip-path="url(#paa342f64f1)" style="fill: #005f73"/>
   </g>
   <g id="patch_30">
    <path d="M 121.939328 221.7168
L 125.799012 221.7168
L 125.799012 104.79648
L 121.939328 104.79648
z
" clip-path="url(#paa342f64f1)" style="fill: #005f73"/>
   </g>
   <g id="patch_31">
    <path d="M 132.966996 221.7168
L 136.82668 221.7168
L 136.82668 112.104
L 132.966996 112.104
z
" clip-path="url(#paa342f64f1)" style="fill: #005f73"/>
   </g>
   <g id="patch_32">
    <path d="M 143.994664 221.7168
L 147.854348 221.7168
L 147.854348 112.104
L 143.994664 112.104
z
" clip-path="url(#paa342f64f1)" style="fill: #005f73"/>
   </g>
   <g id="patch_33">
    <path d="M 155.022332 221.7168
L 158.882016 221.7168
L 158.882016 104.79648
L 155.022332 104.79648
z
" clip-path="url(#paa342f64f1)" style="fill: #005f73"/>
   </g>
   <g id="patch_34">
    <path d="M 166.05 221.7168
L 169.909684 221.7168
L 169.909684 104.79648
L 166.05 104.79648
z
" clip-path="url(#paa342f64f1)" style="fill: #005f73"/>
   </g>
   <g id="patch_35">
    <path d="M 177.077668 221.7168
L 180.937352 221.7168
L 180.937352 112.104
L 177.077668 112.104
z
" clip-path="url(#paa342f64f1)" style="fill: #005f73"/>
   </g>
   <g id="patch_36">
    <path d="M 188.105336 221.7168
L 191.96502 221.7168
L 191.96502 112.104
L 188.105336 112.104
z
" clip-path="url(#paa342f64f1)" style="fill: #005f73"/>
   </g>
   <g id="patch_37">
    <path d="M 199.133004 221.7168
L 202.992688 221.7168
L 202.992688 104.79648
L 199.133004 104.79648
z
" clip-path="url(#paa342f64f1)" style="fill: #005f73"/>
   </g>
   <g id="patch_38">
    <path d="M 210.160672 221.7168
L 214.020356 221.7168
L 214.020356 112.104
L 210.160672 112.104
z
" clip-path="url(#paa342f64f1)" style="fill: #005f73"/>
   </g>
   <g id="patch_39">
    <path d="M 221.18834 221.7168
L 225.048024 221.7168
L 225.048024 104.79648
L 221.18834 104.79648
z
" clip-path="url(#paa342f64f1)" style="fill: #005f73"/>
   </g>
   <g id="patch_40">
    <path d="M 232.216008 221.7168
L 236.075692 221.7168
L 236.075692 112.104
L 232.216008 112.104
z
" clip-path="url(#paa342f64f1)" style="fill: #005f73"/>
   </g>
   <g id="patch_41">
    <path d="M 243.243676 221.7168
L 247.10336 221.7168
L 247.10336 104.79648
L 243.243676 104.79648
z
" clip-path="url(#paa342f64f1)" style="fill: #005f73"/>
   </g>
   <g id="patch_42">
    <path d="M 254.271344 221.7168
L 258.131028 221.7168
L 258.131028 112.104
L 254.271344 112.104
z
" clip-path="url(#paa342f64f1)" style="fill: #005f73"/>
   </g>
   <g id="patch_43">
    <path d="M 265.299012 221.7168
L 269.158696 221.7168
L 269.158696 112.104
L 265.299012 112.104
z
" clip-path="url(#paa342f64f1)" style="fill: #005f73"/>
   </g>
   <g id="patch_44">
    <path d="M 276.32668 221.7168
L 280.186364 221.7168
L 280.186364 104.79648
L 276.32668 104.79648
z
" clip-path="url(#paa342f64f1)" style="fill: #005f73"/>
   </g>
   <g id="matplotlib.axis_1">
    <g id="xtick_1">
     <g id="line2d_1">
      <defs>
       <path id="mc650873828" d="M 0 0
L 0 3.5
" style="stroke: #000000; stroke-width: 0.8"/>
      </defs>
      <g>
       <use xlink:href="#mc650873828" x="55.77332" y="221.7168" style="stroke: #000000; stroke-width: 0.8"/>
      </g>
     </g>
     <g id="text_1">
      <!-- qaoa_n3 -->
      <g transform="translate(58.305351 271.140238) rotate(-90) scale(0.1 -0.1)">
       <defs>
        <path id="DejaVuSans-71" d="M 947 1747
Q 947 1113 1208 752
Q 1469 391 1925 391
Q 2381 391 2643 752
Q 2906 1113 2906 1747
Q 2906 2381 2643 2742
Q 2381 3103 1925 3103
Q 1469 3103 1208 2742
Q 947 2381 947 1747
z
M 2906 525
Q 2725 213 2448 61
Q 2172 -91 1784 -91
Q 1150 -91 751 415
Q 353 922 353 1747
Q 353 2572 751 3078
Q 1150 3584 1784 3584
Q 2172 3584 2448 3432
Q 2725 3281 2906 2969
L 2906 3500
L 3481 3500
L 3481 -1331
L 2906 -1331
L 2906 525
z
" transform="scale(0.015625)"/>
        <path id="DejaVuSans-61" d="M 2194 1759
Q 1497 1759 1228 1600
Q 959 1441 959 1056
Q 959 750 1161 570
Q 1363 391 1709 391
Q 2188 391 2477 730
Q 2766 1069 2766 1631
L 2766 1759
L 2194 1759
z
M 3341 1997
L 3341 0
L 2766 0
L 2766 531
Q 2569 213 2275 61
Q 1981 -91 1556 -91
Q 1019 -91 701 211
Q 384 513 384 1019
Q 384 1609 779 1909
Q 1175 2209 1959 2209
L 2766 2209
L 2766 2266
Q 2766 2663 2505 2880
Q 2244 3097 1772 3097
Q 1472 3097 1187 3025
Q 903 2953 641 2809
L 641 3341
Q 956 3463 1253 3523
Q 1550 3584 1831 3584
Q 2591 3584 2966 3190
Q 3341 2797 3341 1997
z
" transform="scale(0.015625)"/>
        <path id="DejaVuSans-6f" d="M 1959 3097
Q 1497 3097 1228 2736
Q 959 2375 959 1747
Q 959 1119 1226 758
Q 1494 397 1959 397
Q 2419 397 2687 759
Q 2956 1122 2956 1747
Q 2956 2369 2687 2733
Q 2419 3097 1959 3097
z
M 1959 3584
Q 2709 3584 3137 3096
Q 3566 2609 3566 1747
Q 3566 888 3137 398
Q 2709 -91 1959 -91
Q 1206 -91 779 398
Q 353 888 353 1747
Q 353 2609 779 3096
Q 1206 3584 1959 3584
z
" transform="scale(0.015625)"/>
        <path id="DejaVuSans-5f" d="M 3263 -1063
L 3263 -1509
L -63 -1509
L -63 -1063
L 3263 -1063
z
" transform="scale(0.015625)"/>
        <path id="DejaVuSans-6e" d="M 3513 2113
L 3513 0
L 2938 0
L 2938 2094
Q 2938 2591 2744 2837
Q 2550 3084 2163 3084
Q 1697 3084 1428 2787
Q 1159 2491 1159 1978
L 1159 0
L 581 0
L 581 3500
L 1159 3500
L 1159 2956
Q 1366 3272 1645 3428
Q 1925 3584 2291 3584
Q 2894 3584 3203 3211
Q 3513 2838 3513 2113
z
" transform="scale(0.015625)"/>
        <path id="DejaVuSans-33" d="M 2597 2516
Q 3050 2419 3304 2112
Q 3559 1806 3559 1356
Q 3559 666 3084 287
Q 2609 -91 1734 -91
Q 1441 -91 1130 -33
Q 819 25 488 141
L 488 750
Q 750 597 1062 519
Q 1375 441 1716 441
Q 2309 441 2620 675
Q 2931 909 2931 1356
Q 2931 1769 2642 2001
Q 2353 2234 1838 2234
L 1294 2234
L 1294 2753
L 1863 2753
Q 2328 2753 2575 2939
Q 2822 3125 2822 3475
Q 2822 3834 2567 4026
Q 2313 4219 1838 4219
Q 1578 4219 1281 4162
Q 984 4106 628 3988
L 628 4550
Q 988 4650 1302 4700
Q 1616 4750 1894 4750
Q 2613 4750 3031 4423
Q 3450 4097 3450 3541
Q 3450 3153 3228 2886
Q 3006 2619 2597 2516
z
" transform="scale(0.015625)"/>
       </defs>
       <use xlink:href="#DejaVuSans-71"/>
       <use xlink:href="#DejaVuSans-61" x="63.476562"/>
       <use xlink:href="#DejaVuSans-6f" x="124.755859"/>
       <use xlink:href="#DejaVuSans-61" x="185.9375"/>
       <use xlink:href="#DejaVuSans-5f" x="247.216797"/>
       <use xlink:href="#DejaVuSans-6e" x="297.216797"/>
       <use xlink:href="#DejaVuSans-33" x="360.595703"/>
      </g>
     </g>
    </g>
    <g id="xtick_2">
     <g id="line2d_2">
      <g>
       <use xlink:href="#mc650873828" x="66.800988" y="221.7168" style="stroke: #000000; stroke-width: 0.8"/>
      </g>
     </g>
     <g id="text_2">
      <!-- grover_n2 -->
      <g transform="translate(69.333019 278.952738) rotate(-90) scale(0.1 -0.1)">
       <defs>
        <path id="DejaVuSans-67" d="M 2906 1791
Q 2906 2416 2648 2759
Q 2391 3103 1925 3103
Q 1463 3103 1205 2759
Q 947 2416 947 1791
Q 947 1169 1205 825
Q 1463 481 1925 481
Q 2391 481 2648 825
Q 2906 1169 2906 1791
z
M 3481 434
Q 3481 -459 3084 -895
Q 2688 -1331 1869 -1331
Q 1566 -1331 1297 -1286
Q 1028 -1241 775 -1147
L 775 -588
Q 1028 -725 1275 -790
Q 1522 -856 1778 -856
Q 2344 -856 2625 -561
Q 2906 -266 2906 331
L 2906 616
Q 2728 306 2450 153
Q 2172 0 1784 0
Q 1141 0 747 490
Q 353 981 353 1791
Q 353 2603 747 3093
Q 1141 3584 1784 3584
Q 2172 3584 2450 3431
Q 2728 3278 2906 2969
L 2906 3500
L 3481 3500
L 3481 434
z
" transform="scale(0.015625)"/>
        <path id="DejaVuSans-72" d="M 2631 2963
Q 2534 3019 2420 3045
Q 2306 3072 2169 3072
Q 1681 3072 1420 2755
Q 1159 2438 1159 1844
L 1159 0
L 581 0
L 581 3500
L 1159 3500
L 1159 2956
Q 1341 3275 1631 3429
Q 1922 3584 2338 3584
Q 2397 3584 2469 3576
Q 2541 3569 2628 3553
L 2631 2963
z
" transform="scale(0.015625)"/>
        <path id="DejaVuSans-76" d="M 191 3500
L 800 3500
L 1894 563
L 2988 3500
L 3597 3500
L 2284 0
L 1503 0
L 191 3500
z
" transform="scale(0.015625)"/>
        <path id="DejaVuSans-65" d="M 3597 1894
L 3597 1613
L 953 1613
Q 991 1019 1311 708
Q 1631 397 2203 397
Q 2534 397 2845 478
Q 3156 559 3463 722
L 3463 178
Q 3153 47 2828 -22
Q 2503 -91 2169 -91
Q 1331 -91 842 396
Q 353 884 353 1716
Q 353 2575 817 3079
Q 1281 3584 2069 3584
Q 2775 3584 3186 3129
Q 3597 2675 3597 1894
z
M 3022 2063
Q 3016 2534 2758 2815
Q 2500 3097 2075 3097
Q 1594 3097 1305 2825
Q 1016 2553 972 2059
L 3022 2063
z
" transform="scale(0.015625)"/>
        <path id="DejaVuSans-32" d="M 1228 531
L 3431 531
L 3431 0
L 469 0
L 469 531
Q 828 903 1448 1529
Q 2069 2156 2228 2338
Q 2531 2678 2651 2914
Q 2772 3150 2772 3378
Q 2772 3750 2511 3984
Q 2250 4219 1831 4219
Q 1534 4219 1204 4116
Q 875 4013 500 3803
L 500 4441
Q 881 4594 1212 4672
Q 1544 4750 1819 4750
Q 2544 4750 2975 4387
Q 3406 4025 3406 3419
Q 3406 3131 3298 2873
Q 3191 2616 2906 2266
Q 2828 2175 2409 1742
Q 1991 1309 1228 531
z
" transform="scale(0.015625)"/>
       </defs>
       <use xlink:href="#DejaVuSans-67"/>
       <use xlink:href="#DejaVuSans-72" x="63.476562"/>
       <use xlink:href="#DejaVuSans-6f" x="102.339844"/>
       <use xlink:href="#DejaVuSans-76" x="163.521484"/>
       <use xlink:href="#DejaVuSans-65" x="222.701172"/>
       <use xlink:href="#DejaVuSans-72" x="284.224609"/>
       <use xlink:href="#DejaVuSans-5f" x="325.337891"/>
       <use xlink:href="#DejaVuSans-6e" x="375.337891"/>
       <use xlink:href="#DejaVuSans-32" x="438.716797"/>
      </g>
     </g>
    </g>
    <g id="xtick_3">
     <g id="line2d_3">
      <g>
       <use xlink:href="#mc650873828" x="77.828656" y="221.7168" style="stroke: #000000; stroke-width: 0.8"/>
      </g>
     </g>
     <g id="text_3">
      <!-- toffoli_n3 -->
      <g transform="translate(80.448969 275.171488) rotate(-90) scale(0.1 -0.1)">
       <defs>
        <path id="DejaVuSans-74" d="M 1172 4494
L 1172 3500
L 2356 3500
L 2356 3053
L 1172 3053
L 1172 1153
Q 1172 725 1289 603
Q 1406 481 1766 481
L 2356 481
L 2356 0
L 1766 0
Q 1100 0 847 248
Q 594 497 594 1153
L 594 3053
L 172 3053
L 172 3500
L 594 3500
L 594 4494
L 1172 4494
z
" transform="scale(0.015625)"/>
        <path id="DejaVuSans-66" d="M 2375 4863
L 2375 4384
L 1825 4384
Q 1516 4384 1395 4259
Q 1275 4134 1275 3809
L 1275 3500
L 2222 3500
L 2222 3053
L 1275 3053
L 1275 0
L 697 0
L 697 3053
L 147 3053
L 147 3500
L 697 3500
L 697 3744
Q 697 4328 969 4595
Q 1241 4863 1831 4863
L 2375 4863
z
" transform="scale(0.015625)"/>
        <path id="DejaVuSans-6c" d="M 603 4863
L 1178 4863
L 1178 0
L 603 0
L 603 4863
z
" transform="scale(0.015625)"/>
        <path id="DejaVuSans-69" d="M 603 3500
L 1178 3500
L 1178 0
L 603 0
L 603 3500
z
M 603 4863
L 1178 4863
L 1178 4134
L 603 4134
L 603 4863
z
" transform="scale(0.015625)"/>
       </defs>
       <use xlink:href="#DejaVuSans-74"/>
       <use xlink:href="#DejaVuSans-6f" x="39.208984"/>
       <use xlink:href="#DejaVuSans-66" x="100.390625"/>
       <use xlink:href="#DejaVuSans-66" x="135.595703"/>
       <use xlink:href="#DejaVuSans-6f" x="170.800781"/>
       <use xlink:href="#DejaVuSans-6c" x="231.982422"/>
       <use xlink:href="#DejaVuSans-69" x="259.765625"/>
       <use xlink:href="#DejaVuSans-5f" x="287.548828"/>
       <use xlink:href="#DejaVuSans-6e" x="337.548828"/>
       <use xlink:href="#DejaVuSans-33" x="400.927734"/>
      </g>
     </g>
    </g>
    <g id="xtick_4">
     <g id="line2d_4">
      <g>
       <use xlink:href="#mc650873828" x="88.856324" y="221.7168" style="stroke: #000000; stroke-width: 0.8"/>
      </g>
     </g>
     <g id="text_4">
      <!-- hs4_n4 -->
      <g transform="translate(91.476637 264.326175) rotate(-90) scale(0.1 -0.1)">
       <defs>
        <path id="DejaVuSans-68" d="M 3513 2113
L 3513 0
L 2938 0
L 2938 2094
Q 2938 2591 2744 2837
Q 2550 3084 2163 3084
Q 1697 3084 1428 2787
Q 1159 2491 1159 1978
L 1159 0
L 581 0
L 581 4863
L 1159 4863
L 1159 2956
Q 1366 3272 1645 3428
Q 1925 3584 2291 3584
Q 2894 3584 3203 3211
Q 3513 2838 3513 2113
z
" transform="scale(0.015625)"/>
        <path id="DejaVuSans-73" d="M 2834 3397
L 2834 2853
Q 2591 2978 2328 3040
Q 2066 3103 1784 3103
Q 1356 3103 1142 2972
Q 928 2841 928 2578
Q 928 2378 1081 2264
Q 1234 2150 1697 2047
L 1894 2003
Q 2506 1872 2764 1633
Q 3022 1394 3022 966
Q 3022 478 2636 193
Q 2250 -91 1575 -91
Q 1294 -91 989 -36
Q 684 19 347 128
L 347 722
Q 666 556 975 473
Q 1284 391 1588 391
Q 1994 391 2212 530
Q 2431 669 2431 922
Q 2431 1156 2273 1281
Q 2116 1406 1581 1522
L 1381 1569
Q 847 1681 609 1914
Q 372 2147 372 2553
Q 372 3047 722 3315
Q 1072 3584 1716 3584
Q 2034 3584 2315 3537
Q 2597 3491 2834 3397
z
" transform="scale(0.015625)"/>
        <path id="DejaVuSans-34" d="M 2419 4116
L 825 1625
L 2419 1625
L 2419 4116
z
M 2253 4666
L 3047 4666
L 3047 1625
L 3713 1625
L 3713 1100
L 3047 1100
L 3047 0
L 2419 0
L 2419 1100
L 313 1100
L 313 1709
L 2253 4666
z
" transform="scale(0.015625)"/>
       </defs>
       <use xlink:href="#DejaVuSans-68"/>
       <use xlink:href="#DejaVuSans-73" x="63.378906"/>
       <use xlink:href="#DejaVuSans-34" x="115.478516"/>
       <use xlink:href="#DejaVuSans-5f" x="179.101562"/>
       <use xlink:href="#DejaVuSans-6e" x="229.101562"/>
       <use xlink:href="#DejaVuSans-34" x="292.480469"/>
      </g>
     </g>
    </g>
    <g id="xtick_5">
     <g id="line2d_5">
      <g>
       <use xlink:href="#mc650873828" x="99.883992" y="221.7168" style="stroke: #000000; stroke-width: 0.8"/>
      </g>
     </g>
     <g id="text_5">
      <!-- variational_n4 -->
      <g transform="translate(102.504305 299.5418) rotate(-90) scale(0.1 -0.1)">
       <use xlink:href="#DejaVuSans-76"/>
       <use xlink:href="#DejaVuSans-61" x="59.179688"/>
       <use xlink:href="#DejaVuSans-72" x="120.458984"/>
       <use xlink:href="#DejaVuSans-69" x="161.572266"/>
       <use xlink:href="#DejaVuSans-61" x="189.355469"/>
       <use xlink:href="#DejaVuSans-74" x="250.634766"/>
       <use xlink:href="#DejaVuSans-69" x="289.84375"/>
       <use xlink:href="#DejaVuSans-6f" x="317.626953"/>
       <use xlink:href="#DejaVuSans-6e" x="378.808594"/>
       <use xlink:href="#DejaVuSans-61" x="442.1875"/>
       <use xlink:href="#DejaVuSans-6c" x="503.466797"/>
       <use xlink:href="#DejaVuSans-5f" x="531.25"/>
       <use xlink:href="#DejaVuSans-6e" x="581.25"/>
       <use xlink:href="#DejaVuSans-34" x="644.628906"/>
      </g>
     </g>
    </g>
    <g id="xtick_6">
     <g id="line2d_6">
      <g>
       <use xlink:href="#mc650873828" x="110.91166" y="221.7168" style="stroke: #000000; stroke-width: 0.8"/>
      </g>
     </g>
     <g id="text_6">
      <!-- deutsch_n2 -->
      <g transform="translate(113.531973 286.221488) rotate(-90) scale(0.1 -0.1)">
       <defs>
        <path id="DejaVuSans-64" d="M 2906 2969
L 2906 4863
L 3481 4863
L 3481 0
L 2906 0
L 2906 525
Q 2725 213 2448 61
Q 2172 -91 1784 -91
Q 1150 -91 751 415
Q 353 922 353 1747
Q 353 2572 751 3078
Q 1150 3584 1784 3584
Q 2172 3584 2448 3432
Q 2725 3281 2906 2969
z
M 947 1747
Q 947 1113 1208 752
Q 1469 391 1925 391
Q 2381 391 2643 752
Q 2906 1113 2906 1747
Q 2906 2381 2643 2742
Q 2381 3103 1925 3103
Q 1469 3103 1208 2742
Q 947 2381 947 1747
z
" transform="scale(0.015625)"/>
        <path id="DejaVuSans-75" d="M 544 1381
L 544 3500
L 1119 3500
L 1119 1403
Q 1119 906 1312 657
Q 1506 409 1894 409
Q 2359 409 2629 706
Q 2900 1003 2900 1516
L 2900 3500
L 3475 3500
L 3475 0
L 2900 0
L 2900 538
Q 2691 219 2414 64
Q 2138 -91 1772 -91
Q 1169 -91 856 284
Q 544 659 544 1381
z
M 1991 3584
L 1991 3584
z
" transform="scale(0.015625)"/>
        <path id="DejaVuSans-63" d="M 3122 3366
L 3122 2828
Q 2878 2963 2633 3030
Q 2388 3097 2138 3097
Q 1578 3097 1268 2742
Q 959 2388 959 1747
Q 959 1106 1268 751
Q 1578 397 2138 397
Q 2388 397 2633 464
Q 2878 531 3122 666
L 3122 134
Q 2881 22 2623 -34
Q 2366 -91 2075 -91
Q 1284 -91 818 406
Q 353 903 353 1747
Q 353 2603 823 3093
Q 1294 3584 2113 3584
Q 2378 3584 2631 3529
Q 2884 3475 3122 3366
z
" transform="scale(0.015625)"/>
       </defs>
       <use xlink:href="#DejaVuSans-64"/>
       <use xlink:href="#DejaVuSans-65" x="63.476562"/>
       <use xlink:href="#DejaVuSans-75" x="125"/>
       <use xlink:href="#DejaVuSans-74" x="188.378906"/>
       <use xlink:href="#DejaVuSans-73" x="227.587891"/>
       <use xlink:href="#DejaVuSans-63" x="279.6875"/>
       <use xlink:href="#DejaVuSans-68" x="334.667969"/>
       <use xlink:href="#DejaVuSans-5f" x="398.046875"/>
       <use xlink:href="#DejaVuSans-6e" x="448.046875"/>
       <use xlink:href="#DejaVuSans-32" x="511.425781"/>
      </g>
     </g>
    </g>
    <g id="xtick_7">
     <g id="line2d_7">
      <g>
       <use xlink:href="#mc650873828" x="121.939328" y="221.7168" style="stroke: #000000; stroke-width: 0.8"/>
      </g>
     </g>
     <g id="text_7">
      <!-- vqe_n4 -->
      <g transform="translate(124.420578 264.837112) rotate(-90) scale(0.1 -0.1)">
       <use xlink:href="#DejaVuSans-76"/>
       <use xlink:href="#DejaVuSans-71" x="59.179688"/>
       <use xlink:href="#DejaVuSans-65" x="122.65625"/>
       <use xlink:href="#DejaVuSans-5f" x="184.179688"/>
       <use xlink:href="#DejaVuSans-6e" x="234.179688"/>
       <use xlink:href="#DejaVuSans-34" x="297.558594"/>
      </g>
     </g>
    </g>
    <g id="xtick_8">
     <g id="line2d_8">
      <g>
       <use xlink:href="#mc650873828" x="132.966996" y="221.7168" style="stroke: #000000; stroke-width: 0.8"/>
      </g>
     </g>
     <g id="text_8">
      <!-- bell_n4 -->
      <g transform="translate(135.587309 264.474613) rotate(-90) scale(0.1 -0.1)">
       <defs>
        <path id="DejaVuSans-62" d="M 3116 1747
Q 3116 2381 2855 2742
Q 2594 3103 2138 3103
Q 1681 3103 1420 2742
Q 1159 2381 1159 1747
Q 1159 1113 1420 752
Q 1681 391 2138 391
Q 2594 391 2855 752
Q 3116 1113 3116 1747
z
M 1159 2969
Q 1341 3281 1617 3432
Q 1894 3584 2278 3584
Q 2916 3584 3314 3078
Q 3713 2572 3713 1747
Q 3713 922 3314 415
Q 2916 -91 2278 -91
Q 1894 -91 1617 61
Q 1341 213 1159 525
L 1159 0
L 581 0
L 581 4863
L 1159 4863
L 1159 2969
z
" transform="scale(0.015625)"/>
       </defs>
       <use xlink:href="#DejaVuSans-62"/>
       <use xlink:href="#DejaVuSans-65" x="63.476562"/>
       <use xlink:href="#DejaVuSans-6c" x="125"/>
       <use xlink:href="#DejaVuSans-6c" x="152.783203"/>
       <use xlink:href="#DejaVuSans-5f" x="180.566406"/>
       <use xlink:href="#DejaVuSans-6e" x="230.566406"/>
       <use xlink:href="#DejaVuSans-34" x="293.945312"/>
      </g>
     </g>
    </g>
    <g id="xtick_9">
     <g id="line2d_9">
      <g>
       <use xlink:href="#mc650873828" x="143.994664" y="221.7168" style="stroke: #000000; stroke-width: 0.8"/>
      </g>
     </g>
     <g id="text_9">
      <!-- quantumwalks_n2 -->
      <g transform="translate(146.614977 319.651175) rotate(-90) scale(0.1 -0.1)">
       <defs>
        <path id="DejaVuSans-6d" d="M 3328 2828
Q 3544 3216 3844 3400
Q 4144 3584 4550 3584
Q 5097 3584 5394 3201
Q 5691 2819 5691 2113
L 5691 0
L 5113 0
L 5113 2094
Q 5113 2597 4934 2840
Q 4756 3084 4391 3084
Q 3944 3084 3684 2787
Q 3425 2491 3425 1978
L 3425 0
L 2847 0
L 2847 2094
Q 2847 2600 2669 2842
Q 2491 3084 2119 3084
Q 1678 3084 1418 2786
Q 1159 2488 1159 1978
L 1159 0
L 581 0
L 581 3500
L 1159 3500
L 1159 2956
Q 1356 3278 1631 3431
Q 1906 3584 2284 3584
Q 2666 3584 2933 3390
Q 3200 3197 3328 2828
z
" transform="scale(0.015625)"/>
        <path id="DejaVuSans-77" d="M 269 3500
L 844 3500
L 1563 769
L 2278 3500
L 2956 3500
L 3675 769
L 4391 3500
L 4966 3500
L 4050 0
L 3372 0
L 2619 2869
L 1863 0
L 1184 0
L 269 3500
z
" transform="scale(0.015625)"/>
        <path id="DejaVuSans-6b" d="M 581 4863
L 1159 4863
L 1159 1991
L 2875 3500
L 3609 3500
L 1753 1863
L 3688 0
L 2938 0
L 1159 1709
L 1159 0
L 581 0
L 581 4863
z
" transform="scale(0.015625)"/>
       </defs>
       <use xlink:href="#DejaVuSans-71"/>
       <use xlink:href="#DejaVuSans-75" x="63.476562"/>
       <use xlink:href="#DejaVuSans-61" x="126.855469"/>
       <use xlink:href="#DejaVuSans-6e" x="188.134766"/>
       <use xlink:href="#DejaVuSans-74" x="251.513672"/>
       <use xlink:href="#DejaVuSans-75" x="290.722656"/>
       <use xlink:href="#DejaVuSans-6d" x="354.101562"/>
       <use xlink:href="#DejaVuSans-77" x="451.513672"/>
       <use xlink:href="#DejaVuSans-61" x="533.300781"/>
       <use xlink:href="#DejaVuSans-6c" x="594.580078"/>
       <use xlink:href="#DejaVuSans-6b" x="622.363281"/>
       <use xlink:href="#DejaVuSans-73" x="680.273438"/>
       <use xlink:href="#DejaVuSans-5f" x="732.373047"/>
       <use xlink:href="#DejaVuSans-6e" x="782.373047"/>
       <use xlink:href="#DejaVuSans-32" x="845.751953"/>
      </g>
     </g>
    </g>
    <g id="xtick_10">
     <g id="line2d_10">
      <g>
       <use xlink:href="#mc650873828" x="155.022332" y="221.7168" style="stroke: #000000; stroke-width: 0.8"/>
      </g>
     </g>
     <g id="text_10">
      <!-- inverseqft_n4 -->
      <g transform="translate(157.642645 296.6918) rotate(-90) scale(0.1 -0.1)">
       <use xlink:href="#DejaVuSans-69"/>
       <use xlink:href="#DejaVuSans-6e" x="27.783203"/>
       <use xlink:href="#DejaVuSans-76" x="91.162109"/>
       <use xlink:href="#DejaVuSans-65" x="150.341797"/>
       <use xlink:href="#DejaVuSans-72" x="211.865234"/>
       <use xlink:href="#DejaVuSans-73" x="252.978516"/>
       <use xlink:href="#DejaVuSans-65" x="305.078125"/>
       <use xlink:href="#DejaVuSans-71" x="366.601562"/>
       <use xlink:href="#DejaVuSans-66" x="430.078125"/>
       <use xlink:href="#DejaVuSans-74" x="463.533203"/>
       <use xlink:href="#DejaVuSans-5f" x="502.742188"/>
       <use xlink:href="#DejaVuSans-6e" x="552.742188"/>
       <use xlink:href="#DejaVuSans-34" x="616.121094"/>
      </g>
     </g>
    </g>
    <g id="xtick_11">
     <g id="line2d_11">
      <g>
       <use xlink:href="#mc650873828" x="166.05" y="221.7168" style="stroke: #000000; stroke-width: 0.8"/>
      </g>
     </g>
     <g id="text_11">
      <!-- dnn_n2 -->
      <g transform="translate(168.670313 265.440238) rotate(-90) scale(0.1 -0.1)">
       <use xlink:href="#DejaVuSans-64"/>
       <use xlink:href="#DejaVuSans-6e" x="63.476562"/>
       <use xlink:href="#DejaVuSans-6e" x="126.855469"/>
       <use xlink:href="#DejaVuSans-5f" x="190.234375"/>
       <use xlink:href="#DejaVuSans-6e" x="240.234375"/>
       <use xlink:href="#DejaVuSans-32" x="303.613281"/>
      </g>
     </g>
    </g>
    <g id="xtick_12">
     <g id="line2d_12">
      <g>
       <use xlink:href="#mc650873828" x="177.077668" y="221.7168" style="stroke: #000000; stroke-width: 0.8"/>
      </g>
     </g>
     <g id="text_12">
      <!-- basis_test_n4 -->
      <g transform="translate(179.69798 296.293363) rotate(-90) scale(0.1 -0.1)">
       <use xlink:href="#DejaVuSans-62"/>
       <use xlink:href="#DejaVuSans-61" x="63.476562"/>
       <use xlink:href="#DejaVuSans-73" x="124.755859"/>
       <use xlink:href="#DejaVuSans-69" x="176.855469"/>
       <use xlink:href="#DejaVuSans-73" x="204.638672"/>
       <use xlink:href="#DejaVuSans-5f" x="256.738281"/>
       <use xlink:href="#DejaVuSans-74" x="306.738281"/>
       <use xlink:href="#DejaVuSans-65" x="345.947266"/>
       <use xlink:href="#DejaVuSans-73" x="407.470703"/>
       <use xlink:href="#DejaVuSans-74" x="459.570312"/>
       <use xlink:href="#DejaVuSans-5f" x="498.779297"/>
       <use xlink:href="#DejaVuSans-6e" x="548.779297"/>
       <use xlink:href="#DejaVuSans-34" x="612.158203"/>
      </g>
     </g>
    </g>
    <g id="xtick_13">
     <g id="line2d_13">
      <g>
       <use xlink:href="#mc650873828" x="188.105336" y="221.7168" style="stroke: #000000; stroke-width: 0.8"/>
      </g>
     </g>
     <g id="text_13">
      <!-- cat_state_n4 -->
      <g transform="translate(190.586586 292.294925) rotate(-90) scale(0.1 -0.1)">
       <use xlink:href="#DejaVuSans-63"/>
       <use xlink:href="#DejaVuSans-61" x="54.980469"/>
       <use xlink:href="#DejaVuSans-74" x="116.259766"/>
       <use xlink:href="#DejaVuSans-5f" x="155.46875"/>
       <use xlink:href="#DejaVuSans-73" x="205.46875"/>
       <use xlink:href="#DejaVuSans-74" x="257.568359"/>
       <use xlink:href="#DejaVuSans-61" x="296.777344"/>
       <use xlink:href="#DejaVuSans-74" x="358.056641"/>
       <use xlink:href="#DejaVuSans-65" x="397.265625"/>
       <use xlink:href="#DejaVuSans-5f" x="458.789062"/>
       <use xlink:href="#DejaVuSans-6e" x="508.789062"/>
       <use xlink:href="#DejaVuSans-34" x="572.167969"/>
      </g>
     </g>
    </g>
    <g id="xtick_14">
     <g id="line2d_14">
      <g>
       <use xlink:href="#mc650873828" x="199.133004" y="221.7168" style="stroke: #000000; stroke-width: 0.8"/>
      </g>
     </g>
     <g id="text_14">
      <!-- bb84_n8 -->
      <g transform="translate(201.753316 271.838675) rotate(-90) scale(0.1 -0.1)">
       <defs>
        <path id="DejaVuSans-38" d="M 2034 2216
Q 1584 2216 1326 1975
Q 1069 1734 1069 1313
Q 1069 891 1326 650
Q 1584 409 2034 409
Q 2484 409 2743 651
Q 3003 894 3003 1313
Q 3003 1734 2745 1975
Q 2488 2216 2034 2216
z
M 1403 2484
Q 997 2584 770 2862
Q 544 3141 544 3541
Q 544 4100 942 4425
Q 1341 4750 2034 4750
Q 2731 4750 3128 4425
Q 3525 4100 3525 3541
Q 3525 3141 3298 2862
Q 3072 2584 2669 2484
Q 3125 2378 3379 2068
Q 3634 1759 3634 1313
Q 3634 634 3220 271
Q 2806 -91 2034 -91
Q 1263 -91 848 271
Q 434 634 434 1313
Q 434 1759 690 2068
Q 947 2378 1403 2484
z
M 1172 3481
Q 1172 3119 1398 2916
Q 1625 2713 2034 2713
Q 2441 2713 2670 2916
Q 2900 3119 2900 3481
Q 2900 3844 2670 4047
Q 2441 4250 2034 4250
Q 1625 4250 1398 4047
Q 1172 3844 1172 3481
z
" transform="scale(0.015625)"/>
       </defs>
       <use xlink:href="#DejaVuSans-62"/>
       <use xlink:href="#DejaVuSans-62" x="63.476562"/>
       <use xlink:href="#DejaVuSans-38" x="126.953125"/>
       <use xlink:href="#DejaVuSans-34" x="190.576172"/>
       <use xlink:href="#DejaVuSans-5f" x="254.199219"/>
       <use xlink:href="#DejaVuSans-6e" x="304.199219"/>
       <use xlink:href="#DejaVuSans-38" x="367.578125"/>
      </g>
     </g>
    </g>
    <g id="xtick_15">
     <g id="line2d_15">
      <g>
       <use xlink:href="#mc650873828" x="210.160672" y="221.7168" style="stroke: #000000; stroke-width: 0.8"/>
      </g>
     </g>
     <g id="text_15">
      <!-- teleportation_n3 -->
      <g transform="translate(212.780984 311.202738) rotate(-90) scale(0.1 -0.1)">
       <defs>
        <path id="DejaVuSans-70" d="M 1159 525
L 1159 -1331
L 581 -1331
L 581 3500
L 1159 3500
L 1159 2969
Q 1341 3281 1617 3432
Q 1894 3584 2278 3584
Q 2916 3584 3314 3078
Q 3713 2572 3713 1747
Q 3713 922 3314 415
Q 2916 -91 2278 -91
Q 1894 -91 1617 61
Q 1341 213 1159 525
z
M 3116 1747
Q 3116 2381 2855 2742
Q 2594 3103 2138 3103
Q 1681 3103 1420 2742
Q 1159 2381 1159 1747
Q 1159 1113 1420 752
Q 1681 391 2138 391
Q 2594 391 2855 752
Q 3116 1113 3116 1747
z
" transform="scale(0.015625)"/>
       </defs>
       <use xlink:href="#DejaVuSans-74"/>
       <use xlink:href="#DejaVuSans-65" x="39.208984"/>
       <use xlink:href="#DejaVuSans-6c" x="100.732422"/>
       <use xlink:href="#DejaVuSans-65" x="128.515625"/>
       <use xlink:href="#DejaVuSans-70" x="190.039062"/>
       <use xlink:href="#DejaVuSans-6f" x="253.515625"/>
       <use xlink:href="#DejaVuSans-72" x="314.697266"/>
       <use xlink:href="#DejaVuSans-74" x="355.810547"/>
       <use xlink:href="#DejaVuSans-61" x="395.019531"/>
       <use xlink:href="#DejaVuSans-74" x="456.298828"/>
       <use xlink:href="#DejaVuSans-69" x="495.507812"/>
       <use xlink:href="#DejaVuSans-6f" x="523.291016"/>
       <use xlink:href="#DejaVuSans-6e" x="584.472656"/>
       <use xlink:href="#DejaVuSans-5f" x="647.851562"/>
       <use xlink:href="#DejaVuSans-6e" x="697.851562"/>
       <use xlink:href="#DejaVuSans-33" x="761.230469"/>
      </g>
     </g>
    </g>
    <g id="xtick_16">
     <g id="line2d_16">
      <g>
       <use xlink:href="#mc650873828" x="221.18834" y="221.7168" style="stroke: #000000; stroke-width: 0.8"/>
      </g>
     </g>
     <g id="text_16">
      <!-- qrng_n4 -->
      <g transform="translate(223.66959 269.387113) rotate(-90) scale(0.1 -0.1)">
       <use xlink:href="#DejaVuSans-71"/>
       <use xlink:href="#DejaVuSans-72" x="63.476562"/>
       <use xlink:href="#DejaVuSans-6e" x="102.839844"/>
       <use xlink:href="#DejaVuSans-67" x="166.21875"/>
       <use xlink:href="#DejaVuSans-5f" x="229.695312"/>
       <use xlink:href="#DejaVuSans-6e" x="279.695312"/>
       <use xlink:href="#DejaVuSans-34" x="343.074219"/>
      </g>
     </g>
    </g>
    <g id="xtick_17">
     <g id="line2d_17">
      <g>
       <use xlink:href="#mc650873828" x="232.216008" y="221.7168" style="stroke: #000000; stroke-width: 0.8"/>
      </g>
     </g>
     <g id="text_17">
      <!-- qec_sm_n5 -->
      <g transform="translate(234.697258 284.3668) rotate(-90) scale(0.1 -0.1)">
       <defs>
        <path id="DejaVuSans-35" d="M 691 4666
L 3169 4666
L 3169 4134
L 1269 4134
L 1269 2991
Q 1406 3038 1543 3061
Q 1681 3084 1819 3084
Q 2600 3084 3056 2656
Q 3513 2228 3513 1497
Q 3513 744 3044 326
Q 2575 -91 1722 -91
Q 1428 -91 1123 -41
Q 819 9 494 109
L 494 744
Q 775 591 1075 516
Q 1375 441 1709 441
Q 2250 441 2565 725
Q 2881 1009 2881 1497
Q 2881 1984 2565 2268
Q 2250 2553 1709 2553
Q 1456 2553 1204 2497
Q 953 2441 691 2322
L 691 4666
z
" transform="scale(0.015625)"/>
       </defs>
       <use xlink:href="#DejaVuSans-71"/>
       <use xlink:href="#DejaVuSans-65" x="63.476562"/>
       <use xlink:href="#DejaVuSans-63" x="125"/>
       <use xlink:href="#DejaVuSans-5f" x="179.980469"/>
       <use xlink:href="#DejaVuSans-73" x="229.980469"/>
       <use xlink:href="#DejaVuSans-6d" x="282.080078"/>
       <use xlink:href="#DejaVuSans-5f" x="379.492188"/>
       <use xlink:href="#DejaVuSans-6e" x="429.492188"/>
       <use xlink:href="#DejaVuSans-35" x="492.871094"/>
      </g>
     </g>
    </g>
    <g id="xtick_18">
     <g id="line2d_18">
      <g>
       <use xlink:href="#mc650873828" x="243.243676" y="221.7168" style="stroke: #000000; stroke-width: 0.8"/>
      </g>
     </g>
     <g id="text_18">
      <!-- adder_n4 -->
      <g transform="translate(245.863988 275.505863) rotate(-90) scale(0.1 -0.1)">
       <use xlink:href="#DejaVuSans-61"/>
       <use xlink:href="#DejaVuSans-64" x="61.279297"/>
       <use xlink:href="#DejaVuSans-64" x="124.755859"/>
       <use xlink:href="#DejaVuSans-65" x="188.232422"/>
       <use xlink:href="#DejaVuSans-72" x="249.755859"/>
       <use xlink:href="#DejaVuSans-5f" x="290.869141"/>
       <use xlink:href="#DejaVuSans-6e" x="340.869141"/>
       <use xlink:href="#DejaVuSans-34" x="404.248047"/>
      </g>
     </g>
    </g>
    <g id="xtick_19">
     <g id="line2d_19">
      <g>
       <use xlink:href="#mc650873828" x="254.271344" y="221.7168" style="stroke: #000000; stroke-width: 0.8"/>
      </g>
     </g>
     <g id="text_19">
      <!-- linearsolver_n3 -->
      <g transform="translate(256.891656 304.9918) rotate(-90) scale(0.1 -0.1)">
       <use xlink:href="#DejaVuSans-6c"/>
       <use xlink:href="#DejaVuSans-69" x="27.783203"/>
       <use xlink:href="#DejaVuSans-6e" x="55.566406"/>
       <use xlink:href="#DejaVuSans-65" x="118.945312"/>
       <use xlink:href="#DejaVuSans-61" x="180.46875"/>
       <use xlink:href="#DejaVuSans-72" x="241.748047"/>
       <use xlink:href="#DejaVuSans-73" x="282.861328"/>
       <use xlink:href="#DejaVuSans-6f" x="334.960938"/>
       <use xlink:href="#DejaVuSans-6c" x="396.142578"/>
       <use xlink:href="#DejaVuSans-76" x="423.925781"/>
       <use xlink:href="#DejaVuSans-65" x="483.105469"/>
       <use xlink:href="#DejaVuSans-72" x="544.628906"/>
       <use xlink:href="#DejaVuSans-5f" x="585.742188"/>
       <use xlink:href="#DejaVuSans-6e" x="635.742188"/>
       <use xlink:href="#DejaVuSans-33" x="699.121094"/>
      </g>
     </g>
    </g>
    <g id="xtick_20">
     <g id="line2d_20">
      <g>
       <use xlink:href="#mc650873828" x="265.299012" y="221.7168" style="stroke: #000000; stroke-width: 0.8"/>
      </g>
     </g>
     <g id="text_20">
      <!-- lpn_n5 -->
      <g transform="translate(267.919324 261.880863) rotate(-90) scale(0.1 -0.1)">
       <use xlink:href="#DejaVuSans-6c"/>
       <use xlink:href="#DejaVuSans-70" x="27.783203"/>
       <use xlink:href="#DejaVuSans-6e" x="91.259766"/>
       <use xlink:href="#DejaVuSans-5f" x="154.638672"/>
       <use xlink:href="#DejaVuSans-6e" x="204.638672"/>
       <use xlink:href="#DejaVuSans-35" x="268.017578"/>
      </g>
     </g>
    </g>
    <g id="xtick_21">
     <g id="line2d_21">
      <g>
       <use xlink:href="#mc650873828" x="276.32668" y="221.7168" style="stroke: #000000; stroke-width: 0.8"/>
      </g>
     </g>
     <g id="text_21">
      <!-- iswap_n2 -->
      <g transform="translate(278.946992 275.058988) rotate(-90) scale(0.1 -0.1)">
       <use xlink:href="#DejaVuSans-69"/>
       <use xlink:href="#DejaVuSans-73" x="27.783203"/>
       <use xlink:href="#DejaVuSans-77" x="79.882812"/>
       <use xlink:href="#DejaVuSans-61" x="161.669922"/>
       <use xlink:href="#DejaVuSans-70" x="222.949219"/>
       <use xlink:href="#DejaVuSans-5f" x="286.425781"/>
       <use xlink:href="#DejaVuSans-6e" x="336.425781"/>
       <use xlink:href="#DejaVuSans-32" x="399.804688"/>
      </g>
     </g>
    </g>
    <g id="text_22">
     <!-- Circuit -->
     <g transform="translate(143.523125 334.288988) scale(0.14 -0.14)">
      <defs>
       <path id="DejaVuSans-43" d="M 4122 4306
L 4122 3641
Q 3803 3938 3442 4084
Q 3081 4231 2675 4231
Q 1875 4231 1450 3742
Q 1025 3253 1025 2328
Q 1025 1406 1450 917
Q 1875 428 2675 428
Q 3081 428 3442 575
Q 3803 722 4122 1019
L 4122 359
Q 3791 134 3420 21
Q 3050 -91 2638 -91
Q 1578 -91 968 557
Q 359 1206 359 2328
Q 359 3453 968 4101
Q 1578 4750 2638 4750
Q 3056 4750 3426 4639
Q 3797 4528 4122 4306
z
" transform="scale(0.015625)"/>
      </defs>
      <use xlink:href="#DejaVuSans-43"/>
      <use xlink:href="#DejaVuSans-69" x="69.824219"/>
      <use xlink:href="#DejaVuSans-72" x="97.607422"/>
      <use xlink:href="#DejaVuSans-63" x="136.470703"/>
      <use xlink:href="#DejaVuSans-75" x="191.451172"/>
      <use xlink:href="#DejaVuSans-69" x="254.830078"/>
      <use xlink:href="#DejaVuSans-74" x="282.613281"/>
     </g>
    </g>
   </g>
   <g id="matplotlib.axis_2">
    <g id="ytick_1">
     <g id="line2d_22">
      <defs>
       <path id="md91946950b" d="M 0 0
L -3.5 0
" style="stroke: #000000; stroke-width: 0.8"/>
      </defs>
      <g>
       <use xlink:href="#md91946950b" x="40.5" y="221.7168" style="stroke: #000000; stroke-width: 0.8"/>
      </g>
     </g>
     <g id="text_23">
      <!-- 0 -->
      <g transform="translate(24.5925 227.035706) scale(0.14 -0.14)">
       <defs>
        <path id="DejaVuSans-30" d="M 2034 4250
Q 1547 4250 1301 3770
Q 1056 3291 1056 2328
Q 1056 1369 1301 889
Q 1547 409 2034 409
Q 2525 409 2770 889
Q 3016 1369 3016 2328
Q 3016 3291 2770 3770
Q 2525 4250 2034 4250
z
M 2034 4750
Q 2819 4750 3233 4129
Q 3647 3509 3647 2328
Q 3647 1150 3233 529
Q 2819 -91 2034 -91
Q 1250 -91 836 529
Q 422 1150 422 2328
Q 422 3509 836 4129
Q 1250 4750 2034 4750
z
" transform="scale(0.015625)"/>
       </defs>
       <use xlink:href="#DejaVuSans-30"/>
      </g>
     </g>
    </g>
    <g id="ytick_2">
     <g id="line2d_23">
      <g>
       <use xlink:href="#md91946950b" x="40.5" y="185.1792" style="stroke: #000000; stroke-width: 0.8"/>
      </g>
     </g>
     <g id="text_24">
      <!-- 1 -->
      <g transform="translate(24.5925 190.498106) scale(0.14 -0.14)">
       <defs>
        <path id="DejaVuSans-31" d="M 794 531
L 1825 531
L 1825 4091
L 703 3866
L 703 4441
L 1819 4666
L 2450 4666
L 2450 531
L 3481 531
L 3481 0
L 794 0
L 794 531
z
" transform="scale(0.015625)"/>
       </defs>
       <use xlink:href="#DejaVuSans-31"/>
      </g>
     </g>
    </g>
    <g id="ytick_3">
     <g id="line2d_24">
      <g>
       <use xlink:href="#md91946950b" x="40.5" y="148.6416" style="stroke: #000000; stroke-width: 0.8"/>
      </g>
     </g>
     <g id="text_25">
      <!-- 2 -->
      <g transform="translate(24.5925 153.960506) scale(0.14 -0.14)">
       <use xlink:href="#DejaVuSans-32"/>
      </g>
     </g>
    </g>
    <g id="ytick_4">
     <g id="line2d_25">
      <g>
       <use xlink:href="#md91946950b" x="40.5" y="112.104" style="stroke: #000000; stroke-width: 0.8"/>
      </g>
     </g>
     <g id="text_26">
      <!-- 3 -->
      <g transform="translate(24.5925 117.422906) scale(0.14 -0.14)">
       <use xlink:href="#DejaVuSans-33"/>
      </g>
     </g>
    </g>
    <g id="ytick_5">
     <g id="line2d_26">
      <g>
       <use xlink:href="#md91946950b" x="40.5" y="75.5664" style="stroke: #000000; stroke-width: 0.8"/>
      </g>
     </g>
     <g id="text_27">
      <!-- 4 -->
      <g transform="translate(24.5925 80.885306) scale(0.14 -0.14)">
       <use xlink:href="#DejaVuSans-34"/>
      </g>
     </g>
    </g>
    <g id="ytick_6">
     <g id="line2d_27">
      <g>
       <use xlink:href="#md91946950b" x="40.5" y="39.0288" style="stroke: #000000; stroke-width: 0.8"/>
      </g>
     </g>
     <g id="text_28">
      <!-- 5 -->
      <g transform="translate(24.5925 44.347706) scale(0.14 -0.14)">
       <use xlink:href="#DejaVuSans-35"/>
      </g>
     </g>
    </g>
    <g id="text_29">
     <!-- Depth -->
     <g transform="translate(17.680937 147.127162) rotate(-90) scale(0.14 -0.14)">
      <defs>
       <path id="DejaVuSans-44" d="M 1259 4147
L 1259 519
L 2022 519
Q 2988 519 3436 956
Q 3884 1394 3884 2338
Q 3884 3275 3436 3711
Q 2988 4147 2022 4147
L 1259 4147
z
M 628 4666
L 1925 4666
Q 3281 4666 3915 4102
Q 4550 3538 4550 2338
Q 4550 1131 3912 565
Q 3275 0 1925 0
L 628 0
L 628 4666
z
" transform="scale(0.015625)"/>
      </defs>
      <use xlink:href="#DejaVuSans-44"/>
      <use xlink:href="#DejaVuSans-65" x="77.001953"/>
      <use xlink:href="#DejaVuSans-70" x="138.525391"/>
      <use xlink:href="#DejaVuSans-74" x="202.001953"/>
      <use xlink:href="#DejaVuSans-68" x="241.210938"/>
     </g>
    </g>
    <g id="text_30">
     <!-- 1e1 -->
     <g transform="translate(40.5 26.8944) scale(0.14 -0.14)">
      <use xlink:href="#DejaVuSans-31"/>
      <use xlink:href="#DejaVuSans-65" x="63.623047"/>
      <use xlink:href="#DejaVuSans-31" x="125.146484"/>
     </g>
    </g>
   </g>
   <g id="patch_45">
    <path d="M 40.5 221.7168
L 40.5 29.8944
" style="fill: none; stroke: #000000; stroke-width: 0.8; stroke-linejoin: miter; stroke-linecap: square"/>
   </g>
   <g id="patch_46">
    <path d="M 291.6 221.7168
L 291.6 29.8944
" style="fill: none; stroke: #000000; stroke-width: 0.8; stroke-linejoin: miter; stroke-linecap: square"/>
   </g>
   <g id="patch_47">
    <path d="M 40.5 221.7168
L 291.6 221.7168
" style="fill: none; stroke: #000000; stroke-width: 0.8; stroke-linejoin: miter; stroke-linecap: square"/>
   </g>
   <g id="patch_48">
    <path d="M 40.5 29.8944
L 291.6 29.8944
" style="fill: none; stroke: #000000; stroke-width: 0.8; stroke-linejoin: miter; stroke-linecap: square"/>
   </g>
   <g id="text_31">
    <!-- Transpiler Depth Comparison -->
    <g transform="translate(44.017688 10.256587) scale(0.168 -0.168)">
     <defs>
      <path id="DejaVuSans-54" d="M -19 4666
L 3928 4666
L 3928 4134
L 2272 4134
L 2272 0
L 1638 0
L 1638 4134
L -19 4134
L -19 4666
z
" transform="scale(0.015625)"/>
      <path id="DejaVuSans-20" transform="scale(0.015625)"/>
     </defs>
     <use xlink:href="#DejaVuSans-54"/>
     <use xlink:href="#DejaVuSans-72" x="46.333984"/>
     <use xlink:href="#DejaVuSans-61" x="87.447266"/>
     <use xlink:href="#DejaVuSans-6e" x="148.726562"/>
     <use xlink:href="#DejaVuSans-73" x="212.105469"/>
     <use xlink:href="#DejaVuSans-70" x="264.205078"/>
     <use xlink:href="#DejaVuSans-69" x="327.681641"/>
     <use xlink:href="#DejaVuSans-6c" x="355.464844"/>
     <use xlink:href="#DejaVuSans-65" x="383.248047"/>
     <use xlink:href="#DejaVuSans-72" x="444.771484"/>
     <use xlink:href="#DejaVuSans-20" x="485.884766"/>
     <use xlink:href="#DejaVuSans-44" x="517.671875"/>
     <use xlink:href="#DejaVuSans-65" x="594.673828"/>
     <use xlink:href="#DejaVuSans-70" x="656.197266"/>
     <use xlink:href="#DejaVuSans-74" x="719.673828"/>
     <use xlink:href="#DejaVuSans-68" x="758.882812"/>
     <use xlink:href="#DejaVuSans-20" x="822.261719"/>
     <use xlink:href="#DejaVuSans-43" x="854.048828"/>
     <use xlink:href="#DejaVuSans-6f" x="923.873047"/>
     <use xlink:href="#DejaVuSans-6d" x="985.054688"/>
     <use xlink:href="#DejaVuSans-70" x="1082.466797"/>
     <use xlink:href="#DejaVuSans-61" x="1145.943359"/>
     <use xlink:href="#DejaVuSans-72" x="1207.222656"/>
     <use xlink:href="#DejaVuSans-69" x="1248.335938"/>
     <use xlink:href="#DejaVuSans-73" x="1276.119141"/>
     <use xlink:href="#DejaVuSans-6f" x="1328.21875"/>
     <use xlink:href="#DejaVuSans-6e" x="1389.400391"/>
    </g>
   </g>
   <g id="legend_1">
    <g id="patch_49">
     <path d="M 158.420625 53.132213
L 186.420625 53.132213
L 186.420625 43.332213
L 158.420625 43.332213
z
" style="fill: #001219"/>
    </g>
    <g id="text_32">
     <!-- Transpiler 1 -->
     <g transform="translate(197.620625 53.132213) scale(0.14 -0.14)">
      <use xlink:href="#DejaVuSans-54"/>
      <use xlink:href="#DejaVuSans-72" x="46.333984"/>
      <use xlink:href="#DejaVuSans-61" x="87.447266"/>
      <use xlink:href="#DejaVuSans-6e" x="148.726562"/>
      <use xlink:href="#DejaVuSans-73" x="212.105469"/>
      <use xlink:href="#DejaVuSans-70" x="264.205078"/>
      <use xlink:href="#DejaVuSans-69" x="327.681641"/>
      <use xlink:href="#DejaVuSans-6c" x="355.464844"/>
      <use xlink:href="#DejaVuSans-65" x="383.248047"/>
      <use xlink:href="#DejaVuSans-72" x="444.771484"/>
      <use xlink:href="#DejaVuSans-20" x="485.884766"/>
      <use xlink:href="#DejaVuSans-31" x="517.671875"/>
     </g>
    </g>
    <g id="patch_50">
     <path d="M 158.420625 73.681588
L 186.420625 73.681588
L 186.420625 63.881588
L 158.420625 63.881588
z
" style="fill: #005f73"/>
    </g>
    <g id="text_33">
     <!-- Transpiler 2 -->
     <g transform="translate(197.620625 73.681588) scale(0.14 -0.14)">
      <use xlink:href="#DejaVuSans-54"/>
      <use xlink:href="#DejaVuSans-72" x="46.333984"/>
      <use xlink:href="#DejaVuSans-61" x="87.447266"/>
      <use xlink:href="#DejaVuSans-6e" x="148.726562"/>
      <use xlink:href="#DejaVuSans-73" x="212.105469"/>
      <use xlink:href="#DejaVuSans-70" x="264.205078"/>
      <use xlink:href="#DejaVuSans-69" x="327.681641"/>
      <use xlink:href="#DejaVuSans-6c" x="355.464844"/>
      <use xlink:href="#DejaVuSans-65" x="383.248047"/>
      <use xlink:href="#DejaVuSans-72" x="444.771484"/>
      <use xlink:href="#DejaVuSans-20" x="485.884766"/>
      <use xlink:href="#DejaVuSans-32" x="517.671875"/>
     </g>
    </g>
   </g>
  </g>
 </g>
 <defs>
  <clipPath id="paa342f64f1">
   <rect x="40.5" y="29.8944" width="251.1" height="191.8224"/>
  </clipPath>
 </defs>
</svg>
