<?xml version="1.0" encoding="utf-8" standalone="no"?>
<!DOCTYPE svg PUBLIC "-//W3C//DTD SVG 1.1//EN"
  "http://www.w3.org/Graphics/SVG/1.1/DTD/svg11.dtd">
<svg xmlns:xlink="http://www.w3.org/1999/xlink" width="1080pt" height="360pt" viewBox="0 0 1080 360" xmlns="http://www.w3.org/2000/svg" version="1.1">
 <metadata>
  <rdf:RDF xmlns:dc="http://purl.org/dc/elements/1.1/" xmlns:cc="http://creativecommons.org/ns#" xmlns:rdf="http://www.w3.org/1999/02/22-rdf-syntax-ns#">
   <cc:Work>
    <dc:type rdf:resource="http://purl.org/dc/dcmitype/StillImage"/>
    <dc:date>2023-09-05T10:35:31.975641</dc:date>
    <dc:format>image/svg+xml</dc:format>
    <dc:creator>
     <cc:Agent>
      <dc:title>Matplotlib v3.7.2, https://matplotlib.org/</dc:title>
     </cc:Agent>
    </dc:creator>
   </cc:Work>
  </rdf:RDF>
 </metadata>
 <defs>
  <style type="text/css">*{stroke-linejoin: round; stroke-linecap: butt}</style>
 </defs>
 <g id="figure_1">
  <g id="patch_1">
   <path d="M 0 360
L 1080 360
L 1080 0
L 0 0
z
" style="fill: #ffffff"/>
  </g>
  <g id="patch_2">
   <path d="M 135 304.888235
L 381.176471 304.888235
L 381.176471 58.711765
L 135 58.711765
L 135 304.888235
z
" style="fill: none"/>
  </g>
  <g id="pane3d_1">
   <g id="patch_3">
    <path d="M 150.751827 237.143972
L 252.491526 194.612055
L 252.235306 90.099059
L 147.295855 124.799889
" style="fill: none; opacity: 0"/>
   </g>
  </g>
  <g id="pane3d_2">
   <g id="patch_4">
    <path d="M 252.491526 194.612055
L 370.585267 229.819149
L 373.947212 118.811636
L 252.235306 90.099059
" style="fill: none; opacity: 0"/>
   </g>
  </g>
  <g id="pane3d_3">
   <g id="patch_5">
    <path d="M 150.751827 237.143972
L 271.840136 278.838715
L 370.585267 229.819149
L 252.491526 194.612055
" style="fill: none; opacity: 0"/>
   </g>
  </g>
  <g id="axis3d_1">
   <g id="line2d_1">
    <path d="M 150.751827 237.143972
L 271.840136 278.838715
" style="fill: none; stroke: #000000; stroke-width: 0.8; stroke-linecap: square"/>
   </g>
   <g id="text_1">
    <!-- $c_1$ -->
    <g transform="translate(193.157501 273.391962) rotate(-340.999706) scale(0.1 -0.1)">
     <defs>
      <path id="DejaVuSans-Oblique-63" d="M 3431 3366
L 3316 2797
Q 3109 2947 2876 3022
Q 2644 3097 2394 3097
Q 2119 3097 1870 3000
Q 1622 2903 1453 2725
Q 1184 2453 1037 2087
Q 891 1722 891 1331
Q 891 859 1127 628
Q 1363 397 1844 397
Q 2081 397 2348 469
Q 2616 541 2906 684
L 2797 116
Q 2547 13 2283 -39
Q 2019 -91 1741 -91
Q 1044 -91 669 257
Q 294 606 294 1253
Q 294 1797 489 2255
Q 684 2713 1069 3078
Q 1331 3328 1684 3456
Q 2038 3584 2456 3584
Q 2700 3584 2940 3529
Q 3181 3475 3431 3366
z
" transform="scale(0.015625)"/>
      <path id="DejaVuSans-31" d="M 794 531
L 1825 531
L 1825 4091
L 703 3866
L 703 4441
L 1819 4666
L 2450 4666
L 2450 531
L 3481 531
L 3481 0
L 794 0
L 794 531
z
" transform="scale(0.015625)"/>
     </defs>
     <use xlink:href="#DejaVuSans-Oblique-63"/>
     <use xlink:href="#DejaVuSans-31" transform="translate(54.980469 -16.40625) scale(0.7)"/>
    </g>
   </g>
   <g id="xtick_1">
    <g id="line2d_2">
     <path d="M 153.886323 237.549533
L 151.236069 238.660971
" style="fill: none; stroke: #000000; stroke-width: 0.8; stroke-linecap: square"/>
    </g>
    <g id="text_2">
     <!-- 0 -->
     <g transform="translate(148.151382 247.943291) scale(0.1 -0.1)">
      <defs>
       <path id="DejaVuSans-30" d="M 2034 4250
Q 1547 4250 1301 3770
Q 1056 3291 1056 2328
Q 1056 1369 1301 889
Q 1547 409 2034 409
Q 2525 409 2770 889
Q 3016 1369 3016 2328
Q 3016 3291 2770 3770
Q 2525 4250 2034 4250
z
M 2034 4750
Q 2819 4750 3233 4129
Q 3647 3509 3647 2328
Q 3647 1150 3233 529
Q 2819 -91 2034 -91
Q 1250 -91 836 529
Q 422 1150 422 2328
Q 422 3509 836 4129
Q 1250 4750 2034 4750
z
" transform="scale(0.015625)"/>
      </defs>
      <use xlink:href="#DejaVuSans-30"/>
     </g>
    </g>
   </g>
   <g id="xtick_2">
    <g id="line2d_3">
     <path d="M 181.420584 247.018756
L 178.781352 248.169309
" style="fill: none; stroke: #000000; stroke-width: 0.8; stroke-linecap: square"/>
    </g>
   </g>
   <g id="xtick_3">
    <g id="line2d_4">
     <path d="M 209.931472 256.823849
L 207.305721 258.015616
" style="fill: none; stroke: #000000; stroke-width: 0.8; stroke-linecap: square"/>
    </g>
    <g id="text_3">
     <!-- $\pi/2$ -->
     <g transform="translate(199.676239 267.347583) scale(0.1 -0.1)">
      <defs>
       <path id="DejaVuSans-Oblique-3c0" d="M 584 3500
L 3938 3500
L 3825 2925
L 3384 2925
L 2966 775
Q 2922 550 2981 450
Q 3038 353 3209 353
Q 3256 353 3325 363
Q 3397 369 3419 372
L 3338 -44
Q 3222 -84 3103 -103
Q 2981 -122 2866 -122
Q 2491 -122 2388 81
Q 2284 288 2391 838
L 2797 2925
L 1506 2925
L 938 0
L 350 0
L 919 2925
L 472 2925
L 584 3500
z
" transform="scale(0.015625)"/>
       <path id="DejaVuSans-2f" d="M 1625 4666
L 2156 4666
L 531 -594
L 0 -594
L 1625 4666
z
" transform="scale(0.015625)"/>
       <path id="DejaVuSans-32" d="M 1228 531
L 3431 531
L 3431 0
L 469 0
L 469 531
Q 828 903 1448 1529
Q 2069 2156 2228 2338
Q 2531 2678 2651 2914
Q 2772 3150 2772 3378
Q 2772 3750 2511 3984
Q 2250 4219 1831 4219
Q 1534 4219 1204 4116
Q 875 4013 500 3803
L 500 4441
Q 881 4594 1212 4672
Q 1544 4750 1819 4750
Q 2544 4750 2975 4387
Q 3406 4025 3406 3419
Q 3406 3131 3298 2873
Q 3191 2616 2906 2266
Q 2828 2175 2409 1742
Q 1991 1309 1228 531
z
" transform="scale(0.015625)"/>
      </defs>
      <use xlink:href="#DejaVuSans-Oblique-3c0" transform="translate(0 0.78125)"/>
      <use xlink:href="#DejaVuSans-2f" transform="translate(60.205078 0.78125)"/>
      <use xlink:href="#DejaVuSans-32" transform="translate(90.271484 0.78125)"/>
     </g>
    </g>
   </g>
   <g id="xtick_4">
    <g id="line2d_5">
     <path d="M 239.471885 266.983002
L 236.862323 268.21824
" style="fill: none; stroke: #000000; stroke-width: 0.8; stroke-linecap: square"/>
    </g>
   </g>
   <g id="xtick_5">
    <g id="line2d_6">
     <path d="M 270.098612 277.515746
L 267.508222 278.796877
" style="fill: none; stroke: #000000; stroke-width: 0.8; stroke-linecap: square"/>
    </g>
    <g id="text_4">
     <!-- $\pi$ -->
     <g transform="translate(264.498524 288.18137) scale(0.1 -0.1)">
      <use xlink:href="#DejaVuSans-Oblique-3c0" transform="translate(0 0.3125)"/>
     </g>
    </g>
   </g>
  </g>
  <g id="axis3d_2">
   <g id="line2d_7">
    <path d="M 370.585267 229.819149
L 271.840136 278.838715
" style="fill: none; stroke: #000000; stroke-width: 0.8; stroke-linecap: square"/>
   </g>
   <g id="text_5">
    <!-- $c_2$ -->
    <g transform="translate(326.911029 266.375416) rotate(-26.400958) scale(0.1 -0.1)">
     <use xlink:href="#DejaVuSans-Oblique-63"/>
     <use xlink:href="#DejaVuSans-32" transform="translate(54.980469 -16.40625) scale(0.7)"/>
    </g>
   </g>
   <g id="xtick_6">
    <g id="line2d_8">
     <path d="M 272.949959 277.412923
L 276.07939 278.48716
" style="fill: none; stroke: #000000; stroke-width: 0.8; stroke-linecap: square"/>
    </g>
    <g id="text_6">
     <!-- 0 -->
     <g transform="translate(278.050024 285.544063) scale(0.1 -0.1)">
      <use xlink:href="#DejaVuSans-30"/>
     </g>
    </g>
   </g>
   <g id="xtick_7">
    <g id="line2d_9">
     <path d="M 293.218799 267.366031
L 296.330913 268.403546
" style="fill: none; stroke: #000000; stroke-width: 0.8; stroke-linecap: square"/>
    </g>
   </g>
   <g id="xtick_8">
    <g id="line2d_10">
     <path d="M 312.801194 257.659396
L 315.895359 258.662041
" style="fill: none; stroke: #000000; stroke-width: 0.8; stroke-linecap: square"/>
    </g>
   </g>
   <g id="xtick_9">
    <g id="line2d_11">
     <path d="M 331.731438 248.276022
L 334.807109 249.245525
" style="fill: none; stroke: #000000; stroke-width: 0.8; stroke-linecap: square"/>
    </g>
   </g>
   <g id="xtick_10">
    <g id="line2d_12">
     <path d="M 350.041573 239.200023
L 353.098292 240.138001
" style="fill: none; stroke: #000000; stroke-width: 0.8; stroke-linecap: square"/>
    </g>
   </g>
   <g id="xtick_11">
    <g id="line2d_13">
     <path d="M 367.761579 230.416541
L 370.798958 231.324507
" style="fill: none; stroke: #000000; stroke-width: 0.8; stroke-linecap: square"/>
    </g>
    <g id="text_7">
     <!-- $\pi/2$ -->
     <g transform="translate(372.62354 238.028022) scale(0.1 -0.1)">
      <use xlink:href="#DejaVuSans-Oblique-3c0" transform="translate(0 0.78125)"/>
      <use xlink:href="#DejaVuSans-2f" transform="translate(60.205078 0.78125)"/>
      <use xlink:href="#DejaVuSans-32" transform="translate(90.271484 0.78125)"/>
     </g>
    </g>
   </g>
  </g>
  <g id="axis3d_3">
   <g id="line2d_14">
    <path d="M 150.751827 237.143972
L 147.295855 124.799889
" style="fill: none; stroke: #000000; stroke-width: 0.8; stroke-linecap: square"/>
   </g>
   <g id="text_8">
    <!-- $c_3$ -->
    <g transform="translate(139.446159 187.355517) rotate(-90) scale(0.1 -0.1)">
     <defs>
      <path id="DejaVuSans-33" d="M 2597 2516
Q 3050 2419 3304 2112
Q 3559 1806 3559 1356
Q 3559 666 3084 287
Q 2609 -91 1734 -91
Q 1441 -91 1130 -33
Q 819 25 488 141
L 488 750
Q 750 597 1062 519
Q 1375 441 1716 441
Q 2309 441 2620 675
Q 2931 909 2931 1356
Q 2931 1769 2642 2001
Q 2353 2234 1838 2234
L 1294 2234
L 1294 2753
L 1863 2753
Q 2328 2753 2575 2939
Q 2822 3125 2822 3475
Q 2822 3834 2567 4026
Q 2313 4219 1838 4219
Q 1578 4219 1281 4162
Q 984 4106 628 3988
L 628 4550
Q 988 4650 1302 4700
Q 1616 4750 1894 4750
Q 2613 4750 3031 4423
Q 3450 4097 3450 3541
Q 3450 3153 3228 2886
Q 3006 2619 2597 2516
z
" transform="scale(0.015625)"/>
     </defs>
     <use xlink:href="#DejaVuSans-Oblique-63"/>
     <use xlink:href="#DejaVuSans-33" transform="translate(54.980469 -16.40625) scale(0.7)"/>
    </g>
   </g>
   <g id="xtick_12">
    <g id="line2d_15">
     <path d="M 151.585408 235.272706
L 148.886543 234.347088
" style="fill: none; stroke: #000000; stroke-width: 0.8; stroke-linecap: square"/>
    </g>
    <g id="text_9">
     <!-- 0 -->
     <g transform="translate(137.363096 237.954136) scale(0.1 -0.1)">
      <use xlink:href="#DejaVuSans-30"/>
     </g>
    </g>
   </g>
   <g id="xtick_13">
    <g id="line2d_16">
     <path d="M 150.942308 214.197658
L 148.228773 213.302891
" style="fill: none; stroke: #000000; stroke-width: 0.8; stroke-linecap: square"/>
    </g>
   </g>
   <g id="xtick_14">
    <g id="line2d_17">
     <path d="M 150.291632 192.87435
L 147.563268 192.011224
" style="fill: none; stroke: #000000; stroke-width: 0.8; stroke-linecap: square"/>
    </g>
   </g>
   <g id="xtick_15">
    <g id="line2d_18">
     <path d="M 149.633245 171.298367
L 146.889891 170.467698
" style="fill: none; stroke: #000000; stroke-width: 0.8; stroke-linecap: square"/>
    </g>
   </g>
   <g id="xtick_16">
    <g id="line2d_19">
     <path d="M 148.967011 149.465193
L 146.208501 148.667817
" style="fill: none; stroke: #000000; stroke-width: 0.8; stroke-linecap: square"/>
    </g>
   </g>
   <g id="xtick_17">
    <g id="line2d_20">
     <path d="M 148.292787 127.370201
L 145.518955 126.606977
" style="fill: none; stroke: #000000; stroke-width: 0.8; stroke-linecap: square"/>
    </g>
    <g id="text_10">
     <!-- $\pi/2$ -->
     <g transform="translate(124.797865 130.065303) scale(0.1 -0.1)">
      <use xlink:href="#DejaVuSans-Oblique-3c0" transform="translate(0 0.78125)"/>
      <use xlink:href="#DejaVuSans-2f" transform="translate(60.205078 0.78125)"/>
      <use xlink:href="#DejaVuSans-32" transform="translate(90.271484 0.78125)"/>
     </g>
    </g>
   </g>
  </g>
  <g id="axes_1">
   <g id="line2d_21">
    <path d="M 155.143048 234.815862
L 307.709067 210.361744
" clip-path="url(#pc2d2a8ace0)" style="fill: none; stroke-dasharray: 1.85,0.8; stroke-dashoffset: 0; stroke: #000000; stroke-width: 0.5"/>
   </g>
   <g id="line2d_22">
    <path d="M 290.615511 240.583228
L 211.208712 253.98499
" clip-path="url(#pc2d2a8ace0)" style="fill: none; stroke-dasharray: 1.85,0.8; stroke-dashoffset: 0; stroke: #000000; stroke-width: 0.5"/>
   </g>
   <g id="line2d_23">
    <path d="M 233.19108 222.305895
L 211.208712 253.98499
" clip-path="url(#pc2d2a8ace0)" style="fill: none; stroke-dasharray: 1.85,0.8; stroke-dashoffset: 0; stroke: #000000; stroke-width: 0.5"/>
   </g>
   <g id="line2d_24">
    <path d="M 232.784393 170.256638
L 233.19108 222.305895
" clip-path="url(#pc2d2a8ace0)" style="fill: none; stroke-dasharray: 1.85,0.8; stroke-dashoffset: 0; stroke: #000000; stroke-width: 0.5"/>
   </g>
   <g id="line2d_25">
    <path d="M 232.784393 170.256638
L 307.709067 210.361744
" clip-path="url(#pc2d2a8ace0)" style="fill: none; stroke-dasharray: 1.85,0.8; stroke-dashoffset: 0; stroke: #000000; stroke-width: 0.5"/>
   </g>
   <g id="line2d_26">
    <path d="M 155.143048 234.815862
L 271.396042 274.563335
" clip-path="url(#pc2d2a8ace0)" style="fill: none; stroke: #000000; stroke-width: 0.5; stroke-linecap: square"/>
   </g>
   <g id="line2d_27">
    <path d="M 271.396042 274.563335
L 307.709067 210.361744
" clip-path="url(#pc2d2a8ace0)" style="fill: none; stroke: #000000; stroke-width: 0.5; stroke-linecap: square"/>
   </g>
   <g id="line2d_28">
    <path d="M 307.709067 210.361744
L 309.031221 106.856964
" clip-path="url(#pc2d2a8ace0)" style="fill: none; stroke: #000000; stroke-width: 0.5; stroke-linecap: square"/>
   </g>
   <g id="line2d_29">
    <path d="M 309.031221 106.856964
L 271.396042 274.563335
" clip-path="url(#pc2d2a8ace0)" style="fill: none; stroke: #000000; stroke-width: 0.5; stroke-linecap: square"/>
   </g>
   <g id="line2d_30">
    <path d="M 309.031221 106.856964
L 155.143048 234.815862
" clip-path="url(#pc2d2a8ace0)" style="fill: none; stroke: #000000; stroke-width: 0.5; stroke-linecap: square"/>
   </g>
   <g id="line2d_31">
    <path d="M 211.208712 253.98499
L 291.05105 186.978526
" clip-path="url(#pc2d2a8ace0)" style="fill: none; stroke: #000000; stroke-width: 0.5; stroke-linecap: square"/>
   </g>
   <g id="line2d_32">
    <path d="M 211.208712 253.98499
L 232.784393 170.256638
" clip-path="url(#pc2d2a8ace0)" style="fill: none; stroke: #000000; stroke-width: 0.5; stroke-linecap: square"/>
   </g>
   <g id="line2d_33">
    <path d="M 291.05105 186.978526
L 232.784393 170.256638
" clip-path="url(#pc2d2a8ace0)" style="fill: none; stroke: #000000; stroke-width: 0.5; stroke-linecap: square"/>
   </g>
   <g id="line2d_34">
    <path d="M 291.05105 186.978526
L 307.709067 210.361744
" clip-path="url(#pc2d2a8ace0)" style="fill: none; stroke: #000000; stroke-width: 0.5; stroke-linecap: square"/>
   </g>
   <g id="line2d_35">
    <path d="M 291.05105 186.978526
L 290.615511 240.583228
" clip-path="url(#pc2d2a8ace0)" style="fill: none; stroke: #000000; stroke-width: 0.5; stroke-linecap: square"/>
   </g>
   <g id="Path3DCollection_1">
    <defs>
     <path id="md179c1cbd7" d="M 0 2.236068
C 0.593012 2.236068 1.161816 2.000462 1.581139 1.581139
C 2.000462 1.161816 2.236068 0.593012 2.236068 0
C 2.236068 -0.593012 2.000462 -1.161816 1.581139 -1.581139
C 1.161816 -2.000462 0.593012 -2.236068 0 -2.236068
C -0.593012 -2.236068 -1.161816 -2.000462 -1.581139 -1.581139
C -2.000462 -1.161816 -2.236068 -0.593012 -2.236068 0
C -2.236068 0.593012 -2.000462 1.161816 -1.581139 1.581139
C -1.161816 2.000462 -0.593012 2.236068 0 2.236068
z
" style="stroke: #ff0000"/>
    </defs>
    <g clip-path="url(#pc2d2a8ace0)">
     <use xlink:href="#md179c1cbd7" x="233.19108" y="222.305895" style="fill: #ff0000; stroke: #ff0000"/>
    </g>
   </g>
   <g id="text_11">
    <!-- Cost: 0.5 -->
    <g transform="translate(231.279485 52.711765) scale(0.12 -0.12)">
     <defs>
      <path id="DejaVuSans-43" d="M 4122 4306
L 4122 3641
Q 3803 3938 3442 4084
Q 3081 4231 2675 4231
Q 1875 4231 1450 3742
Q 1025 3253 1025 2328
Q 1025 1406 1450 917
Q 1875 428 2675 428
Q 3081 428 3442 575
Q 3803 722 4122 1019
L 4122 359
Q 3791 134 3420 21
Q 3050 -91 2638 -91
Q 1578 -91 968 557
Q 359 1206 359 2328
Q 359 3453 968 4101
Q 1578 4750 2638 4750
Q 3056 4750 3426 4639
Q 3797 4528 4122 4306
z
" transform="scale(0.015625)"/>
      <path id="DejaVuSans-6f" d="M 1959 3097
Q 1497 3097 1228 2736
Q 959 2375 959 1747
Q 959 1119 1226 758
Q 1494 397 1959 397
Q 2419 397 2687 759
Q 2956 1122 2956 1747
Q 2956 2369 2687 2733
Q 2419 3097 1959 3097
z
M 1959 3584
Q 2709 3584 3137 3096
Q 3566 2609 3566 1747
Q 3566 888 3137 398
Q 2709 -91 1959 -91
Q 1206 -91 779 398
Q 353 888 353 1747
Q 353 2609 779 3096
Q 1206 3584 1959 3584
z
" transform="scale(0.015625)"/>
      <path id="DejaVuSans-73" d="M 2834 3397
L 2834 2853
Q 2591 2978 2328 3040
Q 2066 3103 1784 3103
Q 1356 3103 1142 2972
Q 928 2841 928 2578
Q 928 2378 1081 2264
Q 1234 2150 1697 2047
L 1894 2003
Q 2506 1872 2764 1633
Q 3022 1394 3022 966
Q 3022 478 2636 193
Q 2250 -91 1575 -91
Q 1294 -91 989 -36
Q 684 19 347 128
L 347 722
Q 666 556 975 473
Q 1284 391 1588 391
Q 1994 391 2212 530
Q 2431 669 2431 922
Q 2431 1156 2273 1281
Q 2116 1406 1581 1522
L 1381 1569
Q 847 1681 609 1914
Q 372 2147 372 2553
Q 372 3047 722 3315
Q 1072 3584 1716 3584
Q 2034 3584 2315 3537
Q 2597 3491 2834 3397
z
" transform="scale(0.015625)"/>
      <path id="DejaVuSans-74" d="M 1172 4494
L 1172 3500
L 2356 3500
L 2356 3053
L 1172 3053
L 1172 1153
Q 1172 725 1289 603
Q 1406 481 1766 481
L 2356 481
L 2356 0
L 1766 0
Q 1100 0 847 248
Q 594 497 594 1153
L 594 3053
L 172 3053
L 172 3500
L 594 3500
L 594 4494
L 1172 4494
z
" transform="scale(0.015625)"/>
      <path id="DejaVuSans-3a" d="M 750 794
L 1409 794
L 1409 0
L 750 0
L 750 794
z
M 750 3309
L 1409 3309
L 1409 2516
L 750 2516
L 750 3309
z
" transform="scale(0.015625)"/>
      <path id="DejaVuSans-20" transform="scale(0.015625)"/>
      <path id="DejaVuSans-2e" d="M 684 794
L 1344 794
L 1344 0
L 684 0
L 684 794
z
" transform="scale(0.015625)"/>
      <path id="DejaVuSans-35" d="M 691 4666
L 3169 4666
L 3169 4134
L 1269 4134
L 1269 2991
Q 1406 3038 1543 3061
Q 1681 3084 1819 3084
Q 2600 3084 3056 2656
Q 3513 2228 3513 1497
Q 3513 744 3044 326
Q 2575 -91 1722 -91
Q 1428 -91 1123 -41
Q 819 9 494 109
L 494 744
Q 775 591 1075 516
Q 1375 441 1709 441
Q 2250 441 2565 725
Q 2881 1009 2881 1497
Q 2881 1984 2565 2268
Q 2250 2553 1709 2553
Q 1456 2553 1204 2497
Q 953 2441 691 2322
L 691 4666
z
" transform="scale(0.015625)"/>
     </defs>
     <use xlink:href="#DejaVuSans-43"/>
     <use xlink:href="#DejaVuSans-6f" x="69.824219"/>
     <use xlink:href="#DejaVuSans-73" x="131.005859"/>
     <use xlink:href="#DejaVuSans-74" x="183.105469"/>
     <use xlink:href="#DejaVuSans-3a" x="222.314453"/>
     <use xlink:href="#DejaVuSans-20" x="256.005859"/>
     <use xlink:href="#DejaVuSans-30" x="287.792969"/>
     <use xlink:href="#DejaVuSans-2e" x="351.416016"/>
     <use xlink:href="#DejaVuSans-35" x="383.203125"/>
    </g>
   </g>
   <g id="Path3DCollection_2">
    <g clip-path="url(#pc2d2a8ace0)">
     <use xlink:href="#md179c1cbd7" x="261.414944" y="178.473291" style="fill: #ff0000; stroke: #ff0000"/>
    </g>
   </g>
   <g id="Path3DCollection_3">
    <g clip-path="url(#pc2d2a8ace0)">
     <use xlink:href="#md179c1cbd7" x="261.414944" y="178.473291" style="fill: #ff0000; stroke: #ff0000"/>
    </g>
   </g>
   <g id="Path3DCollection_4">
    <g clip-path="url(#pc2d2a8ace0)">
     <use xlink:href="#md179c1cbd7" x="290.615511" y="240.583228" style="fill: #ff0000; stroke: #ff0000"/>
    </g>
   </g>
  </g>
  <g id="patch_6">
   <path d="M 430.411765 304.888235
L 676.588235 304.888235
L 676.588235 58.711765
L 430.411765 58.711765
L 430.411765 304.888235
z
" style="fill: none"/>
  </g>
  <g id="pane3d_4">
   <g id="patch_7">
    <path d="M 446.163591 237.143972
L 547.903291 194.612055
L 547.647071 90.099059
L 442.70762 124.799889
" style="fill: none; opacity: 0"/>
   </g>
  </g>
  <g id="pane3d_5">
   <g id="patch_8">
    <path d="M 547.903291 194.612055
L 665.997032 229.819149
L 669.358976 118.811636
L 547.647071 90.099059
" style="fill: none; opacity: 0"/>
   </g>
  </g>
  <g id="pane3d_6">
   <g id="patch_9">
    <path d="M 446.163591 237.143972
L 567.251901 278.838715
L 665.997032 229.819149
L 547.903291 194.612055
" style="fill: none; opacity: 0"/>
   </g>
  </g>
  <g id="axis3d_4">
   <g id="line2d_36">
    <path d="M 446.163591 237.143972
L 567.251901 278.838715
" style="fill: none; stroke: #000000; stroke-width: 0.8; stroke-linecap: square"/>
   </g>
   <g id="text_12">
    <!-- $c_1$ -->
    <g transform="translate(488.569266 273.391962) rotate(-340.999706) scale(0.1 -0.1)">
     <use xlink:href="#DejaVuSans-Oblique-63"/>
     <use xlink:href="#DejaVuSans-31" transform="translate(54.980469 -16.40625) scale(0.7)"/>
    </g>
   </g>
   <g id="xtick_18">
    <g id="line2d_37">
     <path d="M 449.298088 237.549533
L 446.647834 238.660971
" style="fill: none; stroke: #000000; stroke-width: 0.8; stroke-linecap: square"/>
    </g>
    <g id="text_13">
     <!-- 0 -->
     <g transform="translate(443.563147 247.943291) scale(0.1 -0.1)">
      <use xlink:href="#DejaVuSans-30"/>
     </g>
    </g>
   </g>
   <g id="xtick_19">
    <g id="line2d_38">
     <path d="M 476.832349 247.018756
L 474.193117 248.169309
" style="fill: none; stroke: #000000; stroke-width: 0.8; stroke-linecap: square"/>
    </g>
   </g>
   <g id="xtick_20">
    <g id="line2d_39">
     <path d="M 505.343237 256.823849
L 502.717486 258.015616
" style="fill: none; stroke: #000000; stroke-width: 0.8; stroke-linecap: square"/>
    </g>
    <g id="text_14">
     <!-- $\pi/2$ -->
     <g transform="translate(495.088004 267.347583) scale(0.1 -0.1)">
      <use xlink:href="#DejaVuSans-Oblique-3c0" transform="translate(0 0.78125)"/>
      <use xlink:href="#DejaVuSans-2f" transform="translate(60.205078 0.78125)"/>
      <use xlink:href="#DejaVuSans-32" transform="translate(90.271484 0.78125)"/>
     </g>
    </g>
   </g>
   <g id="xtick_21">
    <g id="line2d_40">
     <path d="M 534.88365 266.983002
L 532.274088 268.21824
" style="fill: none; stroke: #000000; stroke-width: 0.8; stroke-linecap: square"/>
    </g>
   </g>
   <g id="xtick_22">
    <g id="line2d_41">
     <path d="M 565.510377 277.515746
L 562.919986 278.796877
" style="fill: none; stroke: #000000; stroke-width: 0.8; stroke-linecap: square"/>
    </g>
    <g id="text_15">
     <!-- $\pi$ -->
     <g transform="translate(559.910288 288.18137) scale(0.1 -0.1)">
      <use xlink:href="#DejaVuSans-Oblique-3c0" transform="translate(0 0.3125)"/>
     </g>
    </g>
   </g>
  </g>
  <g id="axis3d_5">
   <g id="line2d_42">
    <path d="M 665.997032 229.819149
L 567.251901 278.838715
" style="fill: none; stroke: #000000; stroke-width: 0.8; stroke-linecap: square"/>
   </g>
   <g id="text_16">
    <!-- $c_2$ -->
    <g transform="translate(622.322794 266.375416) rotate(-26.400958) scale(0.1 -0.1)">
     <use xlink:href="#DejaVuSans-Oblique-63"/>
     <use xlink:href="#DejaVuSans-32" transform="translate(54.980469 -16.40625) scale(0.7)"/>
    </g>
   </g>
   <g id="xtick_23">
    <g id="line2d_43">
     <path d="M 568.361724 277.412923
L 571.491155 278.48716
" style="fill: none; stroke: #000000; stroke-width: 0.8; stroke-linecap: square"/>
    </g>
    <g id="text_17">
     <!-- 0 -->
     <g transform="translate(573.461789 285.544063) scale(0.1 -0.1)">
      <use xlink:href="#DejaVuSans-30"/>
     </g>
    </g>
   </g>
   <g id="xtick_24">
    <g id="line2d_44">
     <path d="M 588.630563 267.366031
L 591.742678 268.403546
" style="fill: none; stroke: #000000; stroke-width: 0.8; stroke-linecap: square"/>
    </g>
   </g>
   <g id="xtick_25">
    <g id="line2d_45">
     <path d="M 608.212959 257.659396
L 611.307123 258.662041
" style="fill: none; stroke: #000000; stroke-width: 0.8; stroke-linecap: square"/>
    </g>
   </g>
   <g id="xtick_26">
    <g id="line2d_46">
     <path d="M 627.143202 248.276022
L 630.218874 249.245525
" style="fill: none; stroke: #000000; stroke-width: 0.8; stroke-linecap: square"/>
    </g>
   </g>
   <g id="xtick_27">
    <g id="line2d_47">
     <path d="M 645.453338 239.200023
L 648.510057 240.138001
" style="fill: none; stroke: #000000; stroke-width: 0.8; stroke-linecap: square"/>
    </g>
   </g>
   <g id="xtick_28">
    <g id="line2d_48">
     <path d="M 663.173344 230.416541
L 666.210722 231.324507
" style="fill: none; stroke: #000000; stroke-width: 0.8; stroke-linecap: square"/>
    </g>
    <g id="text_18">
     <!-- $\pi/2$ -->
     <g transform="translate(668.035305 238.028022) scale(0.1 -0.1)">
      <use xlink:href="#DejaVuSans-Oblique-3c0" transform="translate(0 0.78125)"/>
      <use xlink:href="#DejaVuSans-2f" transform="translate(60.205078 0.78125)"/>
      <use xlink:href="#DejaVuSans-32" transform="translate(90.271484 0.78125)"/>
     </g>
    </g>
   </g>
  </g>
  <g id="axis3d_6">
   <g id="line2d_49">
    <path d="M 446.163591 237.143972
L 442.70762 124.799889
" style="fill: none; stroke: #000000; stroke-width: 0.8; stroke-linecap: square"/>
   </g>
   <g id="text_19">
    <!-- $c_3$ -->
    <g transform="translate(434.857923 187.355517) rotate(-90) scale(0.1 -0.1)">
     <use xlink:href="#DejaVuSans-Oblique-63"/>
     <use xlink:href="#DejaVuSans-33" transform="translate(54.980469 -16.40625) scale(0.7)"/>
    </g>
   </g>
   <g id="xtick_29">
    <g id="line2d_50">
     <path d="M 446.997173 235.272706
L 444.298308 234.347088
" style="fill: none; stroke: #000000; stroke-width: 0.8; stroke-linecap: square"/>
    </g>
    <g id="text_20">
     <!-- 0 -->
     <g transform="translate(432.77486 237.954136) scale(0.1 -0.1)">
      <use xlink:href="#DejaVuSans-30"/>
     </g>
    </g>
   </g>
   <g id="xtick_30">
    <g id="line2d_51">
     <path d="M 446.354073 214.197658
L 443.640538 213.302891
" style="fill: none; stroke: #000000; stroke-width: 0.8; stroke-linecap: square"/>
    </g>
   </g>
   <g id="xtick_31">
    <g id="line2d_52">
     <path d="M 445.703397 192.87435
L 442.975033 192.011224
" style="fill: none; stroke: #000000; stroke-width: 0.8; stroke-linecap: square"/>
    </g>
   </g>
   <g id="xtick_32">
    <g id="line2d_53">
     <path d="M 445.04501 171.298367
L 442.301656 170.467698
" style="fill: none; stroke: #000000; stroke-width: 0.8; stroke-linecap: square"/>
    </g>
   </g>
   <g id="xtick_33">
    <g id="line2d_54">
     <path d="M 444.378776 149.465193
L 441.620266 148.667817
" style="fill: none; stroke: #000000; stroke-width: 0.8; stroke-linecap: square"/>
    </g>
   </g>
   <g id="xtick_34">
    <g id="line2d_55">
     <path d="M 443.704552 127.370201
L 440.930719 126.606977
" style="fill: none; stroke: #000000; stroke-width: 0.8; stroke-linecap: square"/>
    </g>
    <g id="text_21">
     <!-- $\pi/2$ -->
     <g transform="translate(420.20963 130.065303) scale(0.1 -0.1)">
      <use xlink:href="#DejaVuSans-Oblique-3c0" transform="translate(0 0.78125)"/>
      <use xlink:href="#DejaVuSans-2f" transform="translate(60.205078 0.78125)"/>
      <use xlink:href="#DejaVuSans-32" transform="translate(90.271484 0.78125)"/>
     </g>
    </g>
   </g>
  </g>
  <g id="axes_2">
   <g id="line2d_56">
    <path d="M 450.554813 234.815862
L 603.120832 210.361744
" clip-path="url(#p1ec03045f2)" style="fill: none; stroke-dasharray: 1.85,0.8; stroke-dashoffset: 0; stroke: #000000; stroke-width: 0.5"/>
   </g>
   <g id="line2d_57">
    <path d="M 586.027276 240.583228
L 506.620477 253.98499
" clip-path="url(#p1ec03045f2)" style="fill: none; stroke-dasharray: 1.85,0.8; stroke-dashoffset: 0; stroke: #000000; stroke-width: 0.5"/>
   </g>
   <g id="line2d_58">
    <path d="M 528.602845 222.305895
L 506.620477 253.98499
" clip-path="url(#p1ec03045f2)" style="fill: none; stroke-dasharray: 1.85,0.8; stroke-dashoffset: 0; stroke: #000000; stroke-width: 0.5"/>
   </g>
   <g id="line2d_59">
    <path d="M 528.196158 170.256638
L 528.602845 222.305895
" clip-path="url(#p1ec03045f2)" style="fill: none; stroke-dasharray: 1.85,0.8; stroke-dashoffset: 0; stroke: #000000; stroke-width: 0.5"/>
   </g>
   <g id="line2d_60">
    <path d="M 528.196158 170.256638
L 603.120832 210.361744
" clip-path="url(#p1ec03045f2)" style="fill: none; stroke-dasharray: 1.85,0.8; stroke-dashoffset: 0; stroke: #000000; stroke-width: 0.5"/>
   </g>
   <g id="line2d_61">
    <path d="M 450.554813 234.815862
L 566.807807 274.563335
" clip-path="url(#p1ec03045f2)" style="fill: none; stroke: #000000; stroke-width: 0.5; stroke-linecap: square"/>
   </g>
   <g id="line2d_62">
    <path d="M 566.807807 274.563335
L 603.120832 210.361744
" clip-path="url(#p1ec03045f2)" style="fill: none; stroke: #000000; stroke-width: 0.5; stroke-linecap: square"/>
   </g>
   <g id="line2d_63">
    <path d="M 603.120832 210.361744
L 604.442986 106.856964
" clip-path="url(#p1ec03045f2)" style="fill: none; stroke: #000000; stroke-width: 0.5; stroke-linecap: square"/>
   </g>
   <g id="line2d_64">
    <path d="M 604.442986 106.856964
L 566.807807 274.563335
" clip-path="url(#p1ec03045f2)" style="fill: none; stroke: #000000; stroke-width: 0.5; stroke-linecap: square"/>
   </g>
   <g id="line2d_65">
    <path d="M 604.442986 106.856964
L 450.554813 234.815862
" clip-path="url(#p1ec03045f2)" style="fill: none; stroke: #000000; stroke-width: 0.5; stroke-linecap: square"/>
   </g>
   <g id="line2d_66">
    <path d="M 506.620477 253.98499
L 586.462814 186.978526
" clip-path="url(#p1ec03045f2)" style="fill: none; stroke: #000000; stroke-width: 0.5; stroke-linecap: square"/>
   </g>
   <g id="line2d_67">
    <path d="M 506.620477 253.98499
L 528.196158 170.256638
" clip-path="url(#p1ec03045f2)" style="fill: none; stroke: #000000; stroke-width: 0.5; stroke-linecap: square"/>
   </g>
   <g id="line2d_68">
    <path d="M 586.462814 186.978526
L 528.196158 170.256638
" clip-path="url(#p1ec03045f2)" style="fill: none; stroke: #000000; stroke-width: 0.5; stroke-linecap: square"/>
   </g>
   <g id="line2d_69">
    <path d="M 586.462814 186.978526
L 603.120832 210.361744
" clip-path="url(#p1ec03045f2)" style="fill: none; stroke: #000000; stroke-width: 0.5; stroke-linecap: square"/>
   </g>
   <g id="line2d_70">
    <path d="M 586.462814 186.978526
L 586.027276 240.583228
" clip-path="url(#p1ec03045f2)" style="fill: none; stroke: #000000; stroke-width: 0.5; stroke-linecap: square"/>
   </g>
   <g id="Poly3DCollection_1">
    <path d="M 603.120832 210.361744
L 556.826709 178.473291
L 450.554813 234.815862
z
" clip-path="url(#p1ec03045f2)" style="fill: #008000; fill-opacity: 0.2; stroke: #000000; stroke-opacity: 0.2"/>
    <path d="M 603.120832 210.361744
L 506.620477 253.98499
L 450.554813 234.815862
z
" clip-path="url(#p1ec03045f2)" style="fill: #008000; fill-opacity: 0.2; stroke: #000000; stroke-opacity: 0.2"/>
    <path d="M 603.120832 210.361744
L 506.620477 253.98499
L 556.826709 178.473291
z
" clip-path="url(#p1ec03045f2)" style="fill: #008000; fill-opacity: 0.2; stroke: #000000; stroke-opacity: 0.2"/>
    <path d="M 506.620477 253.98499
L 556.826709 178.473291
L 450.554813 234.815862
z
" clip-path="url(#p1ec03045f2)" style="fill: #008000; fill-opacity: 0.2; stroke: #000000; stroke-opacity: 0.2"/>
   </g>
   <g id="text_22">
    <!-- Cost: 1.0 -->
    <g transform="translate(526.69125 52.711765) scale(0.12 -0.12)">
     <use xlink:href="#DejaVuSans-43"/>
     <use xlink:href="#DejaVuSans-6f" x="69.824219"/>
     <use xlink:href="#DejaVuSans-73" x="131.005859"/>
     <use xlink:href="#DejaVuSans-74" x="183.105469"/>
     <use xlink:href="#DejaVuSans-3a" x="222.314453"/>
     <use xlink:href="#DejaVuSans-20" x="256.005859"/>
     <use xlink:href="#DejaVuSans-31" x="287.792969"/>
     <use xlink:href="#DejaVuSans-2e" x="351.416016"/>
     <use xlink:href="#DejaVuSans-30" x="383.203125"/>
    </g>
   </g>
   <g id="Poly3DCollection_2">
    <path d="M 604.442986 106.856964
L 603.120832 210.361744
L 528.602845 222.305895
z
" clip-path="url(#p1ec03045f2)" style="fill: #008000; fill-opacity: 0.2; stroke: #000000; stroke-opacity: 0.2"/>
    <path d="M 604.442986 106.856964
L 603.120832 210.361744
L 586.027276 240.583228
z
" clip-path="url(#p1ec03045f2)" style="fill: #008000; fill-opacity: 0.2; stroke: #000000; stroke-opacity: 0.2"/>
    <path d="M 506.620477 253.98499
L 603.120832 210.361744
L 528.602845 222.305895
z
" clip-path="url(#p1ec03045f2)" style="fill: #008000; fill-opacity: 0.2; stroke: #000000; stroke-opacity: 0.2"/>
    <path d="M 506.620477 253.98499
L 604.442986 106.856964
L 528.602845 222.305895
z
" clip-path="url(#p1ec03045f2)" style="fill: #008000; fill-opacity: 0.2; stroke: #000000; stroke-opacity: 0.2"/>
    <path d="M 506.620477 253.98499
L 603.120832 210.361744
L 586.027276 240.583228
z
" clip-path="url(#p1ec03045f2)" style="fill: #008000; fill-opacity: 0.2; stroke: #000000; stroke-opacity: 0.2"/>
    <path d="M 506.620477 253.98499
L 604.442986 106.856964
L 586.027276 240.583228
z
" clip-path="url(#p1ec03045f2)" style="fill: #008000; fill-opacity: 0.2; stroke: #000000; stroke-opacity: 0.2"/>
   </g>
   <g id="Poly3DCollection_3">
    <path d="M 604.442986 106.856964
L 603.120832 210.361744
L 528.602845 222.305895
z
" clip-path="url(#p1ec03045f2)" style="fill: #008000; fill-opacity: 0.2; stroke: #000000; stroke-opacity: 0.2"/>
    <path d="M 604.442986 106.856964
L 603.120832 210.361744
L 586.027276 240.583228
z
" clip-path="url(#p1ec03045f2)" style="fill: #008000; fill-opacity: 0.2; stroke: #000000; stroke-opacity: 0.2"/>
    <path d="M 506.620477 253.98499
L 603.120832 210.361744
L 528.602845 222.305895
z
" clip-path="url(#p1ec03045f2)" style="fill: #008000; fill-opacity: 0.2; stroke: #000000; stroke-opacity: 0.2"/>
    <path d="M 506.620477 253.98499
L 604.442986 106.856964
L 528.602845 222.305895
z
" clip-path="url(#p1ec03045f2)" style="fill: #008000; fill-opacity: 0.2; stroke: #000000; stroke-opacity: 0.2"/>
    <path d="M 506.620477 253.98499
L 603.120832 210.361744
L 586.027276 240.583228
z
" clip-path="url(#p1ec03045f2)" style="fill: #008000; fill-opacity: 0.2; stroke: #000000; stroke-opacity: 0.2"/>
    <path d="M 506.620477 253.98499
L 604.442986 106.856964
L 586.027276 240.583228
z
" clip-path="url(#p1ec03045f2)" style="fill: #008000; fill-opacity: 0.2; stroke: #000000; stroke-opacity: 0.2"/>
   </g>
   <g id="Poly3DCollection_4">
    <path d="M 556.826709 178.473291
L 603.120832 210.361744
L 506.620477 253.98499
z
" clip-path="url(#p1ec03045f2)" style="fill: #008000; fill-opacity: 0.2; stroke: #000000; stroke-opacity: 0.2"/>
    <path d="M 556.826709 178.473291
L 603.120832 210.361744
L 566.807807 274.563335
z
" clip-path="url(#p1ec03045f2)" style="fill: #008000; fill-opacity: 0.2; stroke: #000000; stroke-opacity: 0.2"/>
    <path d="M 603.120832 210.361744
L 566.807807 274.563335
L 506.620477 253.98499
z
" clip-path="url(#p1ec03045f2)" style="fill: #008000; fill-opacity: 0.2; stroke: #000000; stroke-opacity: 0.2"/>
    <path d="M 556.826709 178.473291
L 566.807807 274.563335
L 506.620477 253.98499
z
" clip-path="url(#p1ec03045f2)" style="fill: #008000; fill-opacity: 0.2; stroke: #000000; stroke-opacity: 0.2"/>
   </g>
  </g>
  <g id="patch_10">
   <path d="M 725.823529 304.888235
L 972 304.888235
L 972 58.711765
L 725.823529 58.711765
L 725.823529 304.888235
z
" style="fill: none"/>
  </g>
  <g id="pane3d_7">
   <g id="patch_11">
    <path d="M 741.575356 237.143972
L 843.315056 194.612055
L 843.058835 90.099059
L 738.119385 124.799889
" style="fill: none; opacity: 0"/>
   </g>
  </g>
  <g id="pane3d_8">
   <g id="patch_12">
    <path d="M 843.315056 194.612055
L 961.408796 229.819149
L 964.770741 118.811636
L 843.058835 90.099059
" style="fill: none; opacity: 0"/>
   </g>
  </g>
  <g id="pane3d_9">
   <g id="patch_13">
    <path d="M 741.575356 237.143972
L 862.663665 278.838715
L 961.408796 229.819149
L 843.315056 194.612055
" style="fill: none; opacity: 0"/>
   </g>
  </g>
  <g id="axis3d_7">
   <g id="line2d_71">
    <path d="M 741.575356 237.143972
L 862.663665 278.838715
" style="fill: none; stroke: #000000; stroke-width: 0.8; stroke-linecap: square"/>
   </g>
   <g id="text_23">
    <!-- $c_1$ -->
    <g transform="translate(783.981031 273.391962) rotate(-340.999706) scale(0.1 -0.1)">
     <use xlink:href="#DejaVuSans-Oblique-63"/>
     <use xlink:href="#DejaVuSans-31" transform="translate(54.980469 -16.40625) scale(0.7)"/>
    </g>
   </g>
   <g id="xtick_35">
    <g id="line2d_72">
     <path d="M 744.709852 237.549533
L 742.059599 238.660971
" style="fill: none; stroke: #000000; stroke-width: 0.8; stroke-linecap: square"/>
    </g>
    <g id="text_24">
     <!-- 0 -->
     <g transform="translate(738.974912 247.943291) scale(0.1 -0.1)">
      <use xlink:href="#DejaVuSans-30"/>
     </g>
    </g>
   </g>
   <g id="xtick_36">
    <g id="line2d_73">
     <path d="M 772.244114 247.018756
L 769.604881 248.169309
" style="fill: none; stroke: #000000; stroke-width: 0.8; stroke-linecap: square"/>
    </g>
   </g>
   <g id="xtick_37">
    <g id="line2d_74">
     <path d="M 800.755002 256.823849
L 798.12925 258.015616
" style="fill: none; stroke: #000000; stroke-width: 0.8; stroke-linecap: square"/>
    </g>
    <g id="text_25">
     <!-- $\pi/2$ -->
     <g transform="translate(790.499769 267.347583) scale(0.1 -0.1)">
      <use xlink:href="#DejaVuSans-Oblique-3c0" transform="translate(0 0.78125)"/>
      <use xlink:href="#DejaVuSans-2f" transform="translate(60.205078 0.78125)"/>
      <use xlink:href="#DejaVuSans-32" transform="translate(90.271484 0.78125)"/>
     </g>
    </g>
   </g>
   <g id="xtick_38">
    <g id="line2d_75">
     <path d="M 830.295414 266.983002
L 827.685852 268.21824
" style="fill: none; stroke: #000000; stroke-width: 0.8; stroke-linecap: square"/>
    </g>
   </g>
   <g id="xtick_39">
    <g id="line2d_76">
     <path d="M 860.922141 277.515746
L 858.331751 278.796877
" style="fill: none; stroke: #000000; stroke-width: 0.8; stroke-linecap: square"/>
    </g>
    <g id="text_26">
     <!-- $\pi$ -->
     <g transform="translate(855.322053 288.18137) scale(0.1 -0.1)">
      <use xlink:href="#DejaVuSans-Oblique-3c0" transform="translate(0 0.3125)"/>
     </g>
    </g>
   </g>
  </g>
  <g id="axis3d_8">
   <g id="line2d_77">
    <path d="M 961.408796 229.819149
L 862.663665 278.838715
" style="fill: none; stroke: #000000; stroke-width: 0.8; stroke-linecap: square"/>
   </g>
   <g id="text_27">
    <!-- $c_2$ -->
    <g transform="translate(917.734559 266.375416) rotate(-26.400958) scale(0.1 -0.1)">
     <use xlink:href="#DejaVuSans-Oblique-63"/>
     <use xlink:href="#DejaVuSans-32" transform="translate(54.980469 -16.40625) scale(0.7)"/>
    </g>
   </g>
   <g id="xtick_40">
    <g id="line2d_78">
     <path d="M 863.773489 277.412923
L 866.90292 278.48716
" style="fill: none; stroke: #000000; stroke-width: 0.8; stroke-linecap: square"/>
    </g>
    <g id="text_28">
     <!-- 0 -->
     <g transform="translate(868.873554 285.544063) scale(0.1 -0.1)">
      <use xlink:href="#DejaVuSans-30"/>
     </g>
    </g>
   </g>
   <g id="xtick_41">
    <g id="line2d_79">
     <path d="M 884.042328 267.366031
L 887.154442 268.403546
" style="fill: none; stroke: #000000; stroke-width: 0.8; stroke-linecap: square"/>
    </g>
   </g>
   <g id="xtick_42">
    <g id="line2d_80">
     <path d="M 903.624724 257.659396
L 906.718888 258.662041
" style="fill: none; stroke: #000000; stroke-width: 0.8; stroke-linecap: square"/>
    </g>
   </g>
   <g id="xtick_43">
    <g id="line2d_81">
     <path d="M 922.554967 248.276022
L 925.630639 249.245525
" style="fill: none; stroke: #000000; stroke-width: 0.8; stroke-linecap: square"/>
    </g>
   </g>
   <g id="xtick_44">
    <g id="line2d_82">
     <path d="M 940.865102 239.200023
L 943.921821 240.138001
" style="fill: none; stroke: #000000; stroke-width: 0.8; stroke-linecap: square"/>
    </g>
   </g>
   <g id="xtick_45">
    <g id="line2d_83">
     <path d="M 958.585108 230.416541
L 961.622487 231.324507
" style="fill: none; stroke: #000000; stroke-width: 0.8; stroke-linecap: square"/>
    </g>
    <g id="text_29">
     <!-- $\pi/2$ -->
     <g transform="translate(963.447069 238.028022) scale(0.1 -0.1)">
      <use xlink:href="#DejaVuSans-Oblique-3c0" transform="translate(0 0.78125)"/>
      <use xlink:href="#DejaVuSans-2f" transform="translate(60.205078 0.78125)"/>
      <use xlink:href="#DejaVuSans-32" transform="translate(90.271484 0.78125)"/>
     </g>
    </g>
   </g>
  </g>
  <g id="axis3d_9">
   <g id="line2d_84">
    <path d="M 741.575356 237.143972
L 738.119385 124.799889
" style="fill: none; stroke: #000000; stroke-width: 0.8; stroke-linecap: square"/>
   </g>
   <g id="text_30">
    <!-- $c_3$ -->
    <g transform="translate(730.269688 187.355517) rotate(-90) scale(0.1 -0.1)">
     <use xlink:href="#DejaVuSans-Oblique-63"/>
     <use xlink:href="#DejaVuSans-33" transform="translate(54.980469 -16.40625) scale(0.7)"/>
    </g>
   </g>
   <g id="xtick_46">
    <g id="line2d_85">
     <path d="M 742.408938 235.272706
L 739.710073 234.347088
" style="fill: none; stroke: #000000; stroke-width: 0.8; stroke-linecap: square"/>
    </g>
    <g id="text_31">
     <!-- 0 -->
     <g transform="translate(728.186625 237.954136) scale(0.1 -0.1)">
      <use xlink:href="#DejaVuSans-30"/>
     </g>
    </g>
   </g>
   <g id="xtick_47">
    <g id="line2d_86">
     <path d="M 741.765837 214.197658
L 739.052303 213.302891
" style="fill: none; stroke: #000000; stroke-width: 0.8; stroke-linecap: square"/>
    </g>
   </g>
   <g id="xtick_48">
    <g id="line2d_87">
     <path d="M 741.115161 192.87435
L 738.386798 192.011224
" style="fill: none; stroke: #000000; stroke-width: 0.8; stroke-linecap: square"/>
    </g>
   </g>
   <g id="xtick_49">
    <g id="line2d_88">
     <path d="M 740.456775 171.298367
L 737.713421 170.467698
" style="fill: none; stroke: #000000; stroke-width: 0.8; stroke-linecap: square"/>
    </g>
   </g>
   <g id="xtick_50">
    <g id="line2d_89">
     <path d="M 739.79054 149.465193
L 737.032031 148.667817
" style="fill: none; stroke: #000000; stroke-width: 0.8; stroke-linecap: square"/>
    </g>
   </g>
   <g id="xtick_51">
    <g id="line2d_90">
     <path d="M 739.116316 127.370201
L 736.342484 126.606977
" style="fill: none; stroke: #000000; stroke-width: 0.8; stroke-linecap: square"/>
    </g>
    <g id="text_32">
     <!-- $\pi/2$ -->
     <g transform="translate(715.621395 130.065303) scale(0.1 -0.1)">
      <use xlink:href="#DejaVuSans-Oblique-3c0" transform="translate(0 0.78125)"/>
      <use xlink:href="#DejaVuSans-2f" transform="translate(60.205078 0.78125)"/>
      <use xlink:href="#DejaVuSans-32" transform="translate(90.271484 0.78125)"/>
     </g>
    </g>
   </g>
  </g>
  <g id="axes_3">
   <g id="line2d_91">
    <path d="M 745.966577 234.815862
L 898.532597 210.361744
" clip-path="url(#p9762e0445a)" style="fill: none; stroke-dasharray: 1.85,0.8; stroke-dashoffset: 0; stroke: #000000; stroke-width: 0.5"/>
   </g>
   <g id="line2d_92">
    <path d="M 881.43904 240.583228
L 802.032242 253.98499
" clip-path="url(#p9762e0445a)" style="fill: none; stroke-dasharray: 1.85,0.8; stroke-dashoffset: 0; stroke: #000000; stroke-width: 0.5"/>
   </g>
   <g id="line2d_93">
    <path d="M 824.01461 222.305895
L 802.032242 253.98499
" clip-path="url(#p9762e0445a)" style="fill: none; stroke-dasharray: 1.85,0.8; stroke-dashoffset: 0; stroke: #000000; stroke-width: 0.5"/>
   </g>
   <g id="line2d_94">
    <path d="M 823.607923 170.256638
L 824.01461 222.305895
" clip-path="url(#p9762e0445a)" style="fill: none; stroke-dasharray: 1.85,0.8; stroke-dashoffset: 0; stroke: #000000; stroke-width: 0.5"/>
   </g>
   <g id="line2d_95">
    <path d="M 823.607923 170.256638
L 898.532597 210.361744
" clip-path="url(#p9762e0445a)" style="fill: none; stroke-dasharray: 1.85,0.8; stroke-dashoffset: 0; stroke: #000000; stroke-width: 0.5"/>
   </g>
   <g id="line2d_96">
    <path d="M 745.966577 234.815862
L 862.219572 274.563335
" clip-path="url(#p9762e0445a)" style="fill: none; stroke: #000000; stroke-width: 0.5; stroke-linecap: square"/>
   </g>
   <g id="line2d_97">
    <path d="M 862.219572 274.563335
L 898.532597 210.361744
" clip-path="url(#p9762e0445a)" style="fill: none; stroke: #000000; stroke-width: 0.5; stroke-linecap: square"/>
   </g>
   <g id="line2d_98">
    <path d="M 898.532597 210.361744
L 899.85475 106.856964
" clip-path="url(#p9762e0445a)" style="fill: none; stroke: #000000; stroke-width: 0.5; stroke-linecap: square"/>
   </g>
   <g id="line2d_99">
    <path d="M 899.85475 106.856964
L 862.219572 274.563335
" clip-path="url(#p9762e0445a)" style="fill: none; stroke: #000000; stroke-width: 0.5; stroke-linecap: square"/>
   </g>
   <g id="line2d_100">
    <path d="M 899.85475 106.856964
L 745.966577 234.815862
" clip-path="url(#p9762e0445a)" style="fill: none; stroke: #000000; stroke-width: 0.5; stroke-linecap: square"/>
   </g>
   <g id="line2d_101">
    <path d="M 802.032242 253.98499
L 881.874579 186.978526
" clip-path="url(#p9762e0445a)" style="fill: none; stroke: #000000; stroke-width: 0.5; stroke-linecap: square"/>
   </g>
   <g id="line2d_102">
    <path d="M 802.032242 253.98499
L 823.607923 170.256638
" clip-path="url(#p9762e0445a)" style="fill: none; stroke: #000000; stroke-width: 0.5; stroke-linecap: square"/>
   </g>
   <g id="line2d_103">
    <path d="M 881.874579 186.978526
L 823.607923 170.256638
" clip-path="url(#p9762e0445a)" style="fill: none; stroke: #000000; stroke-width: 0.5; stroke-linecap: square"/>
   </g>
   <g id="line2d_104">
    <path d="M 881.874579 186.978526
L 898.532597 210.361744
" clip-path="url(#p9762e0445a)" style="fill: none; stroke: #000000; stroke-width: 0.5; stroke-linecap: square"/>
   </g>
   <g id="line2d_105">
    <path d="M 881.874579 186.978526
L 881.43904 240.583228
" clip-path="url(#p9762e0445a)" style="fill: none; stroke: #000000; stroke-width: 0.5; stroke-linecap: square"/>
   </g>
   <g id="Poly3DCollection_5">
    <path d="M 898.532597 210.361744
L 899.85475 106.856964
L 745.966577 234.815862
z
" clip-path="url(#p9762e0445a)" style="fill: #0000ff; fill-opacity: 0.2; stroke: #000000; stroke-opacity: 0.2"/>
    <path d="M 898.532597 210.361744
L 899.85475 106.856964
L 862.219572 274.563335
z
" clip-path="url(#p9762e0445a)" style="fill: #0000ff; fill-opacity: 0.2; stroke: #000000; stroke-opacity: 0.2"/>
    <path d="M 898.532597 210.361744
L 862.219572 274.563335
L 745.966577 234.815862
z
" clip-path="url(#p9762e0445a)" style="fill: #0000ff; fill-opacity: 0.2; stroke: #000000; stroke-opacity: 0.2"/>
    <path d="M 899.85475 106.856964
L 862.219572 274.563335
L 745.966577 234.815862
z
" clip-path="url(#p9762e0445a)" style="fill: #0000ff; fill-opacity: 0.2; stroke: #000000; stroke-opacity: 0.2"/>
   </g>
   <g id="text_33">
    <!-- Cost: 1.5 -->
    <g transform="translate(822.103015 52.711765) scale(0.12 -0.12)">
     <use xlink:href="#DejaVuSans-43"/>
     <use xlink:href="#DejaVuSans-6f" x="69.824219"/>
     <use xlink:href="#DejaVuSans-73" x="131.005859"/>
     <use xlink:href="#DejaVuSans-74" x="183.105469"/>
     <use xlink:href="#DejaVuSans-3a" x="222.314453"/>
     <use xlink:href="#DejaVuSans-20" x="256.005859"/>
     <use xlink:href="#DejaVuSans-31" x="287.792969"/>
     <use xlink:href="#DejaVuSans-2e" x="351.416016"/>
     <use xlink:href="#DejaVuSans-35" x="383.203125"/>
    </g>
   </g>
   <g id="Poly3DCollection_6">
    <path d="M 898.532597 210.361744
L 899.85475 106.856964
L 745.966577 234.815862
z
" clip-path="url(#p9762e0445a)" style="fill: #0000ff; fill-opacity: 0.2; stroke: #000000; stroke-opacity: 0.2"/>
    <path d="M 898.532597 210.361744
L 899.85475 106.856964
L 862.219572 274.563335
z
" clip-path="url(#p9762e0445a)" style="fill: #0000ff; fill-opacity: 0.2; stroke: #000000; stroke-opacity: 0.2"/>
    <path d="M 898.532597 210.361744
L 862.219572 274.563335
L 745.966577 234.815862
z
" clip-path="url(#p9762e0445a)" style="fill: #0000ff; fill-opacity: 0.2; stroke: #000000; stroke-opacity: 0.2"/>
    <path d="M 899.85475 106.856964
L 862.219572 274.563335
L 745.966577 234.815862
z
" clip-path="url(#p9762e0445a)" style="fill: #0000ff; fill-opacity: 0.2; stroke: #000000; stroke-opacity: 0.2"/>
   </g>
  </g>
 </g>
 <defs>
  <clipPath id="pc2d2a8ace0">
   <rect x="135" y="58.711765" width="246.176471" height="246.176471"/>
  </clipPath>
  <clipPath id="p1ec03045f2">
   <rect x="430.411765" y="58.711765" width="246.176471" height="246.176471"/>
  </clipPath>
  <clipPath id="p9762e0445a">
   <rect x="725.823529" y="58.711765" width="246.176471" height="246.176471"/>
  </clipPath>
 </defs>
</svg>
