<?xml version="1.0" encoding="utf-8" standalone="no"?>
<!DOCTYPE svg PUBLIC "-//W3C//DTD SVG 1.1//EN"
  "http://www.w3.org/Graphics/SVG/1.1/DTD/svg11.dtd">
<svg xmlns:xlink="http://www.w3.org/1999/xlink" width="292.791583pt" height="135.788114pt" viewBox="0 0 292.791583 135.788114" xmlns="http://www.w3.org/2000/svg" version="1.1">
 <metadata>
  <rdf:RDF xmlns:dc="http://purl.org/dc/elements/1.1/" xmlns:cc="http://creativecommons.org/ns#" xmlns:rdf="http://www.w3.org/1999/02/22-rdf-syntax-ns#">
   <cc:Work>
    <dc:type rdf:resource="http://purl.org/dc/dcmitype/StillImage"/>
    <dc:date>2023-07-18T10:34:29.399145</dc:date>
    <dc:format>image/svg+xml</dc:format>
    <dc:creator>
     <cc:Agent>
      <dc:title>Matplotlib v3.7.2, https://matplotlib.org/</dc:title>
     </cc:Agent>
    </dc:creator>
   </cc:Work>
  </rdf:RDF>
 </metadata>
 <defs>
  <style type="text/css">*{stroke-linejoin: round; stroke-linecap: butt}</style>
 </defs>
 <g id="figure_1">
  <g id="patch_1">
   <path d="M 0 135.788114
L 292.791583 135.788114
L 292.791583 -0
L 0 -0
L 0 135.788114
z
" style="fill: none"/>
  </g>
  <g id="axes_1">
   <g id="patch_2">
    <path d="M 66.500337 16.080087
L 137.518519 16.080087
L 137.518519 16.080087
L 66.500337 16.080087
z
" clip-path="url(#pdd232b6aa5)" style="fill: #1f77b4"/>
   </g>
   <g id="patch_3">
    <path d="M 66.500337 16.080087
L 137.518519 16.080087
L 137.518519 16.080087
L 66.500337 16.080087
z
" clip-path="url(#pdd232b6aa5)" style="fill: #17becf"/>
   </g>
   <g id="legend_1">
    <g id="patch_4">
     <path d="M 10.4 18.704683
L 26.4 18.704683
L 26.4 13.104683
L 10.4 13.104683
z
" style="fill: #1f77b4"/>
    </g>
    <g id="text_1">
     <!-- SABREMS-AddedSwaps-$\sqrt{\texttt{iSWAP}}$ -->
     <g transform="translate(32.8 18.704683) scale(0.08 -0.08)">
      <defs>
       <path id="CMSS17-53" d="M 2797 4169
C 2515 4334 2208 4480 1690 4480
C 864 4480 333 3879 333 3266
C 333 3025 403 2753 653 2475
C 902 2196 1184 2121 1542 2033
C 1690 1994 1939 1924 1984 1906
C 2342 1767 2515 1444 2515 1140
C 2515 742 2202 318 1645 318
C 1453 318 890 318 358 819
L 269 318
C 794 -64 1363 -128 1651 -128
C 2438 -128 3002 488 3002 1186
C 3002 1440 2925 1763 2656 2061
C 2394 2347 2163 2410 1638 2549
C 1338 2626 1146 2677 986 2873
C 877 3013 819 3146 819 3317
C 819 3673 1126 4060 1690 4060
C 1971 4060 2336 4002 2707 3660
L 2797 4169
z
" transform="scale(0.015625)"/>
       <path id="CMSS17-41" d="M 2272 4416
L 1722 4416
L 166 0
L 653 0
L 1101 1280
L 2816 1280
L 3270 0
L 3827 0
L 2272 4416
z
M 2694 1637
L 1222 1637
C 1530 2528 1914 3638 1958 3925
L 1965 3925
C 2010 3663 2138 3281 2246 2956
L 2694 1637
z
" transform="scale(0.015625)"/>
       <path id="CMSS17-42" d="M 570 4416
L 570 0
L 2163 0
C 3034 0 3667 574 3667 1200
C 3667 1685 3251 2176 2502 2317
C 3334 2558 3501 3040 3501 3313
C 3501 3883 2874 4416 1997 4416
L 570 4416
z
M 1088 2496
L 1088 4059
L 1824 4059
C 2483 4059 3002 3724 3002 3306
C 3002 2926 2592 2496 1766 2496
L 1088 2496
z
M 1088 357
L 1088 2107
L 1939 2107
C 2630 2107 3162 1679 3162 1206
C 3162 772 2694 357 1984 357
L 1088 357
z
" transform="scale(0.015625)"/>
       <path id="CMSS17-52" d="M 2522 2109
L 2534 2115
C 3533 2459 3539 3147 3539 3268
C 3539 3873 2925 4453 2003 4453
L 570 4453
L 570 32
L 1094 32
L 1094 2048
L 2035 2048
L 3168 32
L 3706 32
L 2522 2109
z
M 1094 2437
L 1094 4096
L 1933 4096
C 2746 4096 3034 3637 3034 3267
C 3034 2922 2778 2437 1933 2437
L 1094 2437
z
" transform="scale(0.015625)"/>
       <path id="CMSS17-45" d="M 1958 433
C 1446 433 1216 433 1101 433
L 1101 2107
L 3085 2107
L 3085 2496
L 1101 2496
L 1101 4009
L 1926 4009
C 2003 4009 2080 4009 2157 4009
L 3251 4009
L 3251 4416
L 563 4416
L 563 0
L 3334 0
L 3334 433
L 1958 433
z
" transform="scale(0.015625)"/>
       <path id="CMSS17-4d" d="M 3194 2371
L 2886 1473
C 2835 1307 2662 791 2624 587
L 2618 587
C 2598 715 2560 849 2458 1174
C 2400 1365 2336 1562 2272 1741
L 1325 4416
L 576 4416
L 576 0
L 1075 0
L 1075 3900
L 1082 3900
C 1082 3894 1139 3613 1530 2499
L 2374 96
L 2848 96
L 3610 2231
C 3661 2378 3821 2843 3891 3066
C 3955 3257 4115 3728 4154 3913
L 4160 3913
L 4160 0
L 4666 0
L 4666 4416
L 3923 4416
L 3194 2371
z
" transform="scale(0.015625)"/>
       <path id="CMSS17-2d" d="M 1664 1216
L 1664 1585
L 64 1585
L 64 1216
L 1664 1216
z
" transform="scale(0.015625)"/>
       <path id="CMSS17-64" d="M 2611 4416
L 2138 4416
L 2138 2438
C 1939 2603 1613 2756 1254 2756
C 672 2756 211 2131 211 1347
C 211 562 666 -64 1235 -64
C 1677 -64 1971 172 2125 306
L 2125 -13
L 2611 -13
L 2611 4416
z
M 2125 836
C 2125 747 2125 653 1926 482
C 1798 375 1645 325 1498 325
C 1152 325 698 576 698 1340
C 698 2134 1210 2368 1562 2368
C 1798 2368 1990 2254 2125 2065
L 2125 836
z
" transform="scale(0.015625)"/>
       <path id="CMSS17-65" d="M 2502 1377
C 2502 1590 2490 2003 2285 2345
C 2061 2713 1696 2816 1421 2816
C 755 2816 192 2188 192 1375
C 192 582 774 -64 1510 -64
C 1798 -64 2150 19 2470 248
C 2470 274 2458 414 2451 420
C 2451 433 2432 630 2432 656
C 2125 407 1773 325 1517 325
C 1107 325 666 667 646 1377
L 2502 1377
z
M 698 1728
C 781 2084 1062 2421 1421 2421
C 1517 2421 1965 2421 2080 1728
L 698 1728
z
" transform="scale(0.015625)"/>
       <path id="CMSS17-77" d="M 4013 2752
L 3526 2752
L 3187 1601
C 3117 1358 2918 685 2893 371
L 2886 371
C 2874 564 2765 1024 2586 1633
L 2259 2752
L 1818 2752
L 1498 1658
C 1338 1101 1216 627 1203 371
L 1197 371
C 1171 749 909 1633 870 1773
L 582 2752
L 83 2752
L 915 0
L 1402 0
C 1734 1096 1990 1943 2010 2370
C 2022 2160 2131 1707 2195 1484
L 2618 0
L 3181 0
L 4013 2752
z
" transform="scale(0.015625)"/>
       <path id="CMSS17-61" d="M 2406 1791
C 2406 2392 1978 2808 1402 2808
C 1120 2808 813 2757 461 2553
L 499 2135
C 659 2248 934 2432 1395 2432
C 1722 2432 1920 2180 1920 1782
L 1920 1536
C 896 1536 256 1238 256 726
C 256 461 416 -64 947 -64
C 1043 -64 1562 -64 1933 217
L 1933 -19
L 2406 -19
L 2406 1791
z
M 1920 816
C 1920 701 1920 548 1728 434
C 1562 325 1350 325 1261 325
C 941 325 723 511 723 744
C 723 1211 1722 1211 1920 1211
L 1920 816
z
" transform="scale(0.015625)"/>
       <path id="CMSS17-70" d="M 966 333
C 1178 129 1466 -5 1773 -5
C 2368 -5 2880 603 2880 1412
C 2880 2159 2496 2816 1946 2816
C 1626 2816 1242 2702 954 2472
L 954 2765
L 480 2765
L 480 -1216
L 966 -1216
L 966 333
z
M 966 2100
C 1018 2176 1235 2415 1587 2415
C 2035 2415 2394 1960 2394 1412
C 2394 787 1958 384 1530 384
C 1402 384 1267 415 1139 523
C 966 674 966 768 966 857
L 966 2100
z
" transform="scale(0.015625)"/>
       <path id="CMSS17-73" d="M 2061 2627
C 1683 2807 1389 2807 1197 2807
C 742 2807 198 2648 198 2003
C 198 1359 902 1218 1094 1179
C 1389 1122 1715 1058 1715 740
C 1715 337 1254 337 1171 337
C 915 337 563 407 243 638
L 166 210
C 531 0 883 -64 1178 -64
C 1965 -64 2163 416 2163 781
C 2163 1094 1984 1305 1862 1401
C 1651 1568 1574 1587 1050 1696
C 960 1709 646 1779 646 2066
C 646 2432 1050 2432 1139 2432
C 1555 2432 1811 2303 1984 2208
L 2061 2627
z
" transform="scale(0.015625)"/>
       <path id="CMSY10-70" d="M 2490 -5472
L 1363 -2982
C 1318 -2880 1286 -2880 1267 -2880
C 1261 -2880 1229 -2880 1158 -2931
L 550 -3392
C 467 -3456 467 -3475 467 -3494
C 467 -3526 486 -3565 531 -3565
C 570 -3565 678 -3475 749 -3424
C 787 -3393 883 -3323 954 -3271
L 2214 -6042
C 2259 -6144 2291 -6144 2349 -6144
C 2445 -6144 2464 -6106 2509 -6016
L 5414 0
C 5459 90 5459 115 5459 128
C 5459 192 5408 256 5331 256
C 5280 256 5235 224 5184 122
L 2490 -5472
z
" transform="scale(0.015625)"/>
       <path id="CMTT12-69" d="M 1933 3616
C 1933 3776 1805 3904 1645 3904
C 1485 3904 1357 3776 1357 3616
C 1357 3456 1485 3328 1645 3328
C 1805 3328 1933 3456 1933 3616
z
M 832 2752
C 742 2752 576 2752 576 2567
C 576 2381 742 2381 832 2381
L 1517 2381
L 1517 371
L 787 371
C 698 371 525 371 525 186
C 525 0 698 0 787 0
L 2566 0
C 2656 0 2822 0 2822 186
C 2822 371 2656 371 2566 371
L 1933 371
L 1933 2491
C 1933 2688 1894 2752 1677 2752
L 832 2752
z
" transform="scale(0.015625)"/>
       <path id="CMTT12-53" d="M 2797 3757
C 2797 3859 2797 4000 2618 4000
C 2483 4000 2470 3949 2394 3680
C 2080 3955 1715 4000 1491 4000
C 813 4000 326 3514 326 2951
C 326 2573 550 2323 589 2285
C 858 2016 966 1991 1638 1831
C 2118 1722 2227 1696 2387 1517
C 2502 1376 2566 1216 2566 1037
C 2566 691 2291 307 1786 307
C 1235 307 774 544 742 1107
C 736 1203 730 1312 538 1312
C 326 1312 326 1191 326 1063
L 326 179
C 326 77 326 -64 506 -64
C 640 -64 653 -13 730 256
C 1082 -19 1523 -64 1786 -64
C 2509 -64 2963 493 2963 1063
C 2963 1511 2688 1792 2669 1818
C 2413 2080 2291 2106 1645 2259
C 1498 2298 1248 2355 1197 2368
C 934 2464 723 2688 723 2976
C 723 3315 1043 3629 1485 3629
C 1965 3629 2291 3373 2374 2829
C 2394 2707 2406 2624 2586 2624
C 2797 2624 2797 2739 2797 2867
L 2797 3757
z
" transform="scale(0.015625)"/>
       <path id="CMTT12-57" d="M 2989 3533
C 3034 3533 3219 3533 3219 3719
C 3219 3904 3046 3904 2957 3904
L 2483 3904
C 2394 3904 2221 3904 2221 3719
C 2221 3533 2394 3533 2483 3533
L 2630 3533
L 2355 1478
C 2310 1116 2253 723 2246 482
L 2240 482
C 2208 932 1907 2177 1907 2188
C 1862 2354 1702 2354 1645 2354
C 1587 2354 1453 2354 1395 2220
C 1370 2164 1082 907 1050 482
L 1043 482
C 1037 653 1024 742 992 995
L 666 3533
L 806 3533
C 896 3533 1069 3533 1069 3719
C 1069 3904 896 3904 806 3904
L 333 3904
C 243 3904 70 3904 70 3719
C 70 3533 256 3533 294 3533
L 301 3533
L 762 216
C 781 89 794 -32 1011 -32
C 1075 -32 1210 -32 1267 115
C 1280 152 1613 1593 1638 1903
L 1645 1903
C 1670 1612 2003 152 2029 95
C 2093 -32 2214 -32 2278 -32
C 2496 -32 2509 95 2528 210
L 2989 3533
z
" transform="scale(0.015625)"/>
       <path id="CMTT12-41" d="M 1971 3770
C 1920 4000 1792 4000 1645 4000
C 1446 4000 1370 3974 1325 3770
L 531 371
C 320 371 173 371 173 186
C 173 0 346 0 435 0
L 1050 0
C 1139 0 1312 0 1312 186
C 1312 371 1158 371 960 371
L 1126 1088
L 2163 1088
L 2330 371
C 2131 371 1978 371 1978 186
C 1978 0 2150 0 2240 0
L 2854 0
C 2944 0 3117 0 3117 186
C 3117 371 2970 371 2758 371
L 1971 3770
z
M 1210 1459
C 1254 1651 1606 3162 1638 3469
L 1645 3469
C 1664 3322 1754 2931 1754 2925
L 2080 1459
L 1210 1459
z
" transform="scale(0.015625)"/>
       <path id="CMTT12-50" d="M 1030 1600
L 1824 1600
C 2566 1600 3014 2184 3014 2750
C 3014 3340 2554 3904 1824 3904
L 442 3904
C 352 3904 179 3904 179 3719
C 179 3533 352 3533 442 3533
L 614 3533
L 614 371
L 442 371
C 352 371 179 371 179 186
C 179 0 352 0 442 0
L 1203 0
C 1293 0 1466 0 1466 186
C 1466 371 1293 371 1203 371
L 1030 371
L 1030 1600
z
M 1030 3533
L 1709 3533
C 2323 3533 2598 3090 2598 2755
C 2598 2395 2310 1971 1709 1971
L 1030 1971
L 1030 3533
z
" transform="scale(0.015625)"/>
      </defs>
      <use xlink:href="#CMSS17-53" transform="scale(0.996264)"/>
      <use xlink:href="#CMSS17-41" transform="translate(52.048516 0) scale(0.996264)"/>
      <use xlink:href="#CMSS17-42" transform="translate(114.266371 0) scale(0.996264)"/>
      <use xlink:href="#CMSS17-52" transform="translate(176.604411 0) scale(0.996264)"/>
      <use xlink:href="#CMSS17-45" transform="translate(237.020566 0) scale(0.996264)"/>
      <use xlink:href="#CMSS17-4d" transform="translate(292.912579 0) scale(0.996264)"/>
      <use xlink:href="#CMSS17-53" transform="translate(374.588609 0) scale(0.996264)"/>
      <use xlink:href="#CMSS17-2d" transform="translate(426.637126 0) scale(0.996264)"/>
      <use xlink:href="#CMSS17-41" transform="translate(457.866238 0) scale(0.996264)"/>
      <use xlink:href="#CMSS17-64" transform="translate(520.084093 0) scale(0.996264)"/>
      <use xlink:href="#CMSS17-64" transform="translate(568.289036 0) scale(0.996264)"/>
      <use xlink:href="#CMSS17-65" transform="translate(616.493979 0) scale(0.996264)"/>
      <use xlink:href="#CMSS17-64" transform="translate(658.132802 0) scale(0.996264)"/>
      <use xlink:href="#CMSS17-53" transform="translate(706.337745 0) scale(0.996264)"/>
      <use xlink:href="#CMSS17-77" transform="translate(758.386261 0) scale(0.996264)"/>
      <use xlink:href="#CMSS17-61" transform="translate(819.603352 0) scale(0.996264)"/>
      <use xlink:href="#CMSS17-70" transform="translate(864.525273 0) scale(0.996264)"/>
      <use xlink:href="#CMSS17-73" transform="translate(912.730216 0) scale(0.996264)"/>
      <use xlink:href="#CMSS17-2d" transform="translate(948.643758 0) scale(0.996264)"/>
      <use xlink:href="#CMSY10-70" transform="translate(979.872871 80.752689) scale(0.996264)"/>
      <use xlink:href="#CMTT12-69" transform="translate(1062.895125 0) scale(0.996264)"/>
      <use xlink:href="#CMTT12-53" transform="translate(1114.161236 0) scale(0.996264)"/>
      <use xlink:href="#CMTT12-57" transform="translate(1165.427346 0) scale(0.996264)"/>
      <use xlink:href="#CMTT12-41" transform="translate(1216.693457 0) scale(0.996264)"/>
      <use xlink:href="#CMTT12-50" transform="translate(1267.959568 0) scale(0.996264)"/>
      <path d="M 1062.895125 80.752689
L 1319.225679 80.752689
L 1319.225679 84.737639
L 1062.895125 84.737639
L 1062.895125 80.752689
z
"/>
     </g>
    </g>
    <g id="patch_5">
     <path d="M 165.787946 18.704683
L 181.787946 18.704683
L 181.787946 13.104683
L 165.787946 13.104683
z
" style="fill: #17becf"/>
    </g>
    <g id="text_2">
     <!-- SABREMS-Depth-$\sqrt{\texttt{iSWAP}}$ -->
     <g transform="translate(188.187946 18.704683) scale(0.08 -0.08)">
      <defs>
       <path id="CMSS17-44" d="M 570 4416
L 570 0
L 2144 0
C 3194 0 4000 980 4000 2170
C 4000 3398 3194 4416 2144 4416
L 570 4416
z
M 1094 357
L 1094 4059
L 2003 4059
C 2861 4059 3475 3277 3475 2170
C 3475 1107 2867 357 2003 357
L 1094 357
z
" transform="scale(0.015625)"/>
       <path id="CMSS17-74" d="M 1069 2368
L 1901 2368
L 1901 2737
L 1069 2737
L 1069 3520
L 614 3520
L 614 2737
L 109 2737
L 109 2368
L 602 2368
L 602 749
C 602 384 685 -64 1107 -64
C 1427 -64 1722 25 2003 172
L 1901 548
C 1747 414 1562 337 1363 337
C 1082 337 1069 696 1069 856
L 1069 2368
z
" transform="scale(0.015625)"/>
       <path id="CMSS17-68" d="M 2618 1891
C 2618 2292 2522 2820 1798 2820
C 1395 2820 1133 2623 947 2407
L 947 4448
L 474 4448
L 474 32
L 960 32
L 960 1573
C 960 1973 1114 2432 1549 2432
C 2112 2432 2131 2056 2131 1839
L 2131 32
L 2618 32
L 2618 1891
z
" transform="scale(0.015625)"/>
      </defs>
      <use xlink:href="#CMSS17-53" transform="scale(0.996264)"/>
      <use xlink:href="#CMSS17-41" transform="translate(52.048516 0) scale(0.996264)"/>
      <use xlink:href="#CMSS17-42" transform="translate(114.266371 0) scale(0.996264)"/>
      <use xlink:href="#CMSS17-52" transform="translate(176.604411 0) scale(0.996264)"/>
      <use xlink:href="#CMSS17-45" transform="translate(237.020566 0) scale(0.996264)"/>
      <use xlink:href="#CMSS17-4d" transform="translate(292.912579 0) scale(0.996264)"/>
      <use xlink:href="#CMSS17-53" transform="translate(374.588609 0) scale(0.996264)"/>
      <use xlink:href="#CMSS17-2d" transform="translate(426.637126 0) scale(0.996264)"/>
      <use xlink:href="#CMSS17-44" transform="translate(457.866238 0) scale(0.996264)"/>
      <use xlink:href="#CMSS17-65" transform="translate(525.40908 0) scale(0.996264)"/>
      <use xlink:href="#CMSS17-70" transform="translate(567.047902 0) scale(0.996264)"/>
      <use xlink:href="#CMSS17-74" transform="translate(615.252845 0) scale(0.996264)"/>
      <use xlink:href="#CMSS17-68" transform="translate(649.084412 0) scale(0.996264)"/>
      <use xlink:href="#CMSS17-2d" transform="translate(697.289355 0) scale(0.996264)"/>
      <use xlink:href="#CMSY10-70" transform="translate(728.518468 80.752689) scale(0.996264)"/>
      <use xlink:href="#CMTT12-69" transform="translate(811.540722 0) scale(0.996264)"/>
      <use xlink:href="#CMTT12-53" transform="translate(862.806833 0) scale(0.996264)"/>
      <use xlink:href="#CMTT12-57" transform="translate(914.072944 0) scale(0.996264)"/>
      <use xlink:href="#CMTT12-41" transform="translate(965.339054 0) scale(0.996264)"/>
      <use xlink:href="#CMTT12-50" transform="translate(1016.605165 0) scale(0.996264)"/>
      <path d="M 811.540722 80.752689
L 1067.871276 80.752689
L 1067.871276 84.737639
L 811.540722 84.737639
L 811.540722 80.752689
z
"/>
     </g>
    </g>
   </g>
  </g>
  <g id="axes_2">
   <g id="patch_6">
    <path d="M 48.745791 98.676
L 244.045791 98.676
L 244.045791 25.415279
L 48.745791 25.415279
L 48.745791 98.676
z
" style="fill: none"/>
   </g>
   <g id="patch_7">
    <path d="M 57.623064 98.676
L 146.395791 98.676
L 146.395791 32.693283
L 57.623064 32.693283
z
" clip-path="url(#p7d59fc486f)" style="fill: #1f77b4"/>
   </g>
   <g id="patch_8">
    <path d="M 146.395791 98.676
L 235.168519 98.676
L 235.168519 28.903885
L 146.395791 28.903885
z
" clip-path="url(#p7d59fc486f)" style="fill: #17becf"/>
   </g>
   <g id="matplotlib.axis_1">
    <g id="xtick_1">
     <g id="line2d_1">
      <defs>
       <path id="m6fbfabc15d" d="M 0 0
L 0 3.5
" style="stroke: #000000; stroke-width: 0.8"/>
      </defs>
      <g>
       <use xlink:href="#m6fbfabc15d" x="146.395791" y="98.676" style="stroke: #000000; stroke-width: 0.8"/>
      </g>
     </g>
     <g id="text_3">
      <!-- qft_n18 -->
      <g transform="translate(119.025772 126.910468) rotate(-30) scale(0.1 -0.1)">
       <defs>
        <path id="CMSS17-71" d="M 2611 2816
L 2138 2816
L 2138 2428
C 2112 2460 1818 2816 1318 2816
C 736 2816 211 2228 211 1399
C 211 633 653 -5 1229 -5
C 1498 -5 1837 91 2125 365
L 2125 -1216
L 2611 -1216
L 2611 2816
z
M 2138 914
C 2138 832 2138 718 1939 554
C 1888 510 1747 384 1504 384
C 1050 384 698 850 698 1399
C 698 2011 1126 2415 1562 2415
C 1926 2415 2138 2061 2138 1797
L 2138 914
z
" transform="scale(0.015625)"/>
        <path id="CMSS17-66" d="M 1075 2368
L 1722 2368
L 1722 2737
L 1062 2737
L 1062 3559
C 1062 4014 1408 4092 1606 4092
C 1670 4092 1850 4092 2080 4009
L 2080 4429
C 1933 4461 1754 4480 1613 4480
C 1018 4480 602 3993 602 3359
L 602 2737
L 160 2737
L 160 2368
L 602 2368
L 602 0
L 1075 0
L 1075 2368
z
" transform="scale(0.015625)"/>
        <path id="CMSS17-6e" d="M 2618 1877
C 2618 2283 2522 2816 1798 2816
C 1389 2816 1120 2606 941 2389
L 941 2758
L 474 2758
L 474 0
L 960 0
L 960 1559
C 960 1964 1114 2428 1549 2428
C 2112 2428 2131 2048 2131 1829
L 2131 0
L 2618 0
L 2618 1877
z
" transform="scale(0.015625)"/>
        <path id="CMSS17-31" d="M 1818 4288
L 1696 4288
C 1350 3940 947 3890 538 3890
L 538 3520
C 723 3520 1024 3520 1325 3667
L 1325 369
L 570 369
L 570 0
L 2573 0
L 2573 369
L 1818 369
L 1818 4288
z
" transform="scale(0.015625)"/>
        <path id="CMSS17-38" d="M 1933 2222
C 2419 2380 2669 2760 2669 3134
C 2669 3722 2157 4229 1504 4229
C 826 4229 333 3708 333 3144
C 333 2780 576 2403 1069 2241
C 442 1997 250 1512 250 1149
C 250 446 819 -128 1498 -128
C 2202 -128 2752 455 2752 1138
C 2752 1557 2502 2000 1933 2222
z
M 1504 2432
C 1075 2432 787 2712 787 3136
C 787 3566 1075 3840 1504 3840
C 1901 3840 2214 3591 2214 3136
C 2214 2687 1907 2432 1504 2432
z
M 1504 267
C 1139 267 749 517 749 1156
C 749 1813 1184 2043 1498 2043
C 1843 2043 2253 1800 2253 1156
C 2253 491 1830 267 1504 267
z
" transform="scale(0.015625)"/>
       </defs>
       <use xlink:href="#CMSS17-71" transform="scale(0.996264)"/>
       <use xlink:href="#CMSS17-66" transform="translate(48.204943 0) scale(0.996264)"/>
       <use xlink:href="#CMSS17-74" transform="translate(76.831602 0) scale(0.996264)"/>
       <use xlink:href="#CMSS17-6e" transform="translate(144.390664 0) scale(0.996264)"/>
       <use xlink:href="#CMSS17-31" transform="translate(192.595607 0) scale(0.996264)"/>
       <use xlink:href="#CMSS17-38" transform="translate(239.439231 0) scale(0.996264)"/>
       <path d="M 116.28418 0
L 144.390664 0
L 144.390664 0.3985
L 116.28418 0.3985
L 116.28418 0
z
"/>
      </g>
     </g>
    </g>
   </g>
   <g id="matplotlib.axis_2">
    <g id="ytick_1">
     <g id="line2d_2">
      <defs>
       <path id="ma5c90c40f3" d="M 0 0
L -3.5 0
" style="stroke: #000000; stroke-width: 0.8"/>
      </defs>
      <g>
       <use xlink:href="#ma5c90c40f3" x="48.745791" y="98.676" style="stroke: #000000; stroke-width: 0.8"/>
      </g>
     </g>
     <g id="text_4">
      <!-- $\mathdefault{0}$ -->
      <g transform="translate(34.917303 103.518938) scale(0.14 -0.14)">
       <defs>
        <path id="CMR17-30" d="M 2688 2025
C 2688 2416 2682 3080 2413 3591
C 2176 4039 1798 4198 1466 4198
C 1158 4198 768 4058 525 3597
C 269 3118 243 2524 243 2025
C 243 1661 250 1106 448 619
C 723 -39 1216 -128 1466 -128
C 1760 -128 2208 -7 2470 600
C 2662 1042 2688 1559 2688 2025
z
M 1466 -26
C 1056 -26 813 325 723 812
C 653 1188 653 1738 653 2096
C 653 2588 653 2997 736 3387
C 858 3929 1216 4096 1466 4096
C 1728 4096 2067 3923 2189 3400
C 2272 3036 2278 2607 2278 2096
C 2278 1680 2278 1169 2202 792
C 2067 95 1690 -26 1466 -26
z
" transform="scale(0.015625)"/>
       </defs>
       <use xlink:href="#CMR17-30" transform="scale(0.996264)"/>
      </g>
     </g>
    </g>
    <g id="ytick_2">
     <g id="line2d_3">
      <g>
       <use xlink:href="#ma5c90c40f3" x="48.745791" y="73.096346" style="stroke: #000000; stroke-width: 0.8"/>
      </g>
     </g>
     <g id="text_5">
      <!-- $\mathdefault{4}$ -->
      <g transform="translate(34.917303 77.939284) scale(0.14 -0.14)">
       <defs>
        <path id="CMR17-34" d="M 2150 4122
C 2150 4256 2144 4256 2029 4256
L 128 1254
L 128 1088
L 1779 1088
L 1779 457
C 1779 224 1766 160 1318 160
L 1197 160
L 1197 0
C 1402 0 1747 0 1965 0
C 2182 0 2528 0 2733 0
L 2733 160
L 2611 160
C 2163 160 2150 224 2150 457
L 2150 1088
L 2803 1088
L 2803 1254
L 2150 1254
L 2150 4122
z
M 1798 3703
L 1798 1254
L 256 1254
L 1798 3703
z
" transform="scale(0.015625)"/>
       </defs>
       <use xlink:href="#CMR17-34" transform="scale(0.996264)"/>
      </g>
     </g>
    </g>
    <g id="ytick_3">
     <g id="line2d_4">
      <g>
       <use xlink:href="#ma5c90c40f3" x="48.745791" y="47.516693" style="stroke: #000000; stroke-width: 0.8"/>
      </g>
     </g>
     <g id="text_6">
      <!-- $\mathdefault{8}$ -->
      <g transform="translate(34.917303 52.359631) scale(0.14 -0.14)">
       <defs>
        <path id="CMR17-38" d="M 1741 2264
C 2144 2467 2554 2773 2554 3263
C 2554 3841 1990 4179 1472 4179
C 890 4179 378 3759 378 3180
C 378 3021 416 2747 666 2505
C 730 2442 998 2251 1171 2130
C 883 1983 211 1634 211 934
C 211 279 838 -128 1459 -128
C 2144 -128 2720 362 2720 1010
C 2720 1590 2330 1857 2074 2029
L 1741 2264
z
M 902 2822
C 851 2854 595 3051 595 3351
C 595 3739 998 4032 1459 4032
C 1965 4032 2336 3676 2336 3262
C 2336 2669 1670 2331 1638 2331
C 1632 2331 1626 2331 1574 2370
L 902 2822
z
M 2080 1519
C 2176 1449 2483 1240 2483 851
C 2483 381 2010 25 1472 25
C 890 25 448 438 448 940
C 448 1443 838 1862 1280 2060
L 2080 1519
z
" transform="scale(0.015625)"/>
       </defs>
       <use xlink:href="#CMR17-38" transform="scale(0.996264)"/>
      </g>
     </g>
    </g>
    <g id="text_7">
     <!-- Total Runtime -->
     <g transform="translate(29.367557 87.582179) rotate(-90) scale(0.08 -0.08)">
      <defs>
       <path id="CMSS17-54" d="M 2317 3968
L 2848 3968
C 2925 3968 3002 3968 3078 3968
L 3878 3968
L 3878 4376
L 218 4376
L 218 3968
L 1018 3968
C 1094 3968 1171 3968 1248 3968
L 1779 3968
L 1779 -32
L 2317 -32
L 2317 3968
z
" transform="scale(0.015625)"/>
       <path id="CMSS17-6f" d="M 2829 1356
C 2829 2176 2221 2816 1504 2816
C 768 2816 173 2157 173 1356
C 173 544 787 -64 1498 -64
C 2227 -64 2829 563 2829 1356
z
M 1504 337
C 1050 337 659 709 659 1408
C 659 2151 1114 2427 1498 2427
C 1914 2427 2342 2126 2342 1408
C 2342 683 1926 337 1504 337
z
" transform="scale(0.015625)"/>
       <path id="CMSS17-6c" d="M 947 4416
L 474 4416
L 474 0
L 947 0
L 947 4416
z
" transform="scale(0.015625)"/>
       <path id="CMSS17-75" d="M 2618 2739
L 2131 2739
L 2131 972
C 2131 498 1786 306 1421 306
C 998 306 960 447 960 709
L 960 2739
L 474 2739
L 474 678
C 474 179 646 -64 1088 -64
C 1306 -64 1798 -13 2144 306
L 2144 0
L 2618 0
L 2618 2739
z
" transform="scale(0.015625)"/>
       <path id="CMSS17-69" d="M 979 4183
L 442 4183
L 442 3648
L 979 3648
L 979 4183
z
M 947 2739
L 474 2739
L 474 0
L 947 0
L 947 2739
z
" transform="scale(0.015625)"/>
       <path id="CMSS17-6d" d="M 4288 1877
C 4288 2308 4179 2816 3462 2816
C 2982 2816 2694 2516 2566 2331
C 2451 2670 2182 2816 1798 2816
C 1363 2816 1088 2568 941 2389
L 941 2758
L 474 2758
L 474 0
L 960 0
L 960 1559
C 960 1939 1101 2428 1555 2428
C 2138 2428 2138 2016 2138 1829
L 2138 0
L 2624 0
L 2624 1559
C 2624 1939 2765 2428 3219 2428
C 3802 2428 3802 2016 3802 1829
L 3802 0
L 4288 0
L 4288 1877
z
" transform="scale(0.015625)"/>
      </defs>
      <use xlink:href="#CMSS17-54" transform="scale(0.996264)"/>
      <use xlink:href="#CMSS17-6f" transform="translate(56.012199 0) scale(0.996264)"/>
      <use xlink:href="#CMSS17-74" transform="translate(102.855822 0) scale(0.996264)"/>
      <use xlink:href="#CMSS17-61" transform="translate(136.687389 0) scale(0.996264)"/>
      <use xlink:href="#CMSS17-6c" transform="translate(181.609309 0) scale(0.996264)"/>
      <use xlink:href="#CMSS17-52" transform="translate(235.019145 0) scale(0.996264)"/>
      <use xlink:href="#CMSS17-75" transform="translate(295.4353 0) scale(0.996264)"/>
      <use xlink:href="#CMSS17-6e" transform="translate(343.640243 0) scale(0.996264)"/>
      <use xlink:href="#CMSS17-74" transform="translate(391.845186 0) scale(0.996264)"/>
      <use xlink:href="#CMSS17-69" transform="translate(425.676753 0) scale(0.996264)"/>
      <use xlink:href="#CMSS17-6d" transform="translate(447.857476 0) scale(0.996264)"/>
      <use xlink:href="#CMSS17-65" transform="translate(522.08673 0) scale(0.996264)"/>
     </g>
    </g>
   </g>
   <g id="patch_9">
    <path d="M 48.745791 98.676
L 48.745791 25.415279
" style="fill: none; stroke: #000000; stroke-width: 0.8; stroke-linejoin: miter; stroke-linecap: square"/>
   </g>
   <g id="patch_10">
    <path d="M 244.045791 98.676
L 244.045791 25.415279
" style="fill: none; stroke: #000000; stroke-width: 0.8; stroke-linejoin: miter; stroke-linecap: square"/>
   </g>
   <g id="patch_11">
    <path d="M 48.745791 98.676
L 244.045791 98.676
" style="fill: none; stroke: #000000; stroke-width: 0.8; stroke-linejoin: miter; stroke-linecap: square"/>
   </g>
   <g id="patch_12">
    <path d="M 48.745791 25.415279
L 244.045791 25.415279
" style="fill: none; stroke: #000000; stroke-width: 0.8; stroke-linejoin: miter; stroke-linecap: square"/>
   </g>
  </g>
 </g>
 <defs>
  <clipPath id="pdd232b6aa5">
   <rect x="48.745791" y="7.2" width="195.3" height="17.760175"/>
  </clipPath>
  <clipPath id="p7d59fc486f">
   <rect x="48.745791" y="25.415279" width="195.3" height="73.260721"/>
  </clipPath>
 </defs>
</svg>
